<svg xmlns="http://www.w3.org/2000/svg" xmlns:xlink="http://www.w3.org/1999/xlink" contentStyleType="text/css" data-diagram-type="CHEN_EER" height="738px" preserveAspectRatio="none" style="width:1388px;height:738px;background:#FFFFFF;" version="1.1" viewBox="0 0 1388 738" width="1388px" zoomAndPan="magnify"><defs/><g><g><polygon fill="#F1F1F1" points="1198.23,297.1457,1247.6813,272.42,1297.1327,297.1457,1247.6813,321.8713" style="stroke:#181818;stroke-width:0.5;"/><polygon fill="#F1F1F1" points="1208.23,297.1457,1247.6813,277.42,1287.1327,297.1457,1247.6813,316.8713" style="stroke:#181818;stroke-width:0.5;"/><text fill="#000000" font-family="sans-serif" font-size="14" lengthAdjust="spacing" textLength="43.9482" x="1225.7072" y="301.9923">Merge</text></g><g><rect fill="#F1F1F1" height="36.2969" style="stroke:#181818;stroke-width:0.5;" width="127.4131" x="1109.98" y="482.42"/><rect fill="#F1F1F1" height="30.2969" style="stroke:#181818;stroke-width:0.5;" width="121.4131" x="1112.98" y="485.42"/><text fill="#000000" font-family="sans-serif" font-size="14" lengthAdjust="spacing" textLength="107.4131" x="1119.98" y="505.4151">PULL_REQUEST</text></g><g><ellipse cx="1367.6931" cy="404.1785" fill="#F1F1F1" rx="15.0231" ry="12.6185" style="stroke:#181818;stroke-width:0.5;"/><text fill="#000000" font-family="sans-serif" font-size="14" lengthAdjust="spacing" text-decoration="underline" textLength="12.7764" x="1361.3049" y="410.5551">id</text></g><g><ellipse cx="1050.6943" cy="404.1836" fill="#F1F1F1" rx="22.3543" ry="14.5236" style="stroke:#181818;stroke-width:0.5;"/><text fill="#000000" font-family="sans-serif" font-size="14" lengthAdjust="spacing" textLength="27.3711" x="1037.0087" y="408.6551">title</text></g><g><ellipse cx="1173.6904" cy="404.1801" fill="#F1F1F1" rx="65.7504" ry="15.5501" style="stroke:#181818;stroke-width:0.5;"/><ellipse cx="1173.6904" cy="404.1801" fill="#F1F1F1" rx="62.7504" ry="12.5501" style="stroke:#181818;stroke-width:0.5;"/><text fill="#000000" font-family="sans-serif" font-size="14" lengthAdjust="spacing" textLength="95.4502" x="1125.9653" y="407.6251">pr_comments</text></g><g><rect fill="#F1F1F1" height="36.2969" style="stroke:#181818;stroke-width:0.5;" width="134.126" x="417.62" y="482.42"/><text fill="#000000" font-family="sans-serif" font-size="14" lengthAdjust="spacing" textLength="114.126" x="427.62" y="505.4151">USER_ACCOUNT</text></g><g><ellipse cx="532.6867" cy="404.1836" fill="#F1F1F1" rx="52.6667" ry="14.5236" style="stroke:#181818;stroke-width:0.5;"/><text fill="#000000" font-family="sans-serif" font-size="14" lengthAdjust="spacing" text-decoration="underline" textLength="70.2393" x="497.567" y="408.6551">username</text></g><g><polygon fill="#F1F1F1" points="496.08,297.1416,553.6832,268.34,611.2864,297.1416,553.6832,325.9432" style="stroke:#181818;stroke-width:0.5;"/><text fill="#000000" font-family="sans-serif" font-size="14" lengthAdjust="spacing" textLength="60.252" x="523.5572" y="301.9883">Maintain</text></g><g><polygon fill="#F1F1F1" points="617.16,707.9545,663.689,684.69,710.2179,707.9545,663.689,731.219" style="stroke:#181818;stroke-width:0.5;"/><text fill="#000000" font-family="sans-serif" font-size="14" lengthAdjust="spacing" textLength="38.1035" x="644.6372" y="712.8012">Raise</text></g><g><rect fill="#F1F1F1" height="36.2969" style="stroke:#181818;stroke-width:0.5;" width="60.9951" x="743.19" y="482.42"/><text fill="#000000" font-family="sans-serif" font-size="14" lengthAdjust="spacing" textLength="40.9951" x="753.19" y="505.4151">ISSUE</text></g><g><ellipse cx="635.6931" cy="404.1785" fill="#F1F1F1" rx="15.0231" ry="12.6185" style="stroke:#181818;stroke-width:0.5;"/><text fill="#000000" font-family="sans-serif" font-size="14" lengthAdjust="spacing" text-decoration="underline" textLength="12.7764" x="629.3049" y="410.5551">id</text></g><g><ellipse cx="707.6943" cy="404.1836" fill="#F1F1F1" rx="22.3543" ry="14.5236" style="stroke:#181818;stroke-width:0.5;"/><text fill="#000000" font-family="sans-serif" font-size="14" lengthAdjust="spacing" textLength="27.3711" x="694.0087" y="408.6551">title</text></g><g><ellipse cx="839.6857" cy="404.1791" fill="#F1F1F1" rx="74.1957" ry="17.2391" style="stroke:#181818;stroke-width:0.5;"/><ellipse cx="839.6857" cy="404.1791" fill="#F1F1F1" rx="71.1957" ry="14.2391" style="stroke:#181818;stroke-width:0.5;"/><text fill="#000000" font-family="sans-serif" font-size="14" lengthAdjust="spacing" textLength="116.7715" x="781.2999" y="405.9351">issue_comments</text></g><g><rect fill="#F1F1F1" height="36.2969" style="stroke:#181818;stroke-width:0.5;" width="92.8232" x="144.27" y="482.42"/><text fill="#000000" font-family="sans-serif" font-size="14" lengthAdjust="spacing" textLength="72.8232" x="154.27" y="505.4151">COMMENT</text></g><g><ellipse cx="81.6931" cy="404.1785" fill="#F1F1F1" rx="15.0231" ry="12.6185" style="stroke:#181818;stroke-width:0.5;"/><text fill="#000000" font-family="sans-serif" font-size="14" lengthAdjust="spacing" text-decoration="underline" textLength="12.7764" x="75.3049" y="410.5551">id</text></g><g><ellipse cx="190.6865" cy="404.1836" fill="#F1F1F1" rx="59.0665" ry="14.5236" style="stroke:#181818;stroke-width:0.5;"/><text fill="#000000" font-family="sans-serif" font-size="14" lengthAdjust="spacing" text-decoration="underline" textLength="79.29" x="151.0415" y="408.6551">commentid</text></g><g><ellipse cx="325.6913" cy="404.1836" fill="#F1F1F1" rx="40.9013" ry="14.5236" style="stroke:#181818;stroke-width:0.5;"/><text fill="#000000" font-family="sans-serif" font-size="14" lengthAdjust="spacing" textLength="53.6006" x="298.891" y="408.6551">content</text></g><g><polygon fill="#F1F1F1" points="877.51,297.1465,925.683,273.06,973.856,297.1465,925.683,321.233" style="stroke:#181818;stroke-width:0.5;"/><text fill="#000000" font-family="sans-serif" font-size="14" lengthAdjust="spacing" textLength="41.3916" x="904.9872" y="301.9932">About</text></g><g><polygon fill="#F1F1F1" points="239.01,297.1387,279.6874,276.8,320.3648,297.1387,279.6874,317.4774" style="stroke:#181818;stroke-width:0.5;"/><text fill="#000000" font-family="sans-serif" font-size="14" lengthAdjust="spacing" textLength="26.4004" x="266.4872" y="301.9854">Has</text></g><g><polygon fill="#F1F1F1" points="267.31,707.9464,309.6827,686.76,352.0554,707.9464,309.6827,729.1327" style="stroke:#181818;stroke-width:0.5;"/><text fill="#000000" font-family="sans-serif" font-size="14" lengthAdjust="spacing" textLength="29.791" x="294.7872" y="712.793">Post</text></g><g><ellipse cx="449.6947" cy="601.5309" fill="#F1F1F1" rx="97.0547" ry="21.8109" style="stroke:#181818;stroke-width:0.5;"/><text fill="#000000" font-family="sans-serif" font-size="14" lengthAdjust="spacing" textLength="169.5449" x="364.9223" y="598.7151">comment_creation_date</text></g><g><rect fill="#F1F1F1" height="36.2969" style="stroke:#181818;stroke-width:0.5;" width="56.9004" x="594.24" y="96.04"/><text fill="#000000" font-family="sans-serif" font-size="14" lengthAdjust="spacing" textLength="36.9004" x="604.24" y="119.0351">POST</text></g><g><ellipse cx="574.6931" cy="20.5185" fill="#F1F1F1" rx="15.0231" ry="12.6185" style="stroke:#181818;stroke-width:0.5;"/><text fill="#000000" font-family="sans-serif" font-size="14" lengthAdjust="spacing" text-decoration="underline" textLength="12.7764" x="568.3049" y="26.8951">id</text></g><g><ellipse cx="670.6856" cy="20.5236" fill="#F1F1F1" rx="45.5756" ry="14.5236" style="stroke:#181818;stroke-width:0.5;"/><ellipse cx="670.6856" cy="20.5236" fill="#F1F1F1" rx="42.5756" ry="11.5236" style="stroke:#181818;stroke-width:0.5;"/><text fill="#000000" font-family="sans-serif" font-size="14" lengthAdjust="spacing" textLength="60.2109" x="640.5801" y="24.9951">commits</text></g><g><polygon fill="#F1F1F1" points="970.47,707.9497,1017.6894,684.34,1064.9088,707.9497,1017.6894,731.5594" style="stroke:#181818;stroke-width:0.5;"/><polygon fill="#F1F1F1" points="980.47,707.9497,1017.6894,689.34,1054.9088,707.9497,1017.6894,726.5594" style="stroke:#181818;stroke-width:0.5;"/><text fill="#000000" font-family="sans-serif" font-size="14" lengthAdjust="spacing" textLength="39.4844" x="997.9472" y="712.7964">Enact</text></g><!--link PULL_REQUEST/id to PULL_REQUEST--><g class="link" data-entity-1="ent0004" data-entity-2="ent0003" data-link-type="association" data-source-line="6" id="lnk5"><path d="M1362.77,416.6 C1357.56,427.37 1348.34,443.21 1335.69,452.42 C1307.15,473.2 1269.59,484.86 1237.81,491.39" fill="none" id="PULL_REQUEST/id-PULL_REQUEST" style="stroke:#181818;stroke-width:1;"/></g><!--link PULL_REQUEST/title to PULL_REQUEST--><g class="link" data-entity-1="ent0006" data-entity-2="ent0003" data-link-type="association" data-source-line="7" id="lnk7"><path d="M1064.32,415.64 C1085.21,431.68 1125.39,462.51 1150.8,482.01" fill="none" id="PULL_REQUEST/title-PULL_REQUEST" style="stroke:#181818;stroke-width:1;"/></g><!--link PULL_REQUEST/pr_comments to PULL_REQUEST--><g class="link" data-entity-1="ent0008" data-entity-2="ent0003" data-link-type="association" data-source-line="8" id="lnk9"><path d="M1173.69,419.93 C1173.69,436.73 1173.69,464.16 1173.69,482.04" fill="none" id="PULL_REQUEST/pr_comments-PULL_REQUEST" style="stroke:#181818;stroke-width:1;"/></g><!--link USER_ACCOUNT/username to USER_ACCOUNT--><g class="link" data-entity-1="ent0011" data-entity-2="ent0010" data-link-type="association" data-source-line="11" id="lnk12"><path d="M525.81,418.71 C517.31,435.43 502.82,463.91 493.51,482.22" fill="none" id="USER_ACCOUNT/username-USER_ACCOUNT" style="stroke:#181818;stroke-width:1;"/></g><!--link ISSUE/id to ISSUE--><g class="link" data-entity-1="ent0016" data-entity-2="ent0015" data-link-type="association" data-source-line="20" id="lnk17"><path d="M646.98,412.91 C668.93,427.92 717.85,461.38 748.07,482.05" fill="none" id="ISSUE/id-ISSUE" style="stroke:#181818;stroke-width:1;"/></g><!--link ISSUE/title to ISSUE--><g class="link" data-entity-1="ent0018" data-entity-2="ent0015" data-link-type="association" data-source-line="21" id="lnk19"><path d="M716.59,417.91 C728.2,434.52 748.56,463.64 761.57,482.25" fill="none" id="ISSUE/title-ISSUE" style="stroke:#181818;stroke-width:1;"/></g><!--link ISSUE/issue_comments to ISSUE--><g class="link" data-entity-1="ent0020" data-entity-2="ent0015" data-link-type="association" data-source-line="22" id="lnk21"><path d="M828.19,421.62 C816.37,438.53 798.03,464.75 785.94,482.04" fill="none" id="ISSUE/issue_comments-ISSUE" style="stroke:#181818;stroke-width:1;"/></g><!--link COMMENT/id to COMMENT--><g class="link" data-entity-1="ent0023" data-entity-2="ent0022" data-link-type="association" data-source-line="26" id="lnk24"><path d="M91.74,413.89 C109.56,429.32 146.97,461.72 170.34,481.96" fill="none" id="COMMENT/id-COMMENT" style="stroke:#181818;stroke-width:1;"/></g><!--link COMMENT/commentid to COMMENT--><g class="link" data-entity-1="ent0025" data-entity-2="ent0022" data-link-type="association" data-source-line="27" id="lnk26"><path d="M190.69,419.11 C190.69,435.83 190.69,463.88 190.69,482.05" fill="none" id="COMMENT/commentid-COMMENT" style="stroke:#181818;stroke-width:1;"/></g><!--link COMMENT/content to COMMENT--><g class="link" data-entity-1="ent0027" data-entity-2="ent0022" data-link-type="association" data-source-line="28" id="lnk28"><path d="M307.76,417.72 C284.09,434.27 242.3,463.49 215.58,482.17" fill="none" id="COMMENT/content-COMMENT" style="stroke:#181818;stroke-width:1;"/></g><!--link Post/comment_creation_date to Post--><g class="link" data-entity-1="ent0032" data-entity-2="ent0031" data-link-type="association" data-source-line="37" id="lnk33"><path d="M422.36,622.91 C393.71,644.28 349.65,677.15 326.01,694.78" fill="none" id="Post/comment_creation_date-Post" style="stroke:#181818;stroke-width:1;"/></g><!--link POST/id to POST--><g class="link" data-entity-1="ent0035" data-entity-2="ent0034" data-link-type="association" data-source-line="43" id="lnk36"><path d="M580.38,32.4 C588.58,48.05 603.78,77.09 613.56,95.76" fill="none" id="POST/id-POST" style="stroke:#181818;stroke-width:1;"/></g><!--link POST/commits to POST--><g class="link" data-entity-1="ent0037" data-entity-2="ent0034" data-link-type="association" data-source-line="44" id="lnk38"><path d="M663.6,35.05 C655.15,51.18 641.01,78.19 631.77,95.85" fill="none" id="POST/commits-POST" style="stroke:#181818;stroke-width:1;"/></g><!--link POST to About--><g class="link" data-entity-1="ent0034" data-entity-2="ent0029" data-link-type="association" data-source-line="51" id="lnk40"><path d="M651.46,132.38 C711.88,168.46 850.76,251.4 904.19,283.31" fill="none" id="POST-About" style="stroke:#181818;stroke-width:1;"/><text fill="#000000" font-family="sans-serif" font-size="11" lengthAdjust="spacing" textLength="6.9985" x="778.69" y="204.5504">1</text></g><!--link POST to Has--><g class="link" data-entity-1="ent0034" data-entity-2="ent0030" data-link-type="association" data-source-line="52" id="lnk41"><path d="M593.74,130.46 C525.42,166.51 355.63,256.08 298.66,286.13" fill="none" id="POST-Has" style="stroke:#181818;stroke-width:1;"/><text fill="#000000" font-family="sans-serif" font-size="11" lengthAdjust="spacing" textLength="6.9985" x="475.69" y="204.5504">1</text></g><!--link POST to Maintain--><g class="link" data-entity-1="ent0034" data-entity-2="ent0013" data-link-type="association" data-source-line="53" id="lnk42"><path d="M616.07,132.54 C603.66,165.09 576.86,235.37 562.77,272.32" fill="none" id="POST-Maintain" style="stroke:#181818;stroke-width:2;"/><text fill="#000000" font-family="sans-serif" font-size="11" lengthAdjust="spacing" textLength="8.2285" x="594.69" y="204.5504">N</text></g><!--link POST to Merge--><g class="link" data-entity-1="ent0034" data-entity-2="ent0002" data-link-type="association" data-source-line="54" id="lnk43"><path d="M651.58,123.56 C755.65,153.69 1110.82,256.52 1217.28,287.34" fill="none" id="POST-Merge" style="stroke:#181818;stroke-width:1;"/><text fill="#000000" font-family="sans-serif" font-size="11" lengthAdjust="spacing" textLength="8.2285" x="941.69" y="204.5504">N</text></g><!--link About to ISSUE--><g class="link" data-entity-1="ent0029" data-entity-2="ent0015" data-link-type="association" data-source-line="56" id="lnk44"><path d="M933.05,317.79 C941.4,343.65 951.47,389.57 931.69,421.42 C903.92,466.14 842.14,486.04 804.59,494.29" fill="none" id="About-ISSUE" style="stroke:#181818;stroke-width:2;"/><text fill="#000000" font-family="sans-serif" font-size="11" lengthAdjust="spacing" textLength="8.2285" x="943.69" y="408.3904">N</text></g><!--link Has to COMMENT--><g class="link" data-entity-1="ent0030" data-entity-2="ent0022" data-link-type="association" data-source-line="57" id="lnk45"><path d="M242.55,299.43 C187.33,303.57 85.1,320.37 38.69,386.94 C6,433.82 87.97,469.01 143.83,486.74" fill="none" id="Has-COMMENT" style="stroke:#181818;stroke-width:2;"/><text fill="#000000" font-family="sans-serif" font-size="11" lengthAdjust="spacing" textLength="8.2285" x="39.69" y="408.3904">N</text></g><!--link Maintain to USER_ACCOUNT--><g class="link" data-entity-1="ent0013" data-entity-2="ent0010" data-link-type="association" data-source-line="58" id="lnk46"><path d="M527.35,312.86 C503.35,327.94 469.46,353.84 454.69,386.94 C440.33,419.09 459.35,459.57 473.01,482.2" fill="none" id="Maintain-USER_ACCOUNT" style="stroke:#181818;stroke-width:1;"/><text fill="#000000" font-family="sans-serif" font-size="11" lengthAdjust="spacing" textLength="6.9985" x="455.69" y="408.3904">1</text></g><!--link Merge to PULL_REQUEST--><g class="link" data-entity-1="ent0002" data-entity-2="ent0003" data-link-type="association" data-source-line="59" id="lnk47"><path d="M1254.82,318.75 C1262.33,344.05 1271.24,387.73 1256.69,421.42 C1245.62,447.04 1221.56,468.15 1202.19,481.94" fill="none" id="Merge-PULL_REQUEST" style="stroke:#181818;stroke-width:1;"/><text fill="#000000" font-family="sans-serif" font-size="11" lengthAdjust="spacing" textLength="6.9985" x="1264.69" y="408.3904">1</text></g><!--link ISSUE to Raise--><g class="link" data-entity-1="ent0015" data-entity-2="ent0014" data-link-type="association" data-source-line="61" id="lnk48"><path d="M764.31,519.08 C743.58,557.79 694.05,650.26 673.2,689.19" fill="none" id="ISSUE-Raise" style="stroke:#181818;stroke-width:2;"/><text fill="#000000" font-family="sans-serif" font-size="11" lengthAdjust="spacing" textLength="8.2285" x="732.69" y="605.7404">N</text></g><!--link ISSUE to Enact--><g class="link" data-entity-1="ent0015" data-entity-2="ent0039" data-link-type="association" data-source-line="62" id="lnk49"><path d="M794.49,519.08 C841.85,558.95 957,655.87 1000.59,692.56" fill="none" id="ISSUE-Enact" style="stroke:#181818;stroke-width:1;"/><text fill="#000000" font-family="sans-serif" font-size="11" lengthAdjust="spacing" textLength="6.9985" x="917.69" y="605.7404">1</text></g><!--link COMMENT to Post--><g class="link" data-entity-1="ent0022" data-entity-2="ent0031" data-link-type="association" data-source-line="63" id="lnk50"><path d="M199.72,519.12 C212.1,542.97 235.26,586.84 256.69,623.34 C270.87,647.5 288.48,674.79 299.4,691.43" fill="none" id="COMMENT-Post" style="stroke:#181818;stroke-width:2;"/><text fill="#000000" font-family="sans-serif" font-size="11" lengthAdjust="spacing" textLength="8.2285" x="257.69" y="605.7404">N</text></g><!--link USER_ACCOUNT to Raise--><g class="link" data-entity-1="ent0010" data-entity-2="ent0014" data-link-type="association" data-source-line="64" id="lnk51"><path d="M504.16,519.19 C520.83,534.6 545.15,557.86 564.69,579.72 C598.44,617.5 633.95,665.46 651.86,690.32" fill="none" id="USER_ACCOUNT-Raise" style="stroke:#181818;stroke-width:1;"/><text fill="#000000" font-family="sans-serif" font-size="11" lengthAdjust="spacing" textLength="6.9985" x="602.69" y="605.7404">1</text></g><!--link USER_ACCOUNT to Post--><g class="link" data-entity-1="ent0010" data-entity-2="ent0031" data-link-type="association" data-source-line="65" id="lnk52"><path d="M417.21,518.74 C384.74,530.52 348.27,549.63 326.69,579.72 C303.57,611.95 304.38,660.87 307.02,687.69" fill="none" id="USER_ACCOUNT-Post" style="stroke:#181818;stroke-width:1;"/><text fill="#000000" font-family="sans-serif" font-size="11" lengthAdjust="spacing" textLength="6.9985" x="327.69" y="605.7404">1</text></g><!--link PULL_REQUEST to Enact--><g class="link" data-entity-1="ent0003" data-entity-2="ent0039" data-link-type="association" data-source-line="66" id="lnk53"><path d="M1160.38,519.08 C1130.69,558.17 1059.33,652.12 1030.3,690.35" fill="none" id="PULL_REQUEST-Enact" style="stroke:#181818;stroke-width:1;"/><text fill="#000000" font-family="sans-serif" font-size="11" lengthAdjust="spacing" textLength="6.9985" x="1115.69" y="605.7404">1</text></g><!--SRC=[xLLDR-8m4BtFh_2jxO6sLBkhLTKYkZJxmH9W2UaLcMG85ec3R8SAhVZlEtO2D82swfr8aJBZv-VdUJDAMnkkJ3H72JSNASuCCpbJ8faR5Wk5aH6vlBW1XIctdtekbin7bI1xU10nIYDcQo6JLelzXGs0JPWr6uQztcJa_GczO4p0L-GBXs3qY9Wo2rotMYuaV8hkQwacKPvbHA49aHMf4OJPR3d3m1jDdZgTGTWVLrI5HYLvXZl2pO5GBgIXjzHMMnfneR6c-LSGXDvx6eNM1PwMkUNf37pVsqayOAfs7cMbeUoHoATfNfWJudzoxRArv33NfZgqEcKIANJhavWRj2nxWmR1VnIAmwlL3l8aZynf-y7nDfgDKle-9CLbyDX_tDbIBVSRPKS1bFUr46S6s7lQg2efxFoqb6_x0SgMjEcthGTGccevdE5LR77k5h0roo9i0Q7MPHPNxZjAEt2jpVUaq4OPkv62zdwypYDq7g7p27ryX8OfboRqUso5IbC1MVFwxlRkytMpEKN3cxUNeLp8_5NQiYz5YjHg6Lx1vOzXZ-cyK17IdqmR9QQ5hVyLTFcAir4XBUwU3POeky-_jmawVoLKBgtvq7tnzu0ldnhVX641AXB2NdnunXadVsb7bCVau3qBnzyRNw77PLBmXBX9VYSdNhMcjU0V]--></g></svg>