<svg xmlns="http://www.w3.org/2000/svg" xmlns:xlink="http://www.w3.org/1999/xlink" contentStyleType="text/css" data-diagram-type="DESCRIPTION" height="789px" preserveAspectRatio="none" style="width:511px;height:789px;background:#FFFFFF;" version="1.1" viewBox="0 0 511 789" width="511px" zoomAndPan="magnify"><defs/><g><!--cluster pl--><g class="cluster" data-qualified-name="pl" data-source-line="2" id="ent0002"><rect fill="none" height="139" rx="2.5" ry="2.5" style="stroke:#181818;stroke-width:1;" width="173.13" x="115.63" y="7"/><text fill="#000000" font-family="sans-serif" font-size="14" font-weight="bold" lengthAdjust="spacing" textLength="150.4385" x="126.9758" y="21.9951">Presentation Layer</text><text fill="#000000" font-family="sans-serif" font-size="14" font-weight="bold" lengthAdjust="spacing" textLength="90.8359" x="156.777" y="38.292">(Front-end)</text></g><!--cluster bl--><g class="cluster" data-qualified-name="bl" data-source-line="5" id="ent0004"><rect fill="none" height="409" rx="2.5" ry="2.5" style="stroke:#181818;stroke-width:1;" width="412.36" x="92.81" y="186"/><text fill="#000000" font-family="sans-serif" font-size="14" font-weight="bold" lengthAdjust="spacing" textLength="118.665" x="239.6575" y="200.9951">Business Layer</text><text fill="#000000" font-family="sans-serif" font-size="14" font-weight="bold" lengthAdjust="spacing" textLength="85.8184" x="256.0808" y="217.292">(Back-end)</text></g><g class="cluster" data-qualified-name="bl...5" data-source-line="6" id="ent0006"><rect fill="none" height="210" rx="2.5" ry="2.5" style="stroke:#181818;stroke-width:1;" width="336.62" x="136.55" y="353"/></g><g class="cluster" data-qualified-name="bl...13" data-source-line="14" id="ent0014"><rect fill="none" height="68" rx="2.5" ry="2.5" style="stroke:#181818;stroke-width:1;" width="154.77" x="124.81" y="261"/></g><!--cluster dl--><g class="cluster" data-qualified-name="dl" data-source-line="19" id="ent0016"><rect fill="none" height="148" rx="2.5" ry="2.5" style="stroke:#181818;stroke-width:1;" width="223.87" x="90.26" y="635"/><text fill="#000000" font-family="sans-serif" font-size="14" font-weight="bold" lengthAdjust="spacing" textLength="131.8926" x="136.2487" y="649.9951">Data store Layer</text><text fill="#000000" font-family="sans-serif" font-size="14" font-weight="bold" lengthAdjust="spacing" textLength="87.3018" x="158.5441" y="666.292">(Database)</text></g><!--entity Web Aplication--><g class="entity" data-qualified-name="pl.Web Aplication" data-source-line="3" id="ent0003"><rect fill="#F1F1F1" height="36.2969" rx="2.5" ry="2.5" style="stroke:#181818;stroke-width:0.5;" width="125.1299" x="139.63" y="85.85"/><text fill="#000000" font-family="sans-serif" font-size="14" lengthAdjust="spacing" textLength="105.1299" x="149.63" y="108.8451">Web Aplication</text></g><!--entity Content--><g class="entity" data-qualified-name="bl...5.Content" data-source-line="7" id="ent0007"><rect fill="#F1F1F1" height="36.2969" rx="2.5" ry="2.5" style="stroke:#181818;stroke-width:0.5;" width="75.6787" x="164.35" y="510.85"/><text fill="#000000" font-family="sans-serif" font-size="14" lengthAdjust="spacing" textLength="55.6787" x="174.35" y="533.8451">Content</text></g><!--entity Article--><g class="entity" data-qualified-name="bl...5.Article" data-source-line="8" id="ent0008"><rect fill="#F1F1F1" height="36.2969" rx="2.5" ry="2.5" style="stroke:#181818;stroke-width:0.5;" width="64.9121" x="169.74" y="439.85"/><text fill="#000000" font-family="sans-serif" font-size="14" lengthAdjust="spacing" textLength="44.9121" x="179.74" y="462.8451">Article</text></g><!--entity Moderation--><g class="entity" data-qualified-name="bl...5.Moderation" data-source-line="9" id="ent0009"><rect fill="#F1F1F1" height="36.2969" rx="2.5" ry="2.5" style="stroke:#181818;stroke-width:0.5;" width="99.2969" x="152.55" y="368.85"/><text fill="#000000" font-family="sans-serif" font-size="14" lengthAdjust="spacing" textLength="79.2969" x="162.55" y="391.8451">Moderation</text></g><!--entity Notes--><g class="entity" data-qualified-name="bl...5.Notes" data-source-line="10" id="ent0010"><rect fill="#F1F1F1" height="36.2969" rx="2.5" ry="2.5" style="stroke:#181818;stroke-width:0.5;" width="60.4346" x="373.43" y="510.85"/><text fill="#000000" font-family="sans-serif" font-size="14" lengthAdjust="spacing" textLength="40.4346" x="383.43" y="533.8451">Notes</text></g><!--entity Pull Request--><g class="entity" data-qualified-name="bl...5.Pull Request" data-source-line="11" id="ent0011"><rect fill="#F1F1F1" height="36.2969" rx="2.5" ry="2.5" style="stroke:#181818;stroke-width:0.5;" width="107.042" x="350.13" y="439.85"/><text fill="#000000" font-family="sans-serif" font-size="14" lengthAdjust="spacing" textLength="87.042" x="360.13" y="462.8451">Pull Request</text></g><!--entity Issues--><g class="entity" data-qualified-name="bl...5.Issues" data-source-line="12" id="ent0012"><rect fill="#F1F1F1" height="36.2969" rx="2.5" ry="2.5" style="stroke:#181818;stroke-width:0.5;" width="63.4971" x="371.9" y="368.85"/><text fill="#000000" font-family="sans-serif" font-size="14" lengthAdjust="spacing" textLength="43.4971" x="381.9" y="391.8451">Issues</text></g><!--entity Authentication--><g class="entity" data-qualified-name="bl...13.Authentication" data-source-line="15" id="ent0015"><rect fill="#F1F1F1" height="36.2969" rx="2.5" ry="2.5" style="stroke:#181818;stroke-width:0.5;" width="122.7715" x="140.81" y="276.85"/><text fill="#000000" font-family="sans-serif" font-size="14" lengthAdjust="spacing" textLength="102.7715" x="150.81" y="299.8451">Authentication</text></g><!--entity database--><g class="entity" data-qualified-name="dl.database" data-source-line="20" id="ent0017"><path d="M114.26,723.35 C114.26,713.35 202.1931,713.35 202.1931,713.35 C202.1931,713.35 290.1262,713.35 290.1262,723.35 L290.1262,748.6469 C290.1262,758.6469 202.1931,758.6469 202.1931,758.6469 C202.1931,758.6469 114.26,758.6469 114.26,748.6469 L114.26,723.35" fill="#F1F1F1" style="stroke:#181818;stroke-width:0.5;"/><path d="M114.26,723.35 C114.26,733.35 202.1931,733.35 202.1931,733.35 C202.1931,733.35 290.1262,733.35 290.1262,723.35" fill="none" style="stroke:#181818;stroke-width:0.5;"/><text fill="#000000" font-family="sans-serif" font-size="14" lengthAdjust="spacing" textLength="155.8662" x="124.26" y="750.3451">Centralized data store</text></g><!--link dl to bl--><g class="link" data-entity-1="ent0016" data-entity-2="ent0004" data-link-type="dependency" data-source-line="24" id="lnk18"><path d="M123.5047,631.1309 C119.5353,628.1474 117.4146,626.3735 113.4668,623.1249 C105.5712,616.6276 97.7979,609.6076 90.4636,602.0942 C75.795,587.0675 62.8825,570.0675 54.26,551.33 C41.32,523.21 38.84,299.52 54.26,272.67 C62.395,258.505 75.0525,248.6112 89.6153,241.7575 C90.5255,241.3291 85.9472,243.3199 86.8716,242.915" fill="none" id="dl-bl" style="stroke:#181818;stroke-width:1;"/><polygon fill="#181818" points="128.3371,634.6874,123.4594,626.1311,124.3101,631.7237,118.7175,632.5743,128.3371,634.6874" style="stroke:#181818;stroke-width:1;"/><polygon fill="#181818" points="92.3675,240.5077,82.5188,240.4547,87.7876,242.5138,85.7285,247.7826,92.3675,240.5077" style="stroke:#181818;stroke-width:1;"/></g><!--link dl to bl--><g class="link" data-entity-1="ent0016" data-entity-2="ent0004" data-link-type="dependency" data-source-line="25" id="lnk19"><path d="M118.4969,631.4562 C116.2235,629.9037 118.8949,631.6954 116.6074,630.0643 C112.0323,626.8021 107.4408,623.3836 102.8799,619.812 C93.7582,612.6688 84.759,604.913 76.2589,596.5702 C59.2588,579.8844 44.255,560.85 34.26,539.67 C10.05,488.35 6,333.54 34.26,284.33 C43.5875,268.0925 58.005,256.4519 74.5572,248.1394 C78.6952,246.0613 82.9667,244.1911 87.3254,242.5092 C88.4151,242.0887 89.5102,241.68 90.6101,241.2827 C91.16,241.0841 86.0469,242.8675 86.5991,242.6745" fill="none" id="dl-bl-1" style="stroke:#181818;stroke-width:1;"/><polygon fill="#181818" points="123.4518,634.8399,118.2753,626.4612,119.3227,632.0202,113.7637,633.0676,123.4518,634.8399" style="stroke:#181818;stroke-width:1;"/><polygon fill="#181818" points="92.2633,240.6954,82.4476,239.888,87.5432,242.3447,85.0865,247.4402,92.2633,240.6954" style="stroke:#181818;stroke-width:1;"/></g><!--link bl to pl--><g class="link" data-entity-1="ent0004" data-entity-2="ent0002" data-link-type="dependency" data-source-line="26" id="lnk20"><path d="M105.686,182.2456 C64.6635,155.7044 31.875,120.645 54.26,81.67 C62.24,67.7775 74.8163,58.7075 89.3453,52.9506 C96.6098,50.0722 104.3626,48.022 112.2731,46.6115 C113.2619,46.4352 108.3265,47.204 109.3196,47.0473" fill="none" id="bl-pl" style="stroke:#181818;stroke-width:1;"/><polygon fill="#181818" points="110.7699,185.4322,105.2685,177.2631,106.5333,182.7767,101.0197,184.0416,110.7699,185.4322" style="stroke:#181818;stroke-width:1;"/><polygon fill="#181818" points="115.2463,46.1121,105.7328,43.5638,110.3074,46.8914,106.9797,51.466,115.2463,46.1121" style="stroke:#181818;stroke-width:1;"/></g><!--link bl to pl--><g class="link" data-entity-1="ent0004" data-entity-2="ent0002" data-link-type="dependency" data-source-line="27" id="lnk21"><path d="M87.2904,185.6932 C85.8676,184.9429 88.7029,186.4008 87.2996,185.6318 C84.4929,184.0937 81.7283,182.5184 79.019,180.9065 C73.6004,177.6827 68.4033,174.3124 63.5339,170.8005 C53.7952,163.7767 45.3675,156.1863 39.1019,148.068 C26.5706,131.8313 22.6875,113.4825 34.26,93.33 C43.4075,77.405 57.7306,66.6088 74.2434,59.4014 C82.4998,55.7977 91.3037,53.0913 100.2817,51.0896 C104.7707,50.0887 109.3032,49.2641 113.8327,48.5915 C114.3989,48.5075 109.0231,49.2589 109.5891,49.1796" fill="none" id="bl-pl-1" style="stroke:#181818;stroke-width:1;"/><polygon fill="#181818" points="92.6081,188.4719,86.4839,180.7587,88.1767,186.1563,82.779,187.8491,92.6081,188.4719" style="stroke:#181818;stroke-width:1;"/><polygon fill="#181818" points="115.531,48.3464,106.0627,45.6349,110.5794,49.0407,107.1736,53.5574,115.531,48.3464" style="stroke:#181818;stroke-width:1;"/></g><!--SRC=[ZL0nJiGm4EppYbKgAEu722bt20a9qEaQ2g3OnCkTXMNdTjS5eFixJXn201UuyNf6CxCUHoyA6e3j_g1WB5EdDlXgkD7l7K6zPHBoYWCEj_X6_EJFhZbuNP4tvpMWGEy-AaXd8NkW5fhUsMuKrjLfwRcEOZs9p7vhx5w_xTe_TldzAsAJTaYRrIMkORMTeo9t5mpnj5Q1lWzAKcIsqJdOqJ6Ib5DlHEANzlIVBpHH3-aBSqjP-BEiArG4qS0qrpL0BGhbkeoRpCq4pyFZ26zI0gEpxsH69fizfvGgIIzMbwdmnTJcgLzCdm00]--></g></svg>