<svg xmlns="http://www.w3.org/2000/svg" xmlns:xlink="http://www.w3.org/1999/xlink" contentStyleType="text/css" data-diagram-type="DESCRIPTION" height="671px" preserveAspectRatio="none" style="width:849px;height:671px;background:#FFFFFF;" version="1.1" viewBox="0 0 849 671" width="849px" zoomAndPan="magnify"><defs/><g><!--cluster Application code--><g class="cluster" data-qualified-name="Application code" data-source-line="2" id="ent0003"><path d="M8.5,131.29 L141.1055,131.29 A3.75,3.75 0 0 1 143.6055,133.79 L150.6055,153.5869 L416.5,153.5869 A2.5,2.5 0 0 1 419,156.0869 L419,661.98 A2.5,2.5 0 0 1 416.5,664.48 L8.5,664.48 A2.5,2.5 0 0 1 6,661.98 L6,133.79 A2.5,2.5 0 0 1 8.5,131.29" fill="none" style="stroke:#000000;stroke-width:1.5;"/><line style="stroke:#000000;stroke-width:1.5;" x1="6" x2="150.6055" y1="153.5869" y2="153.5869"/><text fill="#000000" font-family="sans-serif" font-size="14" font-weight="bold" lengthAdjust="spacing" textLength="131.6055" x="10" y="146.2851">Application code</text></g><!--cluster Style--><g class="cluster" data-qualified-name="Style" data-source-line="17" id="ent0017"><path d="M461.5,131.29 L502.6953,131.29 A3.75,3.75 0 0 1 505.1953,133.79 L512.1953,153.5869 L731.5,153.5869 A2.5,2.5 0 0 1 734,156.0869 L734,512.68 A2.5,2.5 0 0 1 731.5,515.18 L461.5,515.18 A2.5,2.5 0 0 1 459,512.68 L459,133.79 A2.5,2.5 0 0 1 461.5,131.29" fill="none" style="stroke:#000000;stroke-width:1.5;"/><line style="stroke:#000000;stroke-width:1.5;" x1="459" x2="512.1953" y1="153.5869" y2="153.5869"/><text fill="#000000" font-family="sans-serif" font-size="14" font-weight="bold" lengthAdjust="spacing" textLength="40.1953" x="463" y="146.2851">Style</text></g><!--entity Pages--><g class="entity" data-qualified-name="Application code.Pages" data-source-line="3" id="ent0004"><path d="M243.59,174.29 L284.59,174.29 A3.75,3.75 0 0 1 287.09,176.79 L294.09,195.29 L310.4054,195.29 A2.5,2.5 0 0 1 312.9054,197.79 L312.9054,226.0869 A2.5,2.5 0 0 1 310.4054,228.5869 L243.59,228.5869 A2.5,2.5 0 0 1 241.09,226.0869 L241.09,176.79 A2.5,2.5 0 0 1 243.59,174.29" fill="#F1F1F1" style="stroke:#181818;stroke-width:0.5;"/><line style="stroke:#181818;stroke-width:0.5;" x1="241.09" x2="294.09" y1="195.29" y2="195.29"/><text fill="#000000" font-family="sans-serif" font-size="14" lengthAdjust="spacing" textLength="41.8154" x="251.09" y="215.2851">Pages</text></g><!--entity Components--><g class="entity" data-qualified-name="Application code.Components" data-source-line="4" id="ent0005"><path d="M133.21,305.59 L174.21,305.59 A3.75,3.75 0 0 1 176.71,308.09 L183.71,326.59 L246.7832,326.59 A2.5,2.5 0 0 1 249.2832,329.09 L249.2832,357.3869 A2.5,2.5 0 0 1 246.7832,359.8869 L133.21,359.8869 A2.5,2.5 0 0 1 130.71,357.3869 L130.71,308.09 A2.5,2.5 0 0 1 133.21,305.59" fill="#F1F1F1" style="stroke:#181818;stroke-width:0.5;"/><line style="stroke:#181818;stroke-width:0.5;" x1="130.71" x2="183.71" y1="326.59" y2="326.59"/><text fill="#000000" font-family="sans-serif" font-size="14" lengthAdjust="spacing" textLength="88.5732" x="140.71" y="346.5851">Components</text></g><!--entity Model--><g class="entity" data-qualified-name="Application code.Model" data-source-line="5" id="ent0006"><path d="M296.48,586.18 L337.48,586.18 A3.75,3.75 0 0 1 339.98,588.68 L346.98,607.18 L363.5142,607.18 A2.5,2.5 0 0 1 366.0142,609.68 L366.0142,637.9769 A2.5,2.5 0 0 1 363.5142,640.4769 L296.48,640.4769 A2.5,2.5 0 0 1 293.98,637.9769 L293.98,588.68 A2.5,2.5 0 0 1 296.48,586.18" fill="#F1F1F1" style="stroke:#181818;stroke-width:0.5;"/><line style="stroke:#181818;stroke-width:0.5;" x1="293.98" x2="346.98" y1="607.18" y2="607.18"/><text fill="#000000" font-family="sans-serif" font-size="14" lengthAdjust="spacing" textLength="42.0342" x="303.98" y="627.1751">Model</text></g><!--entity Utils--><g class="entity" data-qualified-name="Application code.Utils" data-source-line="6" id="ent0007"><path d="M82.5,436.89 L123.5,436.89 A3.75,3.75 0 0 1 126,439.39 L133,457.89 L147.5,457.89 A2.5,2.5 0 0 1 150,460.39 L150,488.6869 A2.5,2.5 0 0 1 147.5,491.1869 L82.5,491.1869 A2.5,2.5 0 0 1 80,488.6869 L80,439.39 A2.5,2.5 0 0 1 82.5,436.89" fill="#F1F1F1" style="stroke:#181818;stroke-width:0.5;"/><line style="stroke:#181818;stroke-width:0.5;" x1="80" x2="133" y1="457.89" y2="457.89"/><text fill="#000000" font-family="sans-serif" font-size="14" lengthAdjust="spacing" textLength="30.8096" x="90" y="477.8851">Utils</text></g><!--entity Controllers--><g class="entity" data-qualified-name="Application code.Controllers" data-source-line="7" id="ent0008"><path d="M216.27,436.89 L257.27,436.89 A3.75,3.75 0 0 1 259.77,439.39 L266.77,457.89 L317.7368,457.89 A2.5,2.5 0 0 1 320.2368,460.39 L320.2368,488.6869 A2.5,2.5 0 0 1 317.7368,491.1869 L216.27,491.1869 A2.5,2.5 0 0 1 213.77,488.6869 L213.77,439.39 A2.5,2.5 0 0 1 216.27,436.89" fill="#F1F1F1" style="stroke:#181818;stroke-width:0.5;"/><line style="stroke:#181818;stroke-width:0.5;" x1="213.77" x2="266.77" y1="457.89" y2="457.89"/><text fill="#000000" font-family="sans-serif" font-size="14" lengthAdjust="spacing" textLength="76.4668" x="223.77" y="477.8851">Controllers</text></g><!--entity sPages--><g class="entity" data-qualified-name="Style.sPages" data-source-line="18" id="ent0018"><path d="M592.59,174.29 L633.59,174.29 A3.75,3.75 0 0 1 636.09,176.79 L643.09,195.29 L659.4054,195.29 A2.5,2.5 0 0 1 661.9054,197.79 L661.9054,226.0869 A2.5,2.5 0 0 1 659.4054,228.5869 L592.59,228.5869 A2.5,2.5 0 0 1 590.09,226.0869 L590.09,176.79 A2.5,2.5 0 0 1 592.59,174.29" fill="#F1F1F1" style="stroke:#181818;stroke-width:0.5;"/><line style="stroke:#181818;stroke-width:0.5;" x1="590.09" x2="643.09" y1="195.29" y2="195.29"/><text fill="#000000" font-family="sans-serif" font-size="14" lengthAdjust="spacing" textLength="41.8154" x="600.09" y="215.2851">Pages</text></g><!--entity sComponents--><g class="entity" data-qualified-name="Style.sComponents" data-source-line="20" id="ent0019"><path d="M485.21,305.59 L526.21,305.59 A3.75,3.75 0 0 1 528.71,308.09 L535.71,326.59 L598.7832,326.59 A2.5,2.5 0 0 1 601.2832,329.09 L601.2832,357.3869 A2.5,2.5 0 0 1 598.7832,359.8869 L485.21,359.8869 A2.5,2.5 0 0 1 482.71,357.3869 L482.71,308.09 A2.5,2.5 0 0 1 485.21,305.59" fill="#F1F1F1" style="stroke:#181818;stroke-width:0.5;"/><line style="stroke:#181818;stroke-width:0.5;" x1="482.71" x2="535.71" y1="326.59" y2="326.59"/><text fill="#000000" font-family="sans-serif" font-size="14" lengthAdjust="spacing" textLength="88.5732" x="492.71" y="346.5851">Components</text></g><!--entity sVariable--><g class="entity" data-qualified-name="Style.sVariable" data-source-line="22" id="ent0020"><path d="M587.61,436.89 L628.61,436.89 A3.75,3.75 0 0 1 631.11,439.39 L638.11,457.89 L670.3805,457.89 A2.5,2.5 0 0 1 672.8805,460.39 L672.8805,488.6869 A2.5,2.5 0 0 1 670.3805,491.1869 L587.61,491.1869 A2.5,2.5 0 0 1 585.11,488.6869 L585.11,439.39 A2.5,2.5 0 0 1 587.61,436.89" fill="#F1F1F1" style="stroke:#181818;stroke-width:0.5;"/><line style="stroke:#181818;stroke-width:0.5;" x1="585.11" x2="638.11" y1="457.89" y2="457.89"/><text fill="#000000" font-family="sans-serif" font-size="14" lengthAdjust="spacing" textLength="57.7705" x="595.11" y="477.8851">Variable</text></g><!--entity Images--><g class="entity" data-qualified-name="Images" data-source-line="1" id="ent0002"><path d="M763.93,174.29 L804.93,174.29 A3.75,3.75 0 0 1 807.43,176.79 L814.43,195.29 L840.0696,195.29 A2.5,2.5 0 0 1 842.5696,197.79 L842.5696,226.0869 A2.5,2.5 0 0 1 840.0696,228.5869 L763.93,228.5869 A2.5,2.5 0 0 1 761.43,226.0869 L761.43,176.79 A2.5,2.5 0 0 1 763.93,174.29" fill="#F1F1F1" style="stroke:#181818;stroke-width:0.5;"/><line style="stroke:#181818;stroke-width:0.5;" x1="761.43" x2="814.43" y1="195.29" y2="195.29"/><text fill="#000000" font-family="sans-serif" font-size="14" lengthAdjust="spacing" textLength="51.1396" x="771.43" y="215.2851">Images</text></g><!--entity HTML--><g class="entity" data-qualified-name="HTML" data-source-line="16" id="ent0016"><path d="M693.5,6 L734.5,6 A3.75,3.75 0 0 1 737,8.5 L744,27 L758.5,27 A2.5,2.5 0 0 1 761,29.5 L761,57.7969 A2.5,2.5 0 0 1 758.5,60.2969 L693.5,60.2969 A2.5,2.5 0 0 1 691,57.7969 L691,8.5 A2.5,2.5 0 0 1 693.5,6" fill="#F1F1F1" style="stroke:#181818;stroke-width:0.5;"/><line style="stroke:#181818;stroke-width:0.5;" x1="691" x2="744" y1="27" y2="27"/><text fill="#000000" font-family="sans-serif" font-size="14" lengthAdjust="spacing" textLength="38.958" x="701" y="46.9951">HTML</text></g><!--entity Tests--><g class="entity" data-qualified-name="Tests" data-source-line="28" id="ent0024"><path d="M378.5,6 L419.5,6 A3.75,3.75 0 0 1 422,8.5 L429,27 L443.5,27 A2.5,2.5 0 0 1 446,29.5 L446,57.7969 A2.5,2.5 0 0 1 443.5,60.2969 L378.5,60.2969 A2.5,2.5 0 0 1 376,57.7969 L376,8.5 A2.5,2.5 0 0 1 378.5,6" fill="#F1F1F1" style="stroke:#181818;stroke-width:0.5;"/><line style="stroke:#181818;stroke-width:0.5;" x1="376" x2="429" y1="27" y2="27"/><text fill="#000000" font-family="sans-serif" font-size="14" lengthAdjust="spacing" textLength="37.2422" x="386" y="46.9951">Tests</text></g><!--link Pages to Components--><g class="link" data-entity-1="ent0004" data-entity-2="ent0005" data-link-type="dependency" data-source-line="8" id="lnk9"><path d="M259.18,228.92 C244.17,251.23 226.1493,299.0118 211.1393,321.3218" fill="none" id="Pages-to-Components" style="stroke:#181818;stroke-width:1;"/><polygon fill="#181818" points="207.79,326.3,216.1327,321.0656,210.5811,322.1515,209.4951,316.5999,207.79,326.3" style="stroke:#181818;stroke-width:1;"/><text fill="#000000" font-family="sans-serif" font-size="13" lengthAdjust="spacing" textLength="29.7832" x="240" y="271.6569">uses</text></g><!--link Pages to Utils--><g class="link" data-entity-1="ent0004" data-entity-2="ent0007" data-link-type="dependency" data-source-line="9" id="lnk10"><path d="M240.78,209.74 C194.56,221.21 116.48,248.34 82,305.59 C57.22,346.74 77.7473,398.4079 95.7873,431.3379" fill="none" id="Pages-to-Utils" style="stroke:#181818;stroke-width:1;"/><polygon fill="#181818" points="98.67,436.6,97.854,426.785,96.2677,432.2149,90.8378,430.6287,98.67,436.6" style="stroke:#181818;stroke-width:1;"/><text fill="#000000" font-family="sans-serif" font-size="13" lengthAdjust="spacing" textLength="29.7832" x="83" y="337.3069">uses</text></g><!--link Pages to Model--><g class="link" data-entity-1="ent0004" data-entity-2="ent0006" data-link-type="dependency" data-source-line="10" id="lnk11"><path d="M289.51,229.02 C298.67,249.52 310.74,278.81 318,305.59 C345.33,406.41 340.94,434.77 344,539.18 C344.22,546.74 344.92,548.68 344,556.18 C342.8,565.96 341.9914,580.5382 339.5614,589.8082" fill="none" id="Pages-to-Model" style="stroke:#181818;stroke-width:1;"/><polygon fill="#181818" points="338.04,595.6121,344.1914,587.9205,339.3078,590.7755,336.4528,585.892,338.04,595.6121" style="stroke:#181818;stroke-width:1;"/><text fill="#000000" font-family="sans-serif" font-size="13" lengthAdjust="spacing" textLength="29.7832" x="340" y="402.9569">uses</text></g><!--link Pages to Controllers--><g class="link" data-entity-1="ent0004" data-entity-2="ent0008" data-link-type="dependency" data-source-line="11" id="lnk12"><path d="M277.57,229 C277.75,238.35 277.91,248.94 278,258.59 C278.59,324.53 277.76,341.11 273,406.89 C272.3,416.57 271.897,442.1961 270.867,451.5461" fill="none" id="Pages-to-Controllers" style="stroke:#181818;stroke-width:1;"/><polygon fill="#181818" points="270.21,457.51,275.1714,449.0021,270.7575,452.5401,267.2195,448.1261,270.21,457.51" style="stroke:#181818;stroke-width:1;"/><text fill="#000000" font-family="sans-serif" font-size="13" lengthAdjust="spacing" textLength="29.7832" x="280" y="337.3069">uses</text></g><!--link Components to Utils--><g class="link" data-entity-1="ent0005" data-entity-2="ent0007" data-link-type="dependency" data-source-line="12" id="lnk13"><path d="M166.14,360.3 C158.77,369.29 151.02,379.66 145,389.89 C136.36,404.55 131.1182,426.855 125.8782,441.125" fill="none" id="Components-to-Utils" style="stroke:#181818;stroke-width:1;"/><polygon fill="#181818" points="123.81,446.7573,130.6671,439.6877,125.5335,442.0637,123.1574,436.9301,123.81,446.7573" style="stroke:#181818;stroke-width:1;"/><text fill="#000000" font-family="sans-serif" font-size="13" lengthAdjust="spacing" textLength="29.7832" x="146" y="402.9569">uses</text></g><!--link Components to Controllers--><g class="link" data-entity-1="ent0005" data-entity-2="ent0008" data-link-type="dependency" data-source-line="13" id="lnk14"><path d="M205.77,360.22 C219.06,382.53 234.9,409.1349 248.18,431.4349" fill="none" id="Components-to-Controllers" style="stroke:#181818;stroke-width:1;"/><polygon fill="#181818" points="251.25,436.59,250.0818,426.8107,248.6917,432.2941,243.2083,430.9039,251.25,436.59" style="stroke:#181818;stroke-width:1;"/><text fill="#000000" font-family="sans-serif" font-size="13" lengthAdjust="spacing" textLength="29.7832" x="235" y="402.9569">uses</text></g><!--link Controllers to Model--><g class="link" data-entity-1="ent0008" data-entity-2="ent0006" data-link-type="dependency" data-source-line="14" id="lnk15"><path d="M278.26,491.37 C289.66,518.01 304.82,553.4736 316.26,580.2136" fill="none" id="Controllers-to-Model" style="stroke:#181818;stroke-width:1;"/><polygon fill="#181818" points="318.62,585.73,318.7575,575.8821,316.6533,581.133,311.4024,579.0288,318.62,585.73" style="stroke:#181818;stroke-width:1;"/><text fill="#000000" font-family="sans-serif" font-size="13" lengthAdjust="spacing" textLength="29.7832" x="306" y="552.2469">uses</text></g><!--link sPages to sComponents--><g class="link" data-entity-1="ent0018" data-entity-2="ent0019" data-link-type="dependency" data-source-line="24" id="lnk21"><path d="M608.8,228.92 C594.3,251.23 576.9381,298.9582 562.4481,321.2682" fill="none" id="sPages-to-sComponents" style="stroke:#181818;stroke-width:1;"/><polygon fill="#181818" points="559.18,326.3,567.4367,320.931,561.9034,322.1068,560.7276,316.5735,559.18,326.3" style="stroke:#181818;stroke-width:1;"/><text fill="#000000" font-family="sans-serif" font-size="13" lengthAdjust="spacing" textLength="29.7832" x="590" y="271.6569">uses</text></g><!--link sPages to sVariable--><g class="link" data-entity-1="ent0018" data-entity-2="ent0020" data-link-type="dependency" data-source-line="25" id="lnk22"><path d="M627.1,229 C627.44,238.35 627.79,248.94 628,258.59 C629.38,322.46 629.3346,399.187 629.1746,438.167" fill="none" id="sPages-to-sVariable" style="stroke:#181818;stroke-width:1;"/><polygon fill="#181818" points="629.15,444.1669,633.1869,435.1834,629.1705,439.167,625.187,435.1506,629.15,444.1669" style="stroke:#181818;stroke-width:1;"/><text fill="#000000" font-family="sans-serif" font-size="13" lengthAdjust="spacing" textLength="29.7832" x="630" y="337.3069">uses</text></g><!--link sComponents to sVariable--><g class="link" data-entity-1="ent0019" data-entity-2="ent0020" data-link-type="dependency" data-source-line="26" id="lnk23"><path d="M559.82,360.22 C574.83,382.53 592.8497,409.3125 607.8597,431.6125" fill="none" id="sComponents-to-sVariable" style="stroke:#181818;stroke-width:1;"/><polygon fill="#181818" points="611.21,436.59,609.5028,426.8902,608.4181,432.4421,602.8662,431.3573,611.21,436.59" style="stroke:#181818;stroke-width:1;"/><text fill="#000000" font-family="sans-serif" font-size="13" lengthAdjust="spacing" textLength="29.7832" x="591" y="402.9569">uses</text></g><!--link Tests to Application code--><g class="link" data-entity-1="ent0024" data-entity-2="ent0003" data-link-type="dependency" data-source-line="29" id="lnk25"><path d="M411,60.49 C411,72.03 411,86.3656 411,101.422 C411,108.9502 411,116.6586 411,124.2879 C411,126.1952 411,128.0975 411,129.9909 C411,130.2276 411,146.761 411,146.9974" fill="none" id="Tests-to-Application code" style="stroke:#181818;stroke-width:1;"/><polygon fill="#181818" points="411,152.9974,415,143.9974,411,147.9974,407,143.9974,411,152.9974" style="stroke:#181818;stroke-width:1;"/><text fill="#000000" font-family="sans-serif" font-size="13" lengthAdjust="spacing" textLength="29.7832" x="412" y="103.3569">uses</text></g><!--link HTML to Images--><g class="link" data-entity-1="ent0016" data-entity-2="ent0002" data-link-type="dependency" data-source-line="30" id="lnk26"><path d="M745.45,60.77 C751.56,69.85 758.01,80.26 763,90.29 C776.64,117.72 786.0392,145.3621 792.8592,168.1421" fill="none" id="HTML-to-Images" style="stroke:#181818;stroke-width:1;"/><polygon fill="#181818" points="794.58,173.89,795.8307,164.1209,793.146,169.1001,788.1668,166.4153,794.58,173.89" style="stroke:#181818;stroke-width:1;"/><text fill="#000000" font-family="sans-serif" font-size="13" lengthAdjust="spacing" textLength="29.7832" x="770" y="103.3569">uses</text></g><!--link HTML to Style--><g class="link" data-entity-1="ent0016" data-entity-2="ent0017" data-link-type="dependency" data-source-line="31" id="lnk27"><path d="M726,60.49 C726,72.03 726,86.3656 726,101.422 C726,108.9502 726,116.6586 726,124.2879 C726,126.1952 726,128.0975 726,129.9909 C726,130.2276 726,146.761 726,146.9974" fill="none" id="HTML-to-Style" style="stroke:#181818;stroke-width:1;"/><polygon fill="#181818" points="726,152.9974,730,143.9974,726,147.9974,722,143.9974,726,152.9974" style="stroke:#181818;stroke-width:1;"/><text fill="#000000" font-family="sans-serif" font-size="13" lengthAdjust="spacing" textLength="29.7832" x="727" y="103.3569">uses</text></g><!--link HTML to Application code--><g class="link" data-entity-1="ent0016" data-entity-2="ent0003" data-link-type="dependency" data-source-line="32" id="lnk28"><path d="M690.75,37.62 C637.49,44.42 535.46,63.64 467,115.29 C449.485,128.505 435.8,148.895 426.3438,166.4088 C423.9797,170.7872 421.8799,174.9859 420.0507,178.8477 C419.822,179.3304 419.5976,179.8079 419.3774,180.2798 C419.2673,180.5158 421.6799,175.3059 421.5719,175.539" fill="none" id="HTML-to-Application code" style="stroke:#181818;stroke-width:1;"/><polygon fill="#181818" points="419.0503,180.9834,426.4623,174.4979,421.1516,176.4464,419.2031,171.1358,419.0503,180.9834" style="stroke:#181818;stroke-width:1;"/><text fill="#000000" font-family="sans-serif" font-size="13" lengthAdjust="spacing" textLength="29.7832" x="506" y="103.3569">uses</text></g><!--SRC=[TPAn3e8m48PtdgAvdHTmC34kcaXY8heOXmg7QImjeNKmndSNMh0jq2x0Vz_zT_bf9Nc9BTdNz84gQMZnx5u8R9g6iu9g9WKfP8dmIKXtAaiV3Um9MratKg3GWPfrZTmNpfhnIP_GhUGSMok3SGQIfci2pXHMBuKBXF6B5StqMD4Rx2FUoCY46H5rSl9ydsyo1B3BiuDB_QJVV1ArCbkJgz7wOxvl0U9syZWdXl25jepUENheA5aGb1-KMluB8JCQ1CGigIds3o57rLqSC8-1dTq_OdkW3snWx9rTgjWS5meHsny0]--></g></svg>