<svg xmlns="http://www.w3.org/2000/svg" xmlns:xlink="http://www.w3.org/1999/xlink" contentStyleType="text/css" data-diagram-type="DESCRIPTION" height="381px" preserveAspectRatio="none" style="width:492px;height:381px;background:#FFFFFF;" version="1.1" viewBox="0 0 492 381" width="492px" zoomAndPan="magnify"><defs/><g><!--cluster Pull requests--><g class="cluster" data-qualified-name="Pull requests" data-source-line="1" id="ent0002"><rect fill="none" height="302" rx="2.5" ry="2.5" style="stroke:#181818;stroke-width:1;" width="195.5" x="291.49" y="58.43"/><text fill="#000000" font-family="sans-serif" font-size="14" font-weight="bold" lengthAdjust="spacing" textLength="103.9404" x="337.2698" y="73.4251">Pull requests</text></g><!--entity uc23--><g class="entity" data-qualified-name="Pull requests.uc23" data-source-line="2" id="ent0003"><ellipse cx="389.2433" cy="325.4307" fill="#F1F1F1" rx="81.7533" ry="18.7507" style="stroke:#181818;stroke-width:0.5;"/><text fill="#000000" font-family="sans-serif" font-size="14" lengthAdjust="spacing" textLength="134.791" x="321.8478" y="330.0791">Create pull request</text></g><!--entity uc24--><g class="entity" data-qualified-name="Pull requests.uc24" data-source-line="3" id="ent0004"><ellipse cx="389.235" cy="254.429" fill="#F1F1F1" rx="76.145" ry="17.629" style="stroke:#181818;stroke-width:0.5;"/><text fill="#000000" font-family="sans-serif" font-size="14" lengthAdjust="spacing" textLength="121.4951" x="328.4874" y="259.0774">View pull request</text></g><!--entity uc25--><g class="entity" data-qualified-name="Pull requests.uc25" data-source-line="4" id="ent0005"><ellipse cx="389.2354" cy="183.4251" fill="#F1F1F1" rx="80.5254" ry="18.5051" style="stroke:#181818;stroke-width:0.5;"/><text fill="#000000" font-family="sans-serif" font-size="14" lengthAdjust="spacing" textLength="131.9131" x="323.2789" y="188.0735">Merge pull request</text></g><!--entity uc26--><g class="entity" data-qualified-name="Pull requests.uc26" data-source-line="5" id="ent0006"><ellipse cx="389.2392" cy="111.4338" fill="#F1F1F1" rx="78.0692" ry="18.0138" style="stroke:#181818;stroke-width:0.5;"/><text fill="#000000" font-family="sans-serif" font-size="14" lengthAdjust="spacing" textLength="126.1025" x="326.188" y="116.0823">Close pull request</text></g><!--entity u--><g class="entity" data-qualified-name="u" data-source-line="7" id="ent0007"><ellipse cx="196.7251" cy="253.78" fill="#F1F1F1" rx="8" ry="8" style="stroke:#181818;stroke-width:0.5;"/><path d="M196.7251,261.78 L196.7251,288.78 M183.7251,269.78 L209.7251,269.78 M196.7251,288.78 L183.7251,303.78 M196.7251,288.78 L209.7251,303.78" fill="none" style="stroke:#181818;stroke-width:0.5;"/><text fill="#000000" font-family="sans-serif" font-size="14" lengthAdjust="spacing" textLength="31.9102" x="180.77" y="318.2751">User</text></g><!--entity o--><g class="entity" data-qualified-name="o" data-source-line="8" id="ent0008"><ellipse cx="45.9866" cy="162.78" fill="#F1F1F1" rx="8" ry="8" style="stroke:#181818;stroke-width:0.5;"/><path d="M45.9866,170.78 L45.9866,197.78 M32.9866,178.78 L58.9866,178.78 M45.9866,197.78 L32.9866,212.78 M45.9866,197.78 L58.9866,212.78" fill="none" style="stroke:#181818;stroke-width:0.5;"/><text fill="#000000" font-family="sans-serif" font-size="14" lengthAdjust="spacing" textLength="79.9531" x="6.01" y="227.2751">Post Owner</text></g><!--entity c--><g class="entity" data-qualified-name="c" data-source-line="9" id="ent0009"><ellipse cx="45.9834" cy="308.78" fill="#F1F1F1" rx="8" ry="8" style="stroke:#181818;stroke-width:0.5;"/><path d="M45.9834,316.78 L45.9834,343.78 M32.9834,324.78 L58.9834,324.78 M45.9834,343.78 L32.9834,358.78 M45.9834,343.78 L58.9834,358.78" fill="none" style="stroke:#181818;stroke-width:0.5;"/><text fill="#000000" font-family="sans-serif" font-size="14" lengthAdjust="spacing" textLength="79.9668" x="6" y="373.2751">Contributer</text></g><!--entity a--><g class="entity" data-qualified-name="a" data-source-line="10" id="ent0010"><ellipse cx="196.7303" cy="71.78" fill="#F1F1F1" rx="8" ry="8" style="stroke:#181818;stroke-width:0.5;"/><path d="M196.7303,79.78 L196.7303,106.78 M183.7303,87.78 L209.7303,87.78 M196.7303,106.78 L183.7303,121.78 M196.7303,106.78 L209.7303,121.78" fill="none" style="stroke:#181818;stroke-width:0.5;"/><text fill="#000000" font-family="sans-serif" font-size="14" lengthAdjust="spacing" textLength="101.5205" x="145.97" y="136.2751">System Admin</text></g><!--link u to uc24--><g class="link" data-entity-1="ent0007" data-entity-2="ent0004" data-link-type="association" data-source-line="12" id="lnk11"><path d="M213,281.11 C237.01,277.45 284.97,270.15 324.65,264.11" fill="none" id="u-uc24" style="stroke:#181818;stroke-width:1;stroke-dasharray:7,7;"/></g><!--link o to u--><g class="link" data-entity-1="ent0008" data-entity-2="ent0007" data-link-type="extension" data-source-line="13" id="lnk12"><path d="M86.45,216.58 C117.27,235.43 143.0552,251.2068 165.0252,264.6468" fill="none" id="o-to-u" style="stroke:#181818;stroke-width:1;"/><polygon fill="none" points="180.38,274.04,168.1563,259.5286,161.8942,269.7651,180.38,274.04" style="stroke:#181818;stroke-width:1;"/></g><!--link o to uc25--><g class="link" data-entity-1="ent0008" data-entity-2="ent0005" data-link-type="association" data-source-line="14" id="lnk13"><path d="M86.13,191.4 C140.23,189.97 239.07,187.37 308.94,185.52" fill="none" id="o-uc25" style="stroke:#181818;stroke-width:1;stroke-dasharray:7,7;"/></g><!--link o to uc26--><g class="link" data-entity-1="ent0008" data-entity-2="ent0006" data-link-type="association" data-source-line="15" id="lnk14"><path d="M60.67,154 C75.58,118.59 103.19,68.2 145.97,45.43 C220.05,6 319.71,63.19 364.59,93.99" fill="none" id="o-uc26" style="stroke:#181818;stroke-width:1;stroke-dasharray:7,7;"/></g><!--link c to u--><g class="link" data-entity-1="ent0009" data-entity-2="ent0007" data-link-type="extension" data-source-line="16" id="lnk15"><path d="M86.45,323.84 C117.27,312.44 141.5263,303.4701 163.4963,295.3501" fill="none" id="c-to-u" style="stroke:#181818;stroke-width:1;"/><polygon fill="none" points="180.38,289.11,161.4162,289.7222,165.5763,300.9781,180.38,289.11" style="stroke:#181818;stroke-width:1;"/></g><!--link c to uc23--><g class="link" data-entity-1="ent0009" data-entity-2="ent0003" data-link-type="association" data-source-line="17" id="lnk16"><path d="M86,338.92 C104.22,339.12 126.2,339.33 145.97,339.43 C191.09,339.66 202.42,341.67 247.49,339.43 C269.81,338.32 294.04,336.24 316.01,334" fill="none" id="c-uc23" style="stroke:#181818;stroke-width:1;stroke-dasharray:7,7;"/></g><!--link a to uc25--><g class="link" data-entity-1="ent0010" data-entity-2="ent0005" data-link-type="association" data-source-line="18" id="lnk17"><path d="M247.85,130.06 C259.38,136.15 271.72,142.29 283.49,147.43 C301.38,155.24 321.55,162.52 339.38,168.46" fill="none" id="a-uc25" style="stroke:#181818;stroke-width:1;stroke-dasharray:7,7;"/></g><!--link a to uc26--><g class="link" data-entity-1="ent0010" data-entity-2="ent0006" data-link-type="association" data-source-line="19" id="lnk18"><path d="M247.78,104.06 C267.63,105.1 290.88,106.32 312.69,107.47" fill="none" id="a-uc26" style="stroke:#181818;stroke-width:1;stroke-dasharray:7,7;"/></g><!--SRC=[XP0z2m8n38Rt_ehGNGS_RXJ4MHH4zrhZMUYrcgI8gF_TetUdSeDcUddUXuIMq8e9fKVGw-Gz45uIih2-AwWdCLh32CcEnc0Oz8BG2CBvozLzSvBDdSFhRs-QlILI-MTXqPpsaVlYKnahaI1bOyj8kYKnatLaWTKrVBXjTiKWvFP9FeN9nUR6WXNC3vKBMday2aW4SkL9uE2e_YqNWqem7EQNgWY3mMC6gGuDchvJeMnNsXQDbNbhNIfU]--></g></svg>