<svg xmlns="http://www.w3.org/2000/svg" xmlns:xlink="http://www.w3.org/1999/xlink" contentStyleType="text/css" data-diagram-type="DESCRIPTION" height="534px" preserveAspectRatio="none" style="width:625px;height:534px;background:#FFFFFF;" version="1.1" viewBox="0 0 625 534" width="625px" zoomAndPan="magnify"><defs/><g><!--cluster Article lifecycle--><g class="cluster" data-qualified-name="Article lifecycle" data-source-line="1" id="ent0002"><rect fill="none" height="521" rx="2.5" ry="2.5" style="stroke:#181818;stroke-width:1;" width="251.27" x="221.86" y="7"/><text fill="#000000" font-family="sans-serif" font-size="14" font-weight="bold" lengthAdjust="spacing" textLength="121.8984" x="286.5458" y="21.9951">Article lifecycle</text></g><!--entity uc10--><g class="entity" data-qualified-name="Article lifecycle.uc10" data-source-line="2" id="ent0003"><ellipse cx="347.5017" cy="58.0003" fill="#F1F1F1" rx="65.6517" ry="15.5303" style="stroke:#181818;stroke-width:0.5;"/><text fill="#000000" font-family="sans-serif" font-size="14" lengthAdjust="spacing" textLength="95.1904" x="299.9064" y="62.6488">Create article</text></g><!--entity uc11--><g class="entity" data-qualified-name="Article lifecycle.uc11" data-source-line="3" id="ent0004"><ellipse cx="347.4993" cy="261.0036" fill="#F1F1F1" rx="56.3693" ry="14.5236" style="stroke:#181818;stroke-width:0.5;"/><text fill="#000000" font-family="sans-serif" font-size="14" lengthAdjust="spacing" textLength="75.4756" x="309.7615" y="265.6521">Edit article</text></g><!--entity uc12--><g class="entity" data-qualified-name="Article lifecycle.uc12" data-source-line="4" id="ent0005"><ellipse cx="347.5002" cy="191.998" fill="#F1F1F1" rx="86.4902" ry="19.698" style="stroke:#181818;stroke-width:0.5;"/><text fill="#000000" font-family="sans-serif" font-size="14" lengthAdjust="spacing" textLength="145.749" x="274.6257" y="196.6465">View revision history</text></g><!--entity uc13--><g class="entity" data-qualified-name="Article lifecycle.uc13" data-source-line="5" id="ent0006"><ellipse cx="347.5008" cy="123.0036" fill="#F1F1F1" rx="45.8608" ry="14.5236" style="stroke:#181818;stroke-width:0.5;"/><text fill="#000000" font-family="sans-serif" font-size="14" lengthAdjust="spacing" textLength="60.6143" x="317.1936" y="127.6521">View diff</text></g><!--entity uc14--><g class="entity" data-qualified-name="Article lifecycle.uc14" data-source-line="6" id="ent0007"><ellipse cx="347.5046" cy="331.0009" fill="#F1F1F1" rx="88.6046" ry="20.1209" style="stroke:#181818;stroke-width:0.5;"/><text fill="#000000" font-family="sans-serif" font-size="14" lengthAdjust="spacing" textLength="150.5752" x="272.217" y="335.6494">Revert article version</text></g><!--entity uc15--><g class="entity" data-qualified-name="Article lifecycle.uc15" data-source-line="7" id="ent0008"><ellipse cx="347.5001" cy="407.002" fill="#F1F1F1" rx="94.6101" ry="21.322" style="stroke:#181818;stroke-width:0.5;"/><text fill="#000000" font-family="sans-serif" font-size="14" lengthAdjust="spacing" textLength="164.1035" x="265.4484" y="411.6505">Change article visibility</text></g><!--entity uc16--><g class="entity" data-qualified-name="Article lifecycle.uc16" data-source-line="8" id="ent0009"><ellipse cx="347.5037" cy="487.9967" fill="#F1F1F1" rx="109.6337" ry="24.3267" style="stroke:#181818;stroke-width:0.5;"/><text fill="#000000" font-family="sans-serif" font-size="14" lengthAdjust="spacing" textLength="197.0869" x="248.9602" y="492.6452">Modify editorial permissions</text></g><!--entity u--><g class="entity" data-qualified-name="u" data-source-line="10" id="ent0010"><ellipse cx="161.9051" cy="117.35" fill="#F1F1F1" rx="8" ry="8" style="stroke:#181818;stroke-width:0.5;"/><path d="M161.9051,125.35 L161.9051,152.35 M148.9051,133.35 L174.9051,133.35 M161.9051,152.35 L148.9051,167.35 M161.9051,152.35 L174.9051,167.35" fill="none" style="stroke:#181818;stroke-width:0.5;"/><text fill="#000000" font-family="sans-serif" font-size="14" lengthAdjust="spacing" textLength="31.9102" x="145.95" y="181.8451">User</text></g><!--entity o--><g class="entity" data-qualified-name="o" data-source-line="11" id="ent0011"><ellipse cx="45.9766" cy="302.35" fill="#F1F1F1" rx="8" ry="8" style="stroke:#181818;stroke-width:0.5;"/><path d="M45.9766,310.35 L45.9766,337.35 M32.9766,318.35 L58.9766,318.35 M45.9766,337.35 L32.9766,352.35 M45.9766,337.35 L58.9766,352.35" fill="none" style="stroke:#181818;stroke-width:0.5;"/><text fill="#000000" font-family="sans-serif" font-size="14" lengthAdjust="spacing" textLength="79.9531" x="6" y="366.8451">Post Owner</text></g><!--entity a--><g class="entity" data-qualified-name="a" data-source-line="12" id="ent0012"><ellipse cx="567.8903" cy="377.35" fill="#F1F1F1" rx="8" ry="8" style="stroke:#181818;stroke-width:0.5;"/><path d="M567.8903,385.35 L567.8903,412.35 M554.8903,393.35 L580.8903,393.35 M567.8903,412.35 L554.8903,427.35 M567.8903,412.35 L580.8903,427.35" fill="none" style="stroke:#181818;stroke-width:0.5;"/><text fill="#000000" font-family="sans-serif" font-size="14" lengthAdjust="spacing" textLength="101.5205" x="517.13" y="441.8451">System Admin</text></g><!--link u to uc10--><g class="link" data-entity-1="ent0010" data-entity-2="ent0003" data-link-type="association" data-source-line="14" id="lnk13"><path d="M178.2,124.63 C187.28,112.97 199.76,99.42 213.86,91 C236.28,77.62 263.92,69.65 288.15,64.9" fill="none" id="u-uc10" style="stroke:#181818;stroke-width:1;stroke-dasharray:7,7;"/></g><!--link u to uc12--><g class="link" data-entity-1="ent0010" data-entity-2="ent0005" data-link-type="association" data-source-line="15" id="lnk14"><path d="M178.25,150.76 C202.03,156.59 249.06,168.12 287.37,177.51" fill="none" id="u-uc12" style="stroke:#181818;stroke-width:1;stroke-dasharray:7,7;"/></g><!--link u to uc13--><g class="link" data-entity-1="ent0010" data-entity-2="ent0006" data-link-type="association" data-source-line="16" id="lnk15"><path d="M178.25,145 C205.74,141.4 264.28,133.75 304.52,128.49" fill="none" id="u-uc13" style="stroke:#181818;stroke-width:1;stroke-dasharray:7,7;"/></g><!--link o to u--><g class="link" data-entity-1="ent0011" data-entity-2="ent0010" data-link-type="extension" data-source-line="17" id="lnk16"><path d="M70.58,293.67 C93.07,257.15 116.8189,218.5853 136.0889,187.3053" fill="none" id="o-to-u" style="stroke:#181818;stroke-width:1;"/><polygon fill="none" points="145.53,171.98,130.9804,184.1583,141.1973,190.4524,145.53,171.98" style="stroke:#181818;stroke-width:1;"/></g><!--link o to uc11--><g class="link" data-entity-1="ent0011" data-entity-2="ent0004" data-link-type="association" data-source-line="18" id="lnk17"><path d="M86.39,321.3 C104.49,316.47 126.27,310.79 145.95,306 C199.86,292.87 262.27,279.09 302.97,270.29" fill="none" id="o-uc11" style="stroke:#181818;stroke-width:1;stroke-dasharray:7,7;"/></g><!--link o to uc14--><g class="link" data-entity-1="ent0011" data-entity-2="ent0007" data-link-type="association" data-source-line="19" id="lnk18"><path d="M86.44,331.87 C130.05,331.72 201.65,331.48 258.69,331.29" fill="none" id="o-uc14" style="stroke:#181818;stroke-width:1;stroke-dasharray:7,7;"/></g><!--link o to uc15--><g class="link" data-entity-1="ent0011" data-entity-2="ent0008" data-link-type="association" data-source-line="20" id="lnk19"><path d="M86.44,341.88 C136.48,354.41 223.38,376.17 282.85,391.06" fill="none" id="o-uc15" style="stroke:#181818;stroke-width:1;stroke-dasharray:7,7;"/></g><!--link o to uc16--><g class="link" data-entity-1="ent0011" data-entity-2="ent0009" data-link-type="association" data-source-line="21" id="lnk20"><path d="M86.42,363.87 C119.02,388.96 167.33,423.35 213.86,446 C232.97,455.3 254.62,463.17 274.8,469.5" fill="none" id="o-uc16" style="stroke:#181818;stroke-width:1;stroke-dasharray:7,7;"/></g><!--link uc14 to a--><g class="link" data-entity-1="ent0007" data-entity-2="ent0012" data-link-type="association" data-source-line="22" id="lnk21"><path d="M409.2,345.82 C432.01,351.93 458,359.57 481.13,368 C492.81,372.26 505.11,377.42 516.64,382.58" fill="none" id="uc14-a" style="stroke:#181818;stroke-width:1;stroke-dasharray:7,7;"/></g><!--link uc15 to a--><g class="link" data-entity-1="ent0008" data-entity-2="ent0012" data-link-type="association" data-source-line="23" id="lnk22"><path d="M442.38,407 C467.93,407 494.62,407 516.71,407" fill="none" id="uc15-a" style="stroke:#181818;stroke-width:1;stroke-dasharray:7,7;"/></g><!--link uc16 to a--><g class="link" data-entity-1="ent0009" data-entity-2="ent0012" data-link-type="association" data-source-line="24" id="lnk23"><path d="M415.49,468.5 C436.67,461.88 460.05,454.1 481.13,446 C492.89,441.48 505.33,436.16 516.98,430.91" fill="none" id="uc16-a" style="stroke:#181818;stroke-width:1;stroke-dasharray:7,7;"/></g><!--SRC=[TP5DJyCm38Rl-HLMxfleFdf4cj2E20I2UqZTrLBR82VTL07_7S-5LA8YfoTl7iMnm-YJwqyjWZrm8Y_GKer-5B8V1cGD4RsB28ClRi15i7UCBY6uoRT_fKAbOqNfNsMZoYlX1HZF52dqq51CWSU5kvtTYkfwSRxJyoSy8-U289lhfGjvFpNGICiuo_A0DsefBOkNwjy7gJm2Iak1oRNmZjnHl5Q8rdmPvoM7GTsNY6n_ag39OuW97Yxzd3lDdyUOi8D3rP4yjCKwGGh0T6gITChoCNA_6M2zrj5dscJQcW2hrUSj309JL6JQPTfdAeqEJ3REw3H-gLJw1W00]--></g></svg>