<svg xmlns="http://www.w3.org/2000/svg" xmlns:xlink="http://www.w3.org/1999/xlink" contentStyleType="text/css" data-diagram-type="DESCRIPTION" height="222px" preserveAspectRatio="none" style="width:531px;height:222px;background:#FFFFFF;" version="1.1" viewBox="0 0 531 222" width="531px" zoomAndPan="magnify"><defs/><g><!--cluster Issues--><g class="cluster" data-qualified-name="Issues" data-source-line="1" id="ent0002"><rect fill="none" height="209" rx="2.5" ry="2.5" style="stroke:#181818;stroke-width:1;" width="157.38" x="221.86" y="7"/><text fill="#000000" font-family="sans-serif" font-size="14" font-weight="bold" lengthAdjust="spacing" textLength="49.6699" x="275.715" y="21.9951">Issues</text></g><!--entity uc20--><g class="entity" data-qualified-name="Issues.uc20" data-source-line="2" id="ent0003"><ellipse cx="300.5479" cy="184.9976" fill="#F1F1F1" rx="62.6879" ry="14.9376" style="stroke:#181818;stroke-width:0.5;"/><text fill="#000000" font-family="sans-serif" font-size="14" lengthAdjust="spacing" textLength="87.2402" x="256.9277" y="189.646">Create issue</text></g><!--entity uc21--><g class="entity" data-qualified-name="Issues.uc21" data-source-line="3" id="ent0004"><ellipse cx="300.5465" cy="121.0036" fill="#F1F1F1" rx="55.2865" ry="14.5236" style="stroke:#181818;stroke-width:0.5;"/><text fill="#000000" font-family="sans-serif" font-size="14" lengthAdjust="spacing" textLength="73.9443" x="263.5744" y="125.6521">View issue</text></g><!--entity uc22--><g class="entity" data-qualified-name="Issues.uc22" data-source-line="4" id="ent0005"><ellipse cx="300.5545" cy="57.0036" fill="#F1F1F1" rx="58.5445" ry="14.5236" style="stroke:#181818;stroke-width:0.5;"/><text fill="#000000" font-family="sans-serif" font-size="14" lengthAdjust="spacing" textLength="78.5518" x="261.2786" y="61.6521">Close issue</text></g><!--entity u--><g class="entity" data-qualified-name="u" data-source-line="6" id="ent0006"><ellipse cx="161.9051" cy="91.35" fill="#F1F1F1" rx="8" ry="8" style="stroke:#181818;stroke-width:0.5;"/><path d="M161.9051,99.35 L161.9051,126.35 M148.9051,107.35 L174.9051,107.35 M161.9051,126.35 L148.9051,141.35 M161.9051,126.35 L174.9051,141.35" fill="none" style="stroke:#181818;stroke-width:0.5;"/><text fill="#000000" font-family="sans-serif" font-size="14" lengthAdjust="spacing" textLength="31.9102" x="145.95" y="155.8451">User</text></g><!--entity o--><g class="entity" data-qualified-name="o" data-source-line="7" id="ent0007"><ellipse cx="45.9766" cy="18.35" fill="#F1F1F1" rx="8" ry="8" style="stroke:#181818;stroke-width:0.5;"/><path d="M45.9766,26.35 L45.9766,53.35 M32.9766,34.35 L58.9766,34.35 M45.9766,53.35 L32.9766,68.35 M45.9766,53.35 L58.9766,68.35" fill="none" style="stroke:#181818;stroke-width:0.5;"/><text fill="#000000" font-family="sans-serif" font-size="14" lengthAdjust="spacing" textLength="79.9531" x="6" y="82.8451">Post Owner</text></g><!--entity r--><g class="entity" data-qualified-name="r" data-source-line="8" id="ent0008"><ellipse cx="45.9741" cy="147.35" fill="#F1F1F1" rx="8" ry="8" style="stroke:#181818;stroke-width:0.5;"/><path d="M45.9741,155.35 L45.9741,182.35 M32.9741,163.35 L58.9741,163.35 M45.9741,182.35 L32.9741,197.35 M45.9741,182.35 L58.9741,197.35" fill="none" style="stroke:#181818;stroke-width:0.5;"/><text fill="#000000" font-family="sans-serif" font-size="14" lengthAdjust="spacing" textLength="64.9482" x="13.5" y="211.8451">Reviewer</text></g><!--entity a--><g class="entity" data-qualified-name="a" data-source-line="9" id="ent0009"><ellipse cx="474.0003" cy="27.35" fill="#F1F1F1" rx="8" ry="8" style="stroke:#181818;stroke-width:0.5;"/><path d="M474.0003,35.35 L474.0003,62.35 M461.0003,43.35 L487.0003,43.35 M474.0003,62.35 L461.0003,77.35 M474.0003,62.35 L487.0003,77.35" fill="none" style="stroke:#181818;stroke-width:0.5;"/><text fill="#000000" font-family="sans-serif" font-size="14" lengthAdjust="spacing" textLength="101.5205" x="423.24" y="91.8451">System Admin</text></g><!--link u to uc21--><g class="link" data-entity-1="ent0006" data-entity-2="ent0004" data-link-type="association" data-source-line="11" id="lnk10"><path d="M178.32,121 C194.51,121 220.92,121 244.96,121" fill="none" id="u-uc21" style="stroke:#181818;stroke-width:1;stroke-dasharray:7,7;"/></g><!--link r to u--><g class="link" data-entity-1="ent0008" data-entity-2="ent0006" data-link-type="extension" data-source-line="12" id="lnk11"><path d="M78.71,161.4 C100.57,150.66 112.4838,144.7959 129.5238,136.4259" fill="none" id="r-to-u" style="stroke:#181818;stroke-width:1;"/><polygon fill="none" points="145.68,128.49,126.8785,131.0405,132.1691,141.8113,145.68,128.49" style="stroke:#181818;stroke-width:1;"/></g><!--link r to uc20--><g class="link" data-entity-1="ent0008" data-entity-2="ent0003" data-link-type="association" data-source-line="13" id="lnk12"><path d="M78.71,178.01 C118.52,179.27 187.68,181.46 238.01,183.05" fill="none" id="r-uc20" style="stroke:#181818;stroke-width:1;stroke-dasharray:7,7;"/></g><!--link o to u--><g class="link" data-entity-1="ent0007" data-entity-2="ent0006" data-link-type="extension" data-source-line="14" id="lnk13"><path d="M86.19,73.12 C106.65,86.24 115.3655,91.8171 130.5155,101.5271" fill="none" id="o-to-u" style="stroke:#181818;stroke-width:1;"/><polygon fill="none" points="145.67,111.24,133.7531,96.4756,127.2778,106.5786,145.67,111.24" style="stroke:#181818;stroke-width:1;"/></g><!--link o to uc22--><g class="link" data-entity-1="ent0007" data-entity-2="ent0005" data-link-type="association" data-source-line="15" id="lnk14"><path d="M86.44,49.41 C128.2,50.89 194.52,53.26 242.08,54.95" fill="none" id="o-uc22" style="stroke:#181818;stroke-width:1;stroke-dasharray:7,7;"/></g><!--link uc22 to a--><g class="link" data-entity-1="ent0005" data-entity-2="ent0009" data-link-type="association" data-source-line="16" id="lnk15"><path d="M359.12,57 C379.74,57 402.81,57 422.76,57" fill="none" id="uc22-a" style="stroke:#181818;stroke-width:1;stroke-dasharray:7,7;"/></g><!--SRC=[TS_12i8m30RWUvyYzBunzm22UFAaA7elNPo5hO4cTOZwxjPkEX3iAVdwawO1hHZVTWXwmnoHzLr1Ef7H6aQ8jgx0CEXrG2C8xXtIlv55ZfmS3dy2zJYZ8_wEU2fZXGB4V7La37eIoh8Z5jWEVlQGVO_NzCwi9klXne8zh9hUUQqwF0i8GN3jHQ1n8VtIaLSHoZBlgm8KnMC9CHKZLOe-H1FLAc-U6lC2]--></g></svg>