<svg xmlns="http://www.w3.org/2000/svg" xmlns:xlink="http://www.w3.org/1999/xlink" contentStyleType="text/css" data-diagram-type="CLASS" height="338px" preserveAspectRatio="none" style="width:1013px;height:338px;background:#FFFFFF;" version="1.1" viewBox="0 0 1013 338" width="1013px" zoomAndPan="magnify"><defs/><g><!--entity home--><g class="entity" data-qualified-name="home" data-source-line="1" id="ent0002"><rect fill="#F1F1F1" height="36.2969" rx="2.5" ry="2.5" style="stroke:#181818;stroke-width:0.5;" width="142.2607" x="652.56" y="7"/><text fill="#000000" font-family="sans-serif" font-size="14" lengthAdjust="spacing" textLength="122.2607" x="662.56" y="29.9951">Dashboard/Home</text></g><!--entity item--><g class="entity" data-qualified-name="item" data-source-line="3" id="ent0003"><rect fill="#F1F1F1" height="36.2969" rx="2.5" ry="2.5" style="stroke:#181818;stroke-width:0.5;" width="90.8408" x="424.27" y="103.3"/><text fill="#000000" font-family="sans-serif" font-size="14" lengthAdjust="spacing" textLength="70.8408" x="434.27" y="126.2951">Item Page</text></g><!--entity artc--><g class="entity" data-qualified-name="artc" data-source-line="5" id="ent0004"><rect fill="#F1F1F1" height="36.2969" rx="2.5" ry="2.5" style="stroke:#181818;stroke-width:0.5;" width="95.3799" x="7" y="199.6"/><text fill="#000000" font-family="sans-serif" font-size="14" lengthAdjust="spacing" textLength="75.3799" x="17" y="222.5951">Article Tab</text></g><!--entity dscs--><g class="entity" data-qualified-name="dscs" data-source-line="7" id="ent0005"><rect fill="#F1F1F1" height="36.2969" rx="2.5" ry="2.5" style="stroke:#181818;stroke-width:0.5;" width="124.918" x="137.23" y="199.6"/><text fill="#000000" font-family="sans-serif" font-size="14" lengthAdjust="spacing" textLength="104.918" x="147.23" y="222.5951">Discussion Tab</text></g><!--entity prlt--><g class="entity" data-qualified-name="prlt" data-source-line="9" id="ent0006"><rect fill="#F1F1F1" height="36.2969" rx="2.5" ry="2.5" style="stroke:#181818;stroke-width:0.5;" width="173.7266" x="296.83" y="199.6"/><text fill="#000000" font-family="sans-serif" font-size="14" lengthAdjust="spacing" textLength="153.7266" x="306.83" y="222.5951">Pull Requests List Tab</text></g><!--entity priv--><g class="entity" data-qualified-name="priv" data-source-line="11" id="ent0007"><rect fill="#F1F1F1" height="36.2969" rx="2.5" ry="2.5" style="stroke:#181818;stroke-width:0.5;" width="145.0225" x="311.18" y="295.89"/><text fill="#000000" font-family="sans-serif" font-size="14" lengthAdjust="spacing" textLength="125.0225" x="321.18" y="318.8851">View Pull Request</text></g><!--entity hist--><g class="entity" data-qualified-name="hist" data-source-line="13" id="ent0008"><rect fill="#F1F1F1" height="36.2969" rx="2.5" ry="2.5" style="stroke:#181818;stroke-width:0.5;" width="100.2744" x="505.55" y="199.6"/><text fill="#000000" font-family="sans-serif" font-size="14" lengthAdjust="spacing" textLength="80.2744" x="515.55" y="222.5951">History Tab</text></g><!--entity edit--><g class="entity" data-qualified-name="edit" data-source-line="15" id="ent0009"><rect fill="#F1F1F1" height="36.2969" rx="2.5" ry="2.5" style="stroke:#181818;stroke-width:0.5;" width="77.5791" x="640.9" y="199.6"/><text fill="#000000" font-family="sans-serif" font-size="14" lengthAdjust="spacing" textLength="57.5791" x="650.9" y="222.5951">Edit Tab</text></g><!--entity modm--><g class="entity" data-qualified-name="modm" data-source-line="17" id="ent0010"><rect fill="#F1F1F1" height="36.2969" rx="2.5" ry="2.5" style="stroke:#181818;stroke-width:0.5;" width="159.3574" x="753.01" y="199.6"/><text fill="#000000" font-family="sans-serif" font-size="14" lengthAdjust="spacing" textLength="139.3574" x="763.01" y="222.5951">Moderation Manage</text></g><!--entity logn--><g class="entity" data-qualified-name="logn" data-source-line="19" id="ent0011"><rect fill="#F1F1F1" height="36.2969" rx="2.5" ry="2.5" style="stroke:#181818;stroke-width:0.5;" width="149.999" x="549.69" y="103.3"/><text fill="#000000" font-family="sans-serif" font-size="14" lengthAdjust="spacing" textLength="129.999" x="559.69" y="126.2951">Login/Signup Page</text></g><!--entity accs--><g class="entity" data-qualified-name="accs" data-source-line="21" id="ent0012"><rect fill="#F1F1F1" height="36.2969" rx="2.5" ry="2.5" style="stroke:#181818;stroke-width:0.5;" width="177.6162" x="734.88" y="103.3"/><text fill="#000000" font-family="sans-serif" font-size="14" lengthAdjust="spacing" textLength="157.6162" x="744.88" y="126.2951">Account Settings Page</text></g><!--entity ntes--><g class="entity" data-qualified-name="ntes" data-source-line="27" id="ent0013"><rect fill="#F1F1F1" height="36.2969" rx="2.5" ry="2.5" style="stroke:#181818;stroke-width:0.5;" width="60.4346" x="947.47" y="103.3"/><text fill="#000000" font-family="sans-serif" font-size="14" lengthAdjust="spacing" textLength="40.4346" x="957.47" y="126.2951">Notes</text></g><!--link home to item--><g class="link" data-entity-1="ent0002" data-entity-2="ent0003" data-link-type="dependency" data-source-line="30" id="lnk14"><path codeLine="30" d="M676.21,43.78 C630.12,60.89 566.275,84.592 520.855,101.452" fill="none" id="home-to-item" style="stroke:#181818;stroke-width:1;"/><polygon fill="#181818" points="515.23,103.54,525.0595,104.158,519.9175,101.8,522.2755,96.658,515.23,103.54" style="stroke:#181818;stroke-width:1;"/></g><!--link home to logn--><g class="link" data-entity-1="ent0002" data-entity-2="ent0011" data-link-type="dependency" data-source-line="31" id="lnk15"><path codeLine="31" d="M705.53,43.45 C687.78,60.35 665.2338,81.821 647.4138,98.801" fill="none" id="home-to-logn" style="stroke:#181818;stroke-width:1;"/><polygon fill="#181818" points="643.07,102.94,652.345,99.6273,646.6898,99.4908,646.8263,93.8356,643.07,102.94" style="stroke:#181818;stroke-width:1;"/></g><!--link home to accs--><g class="link" data-entity-1="ent0002" data-entity-2="ent0012" data-link-type="dependency" data-source-line="32" id="lnk16"><path codeLine="32" d="M742.03,43.45 C759.96,60.35 782.7544,81.844 800.7644,98.824" fill="none" id="home-to-accs" style="stroke:#181818;stroke-width:1;"/><polygon fill="#181818" points="805.13,102.94,801.3255,93.8556,801.492,99.51,795.8376,99.6765,805.13,102.94" style="stroke:#181818;stroke-width:1;"/></g><!--link home to ntes--><g class="link" data-entity-1="ent0002" data-entity-2="ent0013" data-link-type="dependency" data-source-line="34" id="lnk17"><path codeLine="34" d="M771.17,43.78 C822.72,62.91 897.8851,90.8218 941.5751,107.0418" fill="none" id="home-to-ntes" style="stroke:#181818;stroke-width:1;"/><polygon fill="#181818" points="947.2,109.13,940.1549,102.2477,942.5126,107.3898,937.3705,109.7475,947.2,109.13" style="stroke:#181818;stroke-width:1;"/></g><!--link item to artc--><g class="link" data-entity-1="ent0003" data-entity-2="ent0004" data-link-type="dependency" data-source-line="36" id="lnk18"><path codeLine="36" d="M423.97,131.9 C357,145.89 228.4,173.29 119.69,199.6 C114.13,200.94 114.1312,200.9068 108.3712,202.3868" fill="none" id="item-to-artc" style="stroke:#181818;stroke-width:1;"/><polygon fill="#181818" points="102.56,203.88,112.2723,205.5144,107.4027,202.6357,110.2814,197.7661,102.56,203.88" style="stroke:#181818;stroke-width:1;"/></g><!--link item to dscs--><g class="link" data-entity-1="ent0003" data-entity-2="ent0005" data-link-type="dependency" data-source-line="37" id="lnk19"><path codeLine="37" d="M423.89,138.44 C375.59,155.31 305.3945,179.8317 255.5145,197.2517" fill="none" id="item-to-dscs" style="stroke:#181818;stroke-width:1;"/><polygon fill="#181818" points="249.85,199.23,259.6656,200.0389,254.5704,197.5815,257.0279,192.4863,249.85,199.23" style="stroke:#181818;stroke-width:1;"/></g><!--link item to prlt--><g class="link" data-entity-1="ent0003" data-entity-2="ent0006" data-link-type="dependency" data-source-line="38" id="lnk20"><path codeLine="38" d="M453.92,139.74 C438.5,156.65 419.1837,177.8273 403.6937,194.8073" fill="none" id="item-to-prlt" style="stroke:#181818;stroke-width:1;"/><polygon fill="#181818" points="399.65,199.24,408.6707,195.2868,403.0197,195.5461,402.7604,189.8952,399.65,199.24" style="stroke:#181818;stroke-width:1;"/></g><!--link item to hist--><g class="link" data-entity-1="ent0003" data-entity-2="ent0008" data-link-type="dependency" data-source-line="39" id="lnk21"><path codeLine="39" d="M485.46,139.74 C500.88,156.65 520.1977,177.826 535.6777,194.806" fill="none" id="item-to-hist" style="stroke:#181818;stroke-width:1;"/><polygon fill="#181818" points="539.72,199.24,536.6126,189.8942,536.3514,195.545,530.7006,195.2839,539.72,199.24" style="stroke:#181818;stroke-width:1;"/></g><!--link item to edit--><g class="link" data-entity-1="ent0003" data-entity-2="ent0009" data-link-type="dependency" data-source-line="40" id="lnk22"><path codeLine="40" d="M508.7,139.96 C546.3,156.85 597.4162,179.803 635.0662,196.703" fill="none" id="item-to-edit" style="stroke:#181818;stroke-width:1;"/><polygon fill="#181818" points="640.54,199.16,633.9673,191.8252,635.9785,197.1125,630.6912,199.1237,640.54,199.16" style="stroke:#181818;stroke-width:1;"/></g><!--link item to modm--><g class="link" data-entity-1="ent0003" data-entity-2="ent0010" data-link-type="dependency" data-source-line="41" id="lnk23"><path codeLine="41" d="M515.43,134.98 C521.24,136.55 527.1,138.12 532.69,139.6 C611.58,160.48 696.5448,182.2325 757.3948,197.6925" fill="none" id="item-to-modm" style="stroke:#181818;stroke-width:1;"/><polygon fill="#181818" points="763.21,199.17,755.4721,193.077,758.364,197.9388,753.5022,200.8306,763.21,199.17" style="stroke:#181818;stroke-width:1;"/></g><!--link prlt to priv--><g class="link" data-entity-1="ent0006" data-entity-2="ent0007" data-link-type="dependency" data-source-line="43" id="lnk24"><path codeLine="43" d="M383.69,236.04 C383.69,252.95 383.69,272.56 383.69,289.54" fill="none" id="prlt-to-priv" style="stroke:#181818;stroke-width:1;"/><polygon fill="#181818" points="383.69,295.54,387.69,286.54,383.69,290.54,379.69,286.54,383.69,295.54" style="stroke:#181818;stroke-width:1;"/></g><!--SRC=[PPB1QiCm38RlVWhJIqybRp0OTD11EyewTdSTuwWuTcih6QFqtMSbQHIyIz17FilsBqUZKNdhZ5njLMhEGSMwseNMhAHAiid5NJn4PEiTJIkFoeu2P2g4ruYWS_6bpeEY8kf2sKBINKeG_6pLIQV2EdREoKzpwqp29FUGSBQlqM5XVuFvaSibamXz8Uvoen1_vrvDva9vgu7tCXcA_uTGcwYGpdzG_fb56-eoYtsmuAiJMDzTEJGNh2z3qpfq7kN988AtYMMbns2gzJAQ62wPnbIcYrxSVLrbxJ5y_oKphdYwFRiByoEWIOFYSq6x2de1ShDv6IRDH5TWeZFcRZFJONBdcQcR4DHXrFEBOAB9Cz5acMWsJ3G99efR2FAdXT3_0G00]--></g></svg>