<svg xmlns="http://www.w3.org/2000/svg" class="w-full h-full" viewBox="30 0 780 779.4228634" preserveAspectRatio="xMidYMid slice"><polygon points="0,51.96152422706631 30,0 60,51.96152422706631" fill="#87acc0" fill-opacity="0.678910125010385" stroke="none"/><polygon points="30,0 60,51.96152422706631 90,0" fill="#bfd4df" fill-opacity="0.23541182291937082" stroke="none"/><polygon points="60,51.96152422706631 90,0 120,51.96152422706631" fill="#92b5c3" fill-opacity="0.5712815831021848" stroke="none"/><polygon points="90,0 120,51.96152422706631 150,0" fill="#afe1f7" fill-opacity="0.4490032805597609" stroke="none"/><polygon points="120,51.96152422706631 150,0 180,51.96152422706631" fill="#d5f0fc" fill-opacity="0.17294895214372744" stroke="none"/><polygon points="150,0 180,51.96152422706631 210,0" fill="#70cafd" fill-opacity="1" stroke="none"/><polygon points="180,51.96152422706631 210,0 240,51.96152422706631" fill="#e9f4fc" fill-opacity="0.05962248831194648" stroke="none"/><polygon points="210,0 240,51.96152422706631 270,0" fill="#70cafd" fill-opacity="1" stroke="none"/><polygon points="240,51.96152422706631 270,0 300,51.96152422706631" fill="#afe1f7" fill-opacity="0.4490032805597609" stroke="none"/><polygon points="270,0 300,51.96152422706631 330,0" fill="#59b5d6" fill-opacity="1" stroke="none"/><polygon points="300,51.96152422706631 330,0 360,51.96152422706631" fill="#e9f4fc" fill-opacity="0.05962248831194648" stroke="none"/><polygon points="330,0 360,51.96152422706631 390,0" fill="#e9f4fc" fill-opacity="0.05962248831194648" stroke="none"/><polygon points="360,51.96152422706631 390,0 420,51.96152422706631" fill="#87acc0" fill-opacity="0.678910125010385" stroke="none"/><polygon points="390,0 420,51.96152422706631 450,0" fill="#afe1f7" fill-opacity="0.4490032805597609" stroke="none"/><polygon points="420,51.96152422706631 450,0 480,51.96152422706631" fill="#8bd5f1" fill-opacity="0.7885968240752209" stroke="none"/><polygon points="450,0 480,51.96152422706631 510,0" fill="#929d9f" fill-opacity="0.6763216127354335" stroke="none"/><polygon points="480,51.96152422706631 510,0 540,51.96152422706631" fill="#a0dbf3" fill-opacity="0.5726345627895644" stroke="none"/><polygon points="510,0 540,51.96152422706631 570,0" fill="#b3bcc1" fill-opacity="0.36148987322568044" stroke="none"/><polygon points="540,51.96152422706631 570,0 600,51.96152422706631" fill="#d5f0fc" fill-opacity="0.17294895214372744" stroke="none"/><polygon points="570,0 600,51.96152422706631 630,0" fill="#70cafd" fill-opacity="1" stroke="none"/><polygon points="600,51.96152422706631 630,0 660,51.96152422706631" fill="#8bd5f1" fill-opacity="0.7885968240752209" stroke="none"/><polygon points="630,0 660,51.96152422706631 690,0" fill="#abc7d1" fill-opacity="0.3666222420041833" stroke="none"/><polygon points="660,51.96152422706631 690,0 720,51.96152422706631" fill="#e9f4fc" fill-opacity="0.05962248831194648" stroke="none"/><polygon points="690,0 720,51.96152422706631 750,0" fill="#e9f4fc" fill-opacity="0.05962248831194648" stroke="none"/><polygon points="720,51.96152422706631 750,0 780,51.96152422706631" fill="#87acc0" fill-opacity="0.678910125010385" stroke="none"/><polygon points="750,0 780,51.96152422706631 810,0" fill="#afe1f7" fill-opacity="0.4490032805597609" stroke="none"/><polygon points="780,51.96152422706631 810,0 840,51.96152422706631" fill="#87acc0" fill-opacity="0.678910125010385" stroke="none"/><polygon points="0,51.96152422706631 30,103.92304845413263 60,51.96152422706631" fill="#e9f4fc" fill-opacity="0.05962248831194648" stroke="none"/><polygon points="30,103.92304845413263 60,51.96152422706631 90,103.92304845413263" fill="#d5f0fc" fill-opacity="0.17294895214372744" stroke="none"/><polygon points="60,51.96152422706631 90,103.92304845413263 120,51.96152422706631" fill="#e9f4fc" fill-opacity="0.05962248831194648" stroke="none"/><polygon points="90,103.92304845413263 120,51.96152422706631 150,103.92304845413263" fill="#87acc0" fill-opacity="0.678910125010385" stroke="none"/><polygon points="120,51.96152422706631 150,103.92304845413263 180,51.96152422706631" fill="#d5f0fc" fill-opacity="0.17294895214372744" stroke="none"/><polygon points="150,103.92304845413263 180,51.96152422706631 210,103.92304845413263" fill="#d5f0fc" fill-opacity="0.17294895214372744" stroke="none"/><polygon points="180,51.96152422706631 210,103.92304845413263 240,51.96152422706631" fill="#e9f4fc" fill-opacity="0.05962248831194648" stroke="none"/><polygon points="210,103.92304845413263 240,51.96152422706631 270,103.92304845413263" fill="#818d95" fill-opacity="0.8165818884008311" stroke="none"/><polygon points="240,51.96152422706631 270,103.92304845413263 300,51.96152422706631" fill="#70cafd" fill-opacity="1" stroke="none"/><polygon points="270,103.92304845413263 300,51.96152422706631 330,103.92304845413263" fill="#abc7d1" fill-opacity="0.3666222420041833" stroke="none"/><polygon points="300,51.96152422706631 330,103.92304845413263 360,51.96152422706631" fill="#9fbfcb" fill-opacity="0.45918536600568316" stroke="none"/><polygon points="330,103.92304845413263 360,51.96152422706631 390,103.92304845413263" fill="#87acc0" fill-opacity="0.678910125010385" stroke="none"/><polygon points="360,51.96152422706631 390,103.92304845413263 420,51.96152422706631" fill="#bfd4df" fill-opacity="0.23541182291937082" stroke="none"/><polygon points="390,103.92304845413263 420,51.96152422706631 450,103.92304845413263" fill="#e9f4fc" fill-opacity="0.05962248831194648" stroke="none"/><polygon points="420,51.96152422706631 450,103.92304845413263 480,51.96152422706631" fill="#afe1f7" fill-opacity="0.4490032805597609" stroke="none"/><polygon points="450,103.92304845413263 480,51.96152422706631 510,103.92304845413263" fill="#b3bcc1" fill-opacity="0.36148987322568044" stroke="none"/><polygon points="480,51.96152422706631 510,103.92304845413263 540,51.96152422706631" fill="#99cee3" fill-opacity="0.5706348813853569" stroke="none"/><polygon points="510,103.92304845413263 540,51.96152422706631 570,103.92304845413263" fill="#87acc0" fill-opacity="0.678910125010385" stroke="none"/><polygon points="540,51.96152422706631 570,103.92304845413263 600,51.96152422706631" fill="#dee7ef" fill-opacity="0.08262204304001196" stroke="none"/><polygon points="570,103.92304845413263 600,51.96152422706631 630,103.92304845413263" fill="#92b5c3" fill-opacity="0.5712815831021848" stroke="none"/><polygon points="600,51.96152422706631 630,103.92304845413263 660,51.96152422706631" fill="#99cee3" fill-opacity="0.5706348813853569" stroke="none"/><polygon points="630,103.92304845413263 660,51.96152422706631 690,103.92304845413263" fill="#99cee3" fill-opacity="0.5706348813853569" stroke="none"/><polygon points="660,51.96152422706631 690,103.92304845413263 720,51.96152422706631" fill="#70cafd" fill-opacity="1" stroke="none"/><polygon points="690,103.92304845413263 720,51.96152422706631 750,103.92304845413263" fill="#e9f4fc" fill-opacity="0.05962248831194648" stroke="none"/><polygon points="720,51.96152422706631 750,103.92304845413263 780,51.96152422706631" fill="#a0dbf3" fill-opacity="0.5726345627895644" stroke="none"/><polygon points="750,103.92304845413263 780,51.96152422706631 810,103.92304845413263" fill="#8bd5f1" fill-opacity="0.7885968240752209" stroke="none"/><polygon points="780,51.96152422706631 810,103.92304845413263 840,51.96152422706631" fill="#e9f4fc" fill-opacity="0.05962248831194648" stroke="none"/><polygon points="0,155.88457268119893 30,103.92304845413263 60,155.88457268119893" fill="#9fbfcb" fill-opacity="0.45918536600568316" stroke="none"/><polygon points="30,103.92304845413263 60,155.88457268119893 90,103.92304845413263" fill="#e9f4fc" fill-opacity="0.05962248831194648" stroke="none"/><polygon points="60,155.88457268119893 90,103.92304845413263 120,155.88457268119893" fill="#ceddea" fill-opacity="0.15658781153368717" stroke="none"/><polygon points="90,103.92304845413263 120,155.88457268119893 150,103.92304845413263" fill="#e9f4fc" fill-opacity="0.05962248831194648" stroke="none"/><polygon points="120,155.88457268119893 150,103.92304845413263 180,155.88457268119893" fill="#a0dbf3" fill-opacity="0.5726345627895644" stroke="none"/><polygon points="150,103.92304845413263 180,155.88457268119893 210,103.92304845413263" fill="#929d9f" fill-opacity="0.6763216127354335" stroke="none"/><polygon points="180,155.88457268119893 210,103.92304845413263 240,155.88457268119893" fill="#92b5c3" fill-opacity="0.5712815831021848" stroke="none"/><polygon points="210,103.92304845413263 240,155.88457268119893 270,103.92304845413263" fill="#87acc0" fill-opacity="0.678910125010385" stroke="none"/><polygon points="240,155.88457268119893 270,103.92304845413263 300,155.88457268119893" fill="#bfd4df" fill-opacity="0.23541182291937082" stroke="none"/><polygon points="270,103.92304845413263 300,155.88457268119893 330,103.92304845413263" fill="#92b5c3" fill-opacity="0.5712815831021848" stroke="none"/><polygon points="300,155.88457268119893 330,103.92304845413263 360,155.88457268119893" fill="#b3bcc1" fill-opacity="0.36148987322568044" stroke="none"/><polygon points="330,103.92304845413263 360,155.88457268119893 390,103.92304845413263" fill="#ceddea" fill-opacity="0.15658781153368717" stroke="none"/><polygon points="360,155.88457268119893 390,103.92304845413263 420,155.88457268119893" fill="#e9f4fc" fill-opacity="0.05962248831194648" stroke="none"/><polygon points="390,103.92304845413263 420,155.88457268119893 450,103.92304845413263" fill="#929d9f" fill-opacity="0.6763216127354335" stroke="none"/><polygon points="420,155.88457268119893 450,103.92304845413263 480,155.88457268119893" fill="#92b5c3" fill-opacity="0.5712815831021848" stroke="none"/><polygon points="450,103.92304845413263 480,155.88457268119893 510,103.92304845413263" fill="#8bd5f1" fill-opacity="0.7885968240752209" stroke="none"/><polygon points="480,155.88457268119893 510,103.92304845413263 540,155.88457268119893" fill="#9fbfcb" fill-opacity="0.45918536600568316" stroke="none"/><polygon points="510,103.92304845413263 540,155.88457268119893 570,103.92304845413263" fill="#b3bcc1" fill-opacity="0.36148987322568044" stroke="none"/><polygon points="540,155.88457268119893 570,103.92304845413263 600,155.88457268119893" fill="#b3bcc1" fill-opacity="0.36148987322568044" stroke="none"/><polygon points="570,103.92304845413263 600,155.88457268119893 630,103.92304845413263" fill="#e9f4fc" fill-opacity="0.05962248831194648" stroke="none"/><polygon points="600,155.88457268119893 630,103.92304845413263 660,155.88457268119893" fill="#59b5d6" fill-opacity="1" stroke="none"/><polygon points="630,103.92304845413263 660,155.88457268119893 690,103.92304845413263" fill="#92b5c3" fill-opacity="0.5712815831021848" stroke="none"/><polygon points="660,155.88457268119893 690,103.92304845413263 720,155.88457268119893" fill="#87acc0" fill-opacity="0.678910125010385" stroke="none"/><polygon points="690,103.92304845413263 720,155.88457268119893 750,103.92304845413263" fill="#70cafd" fill-opacity="1" stroke="none"/><polygon points="720,155.88457268119893 750,103.92304845413263 780,155.88457268119893" fill="#ceddea" fill-opacity="0.15658781153368717" stroke="none"/><polygon points="750,103.92304845413263 780,155.88457268119893 810,103.92304845413263" fill="#87acc0" fill-opacity="0.678910125010385" stroke="none"/><polygon points="780,155.88457268119893 810,103.92304845413263 840,155.88457268119893" fill="#9fbfcb" fill-opacity="0.45918536600568316" stroke="none"/><polygon points="0,155.88457268119893 30,207.84609690826525 60,155.88457268119893" fill="#87acc0" fill-opacity="0.678910125010385" stroke="none"/><polygon points="30,207.84609690826525 60,155.88457268119893 90,207.84609690826525" fill="#e9f4fc" fill-opacity="0.05962248831194648" stroke="none"/><polygon points="60,155.88457268119893 90,207.84609690826525 120,155.88457268119893" fill="#d5f0fc" fill-opacity="0.17294895214372744" stroke="none"/><polygon points="90,207.84609690826525 120,155.88457268119893 150,207.84609690826525" fill="#ceddea" fill-opacity="0.15658781153368717" stroke="none"/><polygon points="120,155.88457268119893 150,207.84609690826525 180,155.88457268119893" fill="#87acc0" fill-opacity="0.678910125010385" stroke="none"/><polygon points="150,207.84609690826525 180,155.88457268119893 210,207.84609690826525" fill="#d5f0fc" fill-opacity="0.17294895214372744" stroke="none"/><polygon points="180,155.88457268119893 210,207.84609690826525 240,155.88457268119893" fill="#dee7ef" fill-opacity="0.08262204304001196" stroke="none"/><polygon points="210,207.84609690826525 240,155.88457268119893 270,207.84609690826525" fill="#abc7d1" fill-opacity="0.3666222420041833" stroke="none"/><polygon points="240,155.88457268119893 270,207.84609690826525 300,155.88457268119893" fill="#99cee3" fill-opacity="0.5706348813853569" stroke="none"/><polygon points="270,207.84609690826525 300,155.88457268119893 330,207.84609690826525" fill="#8bd5f1" fill-opacity="0.7885968240752209" stroke="none"/><polygon points="300,155.88457268119893 330,207.84609690826525 360,155.88457268119893" fill="#ceddea" fill-opacity="0.15658781153368717" stroke="none"/><polygon points="330,207.84609690826525 360,155.88457268119893 390,207.84609690826525" fill="#ceddea" fill-opacity="0.15658781153368717" stroke="none"/><polygon points="360,155.88457268119893 390,207.84609690826525 420,155.88457268119893" fill="#bfd4df" fill-opacity="0.23541182291937082" stroke="none"/><polygon points="390,207.84609690826525 420,155.88457268119893 450,207.84609690826525" fill="#abc7d1" fill-opacity="0.3666222420041833" stroke="none"/><polygon points="420,155.88457268119893 450,207.84609690826525 480,155.88457268119893" fill="#d5f0fc" fill-opacity="0.17294895214372744" stroke="none"/><polygon points="450,207.84609690826525 480,155.88457268119893 510,207.84609690826525" fill="#b3bcc1" fill-opacity="0.36148987322568044" stroke="none"/><polygon points="480,155.88457268119893 510,207.84609690826525 540,155.88457268119893" fill="#9fbfcb" fill-opacity="0.45918536600568316" stroke="none"/><polygon points="510,207.84609690826525 540,155.88457268119893 570,207.84609690826525" fill="#87acc0" fill-opacity="0.678910125010385" stroke="none"/><polygon points="540,155.88457268119893 570,207.84609690826525 600,155.88457268119893" fill="#8bd5f1" fill-opacity="0.7885968240752209" stroke="none"/><polygon points="570,207.84609690826525 600,155.88457268119893 630,207.84609690826525" fill="#ceddea" fill-opacity="0.15658781153368717" stroke="none"/><polygon points="600,155.88457268119893 630,207.84609690826525 660,155.88457268119893" fill="#70cafd" fill-opacity="1" stroke="none"/><polygon points="630,207.84609690826525 660,155.88457268119893 690,207.84609690826525" fill="#92b5c3" fill-opacity="0.5712815831021848" stroke="none"/><polygon points="660,155.88457268119893 690,207.84609690826525 720,155.88457268119893" fill="#e9f4fc" fill-opacity="0.05962248831194648" stroke="none"/><polygon points="690,207.84609690826525 720,155.88457268119893 750,207.84609690826525" fill="#ceddea" fill-opacity="0.15658781153368717" stroke="none"/><polygon points="720,155.88457268119893 750,207.84609690826525 780,155.88457268119893" fill="#87acc0" fill-opacity="0.678910125010385" stroke="none"/><polygon points="750,207.84609690826525 780,155.88457268119893 810,207.84609690826525" fill="#e9f4fc" fill-opacity="0.05962248831194648" stroke="none"/><polygon points="780,155.88457268119893 810,207.84609690826525 840,155.88457268119893" fill="#87acc0" fill-opacity="0.678910125010385" stroke="none"/><polygon points="0,259.80762113533154 30,207.84609690826525 60,259.80762113533154" fill="#87acc0" fill-opacity="0.678910125010385" stroke="none"/><polygon points="30,207.84609690826525 60,259.80762113533154 90,207.84609690826525" fill="#9fbfcb" fill-opacity="0.45918536600568316" stroke="none"/><polygon points="60,259.80762113533154 90,207.84609690826525 120,259.80762113533154" fill="#70cafd" fill-opacity="1" stroke="none"/><polygon points="90,207.84609690826525 120,259.80762113533154 150,207.84609690826525" fill="#afe1f7" fill-opacity="0.4490032805597609" stroke="none"/><polygon points="120,259.80762113533154 150,207.84609690826525 180,259.80762113533154" fill="#d5f0fc" fill-opacity="0.17294895214372744" stroke="none"/><polygon points="150,207.84609690826525 180,259.80762113533154 210,207.84609690826525" fill="#d5f0fc" fill-opacity="0.17294895214372744" stroke="none"/><polygon points="180,259.80762113533154 210,207.84609690826525 240,259.80762113533154" fill="#e9f4fc" fill-opacity="0.05962248831194648" stroke="none"/><polygon points="210,207.84609690826525 240,259.80762113533154 270,207.84609690826525" fill="#92b5c3" fill-opacity="0.5712815831021848" stroke="none"/><polygon points="240,259.80762113533154 270,207.84609690826525 300,259.80762113533154" fill="#dee7ef" fill-opacity="0.08262204304001196" stroke="none"/><polygon points="270,207.84609690826525 300,259.80762113533154 330,207.84609690826525" fill="#70cafd" fill-opacity="1" stroke="none"/><polygon points="300,259.80762113533154 330,207.84609690826525 360,259.80762113533154" fill="#bfd4df" fill-opacity="0.23541182291937082" stroke="none"/><polygon points="330,207.84609690826525 360,259.80762113533154 390,207.84609690826525" fill="#a0dbf3" fill-opacity="0.5726345627895644" stroke="none"/><polygon points="360,259.80762113533154 390,207.84609690826525 420,259.80762113533154" fill="#9fbfcb" fill-opacity="0.45918536600568316" stroke="none"/><polygon points="390,207.84609690826525 420,259.80762113533154 450,207.84609690826525" fill="#d5f0fc" fill-opacity="0.17294895214372744" stroke="none"/><polygon points="420,259.80762113533154 450,207.84609690826525 480,259.80762113533154" fill="#87acc0" fill-opacity="0.678910125010385" stroke="none"/><polygon points="450,207.84609690826525 480,259.80762113533154 510,207.84609690826525" fill="#92b5c3" fill-opacity="0.5712815831021848" stroke="none"/><polygon points="480,259.80762113533154 510,207.84609690826525 540,259.80762113533154" fill="#59b5d6" fill-opacity="1" stroke="none"/><polygon points="510,207.84609690826525 540,259.80762113533154 570,207.84609690826525" fill="#e9f4fc" fill-opacity="0.05962248831194648" stroke="none"/><polygon points="540,259.80762113533154 570,207.84609690826525 600,259.80762113533154" fill="#92b5c3" fill-opacity="0.5712815831021848" stroke="none"/><polygon points="570,207.84609690826525 600,259.80762113533154 630,207.84609690826525" fill="#b3bcc1" fill-opacity="0.36148987322568044" stroke="none"/><polygon points="600,259.80762113533154 630,207.84609690826525 660,259.80762113533154" fill="#b3bcc1" fill-opacity="0.36148987322568044" stroke="none"/><polygon points="630,207.84609690826525 660,259.80762113533154 690,207.84609690826525" fill="#9fbfcb" fill-opacity="0.45918536600568316" stroke="none"/><polygon points="660,259.80762113533154 690,207.84609690826525 720,259.80762113533154" fill="#e9f4fc" fill-opacity="0.05962248831194648" stroke="none"/><polygon points="690,207.84609690826525 720,259.80762113533154 750,207.84609690826525" fill="#afe1f7" fill-opacity="0.4490032805597609" stroke="none"/><polygon points="720,259.80762113533154 750,207.84609690826525 780,259.80762113533154" fill="#8bd5f1" fill-opacity="0.7885968240752209" stroke="none"/><polygon points="750,207.84609690826525 780,259.80762113533154 810,207.84609690826525" fill="#92b5c3" fill-opacity="0.5712815831021848" stroke="none"/><polygon points="780,259.80762113533154 810,207.84609690826525 840,259.80762113533154" fill="#87acc0" fill-opacity="0.678910125010385" stroke="none"/><polygon points="0,259.80762113533154 30,311.76914536239786 60,259.80762113533154" fill="#8bd5f1" fill-opacity="0.7885968240752209" stroke="none"/><polygon points="30,311.76914536239786 60,259.80762113533154 90,311.76914536239786" fill="#dee7ef" fill-opacity="0.08262204304001196" stroke="none"/><polygon points="60,259.80762113533154 90,311.76914536239786 120,259.80762113533154" fill="#70cafd" fill-opacity="1" stroke="none"/><polygon points="90,311.76914536239786 120,259.80762113533154 150,311.76914536239786" fill="#e9f4fc" fill-opacity="0.05962248831194648" stroke="none"/><polygon points="120,259.80762113533154 150,311.76914536239786 180,259.80762113533154" fill="#e9f4fc" fill-opacity="0.05962248831194648" stroke="none"/><polygon points="150,311.76914536239786 180,259.80762113533154 210,311.76914536239786" fill="#59b5d6" fill-opacity="1" stroke="none"/><polygon points="180,259.80762113533154 210,311.76914536239786 240,259.80762113533154" fill="#87acc0" fill-opacity="0.678910125010385" stroke="none"/><polygon points="210,311.76914536239786 240,259.80762113533154 270,311.76914536239786" fill="#99cee3" fill-opacity="0.5706348813853569" stroke="none"/><polygon points="240,259.80762113533154 270,311.76914536239786 300,259.80762113533154" fill="#e9f4fc" fill-opacity="0.05962248831194648" stroke="none"/><polygon points="270,311.76914536239786 300,259.80762113533154 330,311.76914536239786" fill="#92b5c3" fill-opacity="0.5712815831021848" stroke="none"/><polygon points="300,259.80762113533154 330,311.76914536239786 360,259.80762113533154" fill="#a0dbf3" fill-opacity="0.5726345627895644" stroke="none"/><polygon points="330,311.76914536239786 360,259.80762113533154 390,311.76914536239786" fill="#ceddea" fill-opacity="0.15658781153368717" stroke="none"/><polygon points="360,259.80762113533154 390,311.76914536239786 420,259.80762113533154" fill="#e9f4fc" fill-opacity="0.05962248831194648" stroke="none"/><polygon points="390,311.76914536239786 420,259.80762113533154 450,311.76914536239786" fill="#92b5c3" fill-opacity="0.5712815831021848" stroke="none"/><polygon points="420,259.80762113533154 450,311.76914536239786 480,259.80762113533154" fill="#d5f0fc" fill-opacity="0.17294895214372744" stroke="none"/><polygon points="450,311.76914536239786 480,259.80762113533154 510,311.76914536239786" fill="#e9f4fc" fill-opacity="0.05962248831194648" stroke="none"/><polygon points="480,259.80762113533154 510,311.76914536239786 540,259.80762113533154" fill="#9fbfcb" fill-opacity="0.45918536600568316" stroke="none"/><polygon points="510,311.76914536239786 540,259.80762113533154 570,311.76914536239786" fill="#e9f4fc" fill-opacity="0.05962248831194648" stroke="none"/><polygon points="540,259.80762113533154 570,311.76914536239786 600,259.80762113533154" fill="#9fbfcb" fill-opacity="0.45918536600568316" stroke="none"/><polygon points="570,311.76914536239786 600,259.80762113533154 630,311.76914536239786" fill="#6894af" fill-opacity="1" stroke="none"/><polygon points="600,259.80762113533154 630,311.76914536239786 660,259.80762113533154" fill="#70cafd" fill-opacity="1" stroke="none"/><polygon points="630,311.76914536239786 660,259.80762113533154 690,311.76914536239786" fill="#59b5d6" fill-opacity="1" stroke="none"/><polygon points="660,259.80762113533154 690,311.76914536239786 720,259.80762113533154" fill="#bfd4df" fill-opacity="0.23541182291937082" stroke="none"/><polygon points="690,311.76914536239786 720,259.80762113533154 750,311.76914536239786" fill="#ceddea" fill-opacity="0.15658781153368717" stroke="none"/><polygon points="720,259.80762113533154 750,311.76914536239786 780,259.80762113533154" fill="#92b5c3" fill-opacity="0.5712815831021848" stroke="none"/><polygon points="750,311.76914536239786 780,259.80762113533154 810,311.76914536239786" fill="#92b5c3" fill-opacity="0.5712815831021848" stroke="none"/><polygon points="780,259.80762113533154 810,311.76914536239786 840,259.80762113533154" fill="#8bd5f1" fill-opacity="0.7885968240752209" stroke="none"/><polygon points="0,363.7306695894642 30,311.76914536239786 60,363.7306695894642" fill="#abc7d1" fill-opacity="0.3666222420041833" stroke="none"/><polygon points="30,311.76914536239786 60,363.7306695894642 90,311.76914536239786" fill="#87acc0" fill-opacity="0.678910125010385" stroke="none"/><polygon points="60,363.7306695894642 90,311.76914536239786 120,363.7306695894642" fill="#99cee3" fill-opacity="0.5706348813853569" stroke="none"/><polygon points="90,311.76914536239786 120,363.7306695894642 150,311.76914536239786" fill="#92b5c3" fill-opacity="0.5712815831021848" stroke="none"/><polygon points="120,363.7306695894642 150,311.76914536239786 180,363.7306695894642" fill="#abc7d1" fill-opacity="0.3666222420041833" stroke="none"/><polygon points="150,311.76914536239786 180,363.7306695894642 210,311.76914536239786" fill="#87acc0" fill-opacity="0.678910125010385" stroke="none"/><polygon points="180,363.7306695894642 210,311.76914536239786 240,363.7306695894642" fill="#e9f4fc" fill-opacity="0.05962248831194648" stroke="none"/><polygon points="210,311.76914536239786 240,363.7306695894642 270,311.76914536239786" fill="#bfd4df" fill-opacity="0.23541182291937082" stroke="none"/><polygon points="240,363.7306695894642 270,311.76914536239786 300,363.7306695894642" fill="#e9f4fc" fill-opacity="0.05962248831194648" stroke="none"/><polygon points="270,311.76914536239786 300,363.7306695894642 330,311.76914536239786" fill="#9fbfcb" fill-opacity="0.45918536600568316" stroke="none"/><polygon points="300,363.7306695894642 330,311.76914536239786 360,363.7306695894642" fill="#9fbfcb" fill-opacity="0.45918536600568316" stroke="none"/><polygon points="330,311.76914536239786 360,363.7306695894642 390,311.76914536239786" fill="#abc7d1" fill-opacity="0.3666222420041833" stroke="none"/><polygon points="360,363.7306695894642 390,311.76914536239786 420,363.7306695894642" fill="#b3bcc1" fill-opacity="0.36148987322568044" stroke="none"/><polygon points="390,311.76914536239786 420,363.7306695894642 450,311.76914536239786" fill="#87acc0" fill-opacity="0.678910125010385" stroke="none"/><polygon points="420,363.7306695894642 450,311.76914536239786 480,363.7306695894642" fill="#87acc0" fill-opacity="0.678910125010385" stroke="none"/><polygon points="450,311.76914536239786 480,363.7306695894642 510,311.76914536239786" fill="#e9f4fc" fill-opacity="0.05962248831194648" stroke="none"/><polygon points="480,363.7306695894642 510,311.76914536239786 540,363.7306695894642" fill="#abc7d1" fill-opacity="0.3666222420041833" stroke="none"/><polygon points="510,311.76914536239786 540,363.7306695894642 570,311.76914536239786" fill="#92b5c3" fill-opacity="0.5712815831021848" stroke="none"/><polygon points="540,363.7306695894642 570,311.76914536239786 600,363.7306695894642" fill="#afe1f7" fill-opacity="0.4490032805597609" stroke="none"/><polygon points="570,311.76914536239786 600,363.7306695894642 630,311.76914536239786" fill="#afe1f7" fill-opacity="0.4490032805597609" stroke="none"/><polygon points="600,363.7306695894642 630,311.76914536239786 660,363.7306695894642" fill="#abc7d1" fill-opacity="0.3666222420041833" stroke="none"/><polygon points="630,311.76914536239786 660,363.7306695894642 690,311.76914536239786" fill="#ceddea" fill-opacity="0.15658781153368717" stroke="none"/><polygon points="660,363.7306695894642 690,311.76914536239786 720,363.7306695894642" fill="#e9f4fc" fill-opacity="0.05962248831194648" stroke="none"/><polygon points="690,311.76914536239786 720,363.7306695894642 750,311.76914536239786" fill="#59b5d6" fill-opacity="1" stroke="none"/><polygon points="720,363.7306695894642 750,311.76914536239786 780,363.7306695894642" fill="#d5f0fc" fill-opacity="0.17294895214372744" stroke="none"/><polygon points="750,311.76914536239786 780,363.7306695894642 810,311.76914536239786" fill="#bfd4df" fill-opacity="0.23541182291937082" stroke="none"/><polygon points="780,363.7306695894642 810,311.76914536239786 840,363.7306695894642" fill="#abc7d1" fill-opacity="0.3666222420041833" stroke="none"/><polygon points="0,363.7306695894642 30,415.6921938165305 60,363.7306695894642" fill="#a0dbf3" fill-opacity="0.5726345627895644" stroke="none"/><polygon points="30,415.6921938165305 60,363.7306695894642 90,415.6921938165305" fill="#abc7d1" fill-opacity="0.3666222420041833" stroke="none"/><polygon points="60,363.7306695894642 90,415.6921938165305 120,363.7306695894642" fill="#6894af" fill-opacity="1" stroke="none"/><polygon points="90,415.6921938165305 120,363.7306695894642 150,415.6921938165305" fill="#a0dbf3" fill-opacity="0.5726345627895644" stroke="none"/><polygon points="120,363.7306695894642 150,415.6921938165305 180,363.7306695894642" fill="#9fbfcb" fill-opacity="0.45918536600568316" stroke="none"/><polygon points="150,415.6921938165305 180,363.7306695894642 210,415.6921938165305" fill="#87acc0" fill-opacity="0.678910125010385" stroke="none"/><polygon points="180,363.7306695894642 210,415.6921938165305 240,363.7306695894642" fill="#92b5c3" fill-opacity="0.5712815831021848" stroke="none"/><polygon points="210,415.6921938165305 240,363.7306695894642 270,415.6921938165305" fill="#ceddea" fill-opacity="0.15658781153368717" stroke="none"/><polygon points="240,363.7306695894642 270,415.6921938165305 300,363.7306695894642" fill="#818d95" fill-opacity="0.8165818884008311" stroke="none"/><polygon points="270,415.6921938165305 300,363.7306695894642 330,415.6921938165305" fill="#abc7d1" fill-opacity="0.3666222420041833" stroke="none"/><polygon points="300,363.7306695894642 330,415.6921938165305 360,363.7306695894642" fill="#92b5c3" fill-opacity="0.5712815831021848" stroke="none"/><polygon points="330,415.6921938165305 360,363.7306695894642 390,415.6921938165305" fill="#e9f4fc" fill-opacity="0.05962248831194648" stroke="none"/><polygon points="360,363.7306695894642 390,415.6921938165305 420,363.7306695894642" fill="#ceddea" fill-opacity="0.15658781153368717" stroke="none"/><polygon points="390,415.6921938165305 420,363.7306695894642 450,415.6921938165305" fill="#dee7ef" fill-opacity="0.08262204304001196" stroke="none"/><polygon points="420,363.7306695894642 450,415.6921938165305 480,363.7306695894642" fill="#92b5c3" fill-opacity="0.5712815831021848" stroke="none"/><polygon points="450,415.6921938165305 480,363.7306695894642 510,415.6921938165305" fill="#bfd4df" fill-opacity="0.23541182291937082" stroke="none"/><polygon points="480,363.7306695894642 510,415.6921938165305 540,363.7306695894642" fill="#ceddea" fill-opacity="0.15658781153368717" stroke="none"/><polygon points="510,415.6921938165305 540,363.7306695894642 570,415.6921938165305" fill="#70cafd" fill-opacity="1" stroke="none"/><polygon points="540,363.7306695894642 570,415.6921938165305 600,363.7306695894642" fill="#e9f4fc" fill-opacity="0.05962248831194648" stroke="none"/><polygon points="570,415.6921938165305 600,363.7306695894642 630,415.6921938165305" fill="#e9f4fc" fill-opacity="0.05962248831194648" stroke="none"/><polygon points="600,363.7306695894642 630,415.6921938165305 660,363.7306695894642" fill="#e9f4fc" fill-opacity="0.05962248831194648" stroke="none"/><polygon points="630,415.6921938165305 660,363.7306695894642 690,415.6921938165305" fill="#9fbfcb" fill-opacity="0.45918536600568316" stroke="none"/><polygon points="660,363.7306695894642 690,415.6921938165305 720,363.7306695894642" fill="#9fbfcb" fill-opacity="0.45918536600568316" stroke="none"/><polygon points="690,415.6921938165305 720,363.7306695894642 750,415.6921938165305" fill="#92b5c3" fill-opacity="0.5712815831021848" stroke="none"/><polygon points="720,363.7306695894642 750,415.6921938165305 780,363.7306695894642" fill="#abc7d1" fill-opacity="0.3666222420041833" stroke="none"/><polygon points="750,415.6921938165305 780,363.7306695894642 810,415.6921938165305" fill="#afe1f7" fill-opacity="0.4490032805597609" stroke="none"/><polygon points="780,363.7306695894642 810,415.6921938165305 840,363.7306695894642" fill="#a0dbf3" fill-opacity="0.5726345627895644" stroke="none"/><polygon points="0,467.6537180435968 30,415.6921938165305 60,467.6537180435968" fill="#bfd4df" fill-opacity="0.23541182291937082" stroke="none"/><polygon points="30,415.6921938165305 60,467.6537180435968 90,415.6921938165305" fill="#afe1f7" fill-opacity="0.4490032805597609" stroke="none"/><polygon points="60,467.6537180435968 90,415.6921938165305 120,467.6537180435968" fill="#87acc0" fill-opacity="0.678910125010385" stroke="none"/><polygon points="90,415.6921938165305 120,467.6537180435968 150,415.6921938165305" fill="#e9f4fc" fill-opacity="0.05962248831194648" stroke="none"/><polygon points="120,467.6537180435968 150,415.6921938165305 180,467.6537180435968" fill="#afe1f7" fill-opacity="0.4490032805597609" stroke="none"/><polygon points="150,415.6921938165305 180,467.6537180435968 210,415.6921938165305" fill="#70cafd" fill-opacity="1" stroke="none"/><polygon points="180,467.6537180435968 210,415.6921938165305 240,467.6537180435968" fill="#dee7ef" fill-opacity="0.08262204304001196" stroke="none"/><polygon points="210,415.6921938165305 240,467.6537180435968 270,415.6921938165305" fill="#abc7d1" fill-opacity="0.3666222420041833" stroke="none"/><polygon points="240,467.6537180435968 270,415.6921938165305 300,467.6537180435968" fill="#87acc0" fill-opacity="0.678910125010385" stroke="none"/><polygon points="270,415.6921938165305 300,467.6537180435968 330,415.6921938165305" fill="#9fbfcb" fill-opacity="0.45918536600568316" stroke="none"/><polygon points="300,467.6537180435968 330,415.6921938165305 360,467.6537180435968" fill="#8bd5f1" fill-opacity="0.7885968240752209" stroke="none"/><polygon points="330,415.6921938165305 360,467.6537180435968 390,415.6921938165305" fill="#dee7ef" fill-opacity="0.08262204304001196" stroke="none"/><polygon points="360,467.6537180435968 390,415.6921938165305 420,467.6537180435968" fill="#87acc0" fill-opacity="0.678910125010385" stroke="none"/><polygon points="390,415.6921938165305 420,467.6537180435968 450,415.6921938165305" fill="#6894af" fill-opacity="1" stroke="none"/><polygon points="420,467.6537180435968 450,415.6921938165305 480,467.6537180435968" fill="#9fbfcb" fill-opacity="0.45918536600568316" stroke="none"/><polygon points="450,415.6921938165305 480,467.6537180435968 510,415.6921938165305" fill="#bfd4df" fill-opacity="0.23541182291937082" stroke="none"/><polygon points="480,467.6537180435968 510,415.6921938165305 540,467.6537180435968" fill="#afe1f7" fill-opacity="0.4490032805597609" stroke="none"/><polygon points="510,415.6921938165305 540,467.6537180435968 570,415.6921938165305" fill="#99cee3" fill-opacity="0.5706348813853569" stroke="none"/><polygon points="540,467.6537180435968 570,415.6921938165305 600,467.6537180435968" fill="#87acc0" fill-opacity="0.678910125010385" stroke="none"/><polygon points="570,415.6921938165305 600,467.6537180435968 630,415.6921938165305" fill="#d5f0fc" fill-opacity="0.17294895214372744" stroke="none"/><polygon points="600,467.6537180435968 630,415.6921938165305 660,467.6537180435968" fill="#afe1f7" fill-opacity="0.4490032805597609" stroke="none"/><polygon points="630,415.6921938165305 660,467.6537180435968 690,415.6921938165305" fill="#59b5d6" fill-opacity="1" stroke="none"/><polygon points="660,467.6537180435968 690,415.6921938165305 720,467.6537180435968" fill="#70cafd" fill-opacity="1" stroke="none"/><polygon points="690,415.6921938165305 720,467.6537180435968 750,415.6921938165305" fill="#818d95" fill-opacity="0.8165818884008311" stroke="none"/><polygon points="720,467.6537180435968 750,415.6921938165305 780,467.6537180435968" fill="#9fbfcb" fill-opacity="0.45918536600568316" stroke="none"/><polygon points="750,415.6921938165305 780,467.6537180435968 810,415.6921938165305" fill="#abc7d1" fill-opacity="0.3666222420041833" stroke="none"/><polygon points="780,467.6537180435968 810,415.6921938165305 840,467.6537180435968" fill="#bfd4df" fill-opacity="0.23541182291937082" stroke="none"/><polygon points="0,467.6537180435968 30,519.6152422706631 60,467.6537180435968" fill="#afe1f7" fill-opacity="0.4490032805597609" stroke="none"/><polygon points="30,519.6152422706631 60,467.6537180435968 90,519.6152422706631" fill="#d5f0fc" fill-opacity="0.17294895214372744" stroke="none"/><polygon points="60,467.6537180435968 90,519.6152422706631 120,467.6537180435968" fill="#abc7d1" fill-opacity="0.3666222420041833" stroke="none"/><polygon points="90,519.6152422706631 120,467.6537180435968 150,519.6152422706631" fill="#87acc0" fill-opacity="0.678910125010385" stroke="none"/><polygon points="120,467.6537180435968 150,519.6152422706631 180,467.6537180435968" fill="#87acc0" fill-opacity="0.678910125010385" stroke="none"/><polygon points="150,519.6152422706631 180,467.6537180435968 210,519.6152422706631" fill="#afe1f7" fill-opacity="0.4490032805597609" stroke="none"/><polygon points="180,467.6537180435968 210,519.6152422706631 240,467.6537180435968" fill="#818d95" fill-opacity="0.8165818884008311" stroke="none"/><polygon points="210,519.6152422706631 240,467.6537180435968 270,519.6152422706631" fill="#b3bcc1" fill-opacity="0.36148987322568044" stroke="none"/><polygon points="240,467.6537180435968 270,519.6152422706631 300,467.6537180435968" fill="#9fbfcb" fill-opacity="0.45918536600568316" stroke="none"/><polygon points="270,519.6152422706631 300,467.6537180435968 330,519.6152422706631" fill="#9fbfcb" fill-opacity="0.45918536600568316" stroke="none"/><polygon points="300,467.6537180435968 330,519.6152422706631 360,467.6537180435968" fill="#929d9f" fill-opacity="0.6763216127354335" stroke="none"/><polygon points="330,519.6152422706631 360,467.6537180435968 390,519.6152422706631" fill="#abc7d1" fill-opacity="0.3666222420041833" stroke="none"/><polygon points="360,467.6537180435968 390,519.6152422706631 420,467.6537180435968" fill="#e9f4fc" fill-opacity="0.05962248831194648" stroke="none"/><polygon points="390,519.6152422706631 420,467.6537180435968 450,519.6152422706631" fill="#87acc0" fill-opacity="0.678910125010385" stroke="none"/><polygon points="420,467.6537180435968 450,519.6152422706631 480,467.6537180435968" fill="#9fbfcb" fill-opacity="0.45918536600568316" stroke="none"/><polygon points="450,519.6152422706631 480,467.6537180435968 510,519.6152422706631" fill="#92b5c3" fill-opacity="0.5712815831021848" stroke="none"/><polygon points="480,467.6537180435968 510,519.6152422706631 540,467.6537180435968" fill="#9fbfcb" fill-opacity="0.45918536600568316" stroke="none"/><polygon points="510,519.6152422706631 540,467.6537180435968 570,519.6152422706631" fill="#bfd4df" fill-opacity="0.23541182291937082" stroke="none"/><polygon points="540,467.6537180435968 570,519.6152422706631 600,467.6537180435968" fill="#70cafd" fill-opacity="1" stroke="none"/><polygon points="570,519.6152422706631 600,467.6537180435968 630,519.6152422706631" fill="#e9f4fc" fill-opacity="0.05962248831194648" stroke="none"/><polygon points="600,467.6537180435968 630,519.6152422706631 660,467.6537180435968" fill="#87acc0" fill-opacity="0.678910125010385" stroke="none"/><polygon points="630,519.6152422706631 660,467.6537180435968 690,519.6152422706631" fill="#92b5c3" fill-opacity="0.5712815831021848" stroke="none"/><polygon points="660,467.6537180435968 690,519.6152422706631 720,467.6537180435968" fill="#ceddea" fill-opacity="0.15658781153368717" stroke="none"/><polygon points="690,519.6152422706631 720,467.6537180435968 750,519.6152422706631" fill="#9fbfcb" fill-opacity="0.45918536600568316" stroke="none"/><polygon points="720,467.6537180435968 750,519.6152422706631 780,467.6537180435968" fill="#a0dbf3" fill-opacity="0.5726345627895644" stroke="none"/><polygon points="750,519.6152422706631 780,467.6537180435968 810,519.6152422706631" fill="#87acc0" fill-opacity="0.678910125010385" stroke="none"/><polygon points="780,467.6537180435968 810,519.6152422706631 840,467.6537180435968" fill="#afe1f7" fill-opacity="0.4490032805597609" stroke="none"/><polygon points="0,571.5767664977294 30,519.6152422706631 60,571.5767664977294" fill="#e9f4fc" fill-opacity="0.05962248831194648" stroke="none"/><polygon points="30,519.6152422706631 60,571.5767664977294 90,519.6152422706631" fill="#a0dbf3" fill-opacity="0.5726345627895644" stroke="none"/><polygon points="60,571.5767664977294 90,519.6152422706631 120,571.5767664977294" fill="#bfd4df" fill-opacity="0.23541182291937082" stroke="none"/><polygon points="90,519.6152422706631 120,571.5767664977294 150,519.6152422706631" fill="#abc7d1" fill-opacity="0.3666222420041833" stroke="none"/><polygon points="120,571.5767664977294 150,519.6152422706631 180,571.5767664977294" fill="#dee7ef" fill-opacity="0.08262204304001196" stroke="none"/><polygon points="150,519.6152422706631 180,571.5767664977294 210,519.6152422706631" fill="#ceddea" fill-opacity="0.15658781153368717" stroke="none"/><polygon points="180,571.5767664977294 210,519.6152422706631 240,571.5767664977294" fill="#d5f0fc" fill-opacity="0.17294895214372744" stroke="none"/><polygon points="210,519.6152422706631 240,571.5767664977294 270,519.6152422706631" fill="#92b5c3" fill-opacity="0.5712815831021848" stroke="none"/><polygon points="240,571.5767664977294 270,519.6152422706631 300,571.5767664977294" fill="#ceddea" fill-opacity="0.15658781153368717" stroke="none"/><polygon points="270,519.6152422706631 300,571.5767664977294 330,519.6152422706631" fill="#afe1f7" fill-opacity="0.4490032805597609" stroke="none"/><polygon points="300,571.5767664977294 330,519.6152422706631 360,571.5767664977294" fill="#d5f0fc" fill-opacity="0.17294895214372744" stroke="none"/><polygon points="330,519.6152422706631 360,571.5767664977294 390,519.6152422706631" fill="#dee7ef" fill-opacity="0.08262204304001196" stroke="none"/><polygon points="360,571.5767664977294 390,519.6152422706631 420,571.5767664977294" fill="#92b5c3" fill-opacity="0.5712815831021848" stroke="none"/><polygon points="390,519.6152422706631 420,571.5767664977294 450,519.6152422706631" fill="#99cee3" fill-opacity="0.5706348813853569" stroke="none"/><polygon points="420,571.5767664977294 450,519.6152422706631 480,571.5767664977294" fill="#b3bcc1" fill-opacity="0.36148987322568044" stroke="none"/><polygon points="450,519.6152422706631 480,571.5767664977294 510,519.6152422706631" fill="#b3bcc1" fill-opacity="0.36148987322568044" stroke="none"/><polygon points="480,571.5767664977294 510,519.6152422706631 540,571.5767664977294" fill="#818d95" fill-opacity="0.8165818884008311" stroke="none"/><polygon points="510,519.6152422706631 540,571.5767664977294 570,519.6152422706631" fill="#ceddea" fill-opacity="0.15658781153368717" stroke="none"/><polygon points="540,571.5767664977294 570,519.6152422706631 600,571.5767664977294" fill="#a0dbf3" fill-opacity="0.5726345627895644" stroke="none"/><polygon points="570,519.6152422706631 600,571.5767664977294 630,519.6152422706631" fill="#d5f0fc" fill-opacity="0.17294895214372744" stroke="none"/><polygon points="600,571.5767664977294 630,519.6152422706631 660,571.5767664977294" fill="#e9f4fc" fill-opacity="0.05962248831194648" stroke="none"/><polygon points="630,519.6152422706631 660,571.5767664977294 690,519.6152422706631" fill="#6894af" fill-opacity="1" stroke="none"/><polygon points="660,571.5767664977294 690,519.6152422706631 720,571.5767664977294" fill="#8bd5f1" fill-opacity="0.7885968240752209" stroke="none"/><polygon points="690,519.6152422706631 720,571.5767664977294 750,519.6152422706631" fill="#92b5c3" fill-opacity="0.5712815831021848" stroke="none"/><polygon points="720,571.5767664977294 750,519.6152422706631 780,571.5767664977294" fill="#afe1f7" fill-opacity="0.4490032805597609" stroke="none"/><polygon points="750,519.6152422706631 780,571.5767664977294 810,519.6152422706631" fill="#bfd4df" fill-opacity="0.23541182291937082" stroke="none"/><polygon points="780,571.5767664977294 810,519.6152422706631 840,571.5767664977294" fill="#e9f4fc" fill-opacity="0.05962248831194648" stroke="none"/><polygon points="0,571.5767664977294 30,623.5382907247957 60,571.5767664977294" fill="#e9f4fc" fill-opacity="0.05962248831194648" stroke="none"/><polygon points="30,623.5382907247957 60,571.5767664977294 90,623.5382907247957" fill="#e9f4fc" fill-opacity="0.05962248831194648" stroke="none"/><polygon points="60,571.5767664977294 90,623.5382907247957 120,571.5767664977294" fill="#e9f4fc" fill-opacity="0.05962248831194648" stroke="none"/><polygon points="90,623.5382907247957 120,571.5767664977294 150,623.5382907247957" fill="#e9f4fc" fill-opacity="0.05962248831194648" stroke="none"/><polygon points="120,571.5767664977294 150,623.5382907247957 180,571.5767664977294" fill="#929d9f" fill-opacity="0.6763216127354335" stroke="none"/><polygon points="150,623.5382907247957 180,571.5767664977294 210,623.5382907247957" fill="#87acc0" fill-opacity="0.678910125010385" stroke="none"/><polygon points="180,571.5767664977294 210,623.5382907247957 240,571.5767664977294" fill="#dee7ef" fill-opacity="0.08262204304001196" stroke="none"/><polygon points="210,623.5382907247957 240,571.5767664977294 270,623.5382907247957" fill="#ceddea" fill-opacity="0.15658781153368717" stroke="none"/><polygon points="240,571.5767664977294 270,623.5382907247957 300,571.5767664977294" fill="#bfd4df" fill-opacity="0.23541182291937082" stroke="none"/><polygon points="270,623.5382907247957 300,571.5767664977294 330,623.5382907247957" fill="#92b5c3" fill-opacity="0.5712815831021848" stroke="none"/><polygon points="300,571.5767664977294 330,623.5382907247957 360,571.5767664977294" fill="#bfd4df" fill-opacity="0.23541182291937082" stroke="none"/><polygon points="330,623.5382907247957 360,571.5767664977294 390,623.5382907247957" fill="#abc7d1" fill-opacity="0.3666222420041833" stroke="none"/><polygon points="360,571.5767664977294 390,623.5382907247957 420,571.5767664977294" fill="#9fbfcb" fill-opacity="0.45918536600568316" stroke="none"/><polygon points="390,623.5382907247957 420,571.5767664977294 450,623.5382907247957" fill="#e9f4fc" fill-opacity="0.05962248831194648" stroke="none"/><polygon points="420,571.5767664977294 450,623.5382907247957 480,571.5767664977294" fill="#ceddea" fill-opacity="0.15658781153368717" stroke="none"/><polygon points="450,623.5382907247957 480,571.5767664977294 510,623.5382907247957" fill="#dee7ef" fill-opacity="0.08262204304001196" stroke="none"/><polygon points="480,571.5767664977294 510,623.5382907247957 540,571.5767664977294" fill="#d5f0fc" fill-opacity="0.17294895214372744" stroke="none"/><polygon points="510,623.5382907247957 540,571.5767664977294 570,623.5382907247957" fill="#70cafd" fill-opacity="1" stroke="none"/><polygon points="540,571.5767664977294 570,623.5382907247957 600,571.5767664977294" fill="#87acc0" fill-opacity="0.678910125010385" stroke="none"/><polygon points="570,623.5382907247957 600,571.5767664977294 630,623.5382907247957" fill="#87acc0" fill-opacity="0.678910125010385" stroke="none"/><polygon points="600,571.5767664977294 630,623.5382907247957 660,571.5767664977294" fill="#bfd4df" fill-opacity="0.23541182291937082" stroke="none"/><polygon points="630,623.5382907247957 660,571.5767664977294 690,623.5382907247957" fill="#87acc0" fill-opacity="0.678910125010385" stroke="none"/><polygon points="660,571.5767664977294 690,623.5382907247957 720,571.5767664977294" fill="#a0dbf3" fill-opacity="0.5726345627895644" stroke="none"/><polygon points="690,623.5382907247957 720,571.5767664977294 750,623.5382907247957" fill="#afe1f7" fill-opacity="0.4490032805597609" stroke="none"/><polygon points="720,571.5767664977294 750,623.5382907247957 780,571.5767664977294" fill="#a0dbf3" fill-opacity="0.5726345627895644" stroke="none"/><polygon points="750,623.5382907247957 780,571.5767664977294 810,623.5382907247957" fill="#e9f4fc" fill-opacity="0.05962248831194648" stroke="none"/><polygon points="780,571.5767664977294 810,623.5382907247957 840,571.5767664977294" fill="#e9f4fc" fill-opacity="0.05962248831194648" stroke="none"/><polygon points="0,675.499814951862 30,623.5382907247957 60,675.499814951862" fill="#92b5c3" fill-opacity="0.5712815831021848" stroke="none"/><polygon points="30,623.5382907247957 60,675.499814951862 90,623.5382907247957" fill="#ceddea" fill-opacity="0.15658781153368717" stroke="none"/><polygon points="60,675.499814951862 90,623.5382907247957 120,675.499814951862" fill="#818d95" fill-opacity="0.8165818884008311" stroke="none"/><polygon points="90,623.5382907247957 120,675.499814951862 150,623.5382907247957" fill="#dee7ef" fill-opacity="0.08262204304001196" stroke="none"/><polygon points="120,675.499814951862 150,623.5382907247957 180,675.499814951862" fill="#818d95" fill-opacity="0.8165818884008311" stroke="none"/><polygon points="150,623.5382907247957 180,675.499814951862 210,623.5382907247957" fill="#8bd5f1" fill-opacity="0.7885968240752209" stroke="none"/><polygon points="180,675.499814951862 210,623.5382907247957 240,675.499814951862" fill="#87acc0" fill-opacity="0.678910125010385" stroke="none"/><polygon points="210,623.5382907247957 240,675.499814951862 270,623.5382907247957" fill="#dee7ef" fill-opacity="0.08262204304001196" stroke="none"/><polygon points="240,675.499814951862 270,623.5382907247957 300,675.499814951862" fill="#818d95" fill-opacity="0.8165818884008311" stroke="none"/><polygon points="270,623.5382907247957 300,675.499814951862 330,623.5382907247957" fill="#59b5d6" fill-opacity="1" stroke="none"/><polygon points="300,675.499814951862 330,623.5382907247957 360,675.499814951862" fill="#afe1f7" fill-opacity="0.4490032805597609" stroke="none"/><polygon points="330,623.5382907247957 360,675.499814951862 390,623.5382907247957" fill="#87acc0" fill-opacity="0.678910125010385" stroke="none"/><polygon points="360,675.499814951862 390,623.5382907247957 420,675.499814951862" fill="#8bd5f1" fill-opacity="0.7885968240752209" stroke="none"/><polygon points="390,623.5382907247957 420,675.499814951862 450,623.5382907247957" fill="#8bd5f1" fill-opacity="0.7885968240752209" stroke="none"/><polygon points="420,675.499814951862 450,623.5382907247957 480,675.499814951862" fill="#ceddea" fill-opacity="0.15658781153368717" stroke="none"/><polygon points="450,623.5382907247957 480,675.499814951862 510,623.5382907247957" fill="#92b5c3" fill-opacity="0.5712815831021848" stroke="none"/><polygon points="480,675.499814951862 510,623.5382907247957 540,675.499814951862" fill="#70cafd" fill-opacity="1" stroke="none"/><polygon points="510,623.5382907247957 540,675.499814951862 570,623.5382907247957" fill="#99cee3" fill-opacity="0.5706348813853569" stroke="none"/><polygon points="540,675.499814951862 570,623.5382907247957 600,675.499814951862" fill="#9fbfcb" fill-opacity="0.45918536600568316" stroke="none"/><polygon points="570,623.5382907247957 600,675.499814951862 630,623.5382907247957" fill="#70cafd" fill-opacity="1" stroke="none"/><polygon points="600,675.499814951862 630,623.5382907247957 660,675.499814951862" fill="#a0dbf3" fill-opacity="0.5726345627895644" stroke="none"/><polygon points="630,623.5382907247957 660,675.499814951862 690,623.5382907247957" fill="#87acc0" fill-opacity="0.678910125010385" stroke="none"/><polygon points="660,675.499814951862 690,623.5382907247957 720,675.499814951862" fill="#abc7d1" fill-opacity="0.3666222420041833" stroke="none"/><polygon points="690,623.5382907247957 720,675.499814951862 750,623.5382907247957" fill="#e9f4fc" fill-opacity="0.05962248831194648" stroke="none"/><polygon points="720,675.499814951862 750,623.5382907247957 780,675.499814951862" fill="#abc7d1" fill-opacity="0.3666222420041833" stroke="none"/><polygon points="750,623.5382907247957 780,675.499814951862 810,623.5382907247957" fill="#ceddea" fill-opacity="0.15658781153368717" stroke="none"/><polygon points="780,675.499814951862 810,623.5382907247957 840,675.499814951862" fill="#92b5c3" fill-opacity="0.5712815831021848" stroke="none"/><polygon points="0,675.499814951862 30,727.4613391789284 60,675.499814951862" fill="#e9f4fc" fill-opacity="0.05962248831194648" stroke="none"/><polygon points="30,727.4613391789284 60,675.499814951862 90,727.4613391789284" fill="#d5f0fc" fill-opacity="0.17294895214372744" stroke="none"/><polygon points="60,675.499814951862 90,727.4613391789284 120,675.499814951862" fill="#afe1f7" fill-opacity="0.4490032805597609" stroke="none"/><polygon points="90,727.4613391789284 120,675.499814951862 150,727.4613391789284" fill="#757474" fill-opacity="1" stroke="none"/><polygon points="120,675.499814951862 150,727.4613391789284 180,675.499814951862" fill="#59b5d6" fill-opacity="1" stroke="none"/><polygon points="150,727.4613391789284 180,675.499814951862 210,727.4613391789284" fill="#afe1f7" fill-opacity="0.4490032805597609" stroke="none"/><polygon points="180,675.499814951862 210,727.4613391789284 240,675.499814951862" fill="#abc7d1" fill-opacity="0.3666222420041833" stroke="none"/><polygon points="210,727.4613391789284 240,675.499814951862 270,727.4613391789284" fill="#dee7ef" fill-opacity="0.08262204304001196" stroke="none"/><polygon points="240,675.499814951862 270,727.4613391789284 300,675.499814951862" fill="#ceddea" fill-opacity="0.15658781153368717" stroke="none"/><polygon points="270,727.4613391789284 300,675.499814951862 330,727.4613391789284" fill="#87acc0" fill-opacity="0.678910125010385" stroke="none"/><polygon points="300,675.499814951862 330,727.4613391789284 360,675.499814951862" fill="#e9f4fc" fill-opacity="0.05962248831194648" stroke="none"/><polygon points="330,727.4613391789284 360,675.499814951862 390,727.4613391789284" fill="#59b5d6" fill-opacity="1" stroke="none"/><polygon points="360,675.499814951862 390,727.4613391789284 420,675.499814951862" fill="#87acc0" fill-opacity="0.678910125010385" stroke="none"/><polygon points="390,727.4613391789284 420,675.499814951862 450,727.4613391789284" fill="#99cee3" fill-opacity="0.5706348813853569" stroke="none"/><polygon points="420,675.499814951862 450,727.4613391789284 480,675.499814951862" fill="#d5f0fc" fill-opacity="0.17294895214372744" stroke="none"/><polygon points="450,727.4613391789284 480,675.499814951862 510,727.4613391789284" fill="#87acc0" fill-opacity="0.678910125010385" stroke="none"/><polygon points="480,675.499814951862 510,727.4613391789284 540,675.499814951862" fill="#e9f4fc" fill-opacity="0.05962248831194648" stroke="none"/><polygon points="510,727.4613391789284 540,675.499814951862 570,727.4613391789284" fill="#bfd4df" fill-opacity="0.23541182291937082" stroke="none"/><polygon points="540,675.499814951862 570,727.4613391789284 600,675.499814951862" fill="#d5f0fc" fill-opacity="0.17294895214372744" stroke="none"/><polygon points="570,727.4613391789284 600,675.499814951862 630,727.4613391789284" fill="#9fbfcb" fill-opacity="0.45918536600568316" stroke="none"/><polygon points="600,675.499814951862 630,727.4613391789284 660,675.499814951862" fill="#abc7d1" fill-opacity="0.3666222420041833" stroke="none"/><polygon points="630,727.4613391789284 660,675.499814951862 690,727.4613391789284" fill="#9fbfcb" fill-opacity="0.45918536600568316" stroke="none"/><polygon points="660,675.499814951862 690,727.4613391789284 720,675.499814951862" fill="#6894af" fill-opacity="1" stroke="none"/><polygon points="690,727.4613391789284 720,675.499814951862 750,727.4613391789284" fill="#87acc0" fill-opacity="0.678910125010385" stroke="none"/><polygon points="720,675.499814951862 750,727.4613391789284 780,675.499814951862" fill="#ceddea" fill-opacity="0.15658781153368717" stroke="none"/><polygon points="750,727.4613391789284 780,675.499814951862 810,727.4613391789284" fill="#929d9f" fill-opacity="0.6763216127354335" stroke="none"/><polygon points="780,675.499814951862 810,727.4613391789284 840,675.499814951862" fill="#e9f4fc" fill-opacity="0.05962248831194648" stroke="none"/><polygon points="0,779.4228634059947 30,727.4613391789284 60,779.4228634059947" fill="#99cee3" fill-opacity="0.5706348813853569" stroke="none"/><polygon points="30,727.4613391789284 60,779.4228634059947 90,727.4613391789284" fill="#bfd4df" fill-opacity="0.23541182291937082" stroke="none"/><polygon points="60,779.4228634059947 90,727.4613391789284 120,779.4228634059947" fill="#70cafd" fill-opacity="1" stroke="none"/><polygon points="90,727.4613391789284 120,779.4228634059947 150,727.4613391789284" fill="#87acc0" fill-opacity="0.678910125010385" stroke="none"/><polygon points="120,779.4228634059947 150,727.4613391789284 180,779.4228634059947" fill="#99cee3" fill-opacity="0.5706348813853569" stroke="none"/><polygon points="150,727.4613391789284 180,779.4228634059947 210,727.4613391789284" fill="#afe1f7" fill-opacity="0.4490032805597609" stroke="none"/><polygon points="180,779.4228634059947 210,727.4613391789284 240,779.4228634059947" fill="#87acc0" fill-opacity="0.678910125010385" stroke="none"/><polygon points="210,727.4613391789284 240,779.4228634059947 270,727.4613391789284" fill="#70cafd" fill-opacity="1" stroke="none"/><polygon points="240,779.4228634059947 270,727.4613391789284 300,779.4228634059947" fill="#a0dbf3" fill-opacity="0.5726345627895644" stroke="none"/><polygon points="270,727.4613391789284 300,779.4228634059947 330,727.4613391789284" fill="#afe1f7" fill-opacity="0.4490032805597609" stroke="none"/><polygon points="300,779.4228634059947 330,727.4613391789284 360,779.4228634059947" fill="#abc7d1" fill-opacity="0.3666222420041833" stroke="none"/><polygon points="330,727.4613391789284 360,779.4228634059947 390,727.4613391789284" fill="#d5f0fc" fill-opacity="0.17294895214372744" stroke="none"/><polygon points="360,779.4228634059947 390,727.4613391789284 420,779.4228634059947" fill="#ceddea" fill-opacity="0.15658781153368717" stroke="none"/><polygon points="390,727.4613391789284 420,779.4228634059947 450,727.4613391789284" fill="#92b5c3" fill-opacity="0.5712815831021848" stroke="none"/><polygon points="420,779.4228634059947 450,727.4613391789284 480,779.4228634059947" fill="#abc7d1" fill-opacity="0.3666222420041833" stroke="none"/><polygon points="450,727.4613391789284 480,779.4228634059947 510,727.4613391789284" fill="#abc7d1" fill-opacity="0.3666222420041833" stroke="none"/><polygon points="480,779.4228634059947 510,727.4613391789284 540,779.4228634059947" fill="#ceddea" fill-opacity="0.15658781153368717" stroke="none"/><polygon points="510,727.4613391789284 540,779.4228634059947 570,727.4613391789284" fill="#6894af" fill-opacity="1" stroke="none"/><polygon points="540,779.4228634059947 570,727.4613391789284 600,779.4228634059947" fill="#bfd4df" fill-opacity="0.23541182291937082" stroke="none"/><polygon points="570,727.4613391789284 600,779.4228634059947 630,727.4613391789284" fill="#9fbfcb" fill-opacity="0.45918536600568316" stroke="none"/><polygon points="600,779.4228634059947 630,727.4613391789284 660,779.4228634059947" fill="#87acc0" fill-opacity="0.678910125010385" stroke="none"/><polygon points="630,727.4613391789284 660,779.4228634059947 690,727.4613391789284" fill="#99cee3" fill-opacity="0.5706348813853569" stroke="none"/><polygon points="660,779.4228634059947 690,727.4613391789284 720,779.4228634059947" fill="#87acc0" fill-opacity="0.678910125010385" stroke="none"/><polygon points="690,727.4613391789284 720,779.4228634059947 750,727.4613391789284" fill="#ceddea" fill-opacity="0.15658781153368717" stroke="none"/><polygon points="720,779.4228634059947 750,727.4613391789284 780,779.4228634059947" fill="#dee7ef" fill-opacity="0.08262204304001196" stroke="none"/><polygon points="750,727.4613391789284 780,779.4228634059947 810,727.4613391789284" fill="#d5f0fc" fill-opacity="0.17294895214372744" stroke="none"/><polygon points="780,779.4228634059947 810,727.4613391789284 840,779.4228634059947" fill="#99cee3" fill-opacity="0.5706348813853569" stroke="none"/></svg>