<svg width="403" height="113" viewBox="0 0 403 113" fill="none" xmlns="http://www.w3.org/2000/svg">
<mask id="mask0_223_2083" style="mask-type:alpha" maskUnits="userSpaceOnUse" x="-1" y="7" width="108" height="104">
<rect x="-0.374054" y="7" width="106.82" height="104" fill="#D9D9D9"/>
</mask>
<g mask="url(#mask0_223_2083)">
<path d="M65.7025 82.517V25L40.3327 39.6039V68.3624L65.7025 82.517Z" fill="#040392"/>
<path d="M65.7025 82.517V25L91.0724 39.6039V68.3624L65.7025 82.517Z" fill="#1B89DC"/>
<path d="M65.6352 82.2934L15.4159 111.052L40.8518 125.542L65.9614 111.163L65.6352 82.2934Z" fill="#040392"/>
<path d="M65.6352 82.2934L15.4159 111.052L15.482 81.9576L40.5916 67.5784L65.6352 82.2934Z" fill="#1B89DC"/>
<path d="M115.854 111.05L65.6351 82.2911L91.071 67.8007L116.181 82.18L115.854 111.05Z" fill="#040392"/>
<path d="M115.854 111.05L65.6351 82.2911L65.7012 111.385L90.8108 125.765L115.854 111.05Z" fill="#1B89DC"/>
<path d="M98.7704 63.3389L120.006 75.5L123.929 77.7461L123.878 82.2666L123.602 106.615L131.195 110.964L123.502 115.483L123.403 124.243L115.903 119.948L94.7108 132.401L90.8603 134.664L86.9853 132.444L65.6366 120.219L44.6776 132.223L40.8622 134.407L37.0419 132.23L15.4257 119.916L7.68839 124.348L7.70792 115.52L-0.104584 111.069L7.72842 106.584L7.78409 81.9404L7.79385 77.4893L11.6562 75.2773L32.6347 63.2637V35.1533L36.4921 32.9326L58.0048 20.5488V11.6865L65.7021 16.1182L73.4003 11.6865V20.5488L94.913 32.9326L98.7704 35.1533V63.3389Z" stroke="white" stroke-width="15.3956"/>
</g>
<mask id="path-4-outside-1_223_2083" maskUnits="userSpaceOnUse" x="24.6259" y="38" width="379" height="75" fill="black">
<rect fill="white" x="24.6259" y="38" width="379" height="75"/>
<path d="M24.947 111V38.2727H54.0663C59.4167 38.2727 63.8793 39.0658 67.4541 40.652C71.0289 42.2382 73.7159 44.4399 75.5152 47.2571C77.3144 50.0507 78.214 53.2704 78.214 56.9162C78.214 59.7571 77.6458 62.2547 76.5095 64.4091C75.3731 66.5398 73.8106 68.2917 71.822 69.6648C69.857 71.0142 67.608 71.973 65.0748 72.5412V73.2514C67.8447 73.3698 70.437 74.151 72.8518 75.5952C75.2902 77.0393 77.267 79.0634 78.7822 81.6676C80.2974 84.2481 81.0549 87.3258 81.0549 90.9006C81.0549 94.7595 80.0961 98.2041 78.1785 101.234C76.2846 104.241 73.4792 106.62 69.7623 108.372C66.0455 110.124 61.4645 111 56.0194 111H24.947ZM40.3234 98.429H52.8589C57.1439 98.429 60.2689 97.6122 62.2339 95.9787C64.1989 94.3215 65.1813 92.1198 65.1813 89.3736C65.1813 87.3613 64.696 85.5857 63.7254 84.0469C62.7547 82.508 61.3698 81.3007 59.5705 80.4247C57.795 79.5488 55.6761 79.1108 53.214 79.1108H40.3234V98.429ZM40.3234 68.706H51.7225C53.8295 68.706 55.6998 68.339 57.3333 67.6051C58.9905 66.8475 60.2926 65.7822 61.2396 64.4091C62.2102 63.036 62.6955 61.3906 62.6955 59.473C62.6955 56.8452 61.7604 54.7263 59.8902 53.1165C58.0436 51.5066 55.4157 50.7017 52.0066 50.7017H40.3234V68.706ZM91.0602 111V38.2727H106.437V70.3395H107.395L133.567 38.2727H151.998L125.009 70.8366L152.317 111H133.922L114.001 81.0994L106.437 90.3324V111H91.0602Z"/>
<path d="M160.006 111V38.2727H175.382V68.2798H206.596V38.2727H221.937V111H206.596V80.9574H175.382V111H160.006ZM249.885 112.03C246.405 112.03 243.303 111.426 240.581 110.219C237.858 108.988 235.704 107.177 234.118 104.786C232.555 102.371 231.774 99.3641 231.774 95.7656C231.774 92.7353 232.33 90.1903 233.443 88.1307C234.556 86.071 236.071 84.4138 237.989 83.1591C239.906 81.9044 242.084 80.9574 244.523 80.3182C246.985 79.679 249.565 79.2292 252.264 78.9688C255.436 78.6373 257.993 78.3295 259.935 78.0455C261.876 77.7377 263.284 77.2879 264.16 76.696C265.036 76.1042 265.474 75.2282 265.474 74.0682V73.8551C265.474 71.6061 264.764 69.866 263.344 68.6349C261.947 67.4039 259.958 66.7884 257.378 66.7884C254.655 66.7884 252.489 67.392 250.879 68.5994C249.269 69.7831 248.204 71.2746 247.683 73.0739L233.692 71.9375C234.402 68.6231 235.799 65.7585 237.882 63.3438C239.965 60.9053 242.652 59.035 245.943 57.733C249.257 56.4072 253.093 55.7443 257.449 55.7443C260.479 55.7443 263.379 56.0994 266.149 56.8097C268.943 57.5199 271.417 58.6207 273.571 60.1122C275.749 61.6037 277.465 63.5213 278.72 65.8651C279.975 68.1851 280.602 70.9669 280.602 74.2102V111H266.256V103.436H265.829C264.953 105.141 263.782 106.644 262.314 107.946C260.846 109.224 259.082 110.231 257.023 110.964C254.963 111.675 252.584 112.03 249.885 112.03ZM254.217 101.589C256.443 101.589 258.408 101.152 260.112 100.276C261.817 99.3759 263.154 98.1686 264.125 96.6534C265.096 95.1383 265.581 93.4219 265.581 91.5043V85.7159C265.107 86.0237 264.456 86.3078 263.628 86.5682C262.823 86.8049 261.911 87.0298 260.893 87.2429C259.875 87.4323 258.857 87.6098 257.839 87.7756C256.821 87.9176 255.898 88.0478 255.069 88.1662C253.294 88.4266 251.743 88.8409 250.417 89.4091C249.092 89.9773 248.062 90.7467 247.328 91.7173C246.594 92.6643 246.227 93.848 246.227 95.2685C246.227 97.3281 246.973 98.9025 248.464 99.9915C249.98 101.057 251.897 101.589 254.217 101.589ZM316.984 112.065C311.396 112.065 306.591 110.882 302.566 108.514C298.565 106.123 295.487 102.809 293.333 98.571C291.202 94.3333 290.137 89.4564 290.137 83.9403C290.137 78.3532 291.214 73.4527 293.368 69.2386C295.547 65.0009 298.636 61.6984 302.637 59.331C306.638 56.9399 311.396 55.7443 316.913 55.7443C321.671 55.7443 325.838 56.6084 329.413 58.3366C332.987 60.0649 335.816 62.4915 337.9 65.6165C339.983 68.7415 341.131 72.411 341.344 76.625H327.069C326.666 73.9025 325.601 71.7126 323.873 70.0554C322.168 68.3745 319.931 67.5341 317.161 67.5341C314.817 67.5341 312.77 68.1733 311.018 69.4517C309.289 70.7064 307.94 72.5412 306.969 74.956C305.999 77.3707 305.513 80.2945 305.513 83.7273C305.513 87.2074 305.987 90.1667 306.934 92.6051C307.904 95.0436 309.266 96.902 311.018 98.1804C312.77 99.4588 314.817 100.098 317.161 100.098C318.889 100.098 320.44 99.7429 321.813 99.0327C323.21 98.3224 324.358 97.2926 325.258 95.9432C326.181 94.5701 326.785 92.9247 327.069 91.0071H341.344C341.108 95.1738 339.971 98.8433 337.935 102.016C335.923 105.164 333.141 107.626 329.59 109.402C326.039 111.178 321.837 112.065 316.984 112.065ZM364.737 95.304L364.773 77.1577H366.975L384.446 56.4545H401.811L378.338 83.8693H374.752L364.737 95.304ZM351.03 111V38.2727H366.158V111H351.03ZM385.121 111L369.07 87.2429L379.155 76.554L402.841 111H385.121Z"/>
</mask>
<path d="M24.947 111V38.2727H54.0663C59.4167 38.2727 63.8793 39.0658 67.4541 40.652C71.0289 42.2382 73.7159 44.4399 75.5152 47.2571C77.3144 50.0507 78.214 53.2704 78.214 56.9162C78.214 59.7571 77.6458 62.2547 76.5095 64.4091C75.3731 66.5398 73.8106 68.2917 71.822 69.6648C69.857 71.0142 67.608 71.973 65.0748 72.5412V73.2514C67.8447 73.3698 70.437 74.151 72.8518 75.5952C75.2902 77.0393 77.267 79.0634 78.7822 81.6676C80.2974 84.2481 81.0549 87.3258 81.0549 90.9006C81.0549 94.7595 80.0961 98.2041 78.1785 101.234C76.2846 104.241 73.4792 106.62 69.7623 108.372C66.0455 110.124 61.4645 111 56.0194 111H24.947ZM40.3234 98.429H52.8589C57.1439 98.429 60.2689 97.6122 62.2339 95.9787C64.1989 94.3215 65.1813 92.1198 65.1813 89.3736C65.1813 87.3613 64.696 85.5857 63.7254 84.0469C62.7547 82.508 61.3698 81.3007 59.5705 80.4247C57.795 79.5488 55.6761 79.1108 53.214 79.1108H40.3234V98.429ZM40.3234 68.706H51.7225C53.8295 68.706 55.6998 68.339 57.3333 67.6051C58.9905 66.8475 60.2926 65.7822 61.2396 64.4091C62.2102 63.036 62.6955 61.3906 62.6955 59.473C62.6955 56.8452 61.7604 54.7263 59.8902 53.1165C58.0436 51.5066 55.4157 50.7017 52.0066 50.7017H40.3234V68.706ZM91.0602 111V38.2727H106.437V70.3395H107.395L133.567 38.2727H151.998L125.009 70.8366L152.317 111H133.922L114.001 81.0994L106.437 90.3324V111H91.0602Z" fill="white"/>
<path d="M160.006 111V38.2727H175.382V68.2798H206.596V38.2727H221.937V111H206.596V80.9574H175.382V111H160.006ZM249.885 112.03C246.405 112.03 243.303 111.426 240.581 110.219C237.858 108.988 235.704 107.177 234.118 104.786C232.555 102.371 231.774 99.3641 231.774 95.7656C231.774 92.7353 232.33 90.1903 233.443 88.1307C234.556 86.071 236.071 84.4138 237.989 83.1591C239.906 81.9044 242.084 80.9574 244.523 80.3182C246.985 79.679 249.565 79.2292 252.264 78.9688C255.436 78.6373 257.993 78.3295 259.935 78.0455C261.876 77.7377 263.284 77.2879 264.16 76.696C265.036 76.1042 265.474 75.2282 265.474 74.0682V73.8551C265.474 71.6061 264.764 69.866 263.344 68.6349C261.947 67.4039 259.958 66.7884 257.378 66.7884C254.655 66.7884 252.489 67.392 250.879 68.5994C249.269 69.7831 248.204 71.2746 247.683 73.0739L233.692 71.9375C234.402 68.6231 235.799 65.7585 237.882 63.3438C239.965 60.9053 242.652 59.035 245.943 57.733C249.257 56.4072 253.093 55.7443 257.449 55.7443C260.479 55.7443 263.379 56.0994 266.149 56.8097C268.943 57.5199 271.417 58.6207 273.571 60.1122C275.749 61.6037 277.465 63.5213 278.72 65.8651C279.975 68.1851 280.602 70.9669 280.602 74.2102V111H266.256V103.436H265.829C264.953 105.141 263.782 106.644 262.314 107.946C260.846 109.224 259.082 110.231 257.023 110.964C254.963 111.675 252.584 112.03 249.885 112.03ZM254.217 101.589C256.443 101.589 258.408 101.152 260.112 100.276C261.817 99.3759 263.154 98.1686 264.125 96.6534C265.096 95.1383 265.581 93.4219 265.581 91.5043V85.7159C265.107 86.0237 264.456 86.3078 263.628 86.5682C262.823 86.8049 261.911 87.0298 260.893 87.2429C259.875 87.4323 258.857 87.6098 257.839 87.7756C256.821 87.9176 255.898 88.0478 255.069 88.1662C253.294 88.4266 251.743 88.8409 250.417 89.4091C249.092 89.9773 248.062 90.7467 247.328 91.7173C246.594 92.6643 246.227 93.848 246.227 95.2685C246.227 97.3281 246.973 98.9025 248.464 99.9915C249.98 101.057 251.897 101.589 254.217 101.589ZM316.984 112.065C311.396 112.065 306.591 110.882 302.566 108.514C298.565 106.123 295.487 102.809 293.333 98.571C291.202 94.3333 290.137 89.4564 290.137 83.9403C290.137 78.3532 291.214 73.4527 293.368 69.2386C295.547 65.0009 298.636 61.6984 302.637 59.331C306.638 56.9399 311.396 55.7443 316.913 55.7443C321.671 55.7443 325.838 56.6084 329.413 58.3366C332.987 60.0649 335.816 62.4915 337.9 65.6165C339.983 68.7415 341.131 72.411 341.344 76.625H327.069C326.666 73.9025 325.601 71.7126 323.873 70.0554C322.168 68.3745 319.931 67.5341 317.161 67.5341C314.817 67.5341 312.77 68.1733 311.018 69.4517C309.289 70.7064 307.94 72.5412 306.969 74.956C305.999 77.3707 305.513 80.2945 305.513 83.7273C305.513 87.2074 305.987 90.1667 306.934 92.6051C307.904 95.0436 309.266 96.902 311.018 98.1804C312.77 99.4588 314.817 100.098 317.161 100.098C318.889 100.098 320.44 99.7429 321.813 99.0327C323.21 98.3224 324.358 97.2926 325.258 95.9432C326.181 94.5701 326.785 92.9247 327.069 91.0071H341.344C341.108 95.1738 339.971 98.8433 337.935 102.016C335.923 105.164 333.141 107.626 329.59 109.402C326.039 111.178 321.837 112.065 316.984 112.065ZM364.737 95.304L364.773 77.1577H366.975L384.446 56.4545H401.811L378.338 83.8693H374.752L364.737 95.304ZM351.03 111V38.2727H366.158V111H351.03ZM385.121 111L369.07 87.2429L379.155 76.554L402.841 111H385.121Z" fill="#FF6C28"/>
<path d="M67.4541 40.652L67.45 40.6611L67.4541 40.652ZM75.5152 47.2571L75.5067 47.2625L75.5067 47.2625L75.5152 47.2571ZM76.5095 64.4091L76.5183 64.4138L76.5183 64.4138L76.5095 64.4091ZM71.822 69.6648L71.8276 69.673L71.8277 69.673L71.822 69.6648ZM65.0748 72.5412L65.0648 72.4966V72.5412H65.0748ZM65.0748 73.2514H64.8406L65.0744 73.2614L65.0748 73.2514ZM72.8518 75.5952L72.8467 75.6038L72.8467 75.6038L72.8518 75.5952ZM78.7822 81.6676L78.7736 81.6726L78.7736 81.6727L78.7822 81.6676ZM78.1785 101.234L78.1701 101.229L78.17 101.229L78.1785 101.234ZM69.7623 108.372L69.758 108.363L69.7623 108.372ZM62.2339 95.9787L62.2403 95.9864L62.2403 95.9863L62.2339 95.9787ZM63.7254 84.0469L63.7169 84.0522L63.7254 84.0469ZM59.5705 80.4247L59.5661 80.4337L59.5662 80.4337L59.5705 80.4247ZM57.3333 67.6051L57.3374 67.6142L57.3375 67.6142L57.3333 67.6051ZM61.2396 64.4091L61.2314 64.4033L61.2313 64.4034L61.2396 64.4091ZM59.8902 53.1165L59.8836 53.124L59.8836 53.1241L59.8902 53.1165ZM24.947 111H24.957V38.2727H24.947H24.937V111H24.947ZM24.947 38.2727V38.2827H54.0663V38.2727V38.2627H24.947V38.2727ZM54.0663 38.2727V38.2827C59.4158 38.2827 63.8769 39.0757 67.45 40.6611L67.4541 40.652L67.4581 40.6428C63.8817 39.0559 59.4176 38.2627 54.0663 38.2627V38.2727ZM67.4541 40.652L67.45 40.6611C71.0233 42.2466 73.7087 44.4472 75.5067 47.2625L75.5152 47.2571L75.5236 47.2517C73.7231 44.4326 71.0344 42.2297 67.4581 40.6428L67.4541 40.652ZM75.5152 47.2571L75.5067 47.2625C77.3048 50.0543 78.204 53.2721 78.204 56.9162H78.214H78.224C78.224 53.2686 77.3239 50.047 75.5236 47.2517L75.5152 47.2571ZM78.214 56.9162H78.204C78.204 59.7557 77.6361 62.2517 76.5006 64.4044L76.5095 64.4091L76.5183 64.4138C77.6556 62.2577 78.224 59.7585 78.224 56.9162H78.214ZM76.5095 64.4091L76.5006 64.4044C75.365 66.5337 73.8036 68.2843 71.8163 69.6565L71.822 69.6648L71.8277 69.673C73.8176 68.299 75.3812 66.5459 76.5183 64.4138L76.5095 64.4091ZM71.822 69.6648L71.8163 69.6565C69.8525 71.0052 67.6046 71.9635 65.0726 72.5314L65.0748 72.5412L65.077 72.5509C67.6113 71.9825 69.8615 71.0232 71.8276 69.673L71.822 69.6648ZM65.0748 72.5412H65.0648V73.2514H65.0748H65.0848V72.5412H65.0748ZM65.0748 73.2514L65.0744 73.2614C67.8426 73.3797 70.4333 74.1605 72.8467 75.6038L72.8518 75.5952L72.8569 75.5866C70.4408 74.1416 67.8468 73.3599 65.0752 73.2414L65.0748 73.2514ZM72.8518 75.5952L72.8467 75.6038C75.2836 77.047 77.2592 79.0699 78.7736 81.6726L78.7822 81.6676L78.7908 81.6626C77.2749 79.057 75.2969 77.0316 72.8569 75.5866L72.8518 75.5952ZM78.7822 81.6676L78.7736 81.6727C80.2877 84.2514 81.0449 87.3272 81.0449 90.9006H81.0549H81.0649C81.0649 87.3243 80.307 84.2449 78.7908 81.6626L78.7822 81.6676ZM81.0549 90.9006H81.0449C81.0449 94.7577 80.0866 98.2004 78.1701 101.229L78.1785 101.234L78.187 101.24C80.1057 98.2077 81.0649 94.7612 81.0649 90.9006H81.0549ZM78.1785 101.234L78.17 101.229C76.2773 104.234 73.4735 106.612 69.758 108.363L69.7623 108.372L69.7666 108.381C73.4849 106.629 76.2919 104.248 78.187 101.24L78.1785 101.234ZM69.7623 108.372L69.758 108.363C66.0429 110.114 61.4635 110.99 56.0194 110.99V111V111.01C61.4655 111.01 66.048 110.134 69.7666 108.381L69.7623 108.372ZM56.0194 111V110.99H24.947V111V111.01H56.0194V111ZM40.3234 98.429V98.439H52.8589V98.429V98.419H40.3234V98.429ZM52.8589 98.429V98.439C57.1448 98.439 60.2727 97.6221 62.2403 95.9864L62.2339 95.9787L62.2275 95.971C60.2652 97.6023 57.1431 98.419 52.8589 98.419V98.429ZM62.2339 95.9787L62.2403 95.9863C64.2077 94.3271 65.1913 92.1225 65.1913 89.3736H65.1813H65.1713C65.1713 92.1171 64.19 94.3159 62.2275 95.971L62.2339 95.9787ZM65.1813 89.3736H65.1913C65.1913 87.3596 64.7056 85.5821 63.7338 84.0415L63.7254 84.0469L63.7169 84.0522C64.6865 85.5893 65.1713 87.3629 65.1713 89.3736H65.1813ZM63.7254 84.0469L63.7338 84.0415C62.7621 82.501 61.3757 81.2924 59.5749 80.4157L59.5705 80.4247L59.5662 80.4337C61.3639 81.3089 62.7474 82.5151 63.7169 84.0522L63.7254 84.0469ZM59.5705 80.4247L59.575 80.4157C57.7977 79.539 55.6773 79.1008 53.214 79.1008V79.1108V79.1208C55.675 79.1208 57.7922 79.5586 59.5661 80.4337L59.5705 80.4247ZM53.214 79.1108V79.1008H40.3234V79.1108V79.1208H53.214V79.1108ZM40.3234 79.1108H40.3134V98.429H40.3234H40.3334V79.1108H40.3234ZM40.3234 68.706V68.716H51.7225V68.706V68.696H40.3234V68.706ZM51.7225 68.706V68.716C53.8307 68.716 55.7024 68.3488 57.3374 67.6142L57.3333 67.6051L57.3292 67.596C55.6972 68.3292 53.8284 68.696 51.7225 68.696V68.706ZM57.3333 67.6051L57.3375 67.6142C58.9962 66.856 60.2997 65.7895 61.2478 64.4148L61.2396 64.4091L61.2313 64.4034C60.2855 65.7749 58.9849 66.8391 57.3292 67.596L57.3333 67.6051ZM61.2396 64.4091L61.2477 64.4149C62.2197 63.0398 62.7055 61.3924 62.7055 59.473H62.6955H62.6856C62.6856 61.3889 62.2007 63.0321 61.2314 64.4033L61.2396 64.4091ZM62.6955 59.473H62.7055C62.7055 56.8425 61.7693 54.7208 59.8967 53.1089L59.8902 53.1165L59.8836 53.1241C61.7515 54.7319 62.6856 56.8479 62.6856 59.473H62.6955ZM59.8902 53.1165L59.8967 53.1089C58.0477 51.497 55.4172 50.6917 52.0066 50.6917V50.7017V50.7117C55.4142 50.7117 58.0394 51.5163 59.8836 53.124L59.8902 53.1165ZM52.0066 50.7017V50.6917H40.3234V50.7017V50.7117H52.0066V50.7017ZM40.3234 50.7017H40.3134V68.706H40.3234H40.3334V50.7017H40.3234ZM107.395 70.3395V70.3553L107.403 70.3458L107.395 70.3395ZM133.567 38.2727V38.2569L133.56 38.2664L133.567 38.2727ZM151.998 38.2727L152.005 38.2791L152.019 38.2627H151.998V38.2727ZM125.009 70.8366L124.981 70.8137L125.001 70.8423L125.009 70.8366ZM152.317 111V111.01H152.336L152.326 110.994L152.317 111ZM133.922 111L133.907 111.01H133.922V111ZM114.001 81.0994L114.009 81.0939L114.001 81.0826L113.993 81.0931L114.001 81.0994ZM106.437 90.3324L106.427 90.3242V90.3324H106.437ZM91.0602 111H91.0703V38.2727H91.0602H91.0502V111H91.0602ZM91.0602 38.2727V38.2827H106.437V38.2727V38.2627H91.0602V38.2727ZM106.437 38.2727H106.427V70.3395H106.437H106.447V38.2727H106.437ZM106.437 70.3395V70.3495H107.395V70.3395V70.3295H106.437V70.3395ZM107.395 70.3395L107.403 70.3458L133.575 38.279L133.567 38.2727L133.56 38.2664L107.388 70.3332L107.395 70.3395ZM133.567 38.2727V38.2827H151.998V38.2727V38.2627H133.567V38.2727ZM151.998 38.2727L151.99 38.2663L125.001 70.8303L125.009 70.8366L125.017 70.843L152.005 38.2791L151.998 38.2727ZM125.009 70.8366L125.001 70.8423L152.309 111.006L152.317 111L152.326 110.994L125.017 70.831L125.009 70.8366ZM152.317 111V110.99H133.922V111V111.01H152.317V111ZM133.922 111L133.931 110.994L114.009 81.0939L114.001 81.0994L113.992 81.105L133.914 111.006L133.922 111ZM114.001 81.0994L113.993 81.0931L106.429 90.326L106.437 90.3324L106.444 90.3387L114.008 81.1058L114.001 81.0994ZM106.437 90.3324H106.427V111H106.437H106.447V90.3324H106.437ZM106.437 111V110.99H91.0602V111V111.01H106.437V111ZM160.006 111H160.016V38.2727H160.006H159.996V111H160.006ZM160.006 38.2727V38.2827H175.382V38.2727V38.2627H160.006V38.2727ZM175.382 38.2727H175.372V68.2798H175.382H175.392V38.2727H175.382ZM175.382 68.2798V68.2898H206.596V68.2798V68.2698H175.382V68.2798ZM206.596 68.2798H206.606V38.2727H206.596H206.586V68.2798H206.596ZM206.596 38.2727V38.2827H221.937V38.2727V38.2627H206.596V38.2727ZM221.937 38.2727H221.927V111H221.937H221.947V38.2727H221.937ZM221.937 111V110.99H206.596V111V111.01H221.937V111ZM206.596 111H206.606V80.9574H206.596H206.586V111H206.596ZM206.596 80.9574V80.9474H175.382V80.9574V80.9674H206.596V80.9574ZM175.382 80.9574H175.372V111H175.382H175.392V80.9574H175.382ZM175.382 111V110.99H160.006V111V111.01H175.382V111ZM240.581 110.219L240.577 110.228L240.577 110.228L240.581 110.219ZM234.118 104.786L234.109 104.791L234.109 104.791L234.118 104.786ZM233.443 88.1307L233.434 88.1259L233.443 88.1307ZM237.989 83.1591L237.983 83.1507L237.989 83.1591ZM244.523 80.3182L244.52 80.3085L244.52 80.3085L244.523 80.3182ZM252.264 78.9688L252.265 78.9787L252.265 78.9787L252.264 78.9688ZM259.935 78.0455L259.936 78.0554L259.936 78.0553L259.935 78.0455ZM264.16 76.696L264.155 76.6877L264.16 76.696ZM263.344 68.6349L263.337 68.6424L263.337 68.6425L263.344 68.6349ZM250.879 68.5994L250.885 68.6075L250.885 68.6074L250.879 68.5994ZM247.683 73.0739L247.679 73.1239L247.693 73.0766L247.683 73.0739ZM233.692 71.9375L233.682 71.9354L233.679 71.9465L233.691 71.9475L233.692 71.9375ZM237.882 63.3438L237.89 63.3503L237.89 63.3502L237.882 63.3438ZM245.943 57.7329L245.947 57.7422L245.947 57.7422L245.943 57.7329ZM266.149 56.8097L266.147 56.8193L266.147 56.8193L266.149 56.8097ZM273.571 60.1122L273.565 60.1204L273.565 60.1205L273.571 60.1122ZM278.72 65.8651L278.711 65.8698V65.8698L278.72 65.8651ZM265.829 103.436V103.414L265.821 103.432L265.829 103.436ZM262.314 107.946L262.32 107.954L262.32 107.954L262.314 107.946ZM257.023 110.964L257.026 110.974L257.026 110.974L257.023 110.964ZM260.112 100.276L260.117 100.284L260.117 100.284L260.112 100.276ZM264.125 96.6534L264.116 96.648L264.125 96.6534ZM265.581 85.7159H265.591V85.6975L265.575 85.7075L265.581 85.7159ZM263.628 86.5682L263.631 86.5778L263.631 86.5777L263.628 86.5682ZM260.893 87.2429L260.895 87.2527L260.895 87.2527L260.893 87.2429ZM257.839 87.7756L257.841 87.7855L257.841 87.7854L257.839 87.7756ZM255.069 88.1662L255.068 88.1563H255.068L255.069 88.1662ZM250.417 89.4091L250.421 89.4183L250.417 89.4091ZM247.328 91.7173L247.336 91.7235L247.336 91.7234L247.328 91.7173ZM248.464 99.9915L248.458 99.9996L248.459 99.9997L248.464 99.9915ZM249.885 112.03V112.02C246.406 112.02 243.306 111.416 240.585 110.21L240.581 110.219L240.577 110.228C243.301 111.436 246.404 112.04 249.885 112.04V112.03ZM240.581 110.219L240.585 110.21C237.864 108.979 235.711 107.169 234.126 104.78L234.118 104.786L234.109 104.791C235.697 107.184 237.853 108.996 240.577 110.228L240.581 110.219ZM234.118 104.786L234.126 104.78C232.565 102.367 231.784 99.3627 231.784 95.7656H231.774H231.764C231.764 99.3656 232.546 102.374 234.109 104.791L234.118 104.786ZM231.774 95.7656H231.784C231.784 92.7365 232.34 90.1933 233.452 88.1354L233.443 88.1307L233.434 88.1259C232.321 90.1874 231.764 92.7341 231.764 95.7656H231.774ZM233.443 88.1307L233.452 88.1354C234.564 86.0772 236.078 84.4213 237.994 83.1675L237.989 83.1591L237.983 83.1507C236.064 84.4064 234.548 86.0648 233.434 88.1259L233.443 88.1307ZM237.989 83.1591L237.994 83.1675C239.911 81.9134 242.088 80.9668 244.525 80.3279L244.523 80.3182L244.52 80.3085C242.081 80.948 239.902 81.8953 237.983 83.1507L237.989 83.1591ZM244.523 80.3182L244.525 80.3279C246.987 79.6888 249.567 79.2391 252.265 78.9787L252.264 78.9688L252.263 78.9588C249.564 79.2193 246.983 79.6692 244.52 80.3085L244.523 80.3182ZM252.264 78.9688L252.265 78.9787C255.438 78.6472 257.995 78.3395 259.936 78.0554L259.935 78.0455L259.933 78.0356C257.992 78.3196 255.435 78.6274 252.263 78.9588L252.264 78.9688ZM259.935 78.0455L259.936 78.0553C261.878 77.7475 263.288 77.2974 264.166 76.7043L264.16 76.696L264.155 76.6877C263.281 77.2783 261.874 77.7279 259.933 78.0356L259.935 78.0455ZM264.16 76.696L264.166 76.7043C265.045 76.1104 265.484 75.2312 265.484 74.0682H265.474H265.464C265.464 75.2253 265.028 76.0979 264.155 76.6877L264.16 76.696ZM265.474 74.0682H265.484V73.8551H265.474H265.464V74.0682H265.474ZM265.474 73.8551H265.484C265.484 71.6038 264.773 69.8607 263.35 68.6274L263.344 68.6349L263.337 68.6425C264.755 69.8713 265.464 71.6083 265.464 73.8551H265.474ZM263.344 68.6349L263.35 68.6274C261.951 67.3942 259.96 66.7784 257.378 66.7784V66.7883V66.7984C259.957 66.7984 261.943 67.4135 263.337 68.6424L263.344 68.6349ZM257.378 66.7883V66.7784C254.654 66.7784 252.485 67.3824 250.873 68.5914L250.879 68.5994L250.885 68.6074C252.493 67.4017 254.657 66.7984 257.378 66.7984V66.7883ZM250.879 68.5994L250.873 68.5914C249.262 69.7763 248.195 71.2696 247.674 73.0711L247.683 73.0739L247.693 73.0766C248.213 71.2797 249.277 69.79 250.885 68.6075L250.879 68.5994ZM247.683 73.0739L247.684 73.0639L233.692 71.9275L233.692 71.9375L233.691 71.9475L247.682 73.0838L247.683 73.0739ZM233.692 71.9375L233.701 71.9396C234.411 68.6267 235.807 65.7637 237.89 63.3503L237.882 63.3438L237.874 63.3372C235.79 65.7533 234.392 68.6195 233.682 71.9354L233.692 71.9375ZM237.882 63.3438L237.89 63.3502C239.972 60.9132 242.657 59.0438 245.947 57.7422L245.943 57.7329L245.939 57.7237C242.647 59.0263 239.959 60.8974 237.874 63.3373L237.882 63.3438ZM245.943 57.7329L245.947 57.7422C249.26 56.417 253.094 55.7543 257.449 55.7543V55.7443V55.7343C253.092 55.7343 249.255 56.3973 245.939 57.7237L245.943 57.7329ZM257.449 55.7443V55.7543C260.478 55.7543 263.378 56.1093 266.147 56.8193L266.149 56.8097L266.152 56.8C263.381 56.0895 260.48 55.7343 257.449 55.7343V55.7443ZM266.149 56.8097L266.147 56.8193C268.939 57.5293 271.412 58.6297 273.565 60.1204L273.571 60.1122L273.577 60.104C271.421 58.6118 268.946 57.5105 266.151 56.8L266.149 56.8097ZM273.571 60.1122L273.565 60.1205C275.742 61.611 277.457 63.5274 278.711 65.8698L278.72 65.8651L278.729 65.8603C277.473 63.5152 275.756 61.5964 273.577 60.104L273.571 60.1122ZM278.72 65.8651L278.711 65.8698C279.965 68.1881 280.592 70.9681 280.592 74.2102H280.602H280.612C280.612 70.9656 279.985 68.1821 278.729 65.8603L278.72 65.8651ZM280.602 74.2102H280.592V111H280.602H280.612V74.2102H280.602ZM280.602 111V110.99H266.256V111V111.01H280.602V111ZM266.256 111H266.266V103.436H266.256H266.246V111H266.256ZM266.256 103.436V103.426H265.829V103.436V103.446H266.256V103.436ZM265.829 103.436L265.821 103.432C264.945 105.135 263.774 106.637 262.307 107.939L262.314 107.946L262.32 107.954C263.789 106.651 264.962 105.146 265.838 103.441L265.829 103.436ZM262.314 107.946L262.307 107.938C260.84 109.216 259.078 110.222 257.019 110.955L257.023 110.964L257.026 110.974C259.087 110.24 260.852 109.233 262.32 107.954L262.314 107.946ZM257.023 110.964L257.019 110.955C254.961 111.665 252.583 112.02 249.885 112.02V112.03V112.04C252.585 112.04 254.965 111.685 257.026 110.974L257.023 110.964ZM254.217 101.589V101.599C256.444 101.599 258.41 101.161 260.117 100.284L260.112 100.276L260.108 100.267C258.405 101.142 256.441 101.579 254.217 101.579V101.589ZM260.112 100.276L260.117 100.284C261.823 99.384 263.162 98.1755 264.133 96.6588L264.125 96.6534L264.116 96.648C263.147 98.1616 261.811 99.3679 260.107 100.267L260.112 100.276ZM264.125 96.6534L264.133 96.6588C265.105 95.1419 265.591 93.4237 265.591 91.5043H265.581H265.571C265.571 93.4201 265.086 95.1346 264.116 96.648L264.125 96.6534ZM265.581 91.5043H265.591V85.7159H265.581H265.571V91.5043H265.581ZM265.581 85.7159L265.575 85.7075C265.103 86.0146 264.453 86.2984 263.625 86.5586L263.628 86.5682L263.631 86.5777C264.46 86.3172 265.112 86.0327 265.586 85.7243L265.581 85.7159ZM263.628 86.5682L263.625 86.5586C262.82 86.7952 261.909 87.0201 260.891 87.2331L260.893 87.2429L260.895 87.2527C261.914 87.0396 262.825 86.8146 263.631 86.5778L263.628 86.5682ZM260.893 87.2429L260.892 87.2331C259.874 87.4224 258.856 87.6 257.838 87.7657L257.839 87.7756L257.841 87.7854C258.859 87.6197 259.877 87.4421 260.895 87.2527L260.893 87.2429ZM257.839 87.7756L257.838 87.7657C256.82 87.9077 255.897 88.0379 255.068 88.1563L255.069 88.1662L255.071 88.1761C255.899 88.0577 256.823 87.9275 257.841 87.7855L257.839 87.7756ZM255.069 88.1662L255.068 88.1563C253.292 88.4168 251.74 88.8313 250.414 89.3999L250.417 89.4091L250.421 89.4183C251.746 88.8505 253.296 88.4364 255.071 88.1761L255.069 88.1662ZM250.417 89.4091L250.414 89.3999C249.087 89.9686 248.055 90.739 247.32 91.7113L247.328 91.7173L247.336 91.7234C248.069 90.7543 249.097 89.9859 250.421 89.4183L250.417 89.4091ZM247.328 91.7173L247.32 91.7112C246.585 92.6602 246.217 93.8462 246.217 95.2685H246.227H246.237C246.237 93.8498 246.604 92.6684 247.336 91.7235L247.328 91.7173ZM246.227 95.2685H246.217C246.217 97.3309 246.964 98.9084 248.458 99.9995L248.464 99.9915L248.47 99.9834C246.982 98.8965 246.237 97.3254 246.237 95.2685H246.227ZM248.464 99.9915L248.459 99.9997C249.976 101.066 251.896 101.599 254.217 101.599V101.589V101.579C251.899 101.579 249.983 101.047 248.47 99.9833L248.464 99.9915ZM302.566 108.514L302.561 108.523L302.561 108.523L302.566 108.514ZM293.333 98.571L293.324 98.5755L293.324 98.5756L293.333 98.571ZM293.368 69.2386L293.36 69.2341V69.2341L293.368 69.2386ZM302.637 59.331L302.642 59.3396L302.642 59.3395L302.637 59.331ZM329.413 58.3366L329.417 58.3276L329.413 58.3366ZM337.9 65.6165L337.891 65.622L337.9 65.6165ZM341.344 76.625V76.635H341.355L341.354 76.6245L341.344 76.625ZM327.069 76.625L327.001 76.635H327.069V76.625ZM323.873 70.0554L323.866 70.0625L323.866 70.0626L323.873 70.0554ZM311.018 69.4517L311.023 69.4598L311.024 69.4598L311.018 69.4517ZM306.934 92.6051L306.924 92.6087L306.925 92.6088L306.934 92.6051ZM311.018 98.1804L311.024 98.1723L311.018 98.1804ZM321.813 99.0327L321.809 99.0238L321.809 99.0238L321.813 99.0327ZM325.258 95.9432L325.249 95.9376L325.249 95.9376L325.258 95.9432ZM327.069 91.0071V90.9389L327.059 91.0056L327.069 91.0071ZM341.344 91.0071L341.354 91.0077L341.355 90.9971H341.344V91.0071ZM337.935 102.016L337.927 102.01L337.927 102.01L337.935 102.016ZM329.59 109.402L329.586 109.393L329.59 109.402ZM316.984 112.065V112.055C311.398 112.055 306.594 110.872 302.571 108.506L302.566 108.514L302.561 108.523C306.587 110.891 311.395 112.075 316.984 112.075V112.065ZM302.566 108.514L302.571 108.506C298.572 106.116 295.495 102.803 293.342 98.5665L293.333 98.571L293.324 98.5756C295.479 102.815 298.558 106.131 302.561 108.523L302.566 108.514ZM293.333 98.571L293.342 98.5665C291.212 94.3304 290.147 89.4551 290.147 83.9403H290.137H290.127C290.127 89.4577 291.193 94.3362 293.324 98.5755L293.333 98.571ZM290.137 83.9403H290.147C290.147 78.3545 291.224 73.4556 293.377 69.2432L293.368 69.2386L293.36 69.2341C291.204 73.4497 290.127 78.3519 290.127 83.9403H290.137ZM293.368 69.2386L293.377 69.2432C295.555 65.0071 298.643 61.706 302.642 59.3396L302.637 59.331L302.632 59.3224C298.629 61.6908 295.538 64.9947 293.36 69.2341L293.368 69.2386ZM302.637 59.331L302.642 59.3395C306.641 56.9495 311.398 55.7543 316.913 55.7543V55.7443V55.7343C311.395 55.7343 306.635 56.9302 302.632 59.3224L302.637 59.331ZM316.913 55.7443V55.7543C321.67 55.7543 325.835 56.6182 329.408 58.3456L329.413 58.3366L329.417 58.3276C325.84 56.5987 321.672 55.7343 316.913 55.7343V55.7443ZM329.413 58.3366L329.408 58.3456C332.981 60.0731 335.809 62.4986 337.891 65.622L337.9 65.6165L337.908 65.6109C335.824 62.4844 332.993 60.0566 329.417 58.3276L329.413 58.3366ZM337.9 65.6165L337.891 65.622C339.974 68.7453 341.121 72.4131 341.334 76.6255L341.344 76.625L341.354 76.6245C341.141 72.4089 339.993 68.7376 337.908 65.6109L337.9 65.6165ZM341.344 76.625V76.615H327.069V76.625V76.635H341.344V76.625ZM327.069 76.625L327.079 76.6235C326.676 73.8991 325.61 71.7071 323.88 70.0482L323.873 70.0554L323.866 70.0626C325.592 71.7181 326.657 73.9058 327.059 76.6265L327.069 76.625ZM323.873 70.0554L323.88 70.0483C322.173 68.3653 319.933 67.5241 317.161 67.5241V67.5341V67.5441C319.929 67.5441 322.163 68.3838 323.866 70.0625L323.873 70.0554ZM317.161 67.5341V67.5241C314.815 67.5241 312.766 68.1639 311.012 69.4436L311.018 69.4517L311.024 69.4598C312.774 68.1827 314.819 67.5441 317.161 67.5441V67.5341ZM311.018 69.4517L311.012 69.4436C309.282 70.6997 307.931 72.5361 306.96 74.9522L306.969 74.956L306.979 74.9597C307.949 72.5463 309.297 70.7132 311.023 69.4598L311.018 69.4517ZM306.969 74.956L306.96 74.9522C305.989 77.3685 305.503 80.2936 305.503 83.7273H305.513H305.523C305.523 80.2954 306.009 77.373 306.979 74.9597L306.969 74.956ZM305.513 83.7273H305.503C305.503 87.2082 305.977 90.1688 306.924 92.6087L306.934 92.6051L306.943 92.6015C305.997 90.1645 305.523 87.2065 305.523 83.7273H305.513ZM306.934 92.6051L306.925 92.6088C307.896 95.0486 309.258 96.9087 311.012 98.1885L311.018 98.1804L311.024 98.1723C309.273 96.8952 307.913 95.0385 306.943 92.6014L306.934 92.6051ZM311.018 98.1804L311.012 98.1885C312.766 99.4682 314.815 100.108 317.161 100.108V100.098V100.088C314.819 100.088 312.774 99.4494 311.024 98.1723L311.018 98.1804ZM317.161 100.098V100.108C318.891 100.108 320.443 99.7526 321.818 99.0415L321.813 99.0327L321.809 99.0238C320.437 99.7332 318.888 100.088 317.161 100.088V100.098ZM321.813 99.0327L321.818 99.0416C323.216 98.3306 324.365 97.2995 325.266 95.9487L325.258 95.9432L325.249 95.9376C324.351 97.2857 323.204 98.3143 321.809 99.0238L321.813 99.0327ZM325.258 95.9432L325.266 95.9488C326.19 94.5742 326.794 92.9274 327.079 91.0086L327.069 91.0071L327.059 91.0056C326.775 92.922 326.172 94.5659 325.249 95.9376L325.258 95.9432ZM327.069 91.0071V91.0171H341.344V91.0071V90.9971H327.069V91.0071ZM341.344 91.0071L341.334 91.0065C341.098 95.1717 339.962 98.8395 337.927 102.01L337.935 102.016L337.944 102.021C339.981 98.8471 341.117 95.1759 341.354 91.0077L341.344 91.0071ZM337.935 102.016L337.927 102.01C335.916 105.157 333.135 107.618 329.586 109.393L329.59 109.402L329.595 109.411C333.147 107.635 335.93 105.171 337.944 102.021L337.935 102.016ZM329.59 109.402L329.586 109.393C326.036 111.168 321.836 112.055 316.984 112.055V112.065V112.075C321.838 112.075 326.042 111.187 329.595 109.411L329.59 109.402ZM364.737 95.304L364.727 95.304L364.727 95.3306L364.745 95.3106L364.737 95.304ZM364.773 77.1577V72.0476L364.763 77.1576L364.773 77.1577ZM366.975 77.1577V77.1732L366.982 77.1641L366.975 77.1577ZM384.446 56.4545V56.439L384.439 56.4481L384.446 56.4545ZM401.811 56.4545L401.819 56.461L401.833 56.4445H401.811V56.4545ZM378.338 83.8693V83.8847L378.346 83.8758L378.338 83.8693ZM374.752 83.8693V83.8541L374.744 83.8627L374.752 83.8693ZM385.121 111L385.106 111.01H385.121V111ZM369.07 87.2429L369.037 87.2115L369.062 87.2485L369.07 87.2429ZM379.155 76.554L379.163 76.5483L379.156 76.5381L379.148 76.5471L379.155 76.554ZM402.841 111V111.01H402.86L402.849 110.994L402.841 111ZM364.737 95.304L364.747 95.304L364.783 77.1577L364.773 77.1577L364.763 77.1576L364.727 95.304L364.737 95.304ZM364.773 77.1577V77.1677H366.975V77.1577V77.1477H364.773V77.1577ZM366.975 77.1577L366.982 77.1641L384.454 56.461L384.446 56.4545L384.439 56.4481L366.967 77.1512L366.975 77.1577ZM384.446 56.4545V56.4645H401.811V56.4545V56.4445H384.446V56.4545ZM401.811 56.4545L401.804 56.448L378.331 83.8628L378.338 83.8693L378.346 83.8758L401.819 56.461L401.811 56.4545ZM378.338 83.8693V83.8593H374.752V83.8693V83.8793H378.338V83.8693ZM374.752 83.8693L374.744 83.8627L364.73 95.2974L364.737 95.304L364.745 95.3106L374.759 83.8759L374.752 83.8693ZM351.03 111H351.04V38.2727H351.03H351.02V111H351.03ZM351.03 38.2727V38.2827H366.158V38.2727V38.2627H351.03V38.2727ZM366.158 38.2727H366.148V111H366.158H366.168V38.2727H366.158ZM366.158 111V110.99H351.03V111V111.01H366.158V111ZM385.121 111L385.129 110.994L369.078 87.2373L369.07 87.2429L369.062 87.2485L385.113 111.006L385.121 111ZM369.07 87.2429L369.077 87.2498L379.162 76.5608L379.155 76.554L379.148 76.5471L369.063 87.236L369.07 87.2429ZM379.155 76.554L379.147 76.5596L402.833 111.006L402.841 111L402.849 110.994L379.163 76.5483L379.155 76.554ZM402.841 111V110.99H385.121V111V111.01H402.841V111Z" fill="black" mask="url(#path-4-outside-1_223_2083)"/>
</svg>
