<svg width="12063" height="3124" viewBox="0 0 12063 3124" fill="none" xmlns="http://www.w3.org/2000/svg">
<mask id="mask0_515_333" style="mask-type:alpha" maskUnits="userSpaceOnUse" x="0" y="0" width="3128" height="3079">
<path d="M0 0H3127.91V3079H0V0Z" fill="#1488DB"/>
</mask>
<g mask="url(#mask0_515_333)">
<rect x="53.6274" y="2921.71" width="3035.55" height="2806.57" transform="rotate(-60 53.6274 2921.71)" fill="#1488DB"/>
<path d="M1901.01 1154.37L1836.88 2182.67L1042.55 1724.06L1901.01 1154.37Z" fill="#030391"/>
<path d="M1826.08 2425.17L1950.06 3167.99L1120.79 2689.21L1826.08 2425.17Z" fill="#030391"/>
<path d="M1192.81 3519.29L450.499 3090.71L1192.81 2662.14L1192.81 3519.29Z" fill="#030391"/>
<path d="M450.499 3090.71L1192.81 2662.14L450.499 2233.57L450.499 3090.71Z" fill="#1488DB"/>
<path d="M1192.81 2662.14L450.499 2233.57L1192.81 1805L1192.81 2662.14Z" fill="#1488DB"/>
<path d="M1192.81 3519.29L1935.11 3090.71L1192.81 2662.14L1192.81 3519.29Z" fill="#030391"/>
<path d="M1935.11 3090.71L1192.81 2662.14L1935.11 2233.57L1935.11 3090.71Z" fill="#030391"/>
<path d="M1192.81 2662.14L1935.11 2233.57L1192.81 1805L1192.81 2662.14Z" fill="#1488DB"/>
<path d="M1935.11 2233.57L1192.81 1805L1935.11 1376.43L1935.11 2233.57Z" fill="#030391"/>
<path d="M1192.81 1805L1935.11 1376.43L1192.81 947.857L1192.81 1805Z" fill="#030391"/>
<path d="M1935.11 1376.43L1192.81 947.857L1935.11 519.286L1935.11 1376.43Z" fill="#030391"/>
<path d="M2677.42 3519.29L1935.11 3090.71L2677.42 2662.14L2677.42 3519.29Z" fill="#1488DB"/>
<path d="M1935.11 3090.71L2677.42 2662.14L1935.11 2233.57L1935.11 3090.71Z" fill="#1488DB"/>
<path d="M2677.42 2662.14L1935.11 2233.57L2677.42 1805L2677.42 2662.14Z" fill="#030391"/>
<path d="M1935.11 2233.57L2677.42 1805L1935.11 1376.43L1935.11 2233.57Z" fill="#1488DB"/>
<path d="M2677.42 1805L1935.11 1376.43L2677.42 947.857L2677.42 1805Z" fill="#1488DB"/>
<path d="M1935.11 1376.43L2677.42 947.857L1935.11 519.286L1935.11 1376.43Z" fill="#1488DB"/>
<path d="M2677.42 3519.29L3419.73 3090.71L2677.42 2662.14L2677.42 3519.29Z" fill="#1488DB"/>
<path d="M3419.73 3090.71L2677.42 2662.14L3419.73 2233.57L3419.73 3090.71Z" fill="#030391"/>
<path d="M2677.42 2662.14L3419.73 2233.57L2677.42 1805L2677.42 2662.14Z" fill="#030391"/>
<path d="M967.806 1675.1L967.807 947.858L967.807 817.954L1935.11 259.479L2047.61 324.43L2789.92 753.002L2902.42 817.954L2902.42 947.857L2902.42 1675.1L3127.42 1805L3127.42 1805L3532.23 2038.72L3644.73 2103.67L3644.73 2233.57L3644.73 3090.71L3644.73 3220.62L2902.42 3649.19L2902.42 3909L2677.42 3779.09L2452.42 3909L2452.42 3649.19L1935.11 3350.52L1192.81 3779.09L1080.31 3714.14L337.999 3285.57L225.499 3220.62L225.499 3090.71L225.499 2233.57L225.499 2103.67L967.806 1675.1Z" stroke="white" stroke-width="450" stroke-miterlimit="16"/>
</g>
<path d="M740.187 3078.19L742.91 947.287L1596.1 948.377C1752.87 948.577 1883.6 971.982 1988.28 1018.59C2092.96 1065.2 2171.61 1129.81 2224.22 1212.42C2276.83 1294.34 2303.07 1388.71 2302.93 1495.53C2302.83 1578.77 2286.09 1651.93 2252.71 1715.01C2219.34 1777.4 2173.49 1828.67 2115.17 1868.83C2057.55 1908.29 1991.61 1936.3 1917.37 1952.85L1917.34 1973.66C1998.5 1977.24 2074.42 2000.22 2145.12 2042.63C2216.52 2085.03 2274.36 2144.41 2318.66 2220.77C2362.95 2296.44 2385.03 2386.64 2384.9 2491.38C2384.76 2604.45 2356.53 2705.34 2300.23 2794.05C2244.63 2882.08 2162.34 2951.69 2053.37 3002.88C1944.4 3054.07 1810.15 3079.56 1650.61 3079.36L740.187 3078.19ZM1191.19 2710.44L1558.48 2710.91C1684.03 2711.07 1775.62 2687.25 1833.26 2639.47C1890.89 2590.98 1919.76 2526.51 1919.86 2446.05C1919.94 2387.09 1905.78 2335.04 1877.4 2289.92C1849.02 2244.8 1808.49 2209.37 1755.8 2183.64C1703.81 2157.9 1641.74 2144.99 1569.6 2144.9L1191.91 2144.42L1191.19 2710.44ZM1192.3 1839.56L1526.29 1839.98C1588.03 1840.06 1642.84 1829.38 1690.73 1807.94C1739.32 1785.8 1777.51 1754.64 1805.3 1714.44C1833.8 1674.24 1848.08 1626.05 1848.15 1569.87C1848.25 1492.87 1820.93 1430.76 1766.19 1383.52C1712.14 1336.28 1635.18 1312.6 1535.29 1312.47L1192.97 1312.03L1192.3 1839.56ZM2674.67 3080.67L2677.39 949.759L3127.92 950.335L3126.72 1889.89L3154.81 1889.93L3922.85 951.35L4462.86 952.04L3670.87 1905.15L4469.5 3082.96L3930.53 3082.27L3347.94 2205.44L3125.97 2475.68L3125.2 3081.24L2674.67 3080.67Z" fill="white"/>
<path d="M4692.13 3083.24L4694.85 952.337L5145.38 952.913L5144.25 1832.12L6058.84 1833.29L6059.96 954.081L6509.45 954.656L6506.73 3085.56L6057.24 3084.99L6058.36 2204.74L5143.78 2203.57L5142.66 3083.82L4692.13 3083.24ZM7322.91 3116.78C7220.94 3116.65 7130.1 3098.85 7050.37 3063.37C6970.65 3027.2 6907.59 2974.05 6861.21 2903.93C6815.52 2833.12 6792.74 2745 6792.87 2639.56C6792.99 2550.77 6809.38 2476.23 6842.06 2415.92C6874.74 2355.61 6919.2 2307.11 6975.43 2270.42C7031.66 2233.73 7095.51 2206.07 7166.99 2187.43C7239.15 2168.79 7314.77 2155.71 7393.86 2148.18C7486.82 2138.59 7561.75 2129.67 7618.64 2121.41C7675.53 2112.47 7716.82 2099.34 7742.51 2082.03C7768.19 2064.73 7781.06 2039.08 7781.1 2005.09L7781.11 1998.85C7781.2 1932.95 7760.45 1881.94 7718.88 1845.81C7678 1809.69 7619.75 1791.58 7544.15 1791.49C7464.38 1791.38 7400.88 1808.99 7353.67 1844.31C7306.46 1878.93 7275.19 1922.59 7259.86 1975.29L6849.95 1941.47C6870.89 1844.38 6911.92 1760.5 6973.05 1689.83C7034.18 1618.46 7112.98 1563.76 7209.45 1525.74C7306.61 1487.01 7419.01 1467.74 7546.64 1467.9C7635.43 1468.01 7720.39 1478.53 7801.52 1499.44C7883.34 1520.35 7955.79 1552.7 8018.86 1596.48C8082.62 1640.26 8132.83 1696.51 8169.51 1765.23C8206.19 1833.26 8224.47 1914.79 8224.34 2009.82L8222.97 3087.76L7802.61 3087.22L7802.89 2865.6L7790.41 2865.58C7764.68 2915.49 7730.29 2959.49 7687.23 2997.59C7644.18 3034.99 7592.46 3064.41 7532.09 3085.83C7471.71 3106.57 7401.99 3116.88 7322.91 3116.78ZM7450.24 2811.04C7515.44 2811.12 7573.03 2798.36 7623.01 2772.76C7672.99 2746.47 7712.22 2711.14 7740.72 2666.78C7769.22 2622.43 7783.5 2572.16 7783.57 2515.97L7783.79 2346.37C7769.9 2355.37 7750.82 2363.67 7726.53 2371.27C7702.94 2378.18 7676.22 2384.73 7646.39 2390.94C7616.55 2396.45 7586.72 2401.61 7556.89 2406.43C7527.05 2410.55 7500 2414.33 7475.71 2417.77C7423.68 2425.33 7378.23 2437.41 7339.36 2454.01C7300.5 2470.61 7270.3 2493.12 7248.76 2521.53C7227.22 2549.25 7216.42 2583.92 7216.37 2625.54C7216.29 2685.88 7238.08 2732.04 7281.74 2764C7326.1 2795.27 7382.26 2810.95 7450.24 2811.04ZM9286.26 3120.33C9122.56 3120.12 8981.79 3085.26 8863.96 3015.74C8746.82 2945.53 8656.77 2848.31 8593.81 2724.06C8531.54 2599.82 8500.51 2456.88 8500.71 2295.26C8500.92 2131.56 8532.67 1988.01 8595.95 1864.62C8659.92 1740.54 8750.57 1643.89 8867.88 1574.68C8985.2 1504.77 9124.67 1469.92 9286.29 1470.12C9425.72 1470.3 9547.77 1495.77 9652.44 1546.55C9757.12 1597.32 9839.92 1668.52 9900.85 1760.16C9961.77 1851.8 9995.28 1959.36 10001.4 2082.84L9583.09 2082.31C9571.4 2002.52 9540.26 1938.32 9489.69 1889.7C9439.81 1840.38 9374.29 1815.68 9293.13 1815.57C9224.46 1815.48 9164.44 1834.14 9113.06 1871.53C9062.37 1908.23 9022.77 1961.93 8994.24 2032.65C8965.71 2103.37 8951.38 2189.02 8951.25 2289.6C8951.12 2391.56 8964.88 2478.29 8992.54 2549.77C9020.88 2621.25 9060.7 2675.75 9111.98 2713.28C9163.26 2750.8 9223.24 2769.61 9291.91 2769.69C9342.55 2769.76 9388 2759.41 9428.26 2738.65C9469.21 2717.9 9502.89 2687.76 9529.3 2648.26C9556.4 2608.06 9574.15 2559.88 9582.55 2503.7L10000.8 2504.24C9993.73 2626.31 9960.3 2733.78 9900.52 2826.66C9841.45 2918.84 9759.85 2990.87 9655.73 3042.77C9551.62 3094.66 9428.46 3120.51 9286.26 3120.33ZM10683.4 2631.01L10685.2 2099.32L10749.7 2099.4L11262.4 1493.46L11771.2 1494.11L11082.4 2296.48L10977.3 2296.35L10683.4 2631.01ZM10281.2 3090.39L10284 959.479L10727.2 960.045L10724.5 3090.95L10281.2 3090.39ZM11280.1 3091.66L10810.7 2394.98L11106.6 2082.17L11799.3 3092.33L11280.1 3091.66Z" fill="#FF6C28"/>
</svg>
