<svg version="1.1" viewBox="0.0 0.0 404.0 266.0" fill="none" stroke="none" stroke-linecap="square" stroke-miterlimit="10" width="404" height="266" xmlns:xlink="http://www.w3.org/1999/xlink" xmlns="http://www.w3.org/2000/svg"><path fill="#ffffff" d="M0 0L404.0 0L404.0 266.0L0 266.0L0 0Z" fill-rule="nonzero"/><path fill="#4285f4" d="M202.0 13.3C242.73547 13.3 280.6748 34.016434 302.69806 68.28529C324.7213 102.55415 327.80508 145.67088 310.88297 182.72517L202.0 133.0Z" fill-rule="nonzero"/><path fill="#fbbc04" d="M168.27661 247.8513C111.16018 231.08041 75.04669 174.88673 83.51837 115.96491C91.99005 57.0431 142.47227 13.3 202.0 13.3L202.0 133.0Z" fill-rule="nonzero"/><path fill="#ea4335" d="M310.88297 182.72517C286.15424 236.8735 225.39305 264.6222 168.27661 247.8513L202.0 133.0Z" fill-rule="nonzero"/><path fill="#1a1a1a" d="M14.096875 112.316666L14.096875 105.160416L15.05 105.160416L15.05 108.097916L18.76875 108.097916L18.76875 105.160416L19.721874 105.160416L19.721874 112.316666L18.76875 112.316666L18.76875 108.941666L15.05 108.941666L15.05 112.316666L14.096875 112.316666ZM20.628124 109.722916Q20.628124 108.285416 21.440624 107.58229Q22.096874 107.01979 23.065624 107.01979Q24.128124 107.01979 24.8 107.722916Q25.4875 108.410416 25.4875 109.64479Q25.4875 110.64479 25.190624 111.222916Q24.89375 111.80104 24.315624 112.129166Q23.7375 112.441666 23.065624 112.441666Q21.971874 112.441666 21.3 111.73854Q20.628124 111.035416 20.628124 109.722916ZM21.534374 109.722916Q21.534374 110.722916 21.971874 111.222916Q22.409374 111.70729 23.065624 111.70729Q23.721874 111.70729 24.14375 111.20729Q24.58125 110.70729 24.58125 109.691666Q24.58125 108.73854 24.14375 108.23854Q23.70625 107.73854 23.065624 107.73854Q22.409374 107.73854 21.971874 108.23854Q21.534374 108.722916 21.534374 109.722916ZM27.76875 112.316666L26.95625 112.316666L26.95625 105.160416L27.83125 105.160416L27.83125 107.70729Q28.39375 107.01979 29.253124 107.01979Q29.7375 107.01979 30.159374 107.20729Q30.58125 107.39479 30.8625 107.754166Q31.14375 108.097916 31.3 108.597916Q31.45625 109.08229 31.45625 109.64479Q31.45625 110.972916 30.784374 111.70729Q30.128124 112.441666 29.20625 112.441666Q28.3 112.441666 27.76875 111.660416L27.76875 112.316666ZM27.753124 109.691666Q27.753124 110.61354 28.01875 111.035416Q28.425 111.70729 29.14375 111.70729Q29.70625 111.70729 30.128124 111.20729Q30.55 110.70729 30.55 109.722916Q30.55 108.70729 30.14375 108.222916Q29.753124 107.73854 29.175 107.73854Q28.596874 107.73854 28.175 108.23854Q27.753124 108.73854 27.753124 109.691666ZM33.76875 112.316666L32.95625 112.316666L32.95625 105.160416L33.83125 105.160416L33.83125 107.70729Q34.39375 107.01979 35.253124 107.01979Q35.7375 107.01979 36.159374 107.20729Q36.58125 107.39479 36.8625 107.754166Q37.14375 108.097916 37.3 108.597916Q37.45625 109.08229 37.45625 109.64479Q37.45625 110.972916 36.784374 111.70729Q36.128124 112.441666 35.20625 112.441666Q34.3 112.441666 33.76875 111.660416L33.76875 112.316666ZM33.753124 109.691666Q33.753124 110.61354 34.01875 111.035416Q34.425 111.70729 35.14375 111.70729Q35.70625 111.70729 36.128124 111.20729Q36.55 110.70729 36.55 109.722916Q36.55 108.70729 36.14375 108.222916Q35.753124 107.73854 35.175 107.73854Q34.596874 107.73854 34.175 108.23854Q33.753124 108.73854 33.753124 109.691666ZM38.971874 106.17604L38.971874 105.160416L39.846874 105.160416L39.846874 106.17604L38.971874 106.17604ZM38.971874 112.316666L38.971874 107.129166L39.846874 107.129166L39.846874 112.316666L38.971874 112.316666ZM45.503124 110.64479L46.425 110.754166Q46.20625 111.55104 45.6125 112.004166Q45.034374 112.441666 44.14375 112.441666Q43.003124 112.441666 42.33125 111.73854Q41.659374 111.035416 41.659374 109.76979Q41.659374 108.45729 42.33125 107.73854Q43.01875 107.01979 44.08125 107.01979Q45.128124 107.01979 45.784374 107.722916Q46.440624 108.42604 46.440624 109.70729Q46.440624 109.785416 46.440624 109.941666L42.58125 109.941666Q42.628124 110.80104 43.05 111.254166Q43.4875 111.70729 44.14375 111.70729Q44.628124 111.70729 44.971874 111.45729Q45.315624 111.20729 45.503124 110.64479ZM42.628124 109.222916L45.51875 109.222916Q45.45625 108.566666 45.190624 108.23854Q44.76875 107.73854 44.096874 107.73854Q43.4875 107.73854 43.08125 108.14479Q42.675 108.55104 42.628124 109.222916ZM47.6125 110.76979L48.471874 110.629166Q48.55 111.160416 48.878124 111.441666Q49.221874 111.70729 49.815624 111.70729Q50.425 111.70729 50.721874 111.472916Q51.01875 111.222916 51.01875 110.879166Q51.01875 110.58229 50.753124 110.410416Q50.565624 110.30104 49.846874 110.11354Q48.89375 109.879166 48.51875 109.70729Q48.14375 109.51979 47.940624 109.20729Q47.753124 108.89479 47.753124 108.504166Q47.753124 108.160416 47.909374 107.86354Q48.065624 107.566666 48.346874 107.379166Q48.55 107.222916 48.89375 107.129166Q49.253124 107.01979 49.659374 107.01979Q50.26875 107.01979 50.721874 107.191666Q51.190624 107.36354 51.409374 107.67604Q51.64375 107.972916 51.721874 108.472916L50.8625 108.58229Q50.8 108.191666 50.51875 107.972916Q50.2375 107.73854 49.721874 107.73854Q49.128124 107.73854 48.8625 107.941666Q48.596874 108.129166 48.596874 108.410416Q48.596874 108.58229 48.70625 108.70729Q48.815624 108.847916 49.05 108.941666Q49.175 108.98854 49.83125 109.17604Q50.753124 109.42604 51.1125 109.58229Q51.4875 109.73854 51.690624 110.05104Q51.909374 110.347916 51.909374 110.785416Q51.909374 111.23854 51.659374 111.629166Q51.409374 112.004166 50.925 112.222916Q50.440624 112.441666 49.83125 112.441666Q48.815624 112.441666 48.284374 112.01979Q47.753124 111.597916 47.6125 110.76979Z" fill-rule="nonzero"/><path fill="#9e9e9e" d="M16.534374 128.31667L16.534374 126.597916L13.425 126.597916L13.425 125.80104L16.690624 121.160416L17.409374 121.160416L17.409374 125.80104L18.378124 125.80104L18.378124 126.597916L17.409374 126.597916L17.409374 128.31667L16.534374 128.31667ZM16.534374 125.80104L16.534374 122.566666L14.284375 125.80104L16.534374 125.80104ZM19.721874 126.441666L20.64375 126.36354Q20.7375 127.035416 21.1125 127.379166Q21.4875 127.722916 22.01875 127.722916Q22.64375 127.722916 23.08125 127.23854Q23.534374 126.754166 23.534374 125.972916Q23.534374 125.222916 23.1125 124.785416Q22.690624 124.347916 22.003124 124.347916Q21.58125 124.347916 21.2375 124.55104Q20.89375 124.73854 20.690624 125.035416L19.878124 124.92604L20.565624 121.254166L24.128124 121.254166L24.128124 122.097916L21.26875 122.097916L20.878124 124.01979Q21.534374 123.566666 22.2375 123.566666Q23.175 123.566666 23.815624 124.222916Q24.45625 124.86354 24.45625 125.89479Q24.45625 126.86354 23.89375 127.566666Q23.20625 128.44167 22.01875 128.44167Q21.034374 128.44167 20.409374 127.89479Q19.8 127.347916 19.721874 126.441666ZM26.20625 128.31667L26.20625 127.316666L27.20625 127.316666L27.20625 128.31667L26.20625 128.31667ZM28.721874 126.441666L29.64375 126.36354Q29.7375 127.035416 30.1125 127.379166Q30.4875 127.722916 31.01875 127.722916Q31.64375 127.722916 32.08125 127.23854Q32.534374 126.754166 32.534374 125.972916Q32.534374 125.222916 32.1125 124.785416Q31.690624 124.347916 31.003124 124.347916Q30.58125 124.347916 30.2375 124.55104Q29.89375 124.73854 29.690624 125.035416L28.878124 124.92604L29.565624 121.254166L33.128124 121.254166L33.128124 122.097916L30.26875 122.097916L29.878124 124.01979Q30.534374 123.566666 31.2375 123.566666Q32.175 123.566666 32.815624 124.222916Q33.45625 124.86354 33.45625 125.89479Q33.45625 126.86354 32.89375 127.566666Q32.20625 128.44167 31.01875 128.44167Q30.034374 128.44167 29.409374 127.89479Q28.8 127.347916 28.721874 126.441666ZM34.878124 122.879166Q34.878124 122.11354 35.26875 121.58229Q35.659374 121.035416 36.378124 121.035416Q37.065624 121.035416 37.503124 121.51979Q37.940624 122.004166 37.940624 122.92604Q37.940624 123.83229 37.4875 124.33229Q37.05 124.816666 36.39375 124.816666Q35.753124 124.816666 35.315624 124.33229Q34.878124 123.847916 34.878124 122.879166ZM36.409374 121.64479Q36.08125 121.64479 35.8625 121.92604Q35.64375 122.20729 35.64375 122.95729Q35.64375 123.660416 35.8625 123.941666Q36.08125 124.20729 36.409374 124.20729Q36.7375 124.20729 36.95625 123.92604Q37.175 123.64479 37.175 122.89479Q37.175 122.20729 36.95625 121.92604Q36.7375 121.64479 36.409374 121.64479ZM36.409374 128.58229L40.33125 121.035416L41.05 121.035416L37.14375 128.58229L36.409374 128.58229ZM39.503124 126.629166Q39.503124 125.86354 39.89375 125.33229Q40.284374 124.80104 41.01875 124.80104Q41.690624 124.80104 42.128124 125.285416Q42.58125 125.754166 42.58125 126.691666Q42.58125 127.597916 42.128124 128.09792Q41.690624 128.58229 41.01875 128.58229Q40.378124 128.58229 39.940624 128.09792Q39.503124 127.61354 39.503124 126.629166ZM41.05 125.39479Q40.70625 125.39479 40.4875 125.691666Q40.284374 125.972916 40.284374 126.722916Q40.284374 127.410416 40.503124 127.691666Q40.721874 127.972916 41.034374 127.972916Q41.378124 127.972916 41.596874 127.691666Q41.815624 127.410416 41.815624 126.660416Q41.815624 125.95729 41.596874 125.67604Q41.378124 125.39479 41.05 125.39479Z" fill-rule="nonzero"/><path stroke="#757575" stroke-width="1.0" stroke-linecap="butt" d="M13.3 116.816666L76.3 116.816666L89.44245 116.816666" fill-rule="nonzero"/><path fill="#9e9e9e" d="M91.44245 116.816666C91.44245 115.7121 90.54703 114.816666 89.44245 114.816666C88.33788 114.816666 87.44245 115.7121 87.44245 116.816666C87.44245 117.921234 88.33788 118.816666 89.44245 118.816666C90.54703 118.816666 91.44245 117.921234 91.44245 116.816666" fill-rule="nonzero"/><path fill="#1a1a1a" d="M347.48126 67.02103L347.48126 59.864777L350.65314 59.864777Q351.6219 59.864777 352.10626 60.0679Q352.60626 60.2554 352.90314 60.739777Q353.21564 61.22415 353.21564 61.8179Q353.21564 62.583527 352.71564 63.09915Q352.21564 63.614777 351.2 63.771027Q351.575 63.9429 351.7625 64.11478Q352.1844 64.5054 352.54376 65.0679L353.79376 67.02103L352.60626 67.02103L351.65314 65.53665Q351.2469 64.8804 350.96564 64.55228Q350.7 64.20853 350.48126 64.0679Q350.27814 63.927277 350.0594 63.8804Q349.90314 63.84915 349.52814 63.84915L348.4344 63.84915L348.4344 67.02103L347.48126 67.02103ZM348.4344 63.021027L350.46564 63.021027Q351.1219 63.021027 351.48126 62.896027Q351.85626 62.7554 352.04376 62.458527Q352.23126 62.16165 352.23126 61.8179Q352.23126 61.302277 351.85626 60.97415Q351.4969 60.646027 350.7 60.646027L348.4344 60.646027L348.4344 63.021027ZM357.90314 65.34915L358.825 65.45853Q358.60626 66.2554 358.0125 66.70853Q357.4344 67.14603 356.54376 67.14603Q355.40314 67.14603 354.73126 66.4429Q354.0594 65.73978 354.0594 64.47415Q354.0594 63.16165 354.73126 62.4429Q355.41876 61.72415 356.48126 61.72415Q357.52814 61.72415 358.1844 62.427277Q358.84064 63.1304 358.84064 64.41165Q358.84064 64.48978 358.84064 64.64603L354.98126 64.64603Q355.02814 65.5054 355.45 65.95853Q355.8875 66.41165 356.54376 66.41165Q357.02814 66.41165 357.3719 66.16165Q357.71564 65.91165 357.90314 65.34915ZM355.02814 63.927277L357.91876 63.927277Q357.85626 63.271027 357.59064 62.9429Q357.16876 62.4429 356.4969 62.4429Q355.8875 62.4429 355.48126 62.84915Q355.075 63.2554 355.02814 63.927277ZM360.0125 65.47415L360.8719 65.33353Q360.95 65.86478 361.27814 66.14603Q361.6219 66.41165 362.21564 66.41165Q362.825 66.41165 363.1219 66.17728Q363.41876 65.92728 363.41876 65.58353Q363.41876 65.28665 363.15314 65.11478Q362.96564 65.0054 362.2469 64.8179Q361.29376 64.58353 360.91876 64.41165Q360.54376 64.22415 360.34064 63.91165Q360.15314 63.59915 360.15314 63.208527Q360.15314 62.864777 360.3094 62.5679Q360.46564 62.271027 360.7469 62.083527Q360.95 61.927277 361.29376 61.833527Q361.65314 61.72415 362.0594 61.72415Q362.66876 61.72415 363.1219 61.896027Q363.59064 62.0679 363.8094 62.3804Q364.04376 62.677277 364.1219 63.177277L363.2625 63.28665Q363.2 62.896027 362.91876 62.677277Q362.6375 62.4429 362.1219 62.4429Q361.52814 62.4429 361.2625 62.646027Q360.9969 62.833527 360.9969 63.114777Q360.9969 63.28665 361.10626 63.41165Q361.21564 63.552277 361.45 63.646027Q361.575 63.6929 362.23126 63.8804Q363.15314 64.1304 363.5125 64.28665Q363.8875 64.4429 364.09064 64.7554Q364.3094 65.05228 364.3094 65.48978Q364.3094 65.9429 364.0594 66.33353Q363.8094 66.70853 363.325 66.92728Q362.84064 67.14603 362.23126 67.14603Q361.21564 67.14603 360.6844 66.72415Q360.15314 66.30228 360.0125 65.47415ZM367.90314 65.34915L368.825 65.45853Q368.60626 66.2554 368.0125 66.70853Q367.4344 67.14603 366.54376 67.14603Q365.40314 67.14603 364.73126 66.4429Q364.0594 65.73978 364.0594 64.47415Q364.0594 63.16165 364.73126 62.4429Q365.41876 61.72415 366.48126 61.72415Q367.52814 61.72415 368.1844 62.427277Q368.84064 63.1304 368.84064 64.41165Q368.84064 64.48978 368.84064 64.64603L364.98126 64.64603Q365.02814 65.5054 365.45 65.95853Q365.8875 66.41165 366.54376 66.41165Q367.02814 66.41165 367.3719 66.16165Q367.71564 65.91165 367.90314 65.34915ZM365.02814 63.927277L367.91876 63.927277Q367.85626 63.271027 367.59064 62.9429Q367.16876 62.4429 366.4969 62.4429Q365.8875 62.4429 365.48126 62.84915Q365.075 63.2554 365.02814 63.927277ZM373.7469 66.3804Q373.2625 66.80228 372.8094 66.97415Q372.35626 67.14603 371.84064 67.14603Q370.98126 67.14603 370.5125 66.72415Q370.0594 66.30228 370.0594 65.64603Q370.0594 65.27103 370.23126 64.95853Q370.40314 64.64603 370.6844 64.45853Q370.96564 64.2554 371.325 64.16165Q371.575 64.09915 372.10626 64.03665Q373.16876 63.91165 373.66876 63.72415Q373.66876 63.552277 373.66876 63.5054Q373.66876 62.958527 373.41876 62.739777Q373.09064 62.4429 372.41876 62.4429Q371.8094 62.4429 371.5125 62.66165Q371.21564 62.8804 371.075 63.427277L370.21564 63.3179Q370.325 62.7554 370.59064 62.427277Q370.8719 62.083527 371.3719 61.91165Q371.8875 61.72415 372.5594 61.72415Q373.21564 61.72415 373.6219 61.8804Q374.04376 62.03665 374.23126 62.271027Q374.4344 62.5054 374.5125 62.864777Q374.5594 63.083527 374.5594 63.677277L374.5594 64.84915Q374.5594 66.0679 374.60626 66.39603Q374.66876 66.72415 374.84064 67.02103L373.91876 67.02103Q373.77814 66.73978 373.7469 66.3804ZM373.66876 64.41165Q373.1844 64.61478 372.23126 64.7554Q371.7 64.83353 371.46564 64.92728Q371.2469 65.02103 371.1219 65.20853Q370.9969 65.39603 370.9969 65.6304Q370.9969 65.97415 371.2625 66.20853Q371.52814 66.4429 372.04376 66.4429Q372.5594 66.4429 372.95 66.22415Q373.34064 66.0054 373.52814 65.61478Q373.66876 65.3179 373.66876 64.73978L373.66876 64.41165ZM376.35626 67.02103L376.35626 61.833527L377.1375 61.833527L377.1375 62.614777Q377.45 62.0679 377.7 61.896027Q377.95 61.72415 378.2625 61.72415Q378.71564 61.72415 379.16876 62.0054L378.8719 62.8179Q378.54376 62.6304 378.21564 62.6304Q377.9344 62.6304 377.7 62.802277Q377.46564 62.97415 377.3719 63.28665Q377.23126 63.7554 377.23126 64.30228L377.23126 67.02103L376.35626 67.02103ZM382.7469 65.11478L383.60626 65.23978Q383.46564 66.1304 382.8719 66.64603Q382.29376 67.14603 381.45 67.14603Q380.3875 67.14603 379.73126 66.4429Q379.09064 65.73978 379.09064 64.4429Q379.09064 63.614777 379.3719 62.989777Q379.65314 62.34915 380.21564 62.03665Q380.77814 61.72415 381.45 61.72415Q382.29376 61.72415 382.825 62.146027Q383.3719 62.5679 383.52814 63.364777L382.66876 63.489777Q382.54376 62.97415 382.23126 62.708527Q381.9344 62.4429 381.48126 62.4429Q380.825 62.4429 380.40314 62.927277Q379.9969 63.396027 379.9969 64.42728Q379.9969 65.47415 380.3875 65.9429Q380.79376 66.41165 381.4344 66.41165Q381.95 66.41165 382.29376 66.09915Q382.65314 65.78665 382.7469 65.11478ZM385.35626 67.02103L385.35626 59.864777L386.23126 59.864777L386.23126 62.427277Q386.85626 61.72415 387.79376 61.72415Q388.3719 61.72415 388.79376 61.958527Q389.21564 62.177277 389.40314 62.583527Q389.59064 62.97415 389.59064 63.739777L389.59064 67.02103L388.7 67.02103L388.7 63.739777Q388.7 63.0679 388.41876 62.771027Q388.1375 62.47415 387.60626 62.47415Q387.21564 62.47415 386.8719 62.677277Q386.52814 62.8804 386.3719 63.22415Q386.23126 63.5679 386.23126 64.17728L386.23126 67.02103L385.35626 67.02103Z" fill-rule="nonzero"/><path fill="#9e9e9e" d="M361.1219 81.1304L361.9969 81.02103Q362.15314 81.7554 362.5125 82.09915Q362.8719 82.42728 363.40314 82.42728Q364.02814 82.42728 364.45 82.0054Q364.8719 81.5679 364.8719 80.92728Q364.8719 80.3179 364.48126 79.92728Q364.09064 79.53665 363.48126 79.53665Q363.23126 79.53665 362.85626 79.6304L362.95 78.86478Q363.04376 78.86478 363.09064 78.86478Q363.65314 78.86478 364.10626 78.58353Q364.5594 78.28665 364.5594 77.67728Q364.5594 77.1929 364.23126 76.8804Q363.90314 76.55228 363.3875 76.55228Q362.8719 76.55228 362.52814 76.8804Q362.1844 77.1929 362.09064 77.84915L361.21564 77.6929Q361.3719 76.80228 361.9344 76.3179Q362.5125 75.83353 363.35626 75.83353Q363.95 75.83353 364.4344 76.08353Q364.9344 76.33353 365.1844 76.77103Q365.45 77.20853 365.45 77.6929Q365.45 78.16165 365.2 78.53665Q364.96564 78.91165 364.46564 79.14603Q365.10626 79.28665 365.45 79.7554Q365.8094 80.20853 365.8094 80.91165Q365.8094 81.84915 365.1219 82.5054Q364.4344 83.14603 363.40314 83.14603Q362.45 83.14603 361.825 82.58353Q361.21564 82.02103 361.1219 81.1304ZM370.41876 83.02103L369.54376 83.02103L369.54376 77.42728Q369.23126 77.72415 368.71564 78.03665Q368.2 78.33353 367.79376 78.47415L367.79376 77.6304Q368.52814 77.28665 369.075 76.80228Q369.6375 76.30228 369.85626 75.83353L370.41876 75.83353L370.41876 83.02103ZM373.60626 83.02103L373.60626 82.02103L374.60626 82.02103L374.60626 83.02103L373.60626 83.02103ZM377.46564 79.14603Q376.91876 78.9429 376.65314 78.5679Q376.3875 78.1929 376.3875 77.67728Q376.3875 76.89603 376.95 76.36478Q377.5125 75.83353 378.45 75.83353Q379.3875 75.83353 379.95 76.3804Q380.52814 76.92728 380.52814 77.70853Q380.52814 78.20853 380.2625 78.58353Q380.0125 78.9429 379.48126 79.14603Q380.1375 79.34915 380.48126 79.83353Q380.825 80.3179 380.825 80.97415Q380.825 81.89603 380.16876 82.52103Q379.52814 83.14603 378.46564 83.14603Q377.40314 83.14603 376.7469 82.52103Q376.10626 81.8804 376.10626 80.9429Q376.10626 80.2554 376.45 79.78665Q376.8094 79.30228 377.46564 79.14603ZM377.29376 77.64603Q377.29376 78.16165 377.6219 78.48978Q377.95 78.80228 378.46564 78.80228Q378.98126 78.80228 379.29376 78.48978Q379.6219 78.16165 379.6219 77.6929Q379.6219 77.20853 379.27814 76.8804Q378.95 76.55228 378.46564 76.55228Q377.95 76.55228 377.6219 76.8804Q377.29376 77.1929 377.29376 77.64603ZM377.0125 80.95853Q377.0125 81.33353 377.1844 81.6929Q377.3719 82.03665 377.71564 82.23978Q378.075 82.42728 378.48126 82.42728Q379.10626 82.42728 379.5125 82.02103Q379.91876 81.61478 379.91876 80.98978Q379.91876 80.34915 379.4969 79.9429Q379.075 79.52103 378.45 79.52103Q377.825 79.52103 377.41876 79.92728Q377.0125 80.33353 377.0125 80.95853ZM382.27814 77.58353Q382.27814 76.8179 382.66876 76.28665Q383.0594 75.73978 383.77814 75.73978Q384.46564 75.73978 384.90314 76.22415Q385.34064 76.70853 385.34064 77.6304Q385.34064 78.53665 384.8875 79.03665Q384.45 79.52103 383.79376 79.52103Q383.15314 79.52103 382.71564 79.03665Q382.27814 78.55228 382.27814 77.58353ZM383.8094 76.34915Q383.48126 76.34915 383.2625 76.6304Q383.04376 76.91165 383.04376 77.66165Q383.04376 78.36478 383.2625 78.64603Q383.48126 78.91165 383.8094 78.91165Q384.1375 78.91165 384.35626 78.6304Q384.575 78.34915 384.575 77.59915Q384.575 76.91165 384.35626 76.6304Q384.1375 76.34915 383.8094 76.34915ZM383.8094 83.28665L387.73126 75.73978L388.45 75.73978L384.54376 83.28665L383.8094 83.28665ZM386.90314 81.33353Q386.90314 80.5679 387.29376 80.03665Q387.6844 79.5054 388.41876 79.5054Q389.09064 79.5054 389.52814 79.98978Q389.98126 80.45853 389.98126 81.39603Q389.98126 82.30228 389.52814 82.80228Q389.09064 83.28665 388.41876 83.28665Q387.77814 83.28665 387.34064 82.80228Q386.90314 82.3179 386.90314 81.33353ZM388.45 80.09915Q388.10626 80.09915 387.8875 80.39603Q387.6844 80.67728 387.6844 81.42728Q387.6844 82.11478 387.90314 82.39603Q388.1219 82.67728 388.4344 82.67728Q388.77814 82.67728 388.9969 82.39603Q389.21564 82.11478 389.21564 81.36478Q389.21564 80.66165 388.9969 80.3804Q388.77814 80.09915 388.45 80.09915Z" fill-rule="nonzero"/><path stroke="#757575" stroke-width="1.0" stroke-linecap="butt" d="M390.7 71.52103L327.7 71.52103L297.66315 71.52103" fill-rule="nonzero"/><path fill="#9e9e9e" d="M299.66315 71.52103C299.66315 70.41646 298.7677 69.52103 297.66315 69.52103C296.55856 69.52103 295.66315 70.41646 295.66315 71.52103C295.66315 72.6256 296.55856 73.52103 297.66315 73.52103C298.7677 73.52103 299.66315 72.6256 299.66315 71.52103" fill-rule="nonzero"/><path fill="#1a1a1a" d="M333.4969 231.9388L333.4969 224.78255L338.66876 224.78255L338.66876 225.6263L334.4344 225.6263L334.4344 227.8138L338.40314 227.8138L338.40314 228.65755L334.4344 228.65755L334.4344 231.09505L338.84064 231.09505L338.84064 231.9388L333.4969 231.9388ZM340.35626 231.9388L340.35626 226.7513L341.15314 226.7513L341.15314 227.48567Q341.71564 226.64192 342.79376 226.64192Q343.2625 226.64192 343.65314 226.8138Q344.0594 226.97005 344.2469 227.2513Q344.45 227.51692 344.52814 227.89192Q344.575 228.14192 344.575 228.7513L344.575 231.9388L343.7 231.9388L343.7 228.78255Q343.7 228.2513 343.59064 227.98567Q343.4969 227.72005 343.23126 227.5638Q342.96564 227.39192 342.6219 227.39192Q342.0594 227.39192 341.6375 227.7513Q341.23126 228.11067 341.23126 229.11067L341.23126 231.9388L340.35626 231.9388ZM348.27814 231.15755L348.40314 231.92317Q348.02814 232.0013 347.7469 232.0013Q347.2625 232.0013 346.9969 231.86067Q346.73126 231.70442 346.6219 231.45442Q346.52814 231.20442 346.52814 230.42317L346.52814 227.4388L345.8719 227.4388L345.8719 226.7513L346.52814 226.7513L346.52814 225.47005L347.3875 224.9388L347.3875 226.7513L348.27814 226.7513L348.27814 227.4388L347.3875 227.4388L347.3875 230.47005Q347.3875 230.84505 347.4344 230.95442Q347.48126 231.0638 347.59064 231.1263Q347.7 231.1888 347.8875 231.1888Q348.04376 231.1888 348.27814 231.15755ZM352.90314 230.26692L353.825 230.3763Q353.60626 231.17317 353.0125 231.6263Q352.4344 232.0638 351.54376 232.0638Q350.40314 232.0638 349.73126 231.36067Q349.0594 230.65755 349.0594 229.39192Q349.0594 228.07942 349.73126 227.36067Q350.41876 226.64192 351.48126 226.64192Q352.52814 226.64192 353.1844 227.34505Q353.84064 228.04817 353.84064 229.32942Q353.84064 229.40755 353.84064 229.5638L349.98126 229.5638Q350.02814 230.42317 350.45 230.8763Q350.8875 231.32942 351.54376 231.32942Q352.02814 231.32942 352.3719 231.07942Q352.71564 230.82942 352.90314 230.26692ZM350.02814 228.84505L352.91876 228.84505Q352.85626 228.1888 352.59064 227.86067Q352.16876 227.36067 351.4969 227.36067Q350.8875 227.36067 350.48126 227.76692Q350.075 228.17317 350.02814 228.84505ZM355.35626 231.9388L355.35626 226.7513L356.1375 226.7513L356.1375 227.53255Q356.45 226.98567 356.7 226.8138Q356.95 226.64192 357.2625 226.64192Q357.71564 226.64192 358.16876 226.92317L357.8719 227.73567Q357.54376 227.54817 357.21564 227.54817Q356.9344 227.54817 356.7 227.72005Q356.46564 227.89192 356.3719 228.20442Q356.23126 228.67317 356.23126 229.22005L356.23126 231.9388L355.35626 231.9388ZM360.27814 231.15755L360.40314 231.92317Q360.02814 232.0013 359.7469 232.0013Q359.2625 232.0013 358.9969 231.86067Q358.73126 231.70442 358.6219 231.45442Q358.52814 231.20442 358.52814 230.42317L358.52814 227.4388L357.8719 227.4388L357.8719 226.7513L358.52814 226.7513L358.52814 225.47005L359.3875 224.9388L359.3875 226.7513L360.27814 226.7513L360.27814 227.4388L359.3875 227.4388L359.3875 230.47005Q359.3875 230.84505 359.4344 230.95442Q359.48126 231.0638 359.59064 231.1263Q359.7 231.1888 359.8875 231.1888Q360.04376 231.1888 360.27814 231.15755ZM364.7469 231.29817Q364.2625 231.72005 363.8094 231.89192Q363.35626 232.0638 362.84064 232.0638Q361.98126 232.0638 361.5125 231.64192Q361.0594 231.22005 361.0594 230.5638Q361.0594 230.1888 361.23126 229.8763Q361.40314 229.5638 361.6844 229.3763Q361.96564 229.17317 362.325 229.07942Q362.575 229.01692 363.10626 228.95442Q364.16876 228.82942 364.66876 228.64192Q364.66876 228.47005 364.66876 228.42317Q364.66876 227.8763 364.41876 227.65755Q364.09064 227.36067 363.41876 227.36067Q362.8094 227.36067 362.5125 227.57942Q362.21564 227.79817 362.075 228.34505L361.21564 228.23567Q361.325 227.67317 361.59064 227.34505Q361.8719 227.0013 362.3719 226.82942Q362.8875 226.64192 363.5594 226.64192Q364.21564 226.64192 364.6219 226.79817Q365.04376 226.95442 365.23126 227.1888Q365.4344 227.42317 365.5125 227.78255Q365.5594 228.0013 365.5594 228.59505L365.5594 229.76692Q365.5594 230.98567 365.60626 231.3138Q365.66876 231.64192 365.84064 231.9388L364.91876 231.9388Q364.77814 231.65755 364.7469 231.29817ZM364.66876 229.32942Q364.1844 229.53255 363.23126 229.67317Q362.7 229.7513 362.46564 229.84505Q362.2469 229.9388 362.1219 230.1263Q361.9969 230.3138 361.9969 230.54817Q361.9969 230.89192 362.2625 231.1263Q362.52814 231.36067 363.04376 231.36067Q363.5594 231.36067 363.95 231.14192Q364.34064 230.92317 364.52814 230.53255Q364.66876 230.23567 364.66876 229.65755L364.66876 229.32942ZM367.3719 225.79817L367.3719 224.78255L368.2469 224.78255L368.2469 225.79817L367.3719 225.79817ZM367.3719 231.9388L367.3719 226.7513L368.2469 226.7513L368.2469 231.9388L367.3719 231.9388ZM370.35626 231.9388L370.35626 226.7513L371.15314 226.7513L371.15314 227.48567Q371.71564 226.64192 372.79376 226.64192Q373.2625 226.64192 373.65314 226.8138Q374.0594 226.97005 374.2469 227.2513Q374.45 227.51692 374.52814 227.89192Q374.575 228.14192 374.575 228.7513L374.575 231.9388L373.7 231.9388L373.7 228.78255Q373.7 228.2513 373.59064 227.98567Q373.4969 227.72005 373.23126 227.5638Q372.96564 227.39192 372.6219 227.39192Q372.0594 227.39192 371.6375 227.7513Q371.23126 228.11067 371.23126 229.11067L371.23126 231.9388L370.35626 231.9388ZM376.35626 231.9388L376.35626 226.7513L377.15314 226.7513L377.15314 227.48567Q377.3875 227.09505 377.79376 226.8763Q378.2 226.64192 378.71564 226.64192Q379.29376 226.64192 379.65314 226.8763Q380.02814 227.11067 380.1844 227.54817Q380.79376 226.64192 381.77814 226.64192Q382.5594 226.64192 382.96564 227.0638Q383.3875 227.48567 383.3875 228.3763L383.3875 231.9388L382.5125 231.9388L382.5125 228.67317Q382.5125 228.14192 382.41876 227.90755Q382.34064 227.67317 382.10626 227.53255Q381.8875 227.39192 381.59064 227.39192Q381.04376 227.39192 380.6844 227.76692Q380.325 228.1263 380.325 228.92317L380.325 231.9388L379.4344 231.9388L379.4344 228.5638Q379.4344 227.98567 379.21564 227.6888Q379.0125 227.39192 378.52814 227.39192Q378.15314 227.39192 377.84064 227.59505Q377.52814 227.78255 377.3719 228.15755Q377.23126 228.53255 377.23126 229.2513L377.23126 231.9388L376.35626 231.9388ZM388.90314 230.26692L389.825 230.3763Q389.60626 231.17317 389.0125 231.6263Q388.4344 232.0638 387.54376 232.0638Q386.40314 232.0638 385.73126 231.36067Q385.0594 230.65755 385.0594 229.39192Q385.0594 228.07942 385.73126 227.36067Q386.41876 226.64192 387.48126 226.64192Q388.52814 226.64192 389.1844 227.34505Q389.84064 228.04817 389.84064 229.32942Q389.84064 229.40755 389.84064 229.5638L385.98126 229.5638Q386.02814 230.42317 386.45 230.8763Q386.8875 231.32942 387.54376 231.32942Q388.02814 231.32942 388.3719 231.07942Q388.71564 230.82942 388.90314 230.26692ZM386.02814 228.84505L388.91876 228.84505Q388.85626 228.1888 388.59064 227.86067Q388.16876 227.36067 387.4969 227.36067Q386.8875 227.36067 386.48126 227.76692Q386.075 228.17317 386.02814 228.84505Z" fill-rule="nonzero"/><path fill="#9e9e9e" d="M365.73126 247.09505L365.73126 247.9388L360.9969 247.9388Q360.9969 247.6263 361.10626 247.32942Q361.29376 246.84505 361.6844 246.3763Q362.075 245.90755 362.84064 245.29817Q363.9969 244.32942 364.40314 243.78255Q364.825 243.22005 364.825 242.72005Q364.825 242.1888 364.45 241.84505Q364.075 241.48567 363.48126 241.48567Q362.84064 241.48567 362.45 241.86067Q362.075 242.23567 362.075 242.90755L361.16876 242.8138Q361.2625 241.8138 361.85626 241.28255Q362.46564 240.7513 363.4969 240.7513Q364.52814 240.7513 365.1219 241.32942Q365.73126 241.89192 365.73126 242.73567Q365.73126 243.17317 365.54376 243.59505Q365.3719 244.0013 364.96564 244.47005Q364.5594 244.92317 363.60626 245.72005Q362.825 246.3763 362.59064 246.6263Q362.3719 246.86067 362.23126 247.09505L365.73126 247.09505ZM371.73126 247.09505L371.73126 247.9388L366.9969 247.9388Q366.9969 247.6263 367.10626 247.32942Q367.29376 246.84505 367.6844 246.3763Q368.075 245.90755 368.84064 245.29817Q369.9969 244.32942 370.40314 243.78255Q370.825 243.22005 370.825 242.72005Q370.825 242.1888 370.45 241.84505Q370.075 241.48567 369.48126 241.48567Q368.84064 241.48567 368.45 241.86067Q368.075 242.23567 368.075 242.90755L367.16876 242.8138Q367.2625 241.8138 367.85626 241.28255Q368.46564 240.7513 369.4969 240.7513Q370.52814 240.7513 371.1219 241.32942Q371.73126 241.89192 371.73126 242.73567Q371.73126 243.17317 371.54376 243.59505Q371.3719 244.0013 370.96564 244.47005Q370.5594 244.92317 369.60626 245.72005Q368.825 246.3763 368.59064 246.6263Q368.3719 246.86067 368.23126 247.09505L371.73126 247.09505ZM373.60626 247.9388L373.60626 246.9388L374.60626 246.9388L374.60626 247.9388L373.60626 247.9388ZM376.16876 241.72005L376.16876 240.8763L380.8094 240.8763L380.8094 241.5638Q380.1219 242.28255 379.45 243.48567Q378.77814 244.6888 378.41876 245.97005Q378.15314 246.8763 378.075 247.9388L377.16876 247.9388Q377.1844 247.09505 377.4969 245.90755Q377.825 244.70442 378.41876 243.59505Q379.0125 242.48567 379.6844 241.72005L376.16876 241.72005ZM382.27814 242.5013Q382.27814 241.73567 382.66876 241.20442Q383.0594 240.65755 383.77814 240.65755Q384.46564 240.65755 384.90314 241.14192Q385.34064 241.6263 385.34064 242.54817Q385.34064 243.45442 384.8875 243.95442Q384.45 244.4388 383.79376 244.4388Q383.15314 244.4388 382.71564 243.95442Q382.27814 243.47005 382.27814 242.5013ZM383.8094 241.26692Q383.48126 241.26692 383.2625 241.54817Q383.04376 241.82942 383.04376 242.57942Q383.04376 243.28255 383.2625 243.5638Q383.48126 243.82942 383.8094 243.82942Q384.1375 243.82942 384.35626 243.54817Q384.575 243.26692 384.575 242.51692Q384.575 241.82942 384.35626 241.54817Q384.1375 241.26692 383.8094 241.26692ZM383.8094 248.20442L387.73126 240.65755L388.45 240.65755L384.54376 248.20442L383.8094 248.20442ZM386.90314 246.2513Q386.90314 245.48567 387.29376 244.95442Q387.6844 244.42317 388.41876 244.42317Q389.09064 244.42317 389.52814 244.90755Q389.98126 245.3763 389.98126 246.3138Q389.98126 247.22005 389.52814 247.72005Q389.09064 248.20442 388.41876 248.20442Q387.77814 248.20442 387.34064 247.72005Q386.90314 247.23567 386.90314 246.2513ZM388.45 245.01692Q388.10626 245.01692 387.8875 245.3138Q387.6844 245.59505 387.6844 246.34505Q387.6844 247.03255 387.90314 247.3138Q388.1219 247.59505 388.4344 247.59505Q388.77814 247.59505 388.9969 247.3138Q389.21564 247.03255 389.21564 246.28255Q389.21564 245.57942 388.9969 245.29817Q388.77814 245.01692 388.45 245.01692Z" fill-rule="nonzero"/><path stroke="#757575" stroke-width="1.0" stroke-linecap="butt" d="M390.7 236.4388L327.7 236.4388L249.23892 236.4388" fill-rule="nonzero"/><path fill="#9e9e9e" d="M251.23892 236.4388C251.23892 235.33423 250.34349 234.4388 249.23892 234.4388C248.13435 234.4388 247.23892 235.33423 247.23892 236.4388C247.23892 237.54337 248.13435 238.4388 249.23892 238.4388C250.34349 238.4388 251.23892 237.54337 251.23892 236.4388" fill-rule="nonzero"/></svg>