<svg version="1.1" viewBox="0.0 0.0 404.0 243.0" fill="none" stroke="none" stroke-linecap="square" stroke-miterlimit="10" width="404" height="243" xmlns:xlink="http://www.w3.org/1999/xlink" xmlns="http://www.w3.org/2000/svg"><path fill="#ffffff" d="M0 0L404.0 0L404.0 243.0L0 243.0L0 0Z" fill-rule="nonzero"/><path fill="#34a853" d="M142.88092 29.508926C160.51602 18.17554 181.03712 12.15 202.0 12.15L202.0 121.5Z" fill-rule="nonzero"/><path fill="#fbbc04" d="M93.76302 105.937874C98.2768 74.54385 116.19901 46.65635 142.88092 29.508926L202.0 121.5Z" fill-rule="nonzero"/><path fill="#ea4335" d="M119.35879 193.10902C98.58867 169.13902 89.249245 137.3319 93.76302 105.937874L202.0 121.5Z" fill-rule="nonzero"/><path fill="#4285f4" d="M202.0 12.15C252.46187 12.15 296.37076 46.680332 308.2676 95.71976C320.16443 144.75919 296.95938 195.57118 252.10707 218.69415C207.25478 241.81712 152.40428 231.24556 119.35879 193.10902L202.0 121.5Z" fill-rule="nonzero"/><path fill="#1a1a1a" d="M13.0875 23.15L13.0875 14.55625L16.9 14.55625Q18.05625 14.55625 18.65 14.790625Q19.24375 15.025 19.603125 15.61875Q19.9625 16.196875 19.9625 16.9Q19.9625 17.821875 19.36875 18.446875Q18.775 19.071875 17.540625 19.24375Q17.99375 19.4625 18.228125 19.665625Q18.728125 20.11875 19.165625 20.80625L20.665625 23.15L19.228125 23.15L18.103125 21.36875Q17.603125 20.5875 17.275 20.18125Q16.9625 19.775 16.696875 19.61875Q16.446875 19.446875 16.18125 19.36875Q15.99375 19.3375 15.55625 19.3375L14.228125 19.3375L14.228125 23.15L13.0875 23.15ZM14.228125 18.353125L16.68125 18.353125Q17.446875 18.353125 17.884375 18.196875Q18.3375 18.025 18.55625 17.68125Q18.790625 17.321875 18.790625 16.9Q18.790625 16.290625 18.3375 15.9Q17.9 15.509375 16.946875 15.509375L14.228125 15.509375L14.228125 18.353125ZM29.853125 22.134375Q29.3375 22.7125 28.7125 23.009375Q28.103125 23.290625 27.384375 23.290625Q26.071875 23.290625 25.290625 22.4Q24.665625 21.68125 24.665625 20.775Q24.665625 19.978125 25.18125 19.3375Q25.696875 18.696875 26.7125 18.2125Q26.134375 17.540625 25.93125 17.134375Q25.74375 16.7125 25.74375 16.321875Q25.74375 15.55625 26.353125 14.99375Q26.9625 14.415625 27.884375 14.415625Q28.759375 14.415625 29.30625 14.9625Q29.86875 15.49375 29.86875 16.24375Q29.86875 17.478125 28.259375 18.3375L29.790625 20.30625Q30.05625 19.790625 30.196875 19.103125L31.30625 19.3375Q31.025 20.4625 30.540625 21.196875Q31.134375 21.978125 31.884375 22.509375L31.165625 23.353125Q30.525 22.93125 29.853125 22.134375ZM27.7125 17.665625Q28.4 17.259375 28.5875 16.9625Q28.790625 16.65 28.790625 16.275Q28.790625 15.8375 28.509375 15.55625Q28.24375 15.275 27.821875 15.275Q27.4 15.275 27.103125 15.55625Q26.821875 15.8375 26.821875 16.228125Q26.821875 16.43125 26.93125 16.65Q27.040625 16.86875 27.24375 17.11875L27.7125 17.665625ZM29.196875 21.30625L27.259375 18.9Q26.4 19.415625 26.103125 19.853125Q25.80625 20.290625 25.80625 20.7125Q25.80625 21.24375 26.2125 21.80625Q26.634375 22.36875 27.4 22.36875Q27.86875 22.36875 28.36875 22.071875Q28.884375 21.775 29.196875 21.30625ZM36.0875 23.15L36.0875 14.55625L39.9 14.55625Q41.05625 14.55625 41.65 14.790625Q42.24375 15.025 42.603127 15.61875Q42.9625 16.196875 42.9625 16.9Q42.9625 17.821875 42.36875 18.446875Q41.775 19.071875 40.540627 19.24375Q40.99375 19.4625 41.228127 19.665625Q41.728127 20.11875 42.165627 20.80625L43.665627 23.15L42.228127 23.15L41.103127 21.36875Q40.603127 20.5875 40.275 20.18125Q39.9625 19.775 39.696877 19.61875Q39.446877 19.446875 39.18125 19.36875Q38.99375 19.3375 38.55625 19.3375L37.228127 19.3375L37.228127 23.15L36.0875 23.15ZM37.228127 18.353125L39.68125 18.353125Q40.446877 18.353125 40.884377 18.196875Q41.3375 18.025 41.55625 17.68125Q41.790627 17.321875 41.790627 16.9Q41.790627 16.290625 41.3375 15.9Q40.9 15.509375 39.946877 15.509375L37.228127 15.509375L37.228127 18.353125Z" fill-rule="nonzero"/><path fill="#9e9e9e" d="M12.80625 38.165627L13.821875 38.071877Q13.946875 38.790627 14.30625 39.11875Q14.68125 39.43125 15.24375 39.43125Q15.728125 39.43125 16.0875 39.2125Q16.4625 38.978127 16.696875 38.61875Q16.93125 38.24375 17.0875 37.61875Q17.24375 36.978127 17.24375 36.321877Q17.24375 36.24375 17.24375 36.103127Q16.93125 36.603127 16.384375 36.93125Q15.8375 37.24375 15.196875 37.24375Q14.11875 37.24375 13.384375 36.478127Q12.65 35.696877 12.65 34.43125Q12.65 33.11875 13.415625 32.321877Q14.196875 31.525002 15.353125 31.525002Q16.18125 31.525002 16.86875 31.978127Q17.571875 32.43125 17.93125 33.275Q18.290625 34.103127 18.290625 35.68125Q18.290625 37.321877 17.93125 38.30625Q17.5875 39.275 16.86875 39.790627Q16.165625 40.290627 15.228125 40.290627Q14.2125 40.290627 13.571875 39.74375Q12.93125 39.18125 12.80625 38.165627ZM17.11875 34.36875Q17.11875 33.4625 16.634375 32.93125Q16.165625 32.4 15.478125 32.4Q14.775 32.4 14.24375 32.978127Q13.728125 33.540627 13.728125 34.4625Q13.728125 35.275 14.228125 35.790627Q14.728125 36.30625 15.446875 36.30625Q16.18125 36.30625 16.65 35.790627Q17.11875 35.275 17.11875 34.36875ZM20.24375 40.15L20.24375 38.946877L21.446875 38.946877L21.446875 40.15L20.24375 40.15ZM26.61875 40.15L25.571875 40.15L25.571875 33.43125Q25.18125 33.790627 24.55625 34.165627Q23.946875 34.525 23.4625 34.696877L23.4625 33.68125Q24.3375 33.259377 24.99375 32.68125Q25.665625 32.0875 25.946875 31.525002L26.61875 31.525002L26.61875 40.15ZM29.853125 33.61875Q29.853125 32.696877 30.30625 32.05625Q30.775 31.415627 31.65 31.415627Q32.4625 31.415627 32.99375 31.993752Q33.525 32.571877 33.525 33.68125Q33.525 34.775 32.978127 35.36875Q32.446877 35.946877 31.665625 35.946877Q30.884375 35.946877 30.36875 35.36875Q29.853125 34.790627 29.853125 33.61875ZM31.68125 32.134377Q31.290625 32.134377 31.025 32.478127Q30.775 32.821877 30.775 33.728127Q30.775 34.55625 31.025 34.9Q31.290625 35.228127 31.68125 35.228127Q32.0875 35.228127 32.3375 34.884377Q32.603127 34.540627 32.603127 33.65Q32.603127 32.80625 32.3375 32.478127Q32.071877 32.134377 31.68125 32.134377ZM31.68125 40.4625L36.384377 31.415627L37.24375 31.415627L32.55625 40.4625L31.68125 40.4625ZM35.4 38.134377Q35.4 37.2125 35.853127 36.571877Q36.321877 35.93125 37.2125 35.93125Q38.025 35.93125 38.55625 36.509377Q39.0875 37.071877 39.0875 38.196877Q39.0875 39.290627 38.540627 39.884377Q38.009377 40.4625 37.2125 40.4625Q36.446877 40.4625 35.915627 39.884377Q35.4 39.30625 35.4 38.134377ZM37.24375 36.65Q36.8375 36.65 36.571877 36.99375Q36.321877 37.3375 36.321877 38.24375Q36.321877 39.05625 36.5875 39.4Q36.853127 39.74375 37.24375 39.74375Q37.634377 39.74375 37.9 39.4Q38.165627 39.05625 38.165627 38.15Q38.165627 37.321877 37.9 36.99375Q37.634377 36.65 37.24375 36.65Z" fill-rule="nonzero"/><path stroke="#757575" stroke-width="1.0" stroke-linecap="butt" d="M12.15 27.65L86.65 27.65L172.73291 21.825472" fill-rule="nonzero"/><path fill="#9e9e9e" d="M174.73291 21.825472C174.73291 20.720901 173.8375 19.825472 172.73291 19.825472C171.62834 19.825472 170.73291 20.720901 170.73291 21.825472C170.73291 22.93004 171.62834 23.825472 172.73291 23.825472C173.8375 23.825472 174.73291 22.93004 174.73291 21.825472" fill-rule="nonzero"/><path fill="#1a1a1a" d="M13.0875 60.83688L13.0875 52.24313L16.9 52.24313Q18.05625 52.24313 18.65 52.477505Q19.24375 52.71188 19.603125 53.30563Q19.9625 53.883755 19.9625 54.58688Q19.9625 55.508755 19.36875 56.133755Q18.775 56.758755 17.540625 56.93063Q17.99375 57.14938 18.228125 57.352505Q18.728125 57.80563 19.165625 58.49313L20.665625 60.83688L19.228125 60.83688L18.103125 59.05563Q17.603125 58.27438 17.275 57.86813Q16.9625 57.46188 16.696875 57.30563Q16.446875 57.133755 16.18125 57.05563Q15.99375 57.02438 15.55625 57.02438L14.228125 57.02438L14.228125 60.83688L13.0875 60.83688ZM14.228125 56.040005L16.68125 56.040005Q17.446875 56.040005 17.884375 55.883755Q18.3375 55.71188 18.55625 55.36813Q18.790625 55.008755 18.790625 54.58688Q18.790625 53.977505 18.3375 53.58688Q17.9 53.196255 16.946875 53.196255L14.228125 53.196255L14.228125 56.040005ZM26.009375 60.071255Q25.415625 60.571255 24.86875 60.77438Q24.3375 60.977505 23.7125 60.977505Q22.68125 60.977505 22.134375 60.477505Q21.5875 59.977505 21.5875 59.196255Q21.5875 58.74313 21.790625 58.36813Q21.99375 57.977505 22.3375 57.758755Q22.68125 57.52438 23.103125 57.415005Q23.4 57.321255 24.040625 57.24313Q25.30625 57.102505 25.915625 56.883755Q25.915625 56.665005 25.915625 56.61813Q25.915625 55.96188 25.61875 55.696255Q25.2125 55.352505 24.415625 55.352505Q23.68125 55.352505 23.321875 55.61813Q22.9625 55.86813 22.790625 56.52438L21.759375 56.383755Q21.9 55.727505 22.228125 55.321255Q22.55625 54.915005 23.165625 54.696255Q23.775 54.477505 24.571875 54.477505Q25.36875 54.477505 25.86875 54.665005Q26.36875 54.852505 26.603125 55.133755Q26.8375 55.415005 26.93125 55.852505Q26.978125 56.11813 26.978125 56.821255L26.978125 58.227505Q26.978125 59.696255 27.040625 60.08688Q27.11875 60.477505 27.321875 60.83688L26.2125 60.83688Q26.05625 60.508755 26.009375 60.071255ZM25.915625 57.71188Q25.3375 57.946255 24.196875 58.11813Q23.540625 58.21188 23.275 58.33688Q23.009375 58.446255 22.853125 58.665005Q22.7125 58.883755 22.7125 59.165005Q22.7125 59.58688 23.025 59.86813Q23.353125 60.14938 23.9625 60.14938Q24.571875 60.14938 25.040625 59.883755Q25.525 59.61813 25.74375 59.14938Q25.915625 58.790005 25.915625 58.102505L25.915625 57.71188ZM28.946875 60.83688L28.946875 54.61813L29.884375 54.61813L29.884375 55.49313Q30.571875 54.477505 31.86875 54.477505Q32.43125 54.477505 32.9 54.68063Q33.384377 54.883755 33.61875 55.21188Q33.853127 55.540005 33.946877 55.977505Q33.99375 56.27438 33.99375 57.008755L33.99375 60.83688L32.946877 60.83688L32.946877 57.05563Q32.946877 56.39938 32.821877 56.08688Q32.696877 55.77438 32.384377 55.58688Q32.071877 55.383755 31.65 55.383755Q30.978125 55.383755 30.478125 55.821255Q29.99375 56.24313 29.99375 57.43063L29.99375 60.83688L28.946875 60.83688ZM39.978127 60.83688L39.978127 60.05563Q39.384377 60.977505 38.24375 60.977505Q37.49375 60.977505 36.86875 60.571255Q36.24375 60.14938 35.9 59.415005Q35.55625 58.68063 35.55625 57.727505Q35.55625 56.80563 35.86875 56.040005Q36.18125 55.27438 36.80625 54.883755Q37.43125 54.477505 38.196877 54.477505Q38.759377 54.477505 39.196877 54.71188Q39.634377 54.946255 39.915627 55.321255L39.915627 52.24313L40.9625 52.24313L40.9625 60.83688L39.978127 60.83688ZM36.65 57.727505Q36.65 58.93063 37.15 59.52438Q37.65 60.102505 38.3375 60.102505Q39.025 60.102505 39.509377 59.540005Q39.99375 58.977505 39.99375 57.821255Q39.99375 56.540005 39.49375 55.946255Q39.009377 55.352505 38.290627 55.352505Q37.5875 55.352505 37.11875 55.93063Q36.65 56.49313 36.65 57.727505ZM42.55625 57.727505Q42.55625 55.99313 43.509377 55.165005Q44.30625 54.477505 45.4625 54.477505Q46.74375 54.477505 47.55625 55.321255Q48.384377 56.14938 48.384377 57.633755Q48.384377 58.83688 48.025 59.52438Q47.665627 60.21188 46.9625 60.602505Q46.275 60.977505 45.4625 60.977505Q44.165627 60.977505 43.353127 60.14938Q42.55625 59.30563 42.55625 57.727505ZM43.634377 57.727505Q43.634377 58.915005 44.15 59.508755Q44.68125 60.102505 45.4625 60.102505Q46.259377 60.102505 46.775 59.508755Q47.290627 58.915005 47.290627 57.696255Q47.290627 56.540005 46.759377 55.946255Q46.24375 55.352505 45.4625 55.352505Q44.68125 55.352505 44.15 55.946255Q43.634377 56.52438 43.634377 57.727505ZM49.946877 60.83688L49.946877 54.61813L50.884377 54.61813L50.884377 55.49313Q51.18125 55.02438 51.665627 54.758755Q52.15 54.477505 52.775 54.477505Q53.4625 54.477505 53.9 54.758755Q54.353127 55.040005 54.525 55.55563Q55.275 54.477505 56.446877 54.477505Q57.384377 54.477505 57.86875 54.99313Q58.36875 55.49313 58.36875 56.571255L58.36875 60.83688L57.321877 60.83688L57.321877 56.915005Q57.321877 56.290005 57.2125 56.008755Q57.11875 55.727505 56.853127 55.55563Q56.5875 55.383755 56.2125 55.383755Q55.55625 55.383755 55.11875 55.821255Q54.696877 56.258755 54.696877 57.227505L54.696877 60.83688L53.634377 60.83688L53.634377 56.790005Q53.634377 56.08688 53.36875 55.74313Q53.11875 55.383755 52.540627 55.383755Q52.0875 55.383755 51.7125 55.61813Q51.3375 55.852505 51.165627 56.30563Q50.99375 56.758755 50.99375 57.602505L50.99375 60.83688L49.946877 60.83688ZM60.915627 60.83688L60.915627 52.24313L61.978127 52.24313L61.978127 60.83688L60.915627 60.83688ZM63.9 63.227505L63.775 62.24313Q64.11875 62.33688 64.38438 62.33688Q64.72813 62.33688 64.93125 62.21188Q65.15 62.102505 65.29063 61.89938Q65.38438 61.727505 65.61875 61.102505Q65.63438 61.02438 65.7125 60.852505L63.3375 54.61813L64.47813 54.61813L65.775 58.21188Q66.025 58.89938 66.22813 59.665005Q66.41563 58.93063 66.66563 58.24313L67.99375 54.61813L69.04063 54.61813L66.68125 60.946255Q66.29063 61.96188 66.0875 62.352505Q65.80625 62.883755 65.43125 63.11813Q65.07188 63.36813 64.57188 63.36813Q64.275 63.36813 63.9 63.227505Z" fill-rule="nonzero"/><path fill="#9e9e9e" d="M16.61875 77.83688L15.571875 77.83688L15.571875 71.11813Q15.18125 71.47751 14.55625 71.85251Q13.946875 72.21188 13.4625 72.38376L13.4625 71.36813Q14.3375 70.94626 14.99375 70.36813Q15.665625 69.77438 15.946875 69.21188L16.61875 69.21188L16.61875 77.83688ZM19.65 75.57126L20.7125 75.43063Q20.884375 76.32126 21.321875 76.72751Q21.759375 77.11813 22.384375 77.11813Q23.134375 77.11813 23.65 76.60251Q24.165625 76.08688 24.165625 75.32126Q24.165625 74.60251 23.68125 74.13376Q23.2125 73.64938 22.478125 73.64938Q22.18125 73.64938 21.728125 73.77438L21.853125 72.83688Q21.9625 72.85251 22.025 72.85251Q22.696875 72.85251 23.228125 72.50876Q23.775 72.14938 23.775 71.41501Q23.775 70.83688 23.384375 70.46188Q22.99375 70.07126 22.36875 70.07126Q21.759375 70.07126 21.3375 70.46188Q20.93125 70.85251 20.821875 71.61813L19.759375 71.43063Q19.946875 70.38376 20.634375 69.80563Q21.321875 69.21188 22.3375 69.21188Q23.040625 69.21188 23.634375 69.52438Q24.228125 69.82126 24.540625 70.33688Q24.853125 70.85251 24.853125 71.44626Q24.853125 71.99313 24.55625 72.46188Q24.259375 72.91501 23.68125 73.18063Q24.43125 73.35251 24.853125 73.91501Q25.275 74.46188 25.275 75.30563Q25.275 76.43063 24.446875 77.21188Q23.634375 77.99313 22.384375 77.99313Q21.259375 77.99313 20.509375 77.32126Q19.759375 76.63376 19.65 75.57126ZM27.24375 77.83688L27.24375 76.63376L28.446875 76.63376L28.446875 77.83688L27.24375 77.83688ZM35.11875 71.35251L34.071877 71.43063Q33.93125 70.80563 33.68125 70.52438Q33.24375 70.07126 32.61875 70.07126Q32.11875 70.07126 31.728125 70.35251Q31.24375 70.72751 30.946875 71.43063Q30.665625 72.11813 30.65 73.39938Q31.025 72.82126 31.571875 72.54001Q32.134377 72.25876 32.74375 72.25876Q33.790627 72.25876 34.525 73.04001Q35.275 73.82126 35.275 75.04001Q35.275 75.85251 34.915627 76.55563Q34.571877 77.24313 33.9625 77.61813Q33.353127 77.97751 32.5875 77.97751Q31.259375 77.97751 30.43125 77.00876Q29.603125 76.04001 29.603125 73.82126Q29.603125 71.32126 30.525 70.19626Q31.321875 69.21188 32.68125 69.21188Q33.696877 69.21188 34.3375 69.79001Q34.99375 70.35251 35.11875 71.35251ZM30.821875 75.05563Q30.821875 75.60251 31.040625 76.10251Q31.275 76.58688 31.68125 76.85251Q32.103127 77.11813 32.571877 77.11813Q33.228127 77.11813 33.7125 76.58688Q34.196877 76.04001 34.196877 75.11813Q34.196877 74.22751 33.7125 73.71188Q33.24375 73.19626 32.525 73.19626Q31.80625 73.19626 31.30625 73.71188Q30.821875 74.22751 30.821875 75.05563ZM36.853127 71.30563Q36.853127 70.38376 37.30625 69.74313Q37.775 69.10251 38.65 69.10251Q39.4625 69.10251 39.99375 69.68063Q40.525 70.25876 40.525 71.36813Q40.525 72.46188 39.978127 73.05563Q39.446877 73.63376 38.665627 73.63376Q37.884377 73.63376 37.36875 73.05563Q36.853127 72.47751 36.853127 71.30563ZM38.68125 69.82126Q38.290627 69.82126 38.025 70.16501Q37.775 70.50876 37.775 71.41501Q37.775 72.24313 38.025 72.58688Q38.290627 72.91501 38.68125 72.91501Q39.0875 72.91501 39.3375 72.57126Q39.603127 72.22751 39.603127 71.33688Q39.603127 70.49313 39.3375 70.16501Q39.071877 69.82126 38.68125 69.82126ZM38.68125 78.14938L43.384377 69.10251L44.24375 69.10251L39.55625 78.14938L38.68125 78.14938ZM42.4 75.82126Q42.4 74.89938 42.853127 74.25876Q43.321877 73.61813 44.2125 73.61813Q45.025 73.61813 45.55625 74.19626Q46.0875 74.75876 46.0875 75.88376Q46.0875 76.97751 45.540627 77.57126Q45.009377 78.14938 44.2125 78.14938Q43.446877 78.14938 42.915627 77.57126Q42.4 76.99313 42.4 75.82126ZM44.24375 74.33688Q43.8375 74.33688 43.571877 74.68063Q43.321877 75.02438 43.321877 75.93063Q43.321877 76.74313 43.5875 77.08688Q43.853127 77.43063 44.24375 77.43063Q44.634377 77.43063 44.9 77.08688Q45.165627 76.74313 45.165627 75.83688Q45.165627 75.00876 44.9 74.68063Q44.634377 74.33688 44.24375 74.33688Z" fill-rule="nonzero"/><path stroke="#757575" stroke-width="1.0" stroke-linecap="butt" d="M12.15 65.33688L86.65 65.33688L114.60848 65.33688" fill-rule="nonzero"/><path fill="#9e9e9e" d="M116.60848 65.33688C116.60848 64.23231 115.71305 63.33688 114.60848 63.33688C113.503914 63.33688 112.60848 64.23231 112.60848 65.33688C112.60848 66.44145 113.503914 67.33688 114.60848 67.33688C115.71305 67.33688 116.60848 66.44145 116.60848 65.33688" fill-rule="nonzero"/><path fill="#1a1a1a" d="M13.0875 146.26709L13.0875 137.67334L16.9 137.67334Q18.05625 137.67334 18.65 137.90771Q19.24375 138.14209 19.603125 138.73584Q19.9625 139.31396 19.9625 140.01709Q19.9625 140.93896 19.36875 141.56396Q18.775 142.18896 17.540625 142.36084Q17.99375 142.57959 18.228125 142.78271Q18.728125 143.23584 19.165625 143.92334L20.665625 146.26709L19.228125 146.26709L18.103125 144.48584Q17.603125 143.70459 17.275 143.29834Q16.9625 142.89209 16.696875 142.73584Q16.446875 142.56396 16.18125 142.48584Q15.99375 142.45459 15.55625 142.45459L14.228125 142.45459L14.228125 146.26709L13.0875 146.26709ZM14.228125 141.47021L16.68125 141.47021Q17.446875 141.47021 17.884375 141.31396Q18.3375 141.14209 18.55625 140.79834Q18.790625 140.43896 18.790625 140.01709Q18.790625 139.40771 18.3375 139.01709Q17.9 138.62646 16.946875 138.62646L14.228125 138.62646L14.228125 141.47021ZM26.196875 144.26709L27.290625 144.39209Q27.040625 145.34521 26.3375 145.87646Q25.634375 146.40771 24.55625 146.40771Q23.196875 146.40771 22.384375 145.56396Q21.5875 144.72021 21.5875 143.20459Q21.5875 141.64209 22.4 140.78271Q23.2125 139.90771 24.49375 139.90771Q25.74375 139.90771 26.525 140.75146Q27.321875 141.59521 27.321875 143.14209Q27.321875 143.23584 27.321875 143.42334L22.68125 143.42334Q22.74375 144.45459 23.259375 145.00146Q23.775 145.53271 24.55625 145.53271Q25.134375 145.53271 25.540625 145.23584Q25.9625 144.92334 26.196875 144.26709ZM22.74375 142.56396L26.2125 142.56396Q26.15 141.76709 25.821875 141.37646Q25.30625 140.76709 24.509375 140.76709Q23.775 140.76709 23.275 141.25146Q22.790625 141.73584 22.74375 142.56396ZM28.915625 146.26709L28.915625 137.67334L29.978125 137.67334L29.978125 146.26709L28.915625 146.26709ZM36.196877 144.26709L37.290627 144.39209Q37.040627 145.34521 36.3375 145.87646Q35.634377 146.40771 34.55625 146.40771Q33.196877 146.40771 32.384377 145.56396Q31.5875 144.72021 31.5875 143.20459Q31.5875 141.64209 32.4 140.78271Q33.2125 139.90771 34.49375 139.90771Q35.74375 139.90771 36.525 140.75146Q37.321877 141.59521 37.321877 143.14209Q37.321877 143.23584 37.321877 143.42334L32.68125 143.42334Q32.74375 144.45459 33.259377 145.00146Q33.775 145.53271 34.55625 145.53271Q35.134377 145.53271 35.540627 145.23584Q35.9625 144.92334 36.196877 144.26709ZM32.74375 142.56396L36.2125 142.56396Q36.15 141.76709 35.821877 141.37646Q35.30625 140.76709 34.509377 140.76709Q33.775 140.76709 33.275 141.25146Q32.790627 141.73584 32.74375 142.56396ZM40.665627 146.26709L38.30625 140.04834L39.415627 140.04834L40.759377 143.76709Q40.9625 144.37646 41.15 145.01709Q41.290627 144.53271 41.540627 143.84521L42.93125 140.04834L44.009377 140.04834L41.65 146.26709L40.665627 146.26709ZM48.009377 145.50146Q47.415627 146.00146 46.86875 146.20459Q46.3375 146.40771 45.7125 146.40771Q44.68125 146.40771 44.134377 145.90771Q43.5875 145.40771 43.5875 144.62646Q43.5875 144.17334 43.790627 143.79834Q43.99375 143.40771 44.3375 143.18896Q44.68125 142.95459 45.103127 142.84521Q45.4 142.75146 46.040627 142.67334Q47.30625 142.53271 47.915627 142.31396Q47.915627 142.09521 47.915627 142.04834Q47.915627 141.39209 47.61875 141.12646Q47.2125 140.78271 46.415627 140.78271Q45.68125 140.78271 45.321877 141.04834Q44.9625 141.29834 44.790627 141.95459L43.759377 141.81396Q43.9 141.15771 44.228127 140.75146Q44.55625 140.34521 45.165627 140.12646Q45.775 139.90771 46.571877 139.90771Q47.36875 139.90771 47.86875 140.09521Q48.36875 140.28271 48.603127 140.56396Q48.8375 140.84521 48.93125 141.28271Q48.978127 141.54834 48.978127 142.25146L48.978127 143.65771Q48.978127 145.12646 49.040627 145.51709Q49.11875 145.90771 49.321877 146.26709L48.2125 146.26709Q48.05625 145.93896 48.009377 145.50146ZM47.915627 143.14209Q47.3375 143.37646 46.196877 143.54834Q45.540627 143.64209 45.275 143.76709Q45.009377 143.87646 44.853127 144.09521Q44.7125 144.31396 44.7125 144.59521Q44.7125 145.01709 45.025 145.29834Q45.353127 145.57959 45.9625 145.57959Q46.571877 145.57959 47.040627 145.31396Q47.525 145.04834 47.74375 144.57959Q47.915627 144.22021 47.915627 143.53271L47.915627 143.14209ZM50.946877 146.26709L50.946877 140.04834L51.884377 140.04834L51.884377 140.92334Q52.571877 139.90771 53.86875 139.90771Q54.43125 139.90771 54.9 140.11084Q55.384377 140.31396 55.61875 140.64209Q55.853127 140.97021 55.946877 141.40771Q55.99375 141.70459 55.99375 142.43896L55.99375 146.26709L54.946877 146.26709L54.946877 142.48584Q54.946877 141.82959 54.821877 141.51709Q54.696877 141.20459 54.384377 141.01709Q54.071877 140.81396 53.65 140.81396Q52.978127 140.81396 52.478127 141.25146Q51.99375 141.67334 51.99375 142.86084L51.99375 146.26709L50.946877 146.26709ZM62.009377 143.98584L63.040627 144.12646Q62.86875 145.18896 62.165627 145.79834Q61.4625 146.40771 60.446877 146.40771Q59.165627 146.40771 58.384377 145.57959Q57.61875 144.73584 57.61875 143.17334Q57.61875 142.17334 57.946877 141.42334Q58.290627 140.65771 58.9625 140.28271Q59.65 139.90771 60.4625 139.90771Q61.4625 139.90771 62.103127 140.42334Q62.759377 140.92334 62.946877 141.87646L61.915627 142.03271Q61.775 141.40771 61.4 141.09521Q61.025 140.76709 60.49375 140.76709Q59.696877 140.76709 59.196877 141.34521Q58.696877 141.90771 58.696877 143.14209Q58.696877 144.40771 59.18125 144.97021Q59.665627 145.53271 60.43125 145.53271Q61.05625 145.53271 61.4625 145.15771Q61.884377 144.78271 62.009377 143.98584ZM68.19688 144.26709L69.29063 144.39209Q69.04063 145.34521 68.3375 145.87646Q67.63438 146.40771 66.55625 146.40771Q65.19688 146.40771 64.38438 145.56396Q63.5875 144.72021 63.5875 143.20459Q63.5875 141.64209 64.4 140.78271Q65.2125 139.90771 66.49375 139.90771Q67.74375 139.90771 68.525 140.75146Q69.32188 141.59521 69.32188 143.14209Q69.32188 143.23584 69.32188 143.42334L64.68125 143.42334Q64.74375 144.45459 65.25938 145.00146Q65.775 145.53271 66.55625 145.53271Q67.13438 145.53271 67.54063 145.23584Q67.9625 144.92334 68.19688 144.26709ZM64.74375 142.56396L68.2125 142.56396Q68.15 141.76709 67.82188 141.37646Q67.30625 140.76709 66.50938 140.76709Q65.775 140.76709 65.275 141.25146Q64.79063 141.73584 64.74375 142.56396Z" fill-rule="nonzero"/><path fill="#9e9e9e" d="M16.61875 163.26709L15.571875 163.26709L15.571875 156.54834Q15.18125 156.90771 14.55625 157.28271Q13.946875 157.64209 13.4625 157.81396L13.4625 156.79834Q14.3375 156.37646 14.99375 155.79834Q15.665625 155.20459 15.946875 154.64209L16.61875 154.64209L16.61875 163.26709ZM19.65 161.00146L20.7125 160.86084Q20.884375 161.75146 21.321875 162.15771Q21.759375 162.54834 22.384375 162.54834Q23.134375 162.54834 23.65 162.03271Q24.165625 161.51709 24.165625 160.75146Q24.165625 160.03271 23.68125 159.56396Q23.2125 159.07959 22.478125 159.07959Q22.18125 159.07959 21.728125 159.20459L21.853125 158.26709Q21.9625 158.28271 22.025 158.28271Q22.696875 158.28271 23.228125 157.93896Q23.775 157.57959 23.775 156.84521Q23.775 156.26709 23.384375 155.89209Q22.99375 155.50146 22.36875 155.50146Q21.759375 155.50146 21.3375 155.89209Q20.93125 156.28271 20.821875 157.04834L19.759375 156.86084Q19.946875 155.81396 20.634375 155.23584Q21.321875 154.64209 22.3375 154.64209Q23.040625 154.64209 23.634375 154.95459Q24.228125 155.25146 24.540625 155.76709Q24.853125 156.28271 24.853125 156.87646Q24.853125 157.42334 24.55625 157.89209Q24.259375 158.34521 23.68125 158.61084Q24.43125 158.78271 24.853125 159.34521Q25.275 159.89209 25.275 160.73584Q25.275 161.86084 24.446875 162.64209Q23.634375 163.42334 22.384375 163.42334Q21.259375 163.42334 20.509375 162.75146Q19.759375 162.06396 19.65 161.00146ZM27.24375 163.26709L27.24375 162.06396L28.446875 162.06396L28.446875 163.26709L27.24375 163.26709ZM35.11875 156.78271L34.071877 156.86084Q33.93125 156.23584 33.68125 155.95459Q33.24375 155.50146 32.61875 155.50146Q32.11875 155.50146 31.728125 155.78271Q31.24375 156.15771 30.946875 156.86084Q30.665625 157.54834 30.65 158.82959Q31.025 158.25146 31.571875 157.97021Q32.134377 157.68896 32.74375 157.68896Q33.790627 157.68896 34.525 158.47021Q35.275 159.25146 35.275 160.47021Q35.275 161.28271 34.915627 161.98584Q34.571877 162.67334 33.9625 163.04834Q33.353127 163.40771 32.5875 163.40771Q31.259375 163.40771 30.43125 162.43896Q29.603125 161.47021 29.603125 159.25146Q29.603125 156.75146 30.525 155.62646Q31.321875 154.64209 32.68125 154.64209Q33.696877 154.64209 34.3375 155.22021Q34.99375 155.78271 35.11875 156.78271ZM30.821875 160.48584Q30.821875 161.03271 31.040625 161.53271Q31.275 162.01709 31.68125 162.28271Q32.103127 162.54834 32.571877 162.54834Q33.228127 162.54834 33.7125 162.01709Q34.196877 161.47021 34.196877 160.54834Q34.196877 159.65771 33.7125 159.14209Q33.24375 158.62646 32.525 158.62646Q31.80625 158.62646 31.30625 159.14209Q30.821875 159.65771 30.821875 160.48584ZM36.853127 156.73584Q36.853127 155.81396 37.30625 155.17334Q37.775 154.53271 38.65 154.53271Q39.4625 154.53271 39.99375 155.11084Q40.525 155.68896 40.525 156.79834Q40.525 157.89209 39.978127 158.48584Q39.446877 159.06396 38.665627 159.06396Q37.884377 159.06396 37.36875 158.48584Q36.853127 157.90771 36.853127 156.73584ZM38.68125 155.25146Q38.290627 155.25146 38.025 155.59521Q37.775 155.93896 37.775 156.84521Q37.775 157.67334 38.025 158.01709Q38.290627 158.34521 38.68125 158.34521Q39.0875 158.34521 39.3375 158.00146Q39.603127 157.65771 39.603127 156.76709Q39.603127 155.92334 39.3375 155.59521Q39.071877 155.25146 38.68125 155.25146ZM38.68125 163.57959L43.384377 154.53271L44.24375 154.53271L39.55625 163.57959L38.68125 163.57959ZM42.4 161.25146Q42.4 160.32959 42.853127 159.68896Q43.321877 159.04834 44.2125 159.04834Q45.025 159.04834 45.55625 159.62646Q46.0875 160.18896 46.0875 161.31396Q46.0875 162.40771 45.540627 163.00146Q45.009377 163.57959 44.2125 163.57959Q43.446877 163.57959 42.915627 163.00146Q42.4 162.42334 42.4 161.25146ZM44.24375 159.76709Q43.8375 159.76709 43.571877 160.11084Q43.321877 160.45459 43.321877 161.36084Q43.321877 162.17334 43.5875 162.51709Q43.853127 162.86084 44.24375 162.86084Q44.634377 162.86084 44.9 162.51709Q45.165627 162.17334 45.165627 161.26709Q45.165627 160.43896 44.9 160.11084Q44.634377 159.76709 44.24375 159.76709Z" fill-rule="nonzero"/><path stroke="#757575" stroke-width="1.0" stroke-linecap="butt" d="M12.15 150.76709L86.65 150.76709L102.32547 150.76709" fill-rule="nonzero"/><path fill="#9e9e9e" d="M104.32547 150.76709C104.32547 149.6625 103.43004 148.76709 102.32547 148.76709C101.2209 148.76709 100.32547 149.6625 100.32547 150.76709C100.32547 151.87166 101.2209 152.76709 102.32547 152.76709C103.43004 152.76709 104.32547 151.87166 104.32547 150.76709" fill-rule="nonzero"/><path fill="#1a1a1a" d="M350.9125 157.13872L352.0375 157.4356Q351.67813 158.82622 350.75626 159.5606Q349.83438 160.29497 348.49063 160.29497Q347.1 160.29497 346.225 159.73247Q345.35 159.16997 344.89688 158.10747Q344.44376 157.02934 344.44376 155.79497Q344.44376 154.45122 344.95938 153.45122Q345.475 152.45122 346.4125 151.9356Q347.36563 151.41997 348.50626 151.41997Q349.7875 151.41997 350.6625 152.07622Q351.55313 152.73247 351.89688 153.91997L350.77188 154.1856Q350.475 153.2481 349.89688 152.82622Q349.33438 152.38872 348.475 152.38872Q347.49063 152.38872 346.81876 152.8731Q346.1625 153.34184 345.88126 154.13872Q345.61563 154.9356 345.61563 155.79497Q345.61563 156.88872 345.92813 157.70122Q346.25626 158.51372 346.92813 158.91997Q347.6 159.32622 348.39688 159.32622Q349.35 159.32622 350.00626 158.77934Q350.67813 158.23247 350.9125 157.13872ZM357.725 160.15434L357.725 159.23247Q356.99063 160.29497 355.74063 160.29497Q355.19376 160.29497 354.70938 160.09184Q354.24063 159.8731 354.00626 159.5606Q353.77188 159.23247 353.67813 158.76372Q353.61563 158.46684 353.61563 157.77934L353.61563 153.9356L354.67813 153.9356L354.67813 157.38872Q354.67813 158.20122 354.74063 158.4981Q354.83438 158.90434 355.14688 159.15434Q355.475 159.38872 355.95938 159.38872Q356.42813 159.38872 356.83438 159.15434Q357.25626 158.90434 357.42813 158.48247Q357.61563 158.0606 357.61563 157.26372L357.61563 153.9356L358.6625 153.9356L358.6625 160.15434L357.725 160.15434ZM360.63126 160.15434L360.63126 153.9356L361.58438 153.9356L361.58438 154.8731Q361.94376 154.21684 362.24063 154.01372Q362.55313 153.79497 362.92813 153.79497Q363.45938 153.79497 364.00626 154.1231L363.64688 155.10747Q363.25626 154.8731 362.88126 154.8731Q362.52188 154.8731 362.24063 155.09184Q361.975 155.29497 361.86563 155.66997Q361.67813 156.23247 361.67813 156.88872L361.67813 160.15434L360.63126 160.15434ZM368.70938 159.38872Q368.11563 159.88872 367.56876 160.09184Q367.0375 160.29497 366.4125 160.29497Q365.38126 160.29497 364.83438 159.79497Q364.2875 159.29497 364.2875 158.51372Q364.2875 158.0606 364.49063 157.6856Q364.69376 157.29497 365.0375 157.07622Q365.38126 156.84184 365.80313 156.73247Q366.1 156.63872 366.74063 156.5606Q368.00626 156.41997 368.61563 156.20122Q368.61563 155.98247 368.61563 155.9356Q368.61563 155.27934 368.31876 155.01372Q367.9125 154.66997 367.11563 154.66997Q366.38126 154.66997 366.02188 154.9356Q365.6625 155.1856 365.49063 155.84184L364.45938 155.70122Q364.6 155.04497 364.92813 154.63872Q365.25626 154.23247 365.86563 154.01372Q366.475 153.79497 367.27188 153.79497Q368.06876 153.79497 368.56876 153.98247Q369.06876 154.16997 369.30313 154.45122Q369.5375 154.73247 369.63126 155.16997Q369.67813 155.4356 369.67813 156.13872L369.67813 157.54497Q369.67813 159.01372 369.74063 159.40434Q369.81876 159.79497 370.02188 160.15434L368.9125 160.15434Q368.75626 159.82622 368.70938 159.38872ZM368.61563 157.02934Q368.0375 157.26372 366.89688 157.4356Q366.24063 157.52934 365.975 157.65434Q365.70938 157.76372 365.55313 157.98247Q365.4125 158.20122 365.4125 158.48247Q365.4125 158.90434 365.725 159.1856Q366.05313 159.46684 366.6625 159.46684Q367.27188 159.46684 367.74063 159.20122Q368.225 158.9356 368.44376 158.46684Q368.61563 158.10747 368.61563 157.41997L368.61563 157.02934ZM373.94376 159.21684L374.1 160.13872Q373.64688 160.23247 373.30313 160.23247Q372.725 160.23247 372.4125 160.0606Q372.1 159.8731 371.95938 159.57622Q371.83438 159.27934 371.83438 158.32622L371.83438 154.7481L371.06876 154.7481L371.06876 153.9356L371.83438 153.9356L371.83438 152.38872L372.88126 151.76372L372.88126 153.9356L373.94376 153.9356L373.94376 154.7481L372.88126 154.7481L372.88126 158.38872Q372.88126 158.84184 372.92813 158.96684Q372.99063 159.09184 373.11563 159.16997Q373.24063 159.2481 373.475 159.2481Q373.6625 159.2481 373.94376 159.21684ZM374.25626 157.04497Q374.25626 155.3106 375.20938 154.48247Q376.00626 153.79497 377.1625 153.79497Q378.44376 153.79497 379.25626 154.63872Q380.08438 155.46684 380.08438 156.95122Q380.08438 158.15434 379.725 158.84184Q379.36563 159.52934 378.6625 159.91997Q377.975 160.29497 377.1625 160.29497Q375.86563 160.29497 375.05313 159.46684Q374.25626 158.6231 374.25626 157.04497ZM375.33438 157.04497Q375.33438 158.23247 375.85 158.82622Q376.38126 159.41997 377.1625 159.41997Q377.95938 159.41997 378.475 158.82622Q378.99063 158.23247 378.99063 157.01372Q378.99063 155.85747 378.45938 155.26372Q377.94376 154.66997 377.1625 154.66997Q376.38126 154.66997 375.85 155.26372Q375.33438 155.84184 375.33438 157.04497ZM381.63126 160.15434L381.63126 153.9356L382.58438 153.9356L382.58438 154.8731Q382.94376 154.21684 383.24063 154.01372Q383.55313 153.79497 383.92813 153.79497Q384.45938 153.79497 385.00626 154.1231L384.64688 155.10747Q384.25626 154.8731 383.88126 154.8731Q383.52188 154.8731 383.24063 155.09184Q382.975 155.29497 382.86563 155.66997Q382.67813 156.23247 382.67813 156.88872L382.67813 160.15434L381.63126 160.15434ZM385.225 158.29497L386.25626 158.13872Q386.35 158.76372 386.74063 159.09184Q387.14688 159.41997 387.88126 159.41997Q388.6 159.41997 388.94376 159.13872Q389.30313 158.84184 389.30313 158.4356Q389.30313 158.07622 388.99063 157.8731Q388.77188 157.73247 387.9125 157.51372Q386.75626 157.21684 386.30313 157.01372Q385.86563 156.79497 385.63126 156.41997Q385.39688 156.04497 385.39688 155.57622Q385.39688 155.16997 385.58438 154.8106Q385.77188 154.45122 386.1 154.21684Q386.35 154.04497 386.77188 153.91997Q387.19376 153.79497 387.69376 153.79497Q388.4125 153.79497 388.95938 154.01372Q389.52188 154.21684 389.7875 154.57622Q390.05313 154.9356 390.14688 155.52934L389.11563 155.66997Q389.05313 155.20122 388.70938 154.9356Q388.38126 154.65434 387.75626 154.65434Q387.0375 154.65434 386.725 154.90434Q386.4125 155.13872 386.4125 155.46684Q386.4125 155.66997 386.5375 155.82622Q386.67813 155.9981 386.94376 156.10747Q387.1 156.16997 387.88126 156.3731Q389.00626 156.6856 389.44376 156.8731Q389.88126 157.0606 390.13126 157.41997Q390.38126 157.77934 390.38126 158.32622Q390.38126 158.85747 390.06876 159.32622Q389.77188 159.77934 389.19376 160.04497Q388.61563 160.29497 387.88126 160.29497Q386.6625 160.29497 386.02188 159.79497Q385.39688 159.27934 385.225 158.29497Z" fill-rule="nonzero"/><path fill="#9e9e9e" d="M362.81876 170.66997L361.77188 170.7481Q361.63126 170.1231 361.38126 169.84184Q360.94376 169.38872 360.31876 169.38872Q359.81876 169.38872 359.42813 169.66997Q358.94376 170.04497 358.64688 170.7481Q358.36563 171.4356 358.35 172.71684Q358.725 172.13872 359.27188 171.85747Q359.83438 171.57622 360.44376 171.57622Q361.49063 171.57622 362.225 172.35747Q362.975 173.13872 362.975 174.35747Q362.975 175.16997 362.61563 175.8731Q362.27188 176.5606 361.6625 176.9356Q361.05313 177.29497 360.2875 177.29497Q358.95938 177.29497 358.13126 176.32622Q357.30313 175.35747 357.30313 173.13872Q357.30313 170.63872 358.225 169.51372Q359.02188 168.52934 360.38126 168.52934Q361.39688 168.52934 362.0375 169.10747Q362.69376 169.66997 362.81876 170.66997ZM358.52188 174.3731Q358.52188 174.91997 358.74063 175.41997Q358.975 175.90434 359.38126 176.16997Q359.80313 176.4356 360.27188 176.4356Q360.92813 176.4356 361.4125 175.90434Q361.89688 175.35747 361.89688 174.4356Q361.89688 173.54497 361.4125 173.02934Q360.94376 172.51372 360.225 172.51372Q359.50626 172.51372 359.00626 173.02934Q358.52188 173.54497 358.52188 174.3731ZM364.35 174.88872L365.4125 174.7481Q365.58438 175.63872 366.02188 176.04497Q366.45938 176.4356 367.08438 176.4356Q367.83438 176.4356 368.35 175.91997Q368.86563 175.40434 368.86563 174.63872Q368.86563 173.91997 368.38126 173.45122Q367.9125 172.96684 367.17813 172.96684Q366.88126 172.96684 366.42813 173.09184L366.55313 172.15434Q366.6625 172.16997 366.725 172.16997Q367.39688 172.16997 367.92813 171.82622Q368.475 171.46684 368.475 170.73247Q368.475 170.15434 368.08438 169.77934Q367.69376 169.38872 367.06876 169.38872Q366.45938 169.38872 366.0375 169.77934Q365.63126 170.16997 365.52188 170.9356L364.45938 170.7481Q364.64688 169.70122 365.33438 169.1231Q366.02188 168.52934 367.0375 168.52934Q367.74063 168.52934 368.33438 168.84184Q368.92813 169.13872 369.24063 169.65434Q369.55313 170.16997 369.55313 170.76372Q369.55313 171.3106 369.25626 171.77934Q368.95938 172.23247 368.38126 172.4981Q369.13126 172.66997 369.55313 173.23247Q369.975 173.77934 369.975 174.6231Q369.975 175.7481 369.14688 176.52934Q368.33438 177.3106 367.08438 177.3106Q365.95938 177.3106 365.20938 176.63872Q364.45938 175.95122 364.35 174.88872ZM371.94376 177.15434L371.94376 175.95122L373.14688 175.95122L373.14688 177.15434L371.94376 177.15434ZM379.81876 170.66997L378.77188 170.7481Q378.63126 170.1231 378.38126 169.84184Q377.94376 169.38872 377.31876 169.38872Q376.81876 169.38872 376.42813 169.66997Q375.94376 170.04497 375.64688 170.7481Q375.36563 171.4356 375.35 172.71684Q375.725 172.13872 376.27188 171.85747Q376.83438 171.57622 377.44376 171.57622Q378.49063 171.57622 379.225 172.35747Q379.975 173.13872 379.975 174.35747Q379.975 175.16997 379.61563 175.8731Q379.27188 176.5606 378.6625 176.9356Q378.05313 177.29497 377.2875 177.29497Q375.95938 177.29497 375.13126 176.32622Q374.30313 175.35747 374.30313 173.13872Q374.30313 170.63872 375.225 169.51372Q376.02188 168.52934 377.38126 168.52934Q378.39688 168.52934 379.0375 169.10747Q379.69376 169.66997 379.81876 170.66997ZM375.52188 174.3731Q375.52188 174.91997 375.74063 175.41997Q375.975 175.90434 376.38126 176.16997Q376.80313 176.4356 377.27188 176.4356Q377.92813 176.4356 378.4125 175.90434Q378.89688 175.35747 378.89688 174.4356Q378.89688 173.54497 378.4125 173.02934Q377.94376 172.51372 377.225 172.51372Q376.50626 172.51372 376.00626 173.02934Q375.52188 173.54497 375.52188 174.3731ZM381.55313 170.6231Q381.55313 169.70122 382.00626 169.0606Q382.475 168.41997 383.35 168.41997Q384.1625 168.41997 384.69376 168.9981Q385.225 169.57622 385.225 170.6856Q385.225 171.77934 384.67813 172.3731Q384.14688 172.95122 383.36563 172.95122Q382.58438 172.95122 382.06876 172.3731Q381.55313 171.79497 381.55313 170.6231ZM383.38126 169.13872Q382.99063 169.13872 382.725 169.48247Q382.475 169.82622 382.475 170.73247Q382.475 171.5606 382.725 171.90434Q382.99063 172.23247 383.38126 172.23247Q383.7875 172.23247 384.0375 171.88872Q384.30313 171.54497 384.30313 170.65434Q384.30313 169.8106 384.0375 169.48247Q383.77188 169.13872 383.38126 169.13872ZM383.38126 177.46684L388.08438 168.41997L388.94376 168.41997L384.25626 177.46684L383.38126 177.46684ZM387.1 175.13872Q387.1 174.21684 387.55313 173.57622Q388.02188 172.9356 388.9125 172.9356Q389.725 172.9356 390.25626 173.51372Q390.7875 174.07622 390.7875 175.20122Q390.7875 176.29497 390.24063 176.88872Q389.70938 177.46684 388.9125 177.46684Q388.14688 177.46684 387.61563 176.88872Q387.1 176.3106 387.1 175.13872ZM388.94376 173.65434Q388.5375 173.65434 388.27188 173.9981Q388.02188 174.34184 388.02188 175.2481Q388.02188 176.0606 388.2875 176.40434Q388.55313 176.7481 388.94376 176.7481Q389.33438 176.7481 389.6 176.40434Q389.86563 176.0606 389.86563 175.15434Q389.86563 174.32622 389.6 173.9981Q389.33438 173.65434 388.94376 173.65434Z" fill-rule="nonzero"/><path stroke="#757575" stroke-width="1.0" stroke-linecap="butt" d="M391.85 164.65434L317.35 164.65434L296.49484 164.65434" fill-rule="nonzero"/><path fill="#9e9e9e" d="M298.49484 164.65434C298.49484 163.54977 297.59943 162.65434 296.49484 162.65434C295.3903 162.65434 294.49484 163.54977 294.49484 164.65434C294.49484 165.75893 295.3903 166.65434 296.49484 166.65434C297.59943 166.65434 298.49484 165.75893 298.49484 164.65434" fill-rule="nonzero"/></svg>