<svg version="1.1" viewBox="0.0 0.0 404.0 266.0" fill="none" stroke="none" stroke-linecap="square" stroke-miterlimit="10" width="404" height="266" xmlns:xlink="http://www.w3.org/1999/xlink" xmlns="http://www.w3.org/2000/svg"><path fill="#ffffff" d="M0 0L404.0 0L404.0 266.0L0 266.0L0 0Z" fill-rule="nonzero"/><path fill="#ff6d01" d="M137.2853 32.301952C156.58955 19.895859 179.05298 13.3 202.0 13.3L202.0 133.0Z" fill-rule="nonzero"/><path fill="#34a853" d="M111.53677 54.61317C119.011894 45.986427 127.68254 38.473267 137.2853 32.301952L202.0 133.0Z" fill-rule="nonzero"/><path fill="#fbbc04" d="M93.11705 83.274826C97.85894 72.89154 104.06166 63.239914 111.53677 54.61317L202.0 133.0Z" fill-rule="nonzero"/><path fill="#ea4335" d="M93.11705 182.72517C78.69431 151.1438 78.69431 114.8562 93.11705 83.274826L202.0 133.0Z" fill-rule="nonzero"/><path fill="#4285f4" d="M202.0 13.3C261.5277 13.3 312.00995 57.0431 320.48163 115.96491C328.9533 174.88673 292.8398 231.08041 235.72339 247.8513C178.60695 264.6222 117.84576 236.8735 93.11705 182.72517L202.0 133.0Z" fill-rule="nonzero"/><path fill="#1a1a1a" d="M14.221875 24.3L14.221875 15.706249L17.471874 15.706249Q18.315624 15.706249 18.76875 15.784374Q19.409374 15.893749 19.83125 16.190624Q20.26875 16.4875 20.51875 17.01875Q20.784374 17.55 20.784374 18.190624Q20.784374 19.284374 20.08125 20.05Q19.39375 20.8 17.565624 20.8L15.3625 20.8L15.3625 24.3L14.221875 24.3ZM15.3625 19.8L17.58125 19.8Q18.690624 19.8 19.14375 19.39375Q19.6125 18.971874 19.6125 18.221874Q19.6125 17.690624 19.33125 17.315624Q19.065624 16.925 18.628124 16.8Q18.33125 16.721874 17.565624 16.721874L15.3625 16.721874L15.3625 19.8ZM22.065624 24.3L22.065624 15.706249L23.128124 15.706249L23.128124 24.3L22.065624 24.3ZM29.159374 23.534374Q28.565624 24.034374 28.01875 24.2375Q27.4875 24.440624 26.8625 24.440624Q25.83125 24.440624 25.284374 23.940624Q24.7375 23.440624 24.7375 22.659374Q24.7375 22.20625 24.940624 21.83125Q25.14375 21.440624 25.4875 21.221874Q25.83125 20.9875 26.253124 20.878124Q26.55 20.784374 27.190624 20.70625Q28.45625 20.565624 29.065624 20.346874Q29.065624 20.128124 29.065624 20.08125Q29.065624 19.425 28.76875 19.159374Q28.3625 18.815624 27.565624 18.815624Q26.83125 18.815624 26.471874 19.08125Q26.1125 19.33125 25.940624 19.9875L24.909374 19.846874Q25.05 19.190624 25.378124 18.784374Q25.70625 18.378124 26.315624 18.159374Q26.925 17.940624 27.721874 17.940624Q28.51875 17.940624 29.01875 18.128124Q29.51875 18.315624 29.753124 18.596874Q29.9875 18.878124 30.08125 19.315624Q30.128124 19.58125 30.128124 20.284374L30.128124 21.690624Q30.128124 23.159374 30.190624 23.55Q30.26875 23.940624 30.471874 24.3L29.3625 24.3Q29.20625 23.971874 29.159374 23.534374ZM29.065624 21.175Q28.4875 21.409374 27.346874 21.58125Q26.690624 21.675 26.425 21.8Q26.159374 21.909374 26.003124 22.128124Q25.8625 22.346874 25.8625 22.628124Q25.8625 23.05 26.175 23.33125Q26.503124 23.6125 27.1125 23.6125Q27.721874 23.6125 28.190624 23.346874Q28.675 23.08125 28.89375 22.6125Q29.065624 22.253124 29.065624 21.565624L29.065624 21.175ZM34.39375 23.3625L34.55 24.284374Q34.096874 24.378124 33.753124 24.378124Q33.175 24.378124 32.8625 24.20625Q32.55 24.01875 32.409374 23.721874Q32.284374 23.425 32.284374 22.471874L32.284374 18.89375L31.51875 18.89375L31.51875 18.08125L32.284374 18.08125L32.284374 16.534374L33.33125 15.909374L33.33125 18.08125L34.39375 18.08125L34.39375 18.89375L33.33125 18.89375L33.33125 22.534374Q33.33125 22.9875 33.378124 23.1125Q33.440624 23.2375 33.565624 23.315624Q33.690624 23.39375 33.925 23.39375Q34.1125 23.39375 34.39375 23.3625ZM35.346874 24.3L35.346874 18.89375L34.409374 18.89375L34.409374 18.08125L35.346874 18.08125L35.346874 17.409374Q35.346874 16.784374 35.45625 16.4875Q35.6125 16.065624 35.9875 15.815624Q36.378124 15.565624 37.065624 15.565624Q37.51875 15.565624 38.05 15.674999L37.89375 16.58125Q37.565624 16.534374 37.26875 16.534374Q36.784374 16.534374 36.58125 16.7375Q36.39375 16.940624 36.39375 17.503124L36.39375 18.08125L37.6125 18.08125L37.6125 18.89375L36.39375 18.89375L36.39375 24.3L35.346874 24.3ZM37.70625 21.190624Q37.70625 19.45625 38.659374 18.628124Q39.45625 17.940624 40.6125 17.940624Q41.89375 17.940624 42.70625 18.784374Q43.534374 19.6125 43.534374 21.096874Q43.534374 22.3 43.175 22.9875Q42.815624 23.675 42.1125 24.065624Q41.425 24.440624 40.6125 24.440624Q39.315624 24.440624 38.503124 23.6125Q37.70625 22.76875 37.70625 21.190624ZM38.784374 21.190624Q38.784374 22.378124 39.3 22.971874Q39.83125 23.565624 40.6125 23.565624Q41.409374 23.565624 41.925 22.971874Q42.440624 22.378124 42.440624 21.159374Q42.440624 20.003124 41.909374 19.409374Q41.39375 18.815624 40.6125 18.815624Q39.83125 18.815624 39.3 19.409374Q38.784374 19.9875 38.784374 21.190624ZM45.08125 24.3L45.08125 18.08125L46.034374 18.08125L46.034374 19.01875Q46.39375 18.3625 46.690624 18.159374Q47.003124 17.940624 47.378124 17.940624Q47.909374 17.940624 48.45625 18.26875L48.096874 19.253124Q47.70625 19.01875 47.33125 19.01875Q46.971874 19.01875 46.690624 19.2375Q46.425 19.440624 46.315624 19.815624Q46.128124 20.378124 46.128124 21.034374L46.128124 24.3L45.08125 24.3ZM49.096874 24.3L49.096874 18.08125L50.034374 18.08125L50.034374 18.95625Q50.33125 18.4875 50.815624 18.221874Q51.3 17.940624 51.925 17.940624Q52.6125 17.940624 53.05 18.221874Q53.503124 18.503124 53.675 19.01875Q54.425 17.940624 55.596874 17.940624Q56.534374 17.940624 57.01875 18.45625Q57.51875 18.95625 57.51875 20.034374L57.51875 24.3L56.471874 24.3L56.471874 20.378124Q56.471874 19.753124 56.3625 19.471874Q56.26875 19.190624 56.003124 19.01875Q55.7375 18.846874 55.3625 18.846874Q54.70625 18.846874 54.26875 19.284374Q53.846874 19.721874 53.846874 20.690624L53.846874 24.3L52.784374 24.3L52.784374 20.253124Q52.784374 19.55 52.51875 19.20625Q52.26875 18.846874 51.690624 18.846874Q51.2375 18.846874 50.8625 19.08125Q50.4875 19.315624 50.315624 19.76875Q50.14375 20.221874 50.14375 21.065624L50.14375 24.3L49.096874 24.3Z" fill-rule="nonzero"/><path fill="#9e9e9e" d="M13.95625 39.315624L14.971875 39.221874Q15.096875 39.940624 15.45625 40.26875Q15.83125 40.58125 16.39375 40.58125Q16.878124 40.58125 17.2375 40.3625Q17.6125 40.128124 17.846874 39.76875Q18.08125 39.39375 18.2375 38.76875Q18.39375 38.128124 18.39375 37.471874Q18.39375 37.39375 18.39375 37.253124Q18.08125 37.753124 17.534374 38.08125Q16.9875 38.39375 16.346874 38.39375Q15.26875 38.39375 14.534375 37.628124Q13.8 36.846874 13.8 35.58125Q13.8 34.26875 14.565625 33.471874Q15.346875 32.675 16.503124 32.675Q17.33125 32.675 18.01875 33.128124Q18.721874 33.58125 19.08125 34.425Q19.440624 35.253124 19.440624 36.83125Q19.440624 38.471874 19.08125 39.45625Q18.7375 40.425 18.01875 40.940624Q17.315624 41.440624 16.378124 41.440624Q15.3625 41.440624 14.721875 40.89375Q14.08125 40.33125 13.95625 39.315624ZM18.26875 35.51875Q18.26875 34.6125 17.784374 34.08125Q17.315624 33.55 16.628124 33.55Q15.925 33.55 15.39375 34.128124Q14.878125 34.690624 14.878125 35.6125Q14.878125 36.425 15.378125 36.940624Q15.878125 37.45625 16.596874 37.45625Q17.33125 37.45625 17.8 36.940624Q18.26875 36.425 18.26875 35.51875ZM21.39375 41.3L21.39375 40.096874L22.596874 40.096874L22.596874 41.3L21.39375 41.3ZM27.76875 41.3L26.721874 41.3L26.721874 34.58125Q26.33125 34.940624 25.70625 35.315624Q25.096874 35.675 24.6125 35.846874L24.6125 34.83125Q25.4875 34.409374 26.14375 33.83125Q26.815624 33.2375 27.096874 32.675L27.76875 32.675L27.76875 41.3ZM31.003124 34.76875Q31.003124 33.846874 31.45625 33.20625Q31.925 32.565624 32.8 32.565624Q33.6125 32.565624 34.14375 33.14375Q34.675 33.721874 34.675 34.83125Q34.675 35.925 34.128124 36.51875Q33.596874 37.096874 32.815624 37.096874Q32.034374 37.096874 31.51875 36.51875Q31.003124 35.940624 31.003124 34.76875ZM32.83125 33.284374Q32.440624 33.284374 32.175 33.628124Q31.925 33.971874 31.925 34.878124Q31.925 35.70625 32.175 36.05Q32.440624 36.378124 32.83125 36.378124Q33.2375 36.378124 33.4875 36.034374Q33.753124 35.690624 33.753124 34.8Q33.753124 33.95625 33.4875 33.628124Q33.221874 33.284374 32.83125 33.284374ZM32.83125 41.6125L37.534374 32.565624L38.39375 32.565624L33.70625 41.6125L32.83125 41.6125ZM36.55 39.284374Q36.55 38.3625 37.003124 37.721874Q37.471874 37.08125 38.3625 37.08125Q39.175 37.08125 39.70625 37.659374Q40.2375 38.221874 40.2375 39.346874Q40.2375 40.440624 39.690624 41.034374Q39.159374 41.6125 38.3625 41.6125Q37.596874 41.6125 37.065624 41.034374Q36.55 40.45625 36.55 39.284374ZM38.39375 37.8Q37.9875 37.8 37.721874 38.14375Q37.471874 38.4875 37.471874 39.39375Q37.471874 40.20625 37.7375 40.55Q38.003124 40.89375 38.39375 40.89375Q38.784374 40.89375 39.05 40.55Q39.315624 40.20625 39.315624 39.3Q39.315624 38.471874 39.05 38.14375Q38.784374 37.8 38.39375 37.8Z" fill-rule="nonzero"/><path stroke="#757575" stroke-width="1.0" stroke-linecap="butt" d="M13.3 28.8L76.3 28.8L169.96278 23.891256" fill-rule="nonzero"/><path fill="#9e9e9e" d="M171.96278 23.891256C171.96278 22.786688 171.06735 21.891256 169.96278 21.891256C168.85822 21.891256 167.96278 22.786688 167.96278 23.891256C167.96278 24.995827 168.85822 25.891256 169.96278 25.891256C171.06735 25.891256 171.96278 24.995827 171.96278 23.891256" fill-rule="nonzero"/><path fill="#1a1a1a" d="M13.284375 55.3L16.58125 46.70625L17.8 46.70625L21.315624 55.3L20.034374 55.3L19.01875 52.690624L15.440625 52.690624L14.4875 55.3L13.284375 55.3ZM15.76875 51.76875L18.675 51.76875L17.784374 49.39375Q17.3625 48.315624 17.175 47.6125Q17.003124 48.440624 16.70625 49.253124L15.76875 51.76875ZM29.003124 54.284374Q28.4875 54.8625 27.8625 55.159374Q27.253124 55.440624 26.534374 55.440624Q25.221874 55.440624 24.440624 54.55Q23.815624 53.83125 23.815624 52.925Q23.815624 52.128124 24.33125 51.4875Q24.846874 50.846874 25.8625 50.3625Q25.284374 49.690624 25.08125 49.284374Q24.89375 48.8625 24.89375 48.471874Q24.89375 47.70625 25.503124 47.14375Q26.1125 46.565624 27.034374 46.565624Q27.909374 46.565624 28.45625 47.1125Q29.01875 47.64375 29.01875 48.39375Q29.01875 49.628124 27.409374 50.4875L28.940624 52.45625Q29.20625 51.940624 29.346874 51.253124L30.45625 51.4875Q30.175 52.6125 29.690624 53.346874Q30.284374 54.128124 31.034374 54.659374L30.315624 55.503124Q29.675 55.08125 29.003124 54.284374ZM26.8625 49.815624Q27.55 49.409374 27.7375 49.1125Q27.940624 48.8 27.940624 48.425Q27.940624 47.9875 27.659374 47.70625Q27.39375 47.425 26.971874 47.425Q26.55 47.425 26.253124 47.70625Q25.971874 47.9875 25.971874 48.378124Q25.971874 48.58125 26.08125 48.8Q26.190624 49.01875 26.39375 49.26875L26.8625 49.815624ZM28.346874 53.45625L26.409374 51.05Q25.55 51.565624 25.253124 52.003124Q24.95625 52.440624 24.95625 52.8625Q24.95625 53.39375 25.3625 53.95625Q25.784374 54.51875 26.55 54.51875Q27.01875 54.51875 27.51875 54.221874Q28.034374 53.925 28.346874 53.45625ZM35.175 55.3L35.175 46.70625L38.409374 46.70625Q39.39375 46.70625 39.9875 46.971874Q40.58125 47.2375 40.909374 47.784374Q41.253124 48.315624 41.253124 48.909374Q41.253124 49.45625 40.95625 49.940624Q40.659374 50.425 40.05 50.721874Q40.83125 50.95625 41.2375 51.51875Q41.659374 52.065624 41.659374 52.815624Q41.659374 53.409374 41.409374 53.940624Q41.159374 54.45625 40.784374 54.7375Q40.409374 55.01875 39.83125 55.159374Q39.26875 55.3 38.45625 55.3L35.175 55.3ZM36.315624 50.315624L38.175 50.315624Q38.925 50.315624 39.253124 50.221874Q39.690624 50.096874 39.909374 49.8Q40.128124 49.4875 40.128124 49.034374Q40.128124 48.6125 39.925 48.284374Q39.721874 47.95625 39.33125 47.846874Q38.95625 47.721874 38.034374 47.721874L36.315624 47.721874L36.315624 50.315624ZM36.315624 54.284374L38.45625 54.284374Q39.003124 54.284374 39.221874 54.2375Q39.628124 54.175 39.878124 54.01875Q40.14375 53.846874 40.315624 53.534374Q40.4875 53.221874 40.4875 52.815624Q40.4875 52.33125 40.2375 51.971874Q40.003124 51.6125 39.565624 51.471874Q39.128124 51.33125 38.3 51.33125L36.315624 51.33125L36.315624 54.284374ZM43.096874 47.925L43.096874 46.70625L44.159374 46.70625L44.159374 47.925L43.096874 47.925ZM43.096874 55.3L43.096874 49.08125L44.159374 49.08125L44.159374 55.3L43.096874 55.3ZM50.159374 54.534374Q49.565624 55.034374 49.01875 55.2375Q48.4875 55.440624 47.8625 55.440624Q46.83125 55.440624 46.284374 54.940624Q45.7375 54.440624 45.7375 53.659374Q45.7375 53.20625 45.940624 52.83125Q46.14375 52.440624 46.4875 52.221874Q46.83125 51.9875 47.253124 51.878124Q47.55 51.784374 48.190624 51.70625Q49.45625 51.565624 50.065624 51.346874Q50.065624 51.128124 50.065624 51.08125Q50.065624 50.425 49.76875 50.159374Q49.3625 49.815624 48.565624 49.815624Q47.83125 49.815624 47.471874 50.08125Q47.1125 50.33125 46.940624 50.9875L45.909374 50.846874Q46.05 50.190624 46.378124 49.784374Q46.70625 49.378124 47.315624 49.159374Q47.925 48.940624 48.721874 48.940624Q49.51875 48.940624 50.01875 49.128124Q50.51875 49.315624 50.753124 49.596874Q50.9875 49.878124 51.08125 50.315624Q51.128124 50.58125 51.128124 51.284374L51.128124 52.690624Q51.128124 54.159374 51.190624 54.55Q51.26875 54.940624 51.471874 55.3L50.3625 55.3Q50.20625 54.971874 50.159374 54.534374ZM50.065624 52.175Q49.4875 52.409374 48.346874 52.58125Q47.690624 52.675 47.425 52.8Q47.159374 52.909374 47.003124 53.128124Q46.8625 53.346874 46.8625 53.628124Q46.8625 54.05 47.175 54.33125Q47.503124 54.6125 48.1125 54.6125Q48.721874 54.6125 49.190624 54.346874Q49.675 54.08125 49.89375 53.6125Q50.065624 53.253124 50.065624 52.565624L50.065624 52.175ZM52.675 53.440624L53.70625 53.284374Q53.8 53.909374 54.190624 54.2375Q54.596874 54.565624 55.33125 54.565624Q56.05 54.565624 56.39375 54.284374Q56.753124 53.9875 56.753124 53.58125Q56.753124 53.221874 56.440624 53.01875Q56.221874 52.878124 55.3625 52.659374Q54.20625 52.3625 53.753124 52.159374Q53.315624 51.940624 53.08125 51.565624Q52.846874 51.190624 52.846874 50.721874Q52.846874 50.315624 53.034374 49.95625Q53.221874 49.596874 53.55 49.3625Q53.8 49.190624 54.221874 49.065624Q54.64375 48.940624 55.14375 48.940624Q55.8625 48.940624 56.409374 49.159374Q56.971874 49.3625 57.2375 49.721874Q57.503124 50.08125 57.596874 50.675L56.565624 50.815624Q56.503124 50.346874 56.159374 50.08125Q55.83125 49.8 55.20625 49.8Q54.4875 49.8 54.175 50.05Q53.8625 50.284374 53.8625 50.6125Q53.8625 50.815624 53.9875 50.971874Q54.128124 51.14375 54.39375 51.253124Q54.55 51.315624 55.33125 51.51875Q56.45625 51.83125 56.89375 52.01875Q57.33125 52.20625 57.58125 52.565624Q57.83125 52.925 57.83125 53.471874Q57.83125 54.003124 57.51875 54.471874Q57.221874 54.925 56.64375 55.190624Q56.065624 55.440624 55.33125 55.440624Q54.1125 55.440624 53.471874 54.940624Q52.846874 54.425 52.675 53.440624Z" fill-rule="nonzero"/><path fill="#9e9e9e" d="M17.175 72.3L17.175 70.2375L13.45625 70.2375L13.45625 69.26875L17.378124 63.706253L18.2375 63.706253L18.2375 69.26875L19.39375 69.26875L19.39375 70.2375L18.2375 70.2375L18.2375 72.3L17.175 72.3ZM17.175 69.26875L17.175 65.40938L14.4875 69.26875L17.175 69.26875ZM21.39375 72.3L21.39375 71.09688L22.596874 71.09688L22.596874 72.3L21.39375 72.3ZM23.8 70.05L24.909374 69.95625Q25.034374 70.76875 25.471874 71.175Q25.925 71.58125 26.565624 71.58125Q27.315624 71.58125 27.846874 71.00313Q28.378124 70.425 28.378124 69.4875Q28.378124 68.58125 27.8625 68.06563Q27.3625 67.53438 26.534374 67.53438Q26.034374 67.53438 25.6125 67.76875Q25.20625 68.00313 24.971874 68.3625L23.9875 68.2375L24.815624 63.831253L29.096874 63.831253L29.096874 64.83125L25.659374 64.83125L25.20625 67.14375Q25.971874 66.59688 26.815624 66.59688Q27.940624 66.59688 28.70625 67.37813Q29.4875 68.15938 29.4875 69.39375Q29.4875 70.55 28.815624 71.40938Q27.9875 72.44063 26.565624 72.44063Q25.39375 72.44063 24.64375 71.78438Q23.909374 71.12813 23.8 70.05ZM31.003124 65.76875Q31.003124 64.84688 31.45625 64.20625Q31.925 63.565628 32.8 63.565628Q33.6125 63.565628 34.14375 64.14375Q34.675 64.72188 34.675 65.83125Q34.675 66.925 34.128124 67.51875Q33.596874 68.09688 32.815624 68.09688Q32.034374 68.09688 31.51875 67.51875Q31.003124 66.94063 31.003124 65.76875ZM32.83125 64.28438Q32.440624 64.28438 32.175 64.62813Q31.925 64.97188 31.925 65.87813Q31.925 66.70625 32.175 67.05Q32.440624 67.37813 32.83125 67.37813Q33.2375 67.37813 33.4875 67.03438Q33.753124 66.69063 33.753124 65.8Q33.753124 64.95625 33.4875 64.62813Q33.221874 64.28438 32.83125 64.28438ZM32.83125 72.6125L37.534374 63.565628L38.39375 63.565628L33.70625 72.6125L32.83125 72.6125ZM36.55 70.28438Q36.55 69.3625 37.003124 68.72188Q37.471874 68.08125 38.3625 68.08125Q39.175 68.08125 39.70625 68.65938Q40.2375 69.22188 40.2375 70.34688Q40.2375 71.44063 39.690624 72.03438Q39.159374 72.6125 38.3625 72.6125Q37.596874 72.6125 37.065624 72.03438Q36.55 71.45625 36.55 70.28438ZM38.39375 68.8Q37.9875 68.8 37.721874 69.14375Q37.471874 69.4875 37.471874 70.39375Q37.471874 71.20625 37.7375 71.55Q38.003124 71.89375 38.39375 71.89375Q38.784374 71.89375 39.05 71.55Q39.315624 71.20625 39.315624 70.3Q39.315624 69.47188 39.05 69.14375Q38.784374 68.8 38.39375 68.8Z" fill-rule="nonzero"/><path stroke="#757575" stroke-width="1.0" stroke-linecap="butt" d="M13.3 59.8L76.3 59.8L127.53251 47.059937" fill-rule="nonzero"/><path fill="#9e9e9e" d="M129.53252 47.059937C129.53252 45.955368 128.63708 45.059937 127.53251 45.059937C126.42794 45.059937 125.53251 45.955368 125.53251 47.059937C125.53251 48.164505 126.42794 49.059937 127.53251 49.059937C128.63708 49.059937 129.53252 48.164505 129.53252 47.059937" fill-rule="nonzero"/><path fill="#1a1a1a" d="M20.3625 83.28438L21.4875 83.58125Q21.128124 84.97188 20.20625 85.70625Q19.284374 86.44063 17.940624 86.44063Q16.55 86.44063 15.675 85.87813Q14.8 85.31563 14.346875 84.25313Q13.89375 83.175 13.89375 81.94063Q13.89375 80.59688 14.409375 79.59688Q14.925 78.59688 15.8625 78.08125Q16.815624 77.56563 17.95625 77.56563Q19.2375 77.56563 20.1125 78.22188Q21.003124 78.87813 21.346874 80.06563L20.221874 80.33125Q19.925 79.39375 19.346874 78.97188Q18.784374 78.53438 17.925 78.53438Q16.940624 78.53438 16.26875 79.01875Q15.6125 79.4875 15.33125 80.28438Q15.065625 81.08125 15.065625 81.94063Q15.065625 83.03438 15.378125 83.84688Q15.70625 84.65938 16.378124 85.06563Q17.05 85.47188 17.846874 85.47188Q18.8 85.47188 19.45625 84.925Q20.128124 84.37813 20.3625 83.28438ZM31.003124 85.28438Q30.4875 85.8625 29.8625 86.15938Q29.253124 86.44063 28.534374 86.44063Q27.221874 86.44063 26.440624 85.55Q25.815624 84.83125 25.815624 83.925Q25.815624 83.12813 26.33125 82.4875Q26.846874 81.84688 27.8625 81.3625Q27.284374 80.69063 27.08125 80.28438Q26.89375 79.8625 26.89375 79.47188Q26.89375 78.70625 27.503124 78.14375Q28.1125 77.56563 29.034374 77.56563Q29.909374 77.56563 30.45625 78.1125Q31.01875 78.64375 31.01875 79.39375Q31.01875 80.62813 29.409374 81.4875L30.940624 83.45625Q31.20625 82.94063 31.346874 82.25313L32.45625 82.4875Q32.175 83.6125 31.690624 84.34688Q32.284374 85.12813 33.034374 85.65938L32.315624 86.50313Q31.675 86.08125 31.003124 85.28438ZM28.8625 80.81563Q29.55 80.40938 29.7375 80.1125Q29.940624 79.8 29.940624 79.425Q29.940624 78.9875 29.659374 78.70625Q29.39375 78.425 28.971874 78.425Q28.55 78.425 28.253124 78.70625Q27.971874 78.9875 27.971874 79.37813Q27.971874 79.58125 28.08125 79.8Q28.190624 80.01875 28.39375 80.26875L28.8625 80.81563ZM30.346874 84.45625L28.409374 82.05Q27.55 82.56563 27.253124 83.00313Q26.95625 83.44063 26.95625 83.8625Q26.95625 84.39375 27.3625 84.95625Q27.784374 85.51875 28.55 85.51875Q29.01875 85.51875 29.51875 85.22188Q30.034374 84.925 30.346874 84.45625ZM37.175 86.3L37.175 77.70625L40.409374 77.70625Q41.39375 77.70625 41.9875 77.97188Q42.58125 78.2375 42.909374 78.78438Q43.253124 79.31563 43.253124 79.90938Q43.253124 80.45625 42.95625 80.94063Q42.659374 81.425 42.05 81.72188Q42.83125 81.95625 43.2375 82.51875Q43.659374 83.06563 43.659374 83.81563Q43.659374 84.40938 43.409374 84.94063Q43.159374 85.45625 42.784374 85.7375Q42.409374 86.01875 41.83125 86.15938Q41.26875 86.3 40.45625 86.3L37.175 86.3ZM38.315624 81.31563L40.175 81.31563Q40.925 81.31563 41.253124 81.22188Q41.690624 81.09688 41.909374 80.8Q42.128124 80.4875 42.128124 80.03438Q42.128124 79.6125 41.925 79.28438Q41.721874 78.95625 41.33125 78.84688Q40.95625 78.72188 40.034374 78.72188L38.315624 78.72188L38.315624 81.31563ZM38.315624 85.28438L40.45625 85.28438Q41.003124 85.28438 41.221874 85.2375Q41.628124 85.175 41.878124 85.01875Q42.14375 84.84688 42.315624 84.53438Q42.4875 84.22188 42.4875 83.81563Q42.4875 83.33125 42.2375 82.97188Q42.003124 82.6125 41.565624 82.47188Q41.128124 82.33125 40.3 82.33125L38.315624 82.33125L38.315624 85.28438ZM45.096874 78.925L45.096874 77.70625L46.159374 77.70625L46.159374 78.925L45.096874 78.925ZM45.096874 86.3L45.096874 80.08125L46.159374 80.08125L46.159374 86.3L45.096874 86.3ZM52.159374 85.53438Q51.565624 86.03438 51.01875 86.2375Q50.4875 86.44063 49.8625 86.44063Q48.83125 86.44063 48.284374 85.94063Q47.7375 85.44063 47.7375 84.65938Q47.7375 84.20625 47.940624 83.83125Q48.14375 83.44063 48.4875 83.22188Q48.83125 82.9875 49.253124 82.87813Q49.55 82.78438 50.190624 82.70625Q51.45625 82.56563 52.065624 82.34688Q52.065624 82.12813 52.065624 82.08125Q52.065624 81.425 51.76875 81.15938Q51.3625 80.81563 50.565624 80.81563Q49.83125 80.81563 49.471874 81.08125Q49.1125 81.33125 48.940624 81.9875L47.909374 81.84688Q48.05 81.19063 48.378124 80.78438Q48.70625 80.37813 49.315624 80.15938Q49.925 79.94063 50.721874 79.94063Q51.51875 79.94063 52.01875 80.12813Q52.51875 80.31563 52.753124 80.59688Q52.9875 80.87813 53.08125 81.31563Q53.128124 81.58125 53.128124 82.28438L53.128124 83.69063Q53.128124 85.15938 53.190624 85.55Q53.26875 85.94063 53.471874 86.3L52.3625 86.3Q52.20625 85.97188 52.159374 85.53438ZM52.065624 83.175Q51.4875 83.40938 50.346874 83.58125Q49.690624 83.675 49.425 83.8Q49.159374 83.90938 49.003124 84.12813Q48.8625 84.34688 48.8625 84.62813Q48.8625 85.05 49.175 85.33125Q49.503124 85.6125 50.1125 85.6125Q50.721874 85.6125 51.190624 85.34688Q51.675 85.08125 51.89375 84.6125Q52.065624 84.25313 52.065624 83.56563L52.065624 83.175ZM54.675 84.44063L55.70625 84.28438Q55.8 84.90938 56.190624 85.2375Q56.596874 85.56563 57.33125 85.56563Q58.05 85.56563 58.39375 85.28438Q58.753124 84.9875 58.753124 84.58125Q58.753124 84.22188 58.440624 84.01875Q58.221874 83.87813 57.3625 83.65938Q56.20625 83.3625 55.753124 83.15938Q55.315624 82.94063 55.08125 82.56563Q54.846874 82.19063 54.846874 81.72188Q54.846874 81.31563 55.034374 80.95625Q55.221874 80.59688 55.55 80.3625Q55.8 80.19063 56.221874 80.06563Q56.64375 79.94063 57.14375 79.94063Q57.8625 79.94063 58.409374 80.15938Q58.971874 80.3625 59.2375 80.72188Q59.503124 81.08125 59.596874 81.675L58.565624 81.81563Q58.503124 81.34688 58.159374 81.08125Q57.83125 80.8 57.20625 80.8Q56.4875 80.8 56.175 81.05Q55.8625 81.28438 55.8625 81.6125Q55.8625 81.81563 55.9875 81.97188Q56.128124 82.14375 56.39375 82.25313Q56.55 82.31563 57.33125 82.51875Q58.45625 82.83125 58.89375 83.01875Q59.33125 83.20625 59.58125 83.56563Q59.83125 83.925 59.83125 84.47188Q59.83125 85.00313 59.51875 85.47188Q59.221874 85.925 58.64375 86.19063Q58.065624 86.44063 57.33125 86.44063Q56.1125 86.44063 55.471874 85.94063Q54.846874 85.425 54.675 84.44063Z" fill-rule="nonzero"/><path fill="#9e9e9e" d="M17.175 103.3L17.175 101.2375L13.45625 101.2375L13.45625 100.26875L17.378124 94.70625L18.2375 94.70625L18.2375 100.26875L19.39375 100.26875L19.39375 101.2375L18.2375 101.2375L18.2375 103.3L17.175 103.3ZM17.175 100.26875L17.175 96.40938L14.4875 100.26875L17.175 100.26875ZM21.39375 103.3L21.39375 102.09688L22.596874 102.09688L22.596874 103.3L21.39375 103.3ZM23.8 101.05L24.909374 100.95625Q25.034374 101.76875 25.471874 102.175Q25.925 102.58125 26.565624 102.58125Q27.315624 102.58125 27.846874 102.00313Q28.378124 101.425 28.378124 100.4875Q28.378124 99.58125 27.8625 99.06563Q27.3625 98.53438 26.534374 98.53438Q26.034374 98.53438 25.6125 98.76875Q25.20625 99.00313 24.971874 99.3625L23.9875 99.2375L24.815624 94.83125L29.096874 94.83125L29.096874 95.83125L25.659374 95.83125L25.20625 98.14375Q25.971874 97.59688 26.815624 97.59688Q27.940624 97.59688 28.70625 98.37813Q29.4875 99.15938 29.4875 100.39375Q29.4875 101.55 28.815624 102.40938Q27.9875 103.44063 26.565624 103.44063Q25.39375 103.44063 24.64375 102.78438Q23.909374 102.12813 23.8 101.05ZM31.003124 96.76875Q31.003124 95.84688 31.45625 95.20625Q31.925 94.56563 32.8 94.56563Q33.6125 94.56563 34.14375 95.14375Q34.675 95.72188 34.675 96.83125Q34.675 97.925 34.128124 98.51875Q33.596874 99.09688 32.815624 99.09688Q32.034374 99.09688 31.51875 98.51875Q31.003124 97.94063 31.003124 96.76875ZM32.83125 95.28438Q32.440624 95.28438 32.175 95.62813Q31.925 95.97188 31.925 96.87813Q31.925 97.70625 32.175 98.05Q32.440624 98.37813 32.83125 98.37813Q33.2375 98.37813 33.4875 98.03438Q33.753124 97.69063 33.753124 96.8Q33.753124 95.95625 33.4875 95.62813Q33.221874 95.28438 32.83125 95.28438ZM32.83125 103.6125L37.534374 94.56563L38.39375 94.56563L33.70625 103.6125L32.83125 103.6125ZM36.55 101.28438Q36.55 100.3625 37.003124 99.72188Q37.471874 99.08125 38.3625 99.08125Q39.175 99.08125 39.70625 99.65938Q40.2375 100.22188 40.2375 101.34688Q40.2375 102.44063 39.690624 103.03438Q39.159374 103.6125 38.3625 103.6125Q37.596874 103.6125 37.065624 103.03438Q36.55 102.45625 36.55 101.28438ZM38.39375 99.8Q37.9875 99.8 37.721874 100.14375Q37.471874 100.4875 37.471874 101.39375Q37.471874 102.20625 37.7375 102.55Q38.003124 102.89375 38.39375 102.89375Q38.784374 102.89375 39.05 102.55Q39.315624 102.20625 39.315624 101.3Q39.315624 100.47188 39.05 100.14375Q38.784374 99.8 38.39375 99.8Z" fill-rule="nonzero"/><path stroke="#757575" stroke-width="1.0" stroke-linecap="butt" d="M13.3 90.8L76.3 90.8L106.33685 71.52103" fill-rule="nonzero"/><path fill="#9e9e9e" d="M108.33685 71.52103C108.33685 70.41646 107.44142 69.52103 106.33685 69.52103C105.232285 69.52103 104.33685 70.41646 104.33685 71.52103C104.33685 72.6256 105.232285 73.52103 106.33685 73.52103C107.44142 73.52103 108.33685 72.6256 108.33685 71.52103" fill-rule="nonzero"/><path fill="#1a1a1a" d="M13.284375 128.5L16.58125 119.90625L17.8 119.90625L21.315624 128.5L20.034374 128.5L19.01875 125.890625L15.440625 125.890625L14.4875 128.5L13.284375 128.5ZM15.76875 124.96875L18.675 124.96875L17.784374 122.59375Q17.3625 121.515625 17.175 120.8125Q17.003124 121.640625 16.70625 122.453125L15.76875 124.96875ZM25.175 128.5L25.175 127.578125Q24.440624 128.64062 23.190624 128.64062Q22.64375 128.64062 22.159374 128.4375Q21.690624 128.21875 21.45625 127.90625Q21.221874 127.578125 21.128124 127.109375Q21.065624 126.8125 21.065624 126.125L21.065624 122.28125L22.128124 122.28125L22.128124 125.734375Q22.128124 126.546875 22.190624 126.84375Q22.284374 127.25 22.596874 127.5Q22.925 127.734375 23.409374 127.734375Q23.878124 127.734375 24.284374 127.5Q24.70625 127.25 24.878124 126.828125Q25.065624 126.40625 25.065624 125.609375L25.065624 122.28125L26.1125 122.28125L26.1125 128.5L25.175 128.5ZM30.39375 127.5625L30.55 128.48438Q30.096874 128.57812 29.753124 128.57812Q29.175 128.57812 28.8625 128.40625Q28.55 128.21875 28.409374 127.921875Q28.284374 127.625 28.284374 126.671875L28.284374 123.09375L27.51875 123.09375L27.51875 122.28125L28.284374 122.28125L28.284374 120.734375L29.33125 120.109375L29.33125 122.28125L30.39375 122.28125L30.39375 123.09375L29.33125 123.09375L29.33125 126.734375Q29.33125 127.1875 29.378124 127.3125Q29.440624 127.4375 29.565624 127.515625Q29.690624 127.59375 29.925 127.59375Q30.1125 127.59375 30.39375 127.5625ZM31.096874 128.5L31.096874 119.90625L32.14375 119.90625L32.14375 122.984375Q32.878124 122.140625 34.003124 122.140625Q34.70625 122.140625 35.20625 122.421875Q35.721874 122.6875 35.940624 123.171875Q36.159374 123.640625 36.159374 124.5625L36.159374 128.5L35.1125 128.5L35.1125 124.5625Q35.1125 123.765625 34.76875 123.40625Q34.425 123.046875 33.8 123.046875Q33.33125 123.046875 32.909374 123.296875Q32.503124 123.53125 32.315624 123.953125Q32.14375 124.359375 32.14375 125.09375L32.14375 128.5L31.096874 128.5ZM37.70625 125.390625Q37.70625 123.65625 38.659374 122.828125Q39.45625 122.140625 40.6125 122.140625Q41.89375 122.140625 42.70625 122.984375Q43.534374 123.8125 43.534374 125.296875Q43.534374 126.5 43.175 127.1875Q42.815624 127.875 42.1125 128.26562Q41.425 128.64062 40.6125 128.64062Q39.315624 128.64062 38.503124 127.8125Q37.70625 126.96875 37.70625 125.390625ZM38.784374 125.390625Q38.784374 126.578125 39.3 127.171875Q39.83125 127.765625 40.6125 127.765625Q41.409374 127.765625 41.925 127.171875Q42.440624 126.578125 42.440624 125.359375Q42.440624 124.203125 41.909374 123.609375Q41.39375 123.015625 40.6125 123.015625Q39.83125 123.015625 39.3 123.609375Q38.784374 124.1875 38.784374 125.390625ZM45.08125 128.5L45.08125 122.28125L46.034374 122.28125L46.034374 123.21875Q46.39375 122.5625 46.690624 122.359375Q47.003124 122.140625 47.378124 122.140625Q47.909374 122.140625 48.45625 122.46875L48.096874 123.453125Q47.70625 123.21875 47.33125 123.21875Q46.971874 123.21875 46.690624 123.4375Q46.425 123.640625 46.315624 124.015625Q46.128124 124.578125 46.128124 125.234375L46.128124 128.5L45.08125 128.5Z" fill-rule="nonzero"/><path fill="#9e9e9e" d="M17.76875 145.5L16.721874 145.5L16.721874 138.78125Q16.33125 139.14062 15.70625 139.51562Q15.096875 139.875 14.6125 140.04688L14.6125 139.03125Q15.4875 138.60938 16.14375 138.03125Q16.815624 137.4375 17.096874 136.875L17.76875 136.875L17.76875 145.5ZM20.8 143.23438L21.8625 143.09375Q22.034374 143.98438 22.471874 144.39062Q22.909374 144.78125 23.534374 144.78125Q24.284374 144.78125 24.8 144.26562Q25.315624 143.75 25.315624 142.98438Q25.315624 142.26562 24.83125 141.79688Q24.3625 141.3125 23.628124 141.3125Q23.33125 141.3125 22.878124 141.4375L23.003124 140.5Q23.1125 140.51562 23.175 140.51562Q23.846874 140.51562 24.378124 140.17188Q24.925 139.8125 24.925 139.07812Q24.925 138.5 24.534374 138.125Q24.14375 137.73438 23.51875 137.73438Q22.909374 137.73438 22.4875 138.125Q22.08125 138.51562 21.971874 139.28125L20.909374 139.09375Q21.096874 138.04688 21.784374 137.46875Q22.471874 136.875 23.4875 136.875Q24.190624 136.875 24.784374 137.1875Q25.378124 137.48438 25.690624 138.0Q26.003124 138.51562 26.003124 139.10938Q26.003124 139.65625 25.70625 140.125Q25.409374 140.57812 24.83125 140.84375Q25.58125 141.01562 26.003124 141.57812Q26.425 142.125 26.425 142.96875Q26.425 144.09375 25.596874 144.875Q24.784374 145.65625 23.534374 145.65625Q22.409374 145.65625 21.659374 144.98438Q20.909374 144.29688 20.8 143.23438ZM28.39375 145.5L28.39375 144.29688L29.596874 144.29688L29.596874 145.5L28.39375 145.5ZM36.26875 139.01562L35.221874 139.09375Q35.08125 138.46875 34.83125 138.1875Q34.39375 137.73438 33.76875 137.73438Q33.26875 137.73438 32.878124 138.01562Q32.39375 138.39062 32.096874 139.09375Q31.815624 139.78125 31.8 141.0625Q32.175 140.48438 32.721874 140.20312Q33.284374 139.92188 33.89375 139.92188Q34.940624 139.92188 35.675 140.70312Q36.425 141.48438 36.425 142.70312Q36.425 143.51562 36.065624 144.21875Q35.721874 144.90625 35.1125 145.28125Q34.503124 145.64062 33.7375 145.64062Q32.409374 145.64062 31.58125 144.67188Q30.753124 143.70312 30.753124 141.48438Q30.753124 138.98438 31.675 137.85938Q32.471874 136.875 33.83125 136.875Q34.846874 136.875 35.4875 137.45312Q36.14375 138.01562 36.26875 139.01562ZM31.971874 142.71875Q31.971874 143.26562 32.190624 143.76562Q32.425 144.25 32.83125 144.51562Q33.253124 144.78125 33.721874 144.78125Q34.378124 144.78125 34.8625 144.25Q35.346874 143.70312 35.346874 142.78125Q35.346874 141.89062 34.8625 141.375Q34.39375 140.85938 33.675 140.85938Q32.95625 140.85938 32.45625 141.375Q31.971874 141.89062 31.971874 142.71875ZM38.003124 138.96875Q38.003124 138.04688 38.45625 137.40625Q38.925 136.76562 39.8 136.76562Q40.6125 136.76562 41.14375 137.34375Q41.675 137.92188 41.675 139.03125Q41.675 140.125 41.128124 140.71875Q40.596874 141.29688 39.815624 141.29688Q39.034374 141.29688 38.51875 140.71875Q38.003124 140.14062 38.003124 138.96875ZM39.83125 137.48438Q39.440624 137.48438 39.175 137.82812Q38.925 138.17188 38.925 139.07812Q38.925 139.90625 39.175 140.25Q39.440624 140.57812 39.83125 140.57812Q40.2375 140.57812 40.4875 140.23438Q40.753124 139.89062 40.753124 139.0Q40.753124 138.15625 40.4875 137.82812Q40.221874 137.48438 39.83125 137.48438ZM39.83125 145.8125L44.534374 136.76562L45.39375 136.76562L40.70625 145.8125L39.83125 145.8125ZM43.55 143.48438Q43.55 142.5625 44.003124 141.92188Q44.471874 141.28125 45.3625 141.28125Q46.175 141.28125 46.70625 141.85938Q47.2375 142.42188 47.2375 143.54688Q47.2375 144.64062 46.690624 145.23438Q46.159374 145.8125 45.3625 145.8125Q44.596874 145.8125 44.065624 145.23438Q43.55 144.65625 43.55 143.48438ZM45.39375 142.0Q44.9875 142.0 44.721874 142.34375Q44.471874 142.6875 44.471874 143.59375Q44.471874 144.40625 44.7375 144.75Q45.003124 145.09375 45.39375 145.09375Q45.784374 145.09375 46.05 144.75Q46.315624 144.40625 46.315624 143.5Q46.315624 142.67188 46.05 142.34375Q45.784374 142.0 45.39375 142.0Z" fill-rule="nonzero"/><path stroke="#757575" stroke-width="1.0" stroke-linecap="butt" d="M13.3 133.0L76.3 133.0L88.285 133.0" fill-rule="nonzero"/><path fill="#9e9e9e" d="M90.285 133.0C90.285 131.89543 89.38957 131.0 88.285 131.0C87.18043 131.0 86.285 131.89543 86.285 133.0C86.285 134.10457 87.18043 135.0 88.285 135.0C89.38957 135.0 90.285 134.10457 90.285 133.0" fill-rule="nonzero"/><path fill="#1a1a1a" d="M355.7625 186.96335L356.8875 187.26022Q356.52814 188.65085 355.60626 189.38522Q354.6844 190.1196 353.34064 190.1196Q351.95 190.1196 351.075 189.5571Q350.2 188.9946 349.7469 187.9321Q349.29376 186.85397 349.29376 185.6196Q349.29376 184.27585 349.8094 183.27585Q350.325 182.27585 351.2625 181.76022Q352.21564 181.2446 353.35626 181.2446Q354.6375 181.2446 355.5125 181.90085Q356.40314 182.5571 356.7469 183.7446L355.6219 184.01022Q355.325 183.07272 354.7469 182.65085Q354.1844 182.21335 353.325 182.21335Q352.34064 182.21335 351.66876 182.69772Q351.0125 183.16647 350.73126 183.96335Q350.46564 184.76022 350.46564 185.6196Q350.46564 186.71335 350.77814 187.52585Q351.10626 188.33835 351.77814 188.7446Q352.45 189.15085 353.2469 189.15085Q354.2 189.15085 354.85626 188.60397Q355.52814 188.0571 355.7625 186.96335ZM358.4969 182.60397L358.4969 181.38522L359.5594 181.38522L359.5594 182.60397L358.4969 182.60397ZM358.4969 189.97897L358.4969 183.76022L359.5594 183.76022L359.5594 189.97897L358.4969 189.97897ZM363.79376 189.04147L363.95 189.96335Q363.4969 190.0571 363.15314 190.0571Q362.575 190.0571 362.2625 189.88522Q361.95 189.69772 361.8094 189.40085Q361.6844 189.10397 361.6844 188.15085L361.6844 184.57272L360.91876 184.57272L360.91876 183.76022L361.6844 183.76022L361.6844 182.21335L362.73126 181.58835L362.73126 183.76022L363.79376 183.76022L363.79376 184.57272L362.73126 184.57272L362.73126 188.21335Q362.73126 188.66647 362.77814 188.79147Q362.84064 188.91647 362.96564 188.9946Q363.09064 189.07272 363.325 189.07272Q363.5125 189.07272 363.79376 189.04147ZM368.5594 189.21335Q367.96564 189.71335 367.41876 189.91647Q366.8875 190.1196 366.2625 190.1196Q365.23126 190.1196 364.6844 189.6196Q364.1375 189.1196 364.1375 188.33835Q364.1375 187.88522 364.34064 187.51022Q364.54376 187.1196 364.8875 186.90085Q365.23126 186.66647 365.65314 186.5571Q365.95 186.46335 366.59064 186.38522Q367.85626 186.2446 368.46564 186.02585Q368.46564 185.8071 368.46564 185.76022Q368.46564 185.10397 368.16876 184.83835Q367.7625 184.4946 366.96564 184.4946Q366.23126 184.4946 365.8719 184.76022Q365.5125 185.01022 365.34064 185.66647L364.3094 185.52585Q364.45 184.8696 364.77814 184.46335Q365.10626 184.0571 365.71564 183.83835Q366.325 183.6196 367.1219 183.6196Q367.91876 183.6196 368.41876 183.8071Q368.91876 183.9946 369.15314 184.27585Q369.3875 184.5571 369.48126 184.9946Q369.52814 185.26022 369.52814 185.96335L369.52814 187.3696Q369.52814 188.83835 369.59064 189.22897Q369.66876 189.6196 369.8719 189.97897L368.7625 189.97897Q368.60626 189.65085 368.5594 189.21335ZM368.46564 186.85397Q367.8875 187.08835 366.7469 187.26022Q366.09064 187.35397 365.825 187.47897Q365.5594 187.58835 365.40314 187.8071Q365.2625 188.02585 365.2625 188.3071Q365.2625 188.72897 365.575 189.01022Q365.90314 189.29147 366.5125 189.29147Q367.1219 189.29147 367.59064 189.02585Q368.075 188.76022 368.29376 188.29147Q368.46564 187.9321 368.46564 187.2446L368.46564 186.85397ZM373.79376 189.04147L373.95 189.96335Q373.4969 190.0571 373.15314 190.0571Q372.575 190.0571 372.2625 189.88522Q371.95 189.69772 371.8094 189.40085Q371.6844 189.10397 371.6844 188.15085L371.6844 184.57272L370.91876 184.57272L370.91876 183.76022L371.6844 183.76022L371.6844 182.21335L372.73126 181.58835L372.73126 183.76022L373.79376 183.76022L373.79376 184.57272L372.73126 184.57272L372.73126 188.21335Q372.73126 188.66647 372.77814 188.79147Q372.84064 188.91647 372.96564 188.9946Q373.09064 189.07272 373.325 189.07272Q373.5125 189.07272 373.79376 189.04147ZM374.4969 182.60397L374.4969 181.38522L375.5594 181.38522L375.5594 182.60397L374.4969 182.60397ZM374.4969 189.97897L374.4969 183.76022L375.5594 183.76022L375.5594 189.97897L374.4969 189.97897ZM377.10626 186.8696Q377.10626 185.13522 378.0594 184.3071Q378.85626 183.6196 380.0125 183.6196Q381.29376 183.6196 382.10626 184.46335Q382.9344 185.29147 382.9344 186.77585Q382.9344 187.97897 382.575 188.66647Q382.21564 189.35397 381.5125 189.7446Q380.825 190.1196 380.0125 190.1196Q378.71564 190.1196 377.90314 189.29147Q377.10626 188.44772 377.10626 186.8696ZM378.1844 186.8696Q378.1844 188.0571 378.7 188.65085Q379.23126 189.2446 380.0125 189.2446Q380.8094 189.2446 381.325 188.65085Q381.84064 188.0571 381.84064 186.83835Q381.84064 185.6821 381.3094 185.08835Q380.79376 184.4946 380.0125 184.4946Q379.23126 184.4946 378.7 185.08835Q378.1844 185.66647 378.1844 186.8696ZM384.4969 189.97897L384.4969 183.76022L385.4344 183.76022L385.4344 184.63522Q386.1219 183.6196 387.41876 183.6196Q387.98126 183.6196 388.45 183.82272Q388.9344 184.02585 389.16876 184.35397Q389.40314 184.6821 389.4969 185.1196Q389.54376 185.41647 389.54376 186.15085L389.54376 189.97897L388.4969 189.97897L388.4969 186.19772Q388.4969 185.54147 388.3719 185.22897Q388.2469 184.91647 387.9344 184.72897Q387.6219 184.52585 387.2 184.52585Q386.52814 184.52585 386.02814 184.96335Q385.54376 185.38522 385.54376 186.57272L385.54376 189.97897L384.4969 189.97897Z" fill-rule="nonzero"/><path fill="#9e9e9e" d="M361.66876 200.4946L360.6219 200.57272Q360.48126 199.94772 360.23126 199.66647Q359.79376 199.21335 359.16876 199.21335Q358.66876 199.21335 358.27814 199.4946Q357.79376 199.8696 357.4969 200.57272Q357.21564 201.26022 357.2 202.54147Q357.575 201.96335 358.1219 201.6821Q358.6844 201.40085 359.29376 201.40085Q360.34064 201.40085 361.075 202.1821Q361.825 202.96335 361.825 204.1821Q361.825 204.9946 361.46564 205.69772Q361.1219 206.38522 360.5125 206.76022Q359.90314 207.1196 359.1375 207.1196Q357.8094 207.1196 356.98126 206.15085Q356.15314 205.1821 356.15314 202.96335Q356.15314 200.46335 357.075 199.33835Q357.8719 198.35397 359.23126 198.35397Q360.2469 198.35397 360.8875 198.9321Q361.54376 199.4946 361.66876 200.4946ZM357.3719 204.19772Q357.3719 204.7446 357.59064 205.2446Q357.825 205.72897 358.23126 205.9946Q358.65314 206.26022 359.1219 206.26022Q359.77814 206.26022 360.2625 205.72897Q360.7469 205.1821 360.7469 204.26022Q360.7469 203.3696 360.2625 202.85397Q359.79376 202.33835 359.075 202.33835Q358.35626 202.33835 357.85626 202.85397Q357.3719 203.3696 357.3719 204.19772ZM364.825 202.32272Q364.16876 202.07272 363.84064 201.63522Q363.52814 201.1821 363.52814 200.57272Q363.52814 199.63522 364.2 198.9946Q364.8875 198.35397 365.9969 198.35397Q367.1219 198.35397 367.8094 199.01022Q368.4969 199.66647 368.4969 200.60397Q368.4969 201.19772 368.1844 201.63522Q367.8719 202.07272 367.23126 202.32272Q368.02814 202.57272 368.4344 203.15085Q368.84064 203.72897 368.84064 204.52585Q368.84064 205.6196 368.0594 206.3696Q367.29376 207.1196 366.0125 207.1196Q364.7469 207.1196 363.96564 206.3696Q363.1844 205.6196 363.1844 204.4946Q363.1844 203.65085 363.60626 203.08835Q364.04376 202.52585 364.825 202.32272ZM364.60626 200.52585Q364.60626 201.13522 364.9969 201.52585Q365.40314 201.91647 366.02814 201.91647Q366.6375 201.91647 367.02814 201.54147Q367.41876 201.15085 367.41876 200.58835Q367.41876 200.01022 367.0125 199.6196Q366.60626 199.21335 366.0125 199.21335Q365.40314 199.21335 364.9969 199.60397Q364.60626 199.9946 364.60626 200.52585ZM364.27814 204.4946Q364.27814 204.94772 364.48126 205.3696Q364.7 205.79147 365.1219 206.02585Q365.54376 206.26022 366.02814 206.26022Q366.77814 206.26022 367.2625 205.77585Q367.7625 205.29147 367.7625 204.54147Q367.7625 203.77585 367.2625 203.27585Q366.7625 202.77585 365.9969 202.77585Q365.2469 202.77585 364.7625 203.27585Q364.27814 203.76022 364.27814 204.4946ZM370.79376 206.97897L370.79376 205.77585L371.9969 205.77585L371.9969 206.97897L370.79376 206.97897ZM378.7469 205.96335L378.7469 206.97897L373.0594 206.97897Q373.0594 206.60397 373.1844 206.2446Q373.40314 205.66647 373.8719 205.10397Q374.35626 204.54147 375.2625 203.8071Q376.66876 202.65085 377.15314 201.97897Q377.65314 201.3071 377.65314 200.71335Q377.65314 200.08835 377.2 199.66647Q376.7469 199.22897 376.02814 199.22897Q375.2625 199.22897 374.8094 199.6821Q374.35626 200.13522 374.34064 200.94772L373.2625 200.83835Q373.3719 199.6196 374.09064 198.9946Q374.825 198.35397 376.0594 198.35397Q377.29376 198.35397 378.0125 199.04147Q378.73126 199.72897 378.73126 200.7446Q378.73126 201.26022 378.5125 201.76022Q378.3094 202.2446 377.8094 202.8071Q377.325 203.35397 376.2 204.3071Q375.2469 205.10397 374.96564 205.40085Q374.7 205.6821 374.52814 205.96335L378.7469 205.96335ZM380.40314 200.44772Q380.40314 199.52585 380.85626 198.88522Q381.325 198.2446 382.2 198.2446Q383.0125 198.2446 383.54376 198.82272Q384.075 199.40085 384.075 200.51022Q384.075 201.60397 383.52814 202.19772Q382.9969 202.77585 382.21564 202.77585Q381.4344 202.77585 380.91876 202.19772Q380.40314 201.6196 380.40314 200.44772ZM382.23126 198.96335Q381.84064 198.96335 381.575 199.3071Q381.325 199.65085 381.325 200.5571Q381.325 201.38522 381.575 201.72897Q381.84064 202.0571 382.23126 202.0571Q382.6375 202.0571 382.8875 201.71335Q383.15314 201.3696 383.15314 200.47897Q383.15314 199.63522 382.8875 199.3071Q382.6219 198.96335 382.23126 198.96335ZM382.23126 207.29147L386.9344 198.2446L387.79376 198.2446L383.10626 207.29147L382.23126 207.29147ZM385.95 204.96335Q385.95 204.04147 386.40314 203.40085Q386.8719 202.76022 387.7625 202.76022Q388.575 202.76022 389.10626 203.33835Q389.6375 203.90085 389.6375 205.02585Q389.6375 206.1196 389.09064 206.71335Q388.5594 207.29147 387.7625 207.29147Q386.9969 207.29147 386.46564 206.71335Q385.95 206.13522 385.95 204.96335ZM387.79376 203.47897Q387.3875 203.47897 387.1219 203.82272Q386.8719 204.16647 386.8719 205.07272Q386.8719 205.88522 387.1375 206.22897Q387.40314 206.57272 387.79376 206.57272Q388.1844 206.57272 388.45 206.22897Q388.71564 205.88522 388.71564 204.97897Q388.71564 204.15085 388.45 203.82272Q388.1844 203.47897 387.79376 203.47897Z" fill-rule="nonzero"/><path stroke="#757575" stroke-width="1.0" stroke-linecap="butt" d="M390.7 194.47897L327.7 194.47897L297.66315 194.47897" fill-rule="nonzero"/><path fill="#9e9e9e" d="M299.66315 194.47897C299.66315 193.3744 298.7677 192.47897 297.66315 192.47897C296.55856 192.47897 295.66315 193.3744 295.66315 194.47897C295.66315 195.58354 296.55856 196.47897 297.66315 196.47897C298.7677 196.47897 299.66315 195.58354 299.66315 194.47897" fill-rule="nonzero"/></svg>