<svg version="1.1" viewBox="0.0 0.0 404.0 243.0" fill="none" stroke="none" stroke-linecap="square" stroke-miterlimit="10" width="404" height="243" xmlns:xlink="http://www.w3.org/1999/xlink" xmlns="http://www.w3.org/2000/svg"><path fill="#ffffff" d="M0 0L404.0 0L404.0 243.0L0 243.0L0 0Z" fill-rule="nonzero"/><path fill="#4285f4" d="M202.0 12.15C256.38058 12.15 302.4978 52.1108 310.23697 105.937874C317.97614 159.76494 284.98526 211.09978 232.80745 226.42056L202.0 121.5Z" fill-rule="nonzero"/><path fill="#34a853" d="M171.19255 16.579443C181.19797 13.641586 191.57217 12.15 202.0 12.15L202.0 121.5Z" fill-rule="nonzero"/><path fill="#fbbc04" d="M93.76302 105.937874C99.85563 63.56288 130.11594 28.640623 171.19255 16.579443L202.0 121.5Z" fill-rule="nonzero"/><path fill="#ea4335" d="M232.80745 226.42056C197.10162 236.90474 158.51486 228.5107 130.39098 204.14122C102.2671 179.77173 88.46703 142.77232 93.76302 105.937874L202.0 121.5Z" fill-rule="nonzero"/><path fill="#1a1a1a" d="M12.134375 23.15L15.43125 14.55625L16.65 14.55625L20.165625 23.15L18.884375 23.15L17.86875 20.540625L14.290625 20.540625L13.3375 23.15L12.134375 23.15ZM14.61875 19.61875L17.525 19.61875L16.634375 17.24375Q16.2125 16.165625 16.025 15.4625Q15.853125 16.290625 15.55625 17.103125L14.61875 19.61875ZM19.915625 23.15L19.915625 14.55625L20.978125 14.55625L20.978125 23.15L19.915625 23.15ZM22.915625 23.15L22.915625 14.55625L23.978125 14.55625L23.978125 23.15L22.915625 23.15ZM28.65 20.884375L29.7125 20.74375Q29.884375 21.634375 30.321875 22.040625Q30.759375 22.43125 31.384375 22.43125Q32.134377 22.43125 32.65 21.915625Q33.165627 21.4 33.165627 20.634375Q33.165627 19.915625 32.68125 19.446875Q32.2125 18.9625 31.478125 18.9625Q31.18125 18.9625 30.728125 19.0875L30.853125 18.15Q30.9625 18.165625 31.025 18.165625Q31.696875 18.165625 32.228127 17.821875Q32.775 17.4625 32.775 16.728125Q32.775 16.15 32.384377 15.775Q31.99375 15.384375 31.36875 15.384375Q30.759375 15.384375 30.3375 15.775Q29.93125 16.165625 29.821875 16.93125L28.759375 16.74375Q28.946875 15.696875 29.634375 15.11875Q30.321875 14.525 31.3375 14.525Q32.040627 14.525 32.634377 14.8375Q33.228127 15.134375 33.540627 15.65Q33.853127 16.165625 33.853127 16.759375Q33.853127 17.30625 33.55625 17.775Q33.259377 18.228125 32.68125 18.49375Q33.43125 18.665625 33.853127 19.228125Q34.275 19.775 34.275 20.61875Q34.275 21.74375 33.446877 22.525Q32.634377 23.30625 31.384375 23.30625Q30.259375 23.30625 29.509375 22.634375Q28.759375 21.946875 28.65 20.884375Z" fill-rule="nonzero"/><path fill="#9e9e9e" d="M16.025 40.15L16.025 38.0875L12.30625 38.0875L12.30625 37.11875L16.228125 31.556252L17.0875 31.556252L17.0875 37.11875L18.24375 37.11875L18.24375 38.0875L17.0875 38.0875L17.0875 40.15L16.025 40.15ZM16.025 37.11875L16.025 33.259377L13.3375 37.11875L16.025 37.11875ZM20.24375 40.15L20.24375 38.946877L21.446875 38.946877L21.446875 40.15L20.24375 40.15ZM22.65 37.9L23.759375 37.80625Q23.884375 38.61875 24.321875 39.025Q24.775 39.43125 25.415625 39.43125Q26.165625 39.43125 26.696875 38.853127Q27.228125 38.275 27.228125 37.3375Q27.228125 36.43125 26.7125 35.915627Q26.2125 35.384377 25.384375 35.384377Q24.884375 35.384377 24.4625 35.61875Q24.05625 35.853127 23.821875 36.2125L22.8375 36.0875L23.665625 31.681252L27.946875 31.681252L27.946875 32.68125L24.509375 32.68125L24.05625 34.99375Q24.821875 34.446877 25.665625 34.446877Q26.790625 34.446877 27.55625 35.228127Q28.3375 36.009377 28.3375 37.24375Q28.3375 38.4 27.665625 39.259377Q26.8375 40.290627 25.415625 40.290627Q24.24375 40.290627 23.49375 39.634377Q22.759375 38.978127 22.65 37.9ZM29.853125 33.61875Q29.853125 32.696877 30.30625 32.05625Q30.775 31.415627 31.65 31.415627Q32.4625 31.415627 32.99375 31.993752Q33.525 32.571877 33.525 33.68125Q33.525 34.775 32.978127 35.36875Q32.446877 35.946877 31.665625 35.946877Q30.884375 35.946877 30.36875 35.36875Q29.853125 34.790627 29.853125 33.61875ZM31.68125 32.134377Q31.290625 32.134377 31.025 32.478127Q30.775 32.821877 30.775 33.728127Q30.775 34.55625 31.025 34.9Q31.290625 35.228127 31.68125 35.228127Q32.0875 35.228127 32.3375 34.884377Q32.603127 34.540627 32.603127 33.65Q32.603127 32.80625 32.3375 32.478127Q32.071877 32.134377 31.68125 32.134377ZM31.68125 40.4625L36.384377 31.415627L37.24375 31.415627L32.55625 40.4625L31.68125 40.4625ZM35.4 38.134377Q35.4 37.2125 35.853127 36.571877Q36.321877 35.93125 37.2125 35.93125Q38.025 35.93125 38.55625 36.509377Q39.0875 37.071877 39.0875 38.196877Q39.0875 39.290627 38.540627 39.884377Q38.009377 40.4625 37.2125 40.4625Q36.446877 40.4625 35.915627 39.884377Q35.4 39.30625 35.4 38.134377ZM37.24375 36.65Q36.8375 36.65 36.571877 36.99375Q36.321877 37.3375 36.321877 38.24375Q36.321877 39.05625 36.5875 39.4Q36.853127 39.74375 37.24375 39.74375Q37.634377 39.74375 37.9 39.4Q38.165627 39.05625 38.165627 38.15Q38.165627 37.321877 37.9 36.99375Q37.634377 36.65 37.24375 36.65Z" fill-rule="nonzero"/><path stroke="#757575" stroke-width="1.0" stroke-linecap="butt" d="M12.15 27.65L86.65 27.65L187.21597 18.674873" fill-rule="nonzero"/><path fill="#9e9e9e" d="M189.21597 18.674873C189.21597 17.570305 188.32054 16.674873 187.21597 16.674873C186.1114 16.674873 185.21597 17.570305 185.21597 18.674873C185.21597 19.779444 186.1114 20.674873 187.21597 20.674873C188.32054 20.674873 189.21597 19.779444 189.21597 18.674873" fill-rule="nonzero"/><path fill="#1a1a1a" d="M13.071875 54.15L13.071875 45.55625L16.321875 45.55625Q17.165625 45.55625 17.61875 45.634377Q18.259375 45.74375 18.68125 46.040627Q19.11875 46.3375 19.36875 46.86875Q19.634375 47.4 19.634375 48.040627Q19.634375 49.134377 18.93125 49.9Q18.24375 50.65 16.415625 50.65L14.2125 50.65L14.2125 54.15L13.071875 54.15ZM14.2125 49.65L16.43125 49.65Q17.540625 49.65 17.99375 49.24375Q18.4625 48.821877 18.4625 48.071877Q18.4625 47.540627 18.18125 47.165627Q17.915625 46.775 17.478125 46.65Q17.18125 46.571877 16.415625 46.571877L14.2125 46.571877L14.2125 49.65ZM20.93125 54.15L20.93125 47.93125L21.884375 47.93125L21.884375 48.86875Q22.24375 48.2125 22.540625 48.009377Q22.853125 47.790627 23.228125 47.790627Q23.759375 47.790627 24.30625 48.11875L23.946875 49.103127Q23.55625 48.86875 23.18125 48.86875Q22.821875 48.86875 22.540625 49.0875Q22.275 49.290627 22.165625 49.665627Q21.978125 50.228127 21.978125 50.884377L21.978125 54.15L20.93125 54.15ZM29.196875 52.15L30.290625 52.275Q30.040625 53.228127 29.3375 53.759377Q28.634375 54.290627 27.55625 54.290627Q26.196875 54.290627 25.384375 53.446877Q24.5875 52.603127 24.5875 51.0875Q24.5875 49.525 25.4 48.665627Q26.2125 47.790627 27.49375 47.790627Q28.74375 47.790627 29.525 48.634377Q30.321875 49.478127 30.321875 51.025Q30.321875 51.11875 30.321875 51.30625L25.68125 51.30625Q25.74375 52.3375 26.259375 52.884377Q26.775 53.415627 27.55625 53.415627Q28.134375 53.415627 28.540625 53.11875Q28.9625 52.80625 29.196875 52.15ZM25.74375 50.446877L29.2125 50.446877Q29.15 49.65 28.821875 49.259377Q28.30625 48.65 27.509375 48.65Q26.775 48.65 26.275 49.134377Q25.790625 49.61875 25.74375 50.446877ZM31.525 52.290627L32.55625 52.134377Q32.65 52.759377 33.040627 53.0875Q33.446877 53.415627 34.18125 53.415627Q34.9 53.415627 35.24375 53.134377Q35.603127 52.8375 35.603127 52.43125Q35.603127 52.071877 35.290627 51.86875Q35.071877 51.728127 34.2125 51.509377Q33.05625 51.2125 32.603127 51.009377Q32.165627 50.790627 31.93125 50.415627Q31.696875 50.040627 31.696875 49.571877Q31.696875 49.165627 31.884375 48.80625Q32.071877 48.446877 32.4 48.2125Q32.65 48.040627 33.071877 47.915627Q33.49375 47.790627 33.99375 47.790627Q34.7125 47.790627 35.259377 48.009377Q35.821877 48.2125 36.0875 48.571877Q36.353127 48.93125 36.446877 49.525L35.415627 49.665627Q35.353127 49.196877 35.009377 48.93125Q34.68125 48.65 34.05625 48.65Q33.3375 48.65 33.025 48.9Q32.7125 49.134377 32.7125 49.4625Q32.7125 49.665627 32.8375 49.821877Q32.978127 49.99375 33.24375 50.103127Q33.4 50.165627 34.18125 50.36875Q35.30625 50.68125 35.74375 50.86875Q36.18125 51.05625 36.43125 51.415627Q36.68125 51.775 36.68125 52.321877Q36.68125 52.853127 36.36875 53.321877Q36.071877 53.775 35.49375 54.040627Q34.915627 54.290627 34.18125 54.290627Q32.9625 54.290627 32.321877 53.790627Q31.696875 53.275 31.525 52.290627ZM43.196877 52.15L44.290627 52.275Q44.040627 53.228127 43.3375 53.759377Q42.634377 54.290627 41.55625 54.290627Q40.196877 54.290627 39.384377 53.446877Q38.5875 52.603127 38.5875 51.0875Q38.5875 49.525 39.4 48.665627Q40.2125 47.790627 41.49375 47.790627Q42.74375 47.790627 43.525 48.634377Q44.321877 49.478127 44.321877 51.025Q44.321877 51.11875 44.321877 51.30625L39.68125 51.30625Q39.74375 52.3375 40.259377 52.884377Q40.775 53.415627 41.55625 53.415627Q42.134377 53.415627 42.540627 53.11875Q42.9625 52.80625 43.196877 52.15ZM39.74375 50.446877L43.2125 50.446877Q43.15 49.65 42.821877 49.259377Q42.30625 48.65 41.509377 48.65Q40.775 48.65 40.275 49.134377Q39.790627 49.61875 39.74375 50.446877ZM45.946877 54.15L45.946877 47.93125L46.884377 47.93125L46.884377 48.80625Q47.571877 47.790627 48.86875 47.790627Q49.43125 47.790627 49.9 47.99375Q50.384377 48.196877 50.61875 48.525Q50.853127 48.853127 50.946877 49.290627Q50.99375 49.5875 50.99375 50.321877L50.99375 54.15L49.946877 54.15L49.946877 50.36875Q49.946877 49.7125 49.821877 49.4Q49.696877 49.0875 49.384377 48.9Q49.071877 48.696877 48.65 48.696877Q47.978127 48.696877 47.478127 49.134377Q46.99375 49.55625 46.99375 50.74375L46.99375 54.15L45.946877 54.15ZM55.24375 53.2125L55.4 54.134377Q54.946877 54.228127 54.603127 54.228127Q54.025 54.228127 53.7125 54.05625Q53.4 53.86875 53.259377 53.571877Q53.134377 53.275 53.134377 52.321877L53.134377 48.74375L52.36875 48.74375L52.36875 47.93125L53.134377 47.93125L53.134377 46.384377L54.18125 45.759377L54.18125 47.93125L55.24375 47.93125L55.24375 48.74375L54.18125 48.74375L54.18125 52.384377Q54.18125 52.8375 54.228127 52.9625Q54.290627 53.0875 54.415627 53.165627Q54.540627 53.24375 54.775 53.24375Q54.9625 53.24375 55.24375 53.2125ZM60.009377 53.384377Q59.415627 53.884377 58.86875 54.0875Q58.3375 54.290627 57.7125 54.290627Q56.68125 54.290627 56.134377 53.790627Q55.5875 53.290627 55.5875 52.509377Q55.5875 52.05625 55.790627 51.68125Q55.99375 51.290627 56.3375 51.071877Q56.68125 50.8375 57.103127 50.728127Q57.4 50.634377 58.040627 50.55625Q59.30625 50.415627 59.915627 50.196877Q59.915627 49.978127 59.915627 49.93125Q59.915627 49.275 59.61875 49.009377Q59.2125 48.665627 58.415627 48.665627Q57.68125 48.665627 57.321877 48.93125Q56.9625 49.18125 56.790627 49.8375L55.759377 49.696877Q55.9 49.040627 56.228127 48.634377Q56.55625 48.228127 57.165627 48.009377Q57.775 47.790627 58.571877 47.790627Q59.36875 47.790627 59.86875 47.978127Q60.36875 48.165627 60.603127 48.446877Q60.8375 48.728127 60.93125 49.165627Q60.978127 49.43125 60.978127 50.134377L60.978127 51.540627Q60.978127 53.009377 61.040627 53.4Q61.11875 53.790627 61.321877 54.15L60.2125 54.15Q60.05625 53.821877 60.009377 53.384377ZM59.915627 51.025Q59.3375 51.259377 58.196877 51.43125Q57.540627 51.525 57.275 51.65Q57.009377 51.759377 56.853127 51.978127Q56.7125 52.196877 56.7125 52.478127Q56.7125 52.9 57.025 53.18125Q57.353127 53.4625 57.9625 53.4625Q58.571877 53.4625 59.040627 53.196877Q59.525 52.93125 59.74375 52.4625Q59.915627 52.103127 59.915627 51.415627L59.915627 51.025ZM65.24375 53.2125L65.4 54.134377Q64.94688 54.228127 64.60313 54.228127Q64.025 54.228127 63.7125 54.05625Q63.4 53.86875 63.259377 53.571877Q63.134377 53.275 63.134377 52.321877L63.134377 48.74375L62.36875 48.74375L62.36875 47.93125L63.134377 47.93125L63.134377 46.384377L64.18125 45.759377L64.18125 47.93125L65.24375 47.93125L65.24375 48.74375L64.18125 48.74375L64.18125 52.384377Q64.18125 52.8375 64.22813 52.9625Q64.29063 53.0875 64.41563 53.165627Q64.54063 53.24375 64.775 53.24375Q64.9625 53.24375 65.24375 53.2125ZM65.94688 46.775L65.94688 45.55625L67.00938 45.55625L67.00938 46.775L65.94688 46.775ZM65.94688 54.15L65.94688 47.93125L67.00938 47.93125L67.00938 54.15L65.94688 54.15ZM68.55625 51.040627Q68.55625 49.30625 69.50938 48.478127Q70.30625 47.790627 71.4625 47.790627Q72.74375 47.790627 73.55625 48.634377Q74.38438 49.4625 74.38438 50.946877Q74.38438 52.15 74.025 52.8375Q73.66563 53.525 72.9625 53.915627Q72.275 54.290627 71.4625 54.290627Q70.16563 54.290627 69.35313 53.4625Q68.55625 52.61875 68.55625 51.040627ZM69.63438 51.040627Q69.63438 52.228127 70.15 52.821877Q70.68125 53.415627 71.4625 53.415627Q72.25938 53.415627 72.775 52.821877Q73.29063 52.228127 73.29063 51.009377Q73.29063 49.853127 72.75938 49.259377Q72.24375 48.665627 71.4625 48.665627Q70.68125 48.665627 70.15 49.259377Q69.63438 49.8375 69.63438 51.040627ZM75.94688 54.15L75.94688 47.93125L76.88438 47.93125L76.88438 48.80625Q77.57188 47.790627 78.86875 47.790627Q79.43125 47.790627 79.9 47.99375Q80.38438 48.196877 80.61875 48.525Q80.85313 48.853127 80.94688 49.290627Q80.99375 49.5875 80.99375 50.321877L80.99375 54.15L79.94688 54.15L79.94688 50.36875Q79.94688 49.7125 79.82188 49.4Q79.69688 49.0875 79.38438 48.9Q79.07188 48.696877 78.65 48.696877Q77.97813 48.696877 77.47813 49.134377Q76.99375 49.55625 76.99375 50.74375L76.99375 54.15L75.94688 54.15Z" fill-rule="nonzero"/><path fill="#9e9e9e" d="M16.61875 71.15L15.571875 71.15L15.571875 64.43125Q15.18125 64.79063 14.55625 65.16563Q13.946875 65.525 13.4625 65.69688L13.4625 64.68125Q14.3375 64.25938 14.99375 63.68125Q15.665625 63.0875 15.946875 62.525L16.61875 62.525L16.61875 71.15ZM21.275 66.49375Q20.61875 66.24375 20.290625 65.80625Q19.978125 65.35313 19.978125 64.74375Q19.978125 63.80625 20.65 63.165627Q21.3375 62.525 22.446875 62.525Q23.571875 62.525 24.259375 63.18125Q24.946875 63.8375 24.946875 64.775Q24.946875 65.36875 24.634375 65.80625Q24.321875 66.24375 23.68125 66.49375Q24.478125 66.74375 24.884375 67.32188Q25.290625 67.9 25.290625 68.69688Q25.290625 69.79063 24.509375 70.54063Q23.74375 71.29063 22.4625 71.29063Q21.196875 71.29063 20.415625 70.54063Q19.634375 69.79063 19.634375 68.66563Q19.634375 67.82188 20.05625 67.25938Q20.49375 66.69688 21.275 66.49375ZM21.05625 64.69688Q21.05625 65.30625 21.446875 65.69688Q21.853125 66.0875 22.478125 66.0875Q23.0875 66.0875 23.478125 65.7125Q23.86875 65.32188 23.86875 64.75938Q23.86875 64.18125 23.4625 63.790627Q23.05625 63.384377 22.4625 63.384377Q21.853125 63.384377 21.446875 63.775Q21.05625 64.16563 21.05625 64.69688ZM20.728125 68.66563Q20.728125 69.11875 20.93125 69.54063Q21.15 69.9625 21.571875 70.19688Q21.99375 70.43125 22.478125 70.43125Q23.228125 70.43125 23.7125 69.94688Q24.2125 69.4625 24.2125 68.7125Q24.2125 67.94688 23.7125 67.44688Q23.2125 66.94688 22.446875 66.94688Q21.696875 66.94688 21.2125 67.44688Q20.728125 67.93125 20.728125 68.66563ZM27.24375 71.15L27.24375 69.94688L28.446875 69.94688L28.446875 71.15L27.24375 71.15ZM35.196877 70.13438L35.196877 71.15L29.509375 71.15Q29.509375 70.775 29.634375 70.41563Q29.853125 69.8375 30.321875 69.275Q30.80625 68.7125 31.7125 67.97813Q33.11875 66.82188 33.603127 66.15Q34.103127 65.47813 34.103127 64.88438Q34.103127 64.25938 33.65 63.8375Q33.196877 63.4 32.478127 63.4Q31.7125 63.4 31.259375 63.853127Q30.80625 64.30625 30.790625 65.11875L29.7125 65.00938Q29.821875 63.790627 30.540625 63.165627Q31.275 62.525 32.509377 62.525Q33.74375 62.525 34.4625 63.2125Q35.18125 63.9 35.18125 64.91563Q35.18125 65.43125 34.9625 65.93125Q34.759377 66.41563 34.259377 66.97813Q33.775 67.525 32.65 68.47813Q31.696875 69.275 31.415625 69.57188Q31.15 69.85313 30.978125 70.13438L35.196877 70.13438ZM36.853127 64.61875Q36.853127 63.696877 37.30625 63.05625Q37.775 62.415627 38.65 62.415627Q39.4625 62.415627 39.99375 62.99375Q40.525 63.571877 40.525 64.68125Q40.525 65.775 39.978127 66.36875Q39.446877 66.94688 38.665627 66.94688Q37.884377 66.94688 37.36875 66.36875Q36.853127 65.79063 36.853127 64.61875ZM38.68125 63.134377Q38.290627 63.134377 38.025 63.478127Q37.775 63.821877 37.775 64.72813Q37.775 65.55625 38.025 65.9Q38.290627 66.22813 38.68125 66.22813Q39.0875 66.22813 39.3375 65.88438Q39.603127 65.54063 39.603127 64.65Q39.603127 63.80625 39.3375 63.478127Q39.071877 63.134377 38.68125 63.134377ZM38.68125 71.4625L43.384377 62.415627L44.24375 62.415627L39.55625 71.4625L38.68125 71.4625ZM42.4 69.13438Q42.4 68.2125 42.853127 67.57188Q43.321877 66.93125 44.2125 66.93125Q45.025 66.93125 45.55625 67.50938Q46.0875 68.07188 46.0875 69.19688Q46.0875 70.29063 45.540627 70.88438Q45.009377 71.4625 44.2125 71.4625Q43.446877 71.4625 42.915627 70.88438Q42.4 70.30625 42.4 69.13438ZM44.24375 67.65Q43.8375 67.65 43.571877 67.99375Q43.321877 68.3375 43.321877 69.24375Q43.321877 70.05625 43.5875 70.4Q43.853127 70.74375 44.24375 70.74375Q44.634377 70.74375 44.9 70.4Q45.165627 70.05625 45.165627 69.15Q45.165627 68.32188 44.9 67.99375Q44.634377 67.65 44.24375 67.65Z" fill-rule="nonzero"/><path stroke="#757575" stroke-width="1.0" stroke-linecap="butt" d="M12.15 58.65L86.65 58.65L123.490845 53.471428" fill-rule="nonzero"/><path fill="#9e9e9e" d="M125.490845 53.471428C125.490845 52.36686 124.59541 51.471428 123.490845 51.471428C122.38628 51.471428 121.490845 52.36686 121.490845 53.471428C121.490845 54.576 122.38628 55.471428 123.490845 55.471428C124.59541 55.471428 125.490845 54.576 125.490845 53.471428" fill-rule="nonzero"/><path fill="#1a1a1a" d="M19.2125 192.49353L20.3375 192.7904Q19.978125 194.18103 19.05625 194.9154Q18.134375 195.64978 16.790625 195.64978Q15.4 195.64978 14.525 195.08728Q13.65 194.52478 13.196875 193.46228Q12.74375 192.38416 12.74375 191.14978Q12.74375 189.80603 13.259375 188.80603Q13.775 187.80603 14.7125 187.2904Q15.665625 186.77478 16.80625 186.77478Q18.0875 186.77478 18.9625 187.43103Q19.853125 188.08728 20.196875 189.27478L19.071875 189.5404Q18.775 188.6029 18.196875 188.18103Q17.634375 187.74353 16.775 187.74353Q15.790625 187.74353 15.11875 188.2279Q14.4625 188.69666 14.18125 189.49353Q13.915625 190.2904 13.915625 191.14978Q13.915625 192.24353 14.228125 193.05603Q14.55625 193.86853 15.228125 194.27478Q15.9 194.68103 16.696875 194.68103Q17.65 194.68103 18.30625 194.13416Q18.978125 193.58728 19.2125 192.49353ZM21.55625 192.39978Q21.55625 190.6654 22.509375 189.83728Q23.30625 189.14978 24.4625 189.14978Q25.74375 189.14978 26.55625 189.99353Q27.384375 190.82166 27.384375 192.30603Q27.384375 193.50916 27.025 194.19666Q26.665625 194.88416 25.9625 195.27478Q25.275 195.64978 24.4625 195.64978Q23.165625 195.64978 22.353125 194.82166Q21.55625 193.9779 21.55625 192.39978ZM22.634375 192.39978Q22.634375 193.58728 23.15 194.18103Q23.68125 194.77478 24.4625 194.77478Q25.259375 194.77478 25.775 194.18103Q26.290625 193.58728 26.290625 192.36853Q26.290625 191.21228 25.759375 190.61853Q25.24375 190.02478 24.4625 190.02478Q23.68125 190.02478 23.15 190.61853Q22.634375 191.19666 22.634375 192.39978ZM28.946875 195.50916L28.946875 189.2904L29.884375 189.2904L29.884375 190.1654Q30.18125 189.69666 30.665625 189.43103Q31.15 189.14978 31.775 189.14978Q32.4625 189.14978 32.9 189.43103Q33.353127 189.71228 33.525 190.2279Q34.275 189.14978 35.446877 189.14978Q36.384377 189.14978 36.86875 189.6654Q37.36875 190.1654 37.36875 191.24353L37.36875 195.50916L36.321877 195.50916L36.321877 191.58728Q36.321877 190.96228 36.2125 190.68103Q36.11875 190.39978 35.853127 190.2279Q35.5875 190.05603 35.2125 190.05603Q34.55625 190.05603 34.11875 190.49353Q33.696877 190.93103 33.696877 191.89978L33.696877 195.50916L32.634377 195.50916L32.634377 191.46228Q32.634377 190.75916 32.36875 190.4154Q32.11875 190.05603 31.540625 190.05603Q31.0875 190.05603 30.7125 190.2904Q30.3375 190.52478 30.165625 190.9779Q29.99375 191.43103 29.99375 192.27478L29.99375 195.50916L28.946875 195.50916ZM39.946877 195.50916L39.946877 189.2904L40.884377 189.2904L40.884377 190.1654Q41.18125 189.69666 41.665627 189.43103Q42.15 189.14978 42.775 189.14978Q43.4625 189.14978 43.9 189.43103Q44.353127 189.71228 44.525 190.2279Q45.275 189.14978 46.446877 189.14978Q47.384377 189.14978 47.86875 189.6654Q48.36875 190.1654 48.36875 191.24353L48.36875 195.50916L47.321877 195.50916L47.321877 191.58728Q47.321877 190.96228 47.2125 190.68103Q47.11875 190.39978 46.853127 190.2279Q46.5875 190.05603 46.2125 190.05603Q45.55625 190.05603 45.11875 190.49353Q44.696877 190.93103 44.696877 191.89978L44.696877 195.50916L43.634377 195.50916L43.634377 191.46228Q43.634377 190.75916 43.36875 190.4154Q43.11875 190.05603 42.540627 190.05603Q42.0875 190.05603 41.7125 190.2904Q41.3375 190.52478 41.165627 190.9779Q40.99375 191.43103 40.99375 192.27478L40.99375 195.50916L39.946877 195.50916ZM55.025 195.50916L55.025 194.58728Q54.290627 195.64978 53.040627 195.64978Q52.49375 195.64978 52.009377 195.44666Q51.540627 195.2279 51.30625 194.9154Q51.071877 194.58728 50.978127 194.11853Q50.915627 193.82166 50.915627 193.13416L50.915627 189.2904L51.978127 189.2904L51.978127 192.74353Q51.978127 193.55603 52.040627 193.8529Q52.134377 194.25916 52.446877 194.50916Q52.775 194.74353 53.259377 194.74353Q53.728127 194.74353 54.134377 194.50916Q54.55625 194.25916 54.728127 193.83728Q54.915627 193.4154 54.915627 192.61853L54.915627 189.2904L55.9625 189.2904L55.9625 195.50916L55.025 195.50916ZM57.946877 195.50916L57.946877 189.2904L58.884377 189.2904L58.884377 190.1654Q59.571877 189.14978 60.86875 189.14978Q61.43125 189.14978 61.9 189.3529Q62.384377 189.55603 62.61875 189.88416Q62.853127 190.21228 62.946877 190.64978Q62.99375 190.94666 62.99375 191.68103L62.99375 195.50916L61.946877 195.50916L61.946877 191.7279Q61.946877 191.07166 61.821877 190.75916Q61.696877 190.44666 61.384377 190.25916Q61.071877 190.05603 60.65 190.05603Q59.978127 190.05603 59.478127 190.49353Q58.99375 190.9154 58.99375 192.1029L58.99375 195.50916L57.946877 195.50916ZM64.94688 188.13416L64.94688 186.9154L66.00938 186.9154L66.00938 188.13416L64.94688 188.13416ZM64.94688 195.50916L64.94688 189.2904L66.00938 189.2904L66.00938 195.50916L64.94688 195.50916ZM70.24375 194.57166L70.4 195.49353Q69.94688 195.58728 69.60313 195.58728Q69.025 195.58728 68.7125 195.4154Q68.4 195.2279 68.25938 194.93103Q68.13438 194.63416 68.13438 193.68103L68.13438 190.1029L67.36875 190.1029L67.36875 189.2904L68.13438 189.2904L68.13438 187.74353L69.18125 187.11853L69.18125 189.2904L70.24375 189.2904L70.24375 190.1029L69.18125 190.1029L69.18125 193.74353Q69.18125 194.19666 69.22813 194.32166Q69.29063 194.44666 69.41563 194.52478Q69.54063 194.6029 69.775 194.6029Q69.9625 194.6029 70.24375 194.57166ZM70.9 197.89978L70.775 196.9154Q71.11875 197.00916 71.38438 197.00916Q71.72813 197.00916 71.93125 196.88416Q72.15 196.77478 72.29063 196.57166Q72.38438 196.39978 72.61875 195.77478Q72.63438 195.69666 72.7125 195.52478L70.3375 189.2904L71.47813 189.2904L72.775 192.88416Q73.025 193.57166 73.22813 194.33728Q73.41563 193.6029 73.66563 192.9154L74.99375 189.2904L76.04063 189.2904L73.68125 195.61853Q73.29063 196.63416 73.0875 197.02478Q72.80625 197.55603 72.43125 197.7904Q72.07188 198.0404 71.57188 198.0404Q71.275 198.0404 70.9 197.89978Z" fill-rule="nonzero"/><path fill="#9e9e9e" d="M12.65 210.24353L13.7125 210.1029Q13.884375 210.99353 14.321875 211.39978Q14.759375 211.7904 15.384375 211.7904Q16.134375 211.7904 16.65 211.27478Q17.165625 210.75916 17.165625 209.99353Q17.165625 209.27478 16.68125 208.80603Q16.2125 208.32166 15.478125 208.32166Q15.18125 208.32166 14.728125 208.44666L14.853125 207.50916Q14.9625 207.52478 15.025 207.52478Q15.696875 207.52478 16.228125 207.18103Q16.775 206.82166 16.775 206.08728Q16.775 205.50916 16.384375 205.13416Q15.99375 204.74353 15.36875 204.74353Q14.759375 204.74353 14.3375 205.13416Q13.93125 205.52478 13.821875 206.2904L12.759375 206.1029Q12.946875 205.05603 13.634375 204.4779Q14.321875 203.88416 15.3375 203.88416Q16.040625 203.88416 16.634375 204.19666Q17.228125 204.49353 17.540625 205.00916Q17.853125 205.52478 17.853125 206.11853Q17.853125 206.6654 17.55625 207.13416Q17.259375 207.58728 16.68125 207.8529Q17.43125 208.02478 17.853125 208.58728Q18.275 209.13416 18.275 209.9779Q18.275 211.1029 17.446875 211.88416Q16.634375 212.6654 15.384375 212.6654Q14.259375 212.6654 13.509375 211.99353Q12.759375 211.30603 12.65 210.24353ZM23.61875 212.50916L22.571875 212.50916L22.571875 205.7904Q22.18125 206.14978 21.55625 206.52478Q20.946875 206.88416 20.4625 207.05603L20.4625 206.0404Q21.3375 205.61853 21.99375 205.0404Q22.665625 204.44666 22.946875 203.88416L23.61875 203.88416L23.61875 212.50916ZM27.24375 212.50916L27.24375 211.30603L28.446875 211.30603L28.446875 212.50916L27.24375 212.50916ZM31.275 207.8529Q30.61875 207.6029 30.290625 207.1654Q29.978125 206.71228 29.978125 206.1029Q29.978125 205.1654 30.65 204.52478Q31.3375 203.88416 32.446877 203.88416Q33.571877 203.88416 34.259377 204.5404Q34.946877 205.19666 34.946877 206.13416Q34.946877 206.7279 34.634377 207.1654Q34.321877 207.6029 33.68125 207.8529Q34.478127 208.1029 34.884377 208.68103Q35.290627 209.25916 35.290627 210.05603Q35.290627 211.14978 34.509377 211.89978Q33.74375 212.64978 32.4625 212.64978Q31.196875 212.64978 30.415625 211.89978Q29.634375 211.14978 29.634375 210.02478Q29.634375 209.18103 30.05625 208.61853Q30.49375 208.05603 31.275 207.8529ZM31.05625 206.05603Q31.05625 206.6654 31.446875 207.05603Q31.853125 207.44666 32.478127 207.44666Q33.0875 207.44666 33.478127 207.07166Q33.86875 206.68103 33.86875 206.11853Q33.86875 205.5404 33.4625 205.14978Q33.05625 204.74353 32.4625 204.74353Q31.853125 204.74353 31.446875 205.13416Q31.05625 205.52478 31.05625 206.05603ZM30.728125 210.02478Q30.728125 210.4779 30.93125 210.89978Q31.15 211.32166 31.571875 211.55603Q31.99375 211.7904 32.478127 211.7904Q33.228127 211.7904 33.7125 211.30603Q34.2125 210.82166 34.2125 210.07166Q34.2125 209.30603 33.7125 208.80603Q33.2125 208.30603 32.446877 208.30603Q31.696875 208.30603 31.2125 208.80603Q30.728125 209.2904 30.728125 210.02478ZM36.853127 205.9779Q36.853127 205.05603 37.30625 204.4154Q37.775 203.77478 38.65 203.77478Q39.4625 203.77478 39.99375 204.3529Q40.525 204.93103 40.525 206.0404Q40.525 207.13416 39.978127 207.7279Q39.446877 208.30603 38.665627 208.30603Q37.884377 208.30603 37.36875 207.7279Q36.853127 207.14978 36.853127 205.9779ZM38.68125 204.49353Q38.290627 204.49353 38.025 204.83728Q37.775 205.18103 37.775 206.08728Q37.775 206.9154 38.025 207.25916Q38.290627 207.58728 38.68125 207.58728Q39.0875 207.58728 39.3375 207.24353Q39.603127 206.89978 39.603127 206.00916Q39.603127 205.1654 39.3375 204.83728Q39.071877 204.49353 38.68125 204.49353ZM38.68125 212.82166L43.384377 203.77478L44.24375 203.77478L39.55625 212.82166L38.68125 212.82166ZM42.4 210.49353Q42.4 209.57166 42.853127 208.93103Q43.321877 208.2904 44.2125 208.2904Q45.025 208.2904 45.55625 208.86853Q46.0875 209.43103 46.0875 210.55603Q46.0875 211.64978 45.540627 212.24353Q45.009377 212.82166 44.2125 212.82166Q43.446877 212.82166 42.915627 212.24353Q42.4 211.6654 42.4 210.49353ZM44.24375 209.00916Q43.8375 209.00916 43.571877 209.3529Q43.321877 209.69666 43.321877 210.6029Q43.321877 211.4154 43.5875 211.75916Q43.853127 212.1029 44.24375 212.1029Q44.634377 212.1029 44.9 211.75916Q45.165627 211.4154 45.165627 210.50916Q45.165627 209.68103 44.9 209.3529Q44.634377 209.00916 44.24375 209.00916Z" fill-rule="nonzero"/><path stroke="#757575" stroke-width="1.0" stroke-linecap="butt" d="M12.15 200.00916L86.65 200.00916L133.97144 200.00916" fill-rule="nonzero"/><path fill="#9e9e9e" d="M135.97144 200.00916C135.97144 198.90459 135.076 198.00916 133.97144 198.00916C132.86687 198.00916 131.97144 198.90459 131.97144 200.00916C131.97144 201.11372 132.86687 202.00916 133.97144 202.00916C135.076 202.00916 135.97144 201.11372 135.97144 200.00916" fill-rule="nonzero"/><path fill="#1a1a1a" d="M355.9125 99.200356L357.0375 99.49723Q356.67813 100.887856 355.75626 101.62223Q354.83438 102.356606 353.49063 102.356606Q352.1 102.356606 351.225 101.794106Q350.35 101.231606 349.89688 100.169106Q349.44376 99.09098 349.44376 97.856606Q349.44376 96.512856 349.95938 95.512856Q350.475 94.512856 351.4125 93.99723Q352.36563 93.481606 353.50626 93.481606Q354.7875 93.481606 355.6625 94.137856Q356.55313 94.794106 356.89688 95.981606L355.77188 96.24723Q355.475 95.30973 354.89688 94.887856Q354.33438 94.450356 353.475 94.450356Q352.49063 94.450356 351.81876 94.93473Q351.1625 95.40348 350.88126 96.200356Q350.61563 96.99723 350.61563 97.856606Q350.61563 98.950356 350.92813 99.762856Q351.25626 100.575356 351.92813 100.981606Q352.6 101.387856 353.39688 101.387856Q354.35 101.387856 355.00626 100.84098Q355.67813 100.294106 355.9125 99.200356ZM358.25626 99.106606Q358.25626 97.37223 359.20938 96.544106Q360.00626 95.856606 361.1625 95.856606Q362.44376 95.856606 363.25626 96.700356Q364.08438 97.52848 364.08438 99.012856Q364.08438 100.21598 363.725 100.90348Q363.36563 101.59098 362.6625 101.981606Q361.975 102.356606 361.1625 102.356606Q359.86563 102.356606 359.05313 101.52848Q358.25626 100.68473 358.25626 99.106606ZM359.33438 99.106606Q359.33438 100.294106 359.85 100.887856Q360.38126 101.481606 361.1625 101.481606Q361.95938 101.481606 362.475 100.887856Q362.99063 100.294106 362.99063 99.075356Q362.99063 97.919106 362.45938 97.325356Q361.94376 96.731606 361.1625 96.731606Q360.38126 96.731606 359.85 97.325356Q359.33438 97.90348 359.33438 99.106606ZM365.64688 102.21598L365.64688 95.99723L366.58438 95.99723L366.58438 96.87223Q367.27188 95.856606 368.56876 95.856606Q369.13126 95.856606 369.6 96.05973Q370.08438 96.262856 370.31876 96.59098Q370.55313 96.919106 370.64688 97.356606Q370.69376 97.65348 370.69376 98.387856L370.69376 102.21598L369.64688 102.21598L369.64688 98.43473Q369.64688 97.77848 369.52188 97.46598Q369.39688 97.15348 369.08438 96.96598Q368.77188 96.762856 368.35 96.762856Q367.67813 96.762856 367.17813 97.200356Q366.69376 97.62223 366.69376 98.80973L366.69376 102.21598L365.64688 102.21598ZM374.94376 101.27848L375.1 102.200356Q374.64688 102.294106 374.30313 102.294106Q373.725 102.294106 373.4125 102.12223Q373.1 101.93473 372.95938 101.637856Q372.83438 101.34098 372.83438 100.387856L372.83438 96.80973L372.06876 96.80973L372.06876 95.99723L372.83438 95.99723L372.83438 94.450356L373.88126 93.825356L373.88126 95.99723L374.94376 95.99723L374.94376 96.80973L373.88126 96.80973L373.88126 100.450356Q373.88126 100.90348 373.92813 101.02848Q373.99063 101.15348 374.11563 101.231606Q374.24063 101.30973 374.475 101.30973Q374.6625 101.30973 374.94376 101.27848ZM379.89688 100.21598L380.99063 100.34098Q380.74063 101.294106 380.0375 101.825356Q379.33438 102.356606 378.25626 102.356606Q376.89688 102.356606 376.08438 101.512856Q375.2875 100.669106 375.2875 99.15348Q375.2875 97.59098 376.1 96.731606Q376.9125 95.856606 378.19376 95.856606Q379.44376 95.856606 380.225 96.700356Q381.02188 97.544106 381.02188 99.09098Q381.02188 99.18473 381.02188 99.37223L376.38126 99.37223Q376.44376 100.40348 376.95938 100.950356Q377.475 101.481606 378.25626 101.481606Q378.83438 101.481606 379.24063 101.18473Q379.6625 100.87223 379.89688 100.21598ZM376.44376 98.512856L379.9125 98.512856Q379.85 97.71598 379.52188 97.325356Q379.00626 96.71598 378.20938 96.71598Q377.475 96.71598 376.975 97.200356Q376.49063 97.68473 376.44376 98.512856ZM382.64688 102.21598L382.64688 95.99723L383.58438 95.99723L383.58438 96.87223Q384.27188 95.856606 385.56876 95.856606Q386.13126 95.856606 386.6 96.05973Q387.08438 96.262856 387.31876 96.59098Q387.55313 96.919106 387.64688 97.356606Q387.69376 97.65348 387.69376 98.387856L387.69376 102.21598L386.64688 102.21598L386.64688 98.43473Q386.64688 97.77848 386.52188 97.46598Q386.39688 97.15348 386.08438 96.96598Q385.77188 96.762856 385.35 96.762856Q384.67813 96.762856 384.17813 97.200356Q383.69376 97.62223 383.69376 98.80973L383.69376 102.21598L382.64688 102.21598ZM391.94376 101.27848L392.1 102.200356Q391.64688 102.294106 391.30313 102.294106Q390.725 102.294106 390.4125 102.12223Q390.1 101.93473 389.95938 101.637856Q389.83438 101.34098 389.83438 100.387856L389.83438 96.80973L389.06876 96.80973L389.06876 95.99723L389.83438 95.99723L389.83438 94.450356L390.88126 93.825356L390.88126 95.99723L391.94376 95.99723L391.94376 96.80973L390.88126 96.80973L390.88126 100.450356Q390.88126 100.90348 390.92813 101.02848Q390.99063 101.15348 391.11563 101.231606Q391.24063 101.30973 391.475 101.30973Q391.6625 101.30973 391.94376 101.27848Z" fill-rule="nonzero"/><path fill="#9e9e9e" d="M360.725 119.21598L360.725 117.15348L357.00626 117.15348L357.00626 116.18473L360.92813 110.62223L361.7875 110.62223L361.7875 116.18473L362.94376 116.18473L362.94376 117.15348L361.7875 117.15348L361.7875 119.21598L360.725 119.21598ZM360.725 116.18473L360.725 112.325356L358.0375 116.18473L360.725 116.18473ZM364.35 116.96598L365.45938 116.87223Q365.58438 117.68473 366.02188 118.09098Q366.475 118.49723 367.11563 118.49723Q367.86563 118.49723 368.39688 117.919106Q368.92813 117.34098 368.92813 116.40348Q368.92813 115.49723 368.4125 114.981606Q367.9125 114.450356 367.08438 114.450356Q366.58438 114.450356 366.1625 114.68473Q365.75626 114.919106 365.52188 115.27848L364.5375 115.15348L365.36563 110.74723L369.64688 110.74723L369.64688 111.74723L366.20938 111.74723L365.75626 114.05973Q366.52188 113.512856 367.36563 113.512856Q368.49063 113.512856 369.25626 114.294106Q370.0375 115.075356 370.0375 116.30973Q370.0375 117.46598 369.36563 118.325356Q368.5375 119.356606 367.11563 119.356606Q365.94376 119.356606 365.19376 118.700356Q364.45938 118.044106 364.35 116.96598ZM371.94376 119.21598L371.94376 118.012856L373.14688 118.012856L373.14688 119.21598L371.94376 119.21598ZM374.35 116.96598L375.45938 116.87223Q375.58438 117.68473 376.02188 118.09098Q376.475 118.49723 377.11563 118.49723Q377.86563 118.49723 378.39688 117.919106Q378.92813 117.34098 378.92813 116.40348Q378.92813 115.49723 378.4125 114.981606Q377.9125 114.450356 377.08438 114.450356Q376.58438 114.450356 376.1625 114.68473Q375.75626 114.919106 375.52188 115.27848L374.5375 115.15348L375.36563 110.74723L379.64688 110.74723L379.64688 111.74723L376.20938 111.74723L375.75626 114.05973Q376.52188 113.512856 377.36563 113.512856Q378.49063 113.512856 379.25626 114.294106Q380.0375 115.075356 380.0375 116.30973Q380.0375 117.46598 379.36563 118.325356Q378.5375 119.356606 377.11563 119.356606Q375.94376 119.356606 375.19376 118.700356Q374.45938 118.044106 374.35 116.96598ZM381.55313 112.68473Q381.55313 111.762856 382.00626 111.12223Q382.475 110.481606 383.35 110.481606Q384.1625 110.481606 384.69376 111.05973Q385.225 111.637856 385.225 112.74723Q385.225 113.84098 384.67813 114.43473Q384.14688 115.012856 383.36563 115.012856Q382.58438 115.012856 382.06876 114.43473Q381.55313 113.856606 381.55313 112.68473ZM383.38126 111.200356Q382.99063 111.200356 382.725 111.544106Q382.475 111.887856 382.475 112.794106Q382.475 113.62223 382.725 113.96598Q382.99063 114.294106 383.38126 114.294106Q383.7875 114.294106 384.0375 113.950356Q384.30313 113.606606 384.30313 112.71598Q384.30313 111.87223 384.0375 111.544106Q383.77188 111.200356 383.38126 111.200356ZM383.38126 119.52848L388.08438 110.481606L388.94376 110.481606L384.25626 119.52848L383.38126 119.52848ZM387.1 117.200356Q387.1 116.27848 387.55313 115.637856Q388.02188 114.99723 388.9125 114.99723Q389.725 114.99723 390.25626 115.575356Q390.7875 116.137856 390.7875 117.262856Q390.7875 118.356606 390.24063 118.950356Q389.70938 119.52848 388.9125 119.52848Q388.14688 119.52848 387.61563 118.950356Q387.1 118.37223 387.1 117.200356ZM388.94376 115.71598Q388.5375 115.71598 388.27188 116.05973Q388.02188 116.40348 388.02188 117.30973Q388.02188 118.12223 388.2875 118.46598Q388.55313 118.80973 388.94376 118.80973Q389.33438 118.80973 389.6 118.46598Q389.86563 118.12223 389.86563 117.21598Q389.86563 116.387856 389.6 116.05973Q389.33438 115.71598 388.94376 115.71598Z" fill-rule="nonzero"/><path stroke="#757575" stroke-width="1.0" stroke-linecap="butt" d="M391.85 106.71598L317.35 106.71598L304.82513 106.71598" fill-rule="nonzero"/><path fill="#9e9e9e" d="M306.82513 106.71598C306.82513 105.61141 305.9297 104.71598 304.82513 104.71598C303.72055 104.71598 302.82513 105.61141 302.82513 106.71598C302.82513 107.82055 303.72055 108.71598 304.82513 108.71598C305.9297 108.71598 306.82513 107.82055 306.82513 106.71598" fill-rule="nonzero"/></svg>