<svg version="1.1" viewBox="0.0 0.0 404.0 266.0" fill="none" stroke="none" stroke-linecap="square" stroke-miterlimit="10" width="404" height="266" xmlns:xlink="http://www.w3.org/1999/xlink" xmlns="http://www.w3.org/2000/svg"><path fill="#ffffff" d="M0 0L404.0 0L404.0 266.0L0 266.0L0 0Z" fill-rule="nonzero"/><path fill="#4285f4" d="M202.0 46.166668C237.14299 46.166668 269.87372 64.038994 288.87344 93.60316C307.8732 123.16733 310.5336 160.36467 295.93466 192.33186L202.0 149.43333Z" fill-rule="nonzero"/><path fill="#fbbc04" d="M172.90642 248.51697C123.63137 234.04851 92.475815 185.56953 99.78444 134.73695C107.09306 83.90437 150.6447 46.166668 202.0 46.166668L202.0 149.43333Z" fill-rule="nonzero"/><path fill="#ea4335" d="M295.93466 192.33186C274.6009 239.04628 222.18147 262.98544 172.90642 248.51697L202.0 149.43333Z" fill-rule="nonzero"/><path fill="#1a1a1a" d="M13.284375 130.97177L16.58125 122.37802L17.8 122.37802L21.315624 130.97177L20.034374 130.97177L19.01875 128.3624L15.440625 128.3624L14.4875 130.97177L13.284375 130.97177ZM15.76875 127.44052L18.675 127.44052L17.784374 125.06552Q17.3625 123.9874 17.175 123.28427Q17.003124 124.1124 16.70625 124.9249L15.76875 127.44052Z" fill-rule="nonzero"/><path fill="#9e9e9e" d="M17.175 147.97177L17.175 145.90927L13.45625 145.90927L13.45625 144.94052L17.378124 139.37802L18.2375 139.37802L18.2375 144.94052L19.39375 144.94052L19.39375 145.90927L18.2375 145.90927L18.2375 147.97177L17.175 147.97177ZM17.175 144.94052L17.175 141.08115L14.4875 144.94052L17.175 144.94052ZM20.8 145.72177L21.909374 145.62802Q22.034374 146.44052 22.471874 146.84677Q22.925 147.25302 23.565624 147.25302Q24.315624 147.25302 24.846874 146.6749Q25.378124 146.09677 25.378124 145.15927Q25.378124 144.25302 24.8625 143.7374Q24.3625 143.20615 23.534374 143.20615Q23.034374 143.20615 22.6125 143.44052Q22.20625 143.6749 21.971874 144.03427L20.9875 143.90927L21.815624 139.50302L26.096874 139.50302L26.096874 140.50302L22.659374 140.50302L22.20625 142.81552Q22.971874 142.26865 23.815624 142.26865Q24.940624 142.26865 25.70625 143.0499Q26.4875 143.83115 26.4875 145.06552Q26.4875 146.22177 25.815624 147.08115Q24.9875 148.1124 23.565624 148.1124Q22.39375 148.1124 21.64375 147.45615Q20.909374 146.7999 20.8 145.72177ZM28.39375 147.97177L28.39375 146.76865L29.596874 146.76865L29.596874 147.97177L28.39375 147.97177ZM30.8 145.72177L31.909374 145.62802Q32.034374 146.44052 32.471874 146.84677Q32.925 147.25302 33.565624 147.25302Q34.315624 147.25302 34.846874 146.6749Q35.378124 146.09677 35.378124 145.15927Q35.378124 144.25302 34.8625 143.7374Q34.3625 143.20615 33.534374 143.20615Q33.034374 143.20615 32.6125 143.44052Q32.20625 143.6749 31.971874 144.03427L30.9875 143.90927L31.815624 139.50302L36.096874 139.50302L36.096874 140.50302L32.659374 140.50302L32.20625 142.81552Q32.971874 142.26865 33.815624 142.26865Q34.940624 142.26865 35.70625 143.0499Q36.4875 143.83115 36.4875 145.06552Q36.4875 146.22177 35.815624 147.08115Q34.9875 148.1124 33.565624 148.1124Q32.39375 148.1124 31.64375 147.45615Q30.909374 146.7999 30.8 145.72177ZM38.003124 141.44052Q38.003124 140.51865 38.45625 139.87802Q38.925 139.2374 39.8 139.2374Q40.6125 139.2374 41.14375 139.81552Q41.675 140.39365 41.675 141.50302Q41.675 142.59677 41.128124 143.19052Q40.596874 143.76865 39.815624 143.76865Q39.034374 143.76865 38.51875 143.19052Q38.003124 142.6124 38.003124 141.44052ZM39.83125 139.95615Q39.440624 139.95615 39.175 140.2999Q38.925 140.64365 38.925 141.5499Q38.925 142.37802 39.175 142.72177Q39.440624 143.0499 39.83125 143.0499Q40.2375 143.0499 40.4875 142.70615Q40.753124 142.3624 40.753124 141.47177Q40.753124 140.62802 40.4875 140.2999Q40.221874 139.95615 39.83125 139.95615ZM39.83125 148.28427L44.534374 139.2374L45.39375 139.2374L40.70625 148.28427L39.83125 148.28427ZM43.55 145.95615Q43.55 145.03427 44.003124 144.39365Q44.471874 143.75302 45.3625 143.75302Q46.175 143.75302 46.70625 144.33115Q47.2375 144.89365 47.2375 146.01865Q47.2375 147.1124 46.690624 147.70615Q46.159374 148.28427 45.3625 148.28427Q44.596874 148.28427 44.065624 147.70615Q43.55 147.12802 43.55 145.95615ZM45.39375 144.47177Q44.9875 144.47177 44.721874 144.81552Q44.471874 145.15927 44.471874 146.06552Q44.471874 146.87802 44.7375 147.22177Q45.003124 147.56552 45.39375 147.56552Q45.784374 147.56552 46.05 147.22177Q46.315624 146.87802 46.315624 145.97177Q46.315624 145.14365 46.05 144.81552Q45.784374 144.47177 45.39375 144.47177Z" fill-rule="nonzero"/><path stroke="#757575" stroke-width="1.0" stroke-linecap="butt" d="M13.3 135.47177L92.73333 135.47177L104.89522 135.47177" fill-rule="nonzero"/><path fill="#9e9e9e" d="M106.89522 135.47177C106.89522 134.3672 105.99979 133.47177 104.89522 133.47177C103.79065 133.47177 102.89522 134.3672 102.89522 135.47177C102.89522 136.57634 103.79065 137.47177 104.89522 137.47177C105.99979 137.47177 106.89522 136.57634 106.89522 135.47177" fill-rule="nonzero"/><path fill="#1a1a1a" d="M383.575 91.89467L383.575 83.30092L386.8094 83.30092Q387.79376 83.30092 388.3875 83.56654Q388.98126 83.83217 389.3094 84.37904Q389.65314 84.91029 389.65314 85.50404Q389.65314 86.05092 389.35626 86.53529Q389.0594 87.01967 388.45 87.31654Q389.23126 87.55092 389.6375 88.11342Q390.0594 88.66029 390.0594 89.41029Q390.0594 90.00404 389.8094 90.53529Q389.5594 91.05092 389.1844 91.33217Q388.8094 91.61342 388.23126 91.75404Q387.66876 91.89467 386.85626 91.89467L383.575 91.89467ZM384.71564 86.91029L386.575 86.91029Q387.325 86.91029 387.65314 86.81654Q388.09064 86.69154 388.3094 86.39467Q388.52814 86.08217 388.52814 85.62904Q388.52814 85.20717 388.325 84.87904Q388.1219 84.55092 387.73126 84.44154Q387.35626 84.31654 386.4344 84.31654L384.71564 84.31654L384.71564 86.91029ZM384.71564 90.87904L386.85626 90.87904Q387.40314 90.87904 387.6219 90.83217Q388.02814 90.76967 388.27814 90.61342Q388.54376 90.44154 388.71564 90.12904Q388.8875 89.81654 388.8875 89.41029Q388.8875 88.92592 388.6375 88.56654Q388.40314 88.20717 387.96564 88.06654Q387.52814 87.92592 386.7 87.92592L384.71564 87.92592L384.71564 90.87904Z" fill-rule="nonzero"/><path fill="#9e9e9e" d="M356.2 106.62904L357.2625 106.48842Q357.4344 107.37904 357.8719 107.78529Q358.3094 108.17592 358.9344 108.17592Q359.6844 108.17592 360.2 107.66029Q360.71564 107.14467 360.71564 106.37904Q360.71564 105.66029 360.23126 105.19154Q359.7625 104.70717 359.02814 104.70717Q358.73126 104.70717 358.27814 104.83217L358.40314 103.89467Q358.5125 103.91029 358.575 103.91029Q359.2469 103.91029 359.77814 103.56654Q360.325 103.20717 360.325 102.47279Q360.325 101.89467 359.9344 101.51967Q359.54376 101.12904 358.91876 101.12904Q358.3094 101.12904 357.8875 101.51967Q357.48126 101.91029 357.3719 102.67592L356.3094 102.48842Q356.4969 101.44154 357.1844 100.86342Q357.8719 100.26967 358.8875 100.26967Q359.59064 100.26967 360.1844 100.58217Q360.77814 100.87904 361.09064 101.39467Q361.40314 101.91029 361.40314 102.50404Q361.40314 103.05092 361.10626 103.51967Q360.8094 103.97279 360.23126 104.23842Q360.98126 104.41029 361.40314 104.97279Q361.825 105.51967 361.825 106.36342Q361.825 107.48842 360.9969 108.26967Q360.1844 109.05092 358.9344 109.05092Q357.8094 109.05092 357.0594 108.37904Q356.3094 107.69154 356.2 106.62904ZM367.16876 108.89467L366.1219 108.89467L366.1219 102.17592Q365.73126 102.53529 365.10626 102.91029Q364.4969 103.26967 364.0125 103.44154L364.0125 102.42592Q364.8875 102.00404 365.54376 101.42592Q366.21564 100.83217 366.4969 100.26967L367.16876 100.26967L367.16876 108.89467ZM370.79376 108.89467L370.79376 107.69154L371.9969 107.69154L371.9969 108.89467L370.79376 108.89467ZM374.825 104.23842Q374.16876 103.98842 373.84064 103.55092Q373.52814 103.09779 373.52814 102.48842Q373.52814 101.55092 374.2 100.91029Q374.8875 100.26967 375.9969 100.26967Q377.1219 100.26967 377.8094 100.92592Q378.4969 101.58217 378.4969 102.51967Q378.4969 103.11342 378.1844 103.55092Q377.8719 103.98842 377.23126 104.23842Q378.02814 104.48842 378.4344 105.06654Q378.84064 105.64467 378.84064 106.44154Q378.84064 107.53529 378.0594 108.28529Q377.29376 109.03529 376.0125 109.03529Q374.7469 109.03529 373.96564 108.28529Q373.1844 107.53529 373.1844 106.41029Q373.1844 105.56654 373.60626 105.00404Q374.04376 104.44154 374.825 104.23842ZM374.60626 102.44154Q374.60626 103.05092 374.9969 103.44154Q375.40314 103.83217 376.02814 103.83217Q376.6375 103.83217 377.02814 103.45717Q377.41876 103.06654 377.41876 102.50404Q377.41876 101.92592 377.0125 101.53529Q376.60626 101.12904 376.0125 101.12904Q375.40314 101.12904 374.9969 101.51967Q374.60626 101.91029 374.60626 102.44154ZM374.27814 106.41029Q374.27814 106.86342 374.48126 107.28529Q374.7 107.70717 375.1219 107.94154Q375.54376 108.17592 376.02814 108.17592Q376.77814 108.17592 377.2625 107.69154Q377.7625 107.20717 377.7625 106.45717Q377.7625 105.69154 377.2625 105.19154Q376.7625 104.69154 375.9969 104.69154Q375.2469 104.69154 374.7625 105.19154Q374.27814 105.67592 374.27814 106.41029ZM380.40314 102.36342Q380.40314 101.44154 380.85626 100.80092Q381.325 100.16029 382.2 100.16029Q383.0125 100.16029 383.54376 100.73842Q384.075 101.31654 384.075 102.42592Q384.075 103.51967 383.52814 104.11342Q382.9969 104.69154 382.21564 104.69154Q381.4344 104.69154 380.91876 104.11342Q380.40314 103.53529 380.40314 102.36342ZM382.23126 100.87904Q381.84064 100.87904 381.575 101.22279Q381.325 101.56654 381.325 102.47279Q381.325 103.30092 381.575 103.64467Q381.84064 103.97279 382.23126 103.97279Q382.6375 103.97279 382.8875 103.62904Q383.15314 103.28529 383.15314 102.39467Q383.15314 101.55092 382.8875 101.22279Q382.6219 100.87904 382.23126 100.87904ZM382.23126 109.20717L386.9344 100.16029L387.79376 100.16029L383.10626 109.20717L382.23126 109.20717ZM385.95 106.87904Q385.95 105.95717 386.40314 105.31654Q386.8719 104.67592 387.7625 104.67592Q388.575 104.67592 389.10626 105.25404Q389.6375 105.81654 389.6375 106.94154Q389.6375 108.03529 389.09064 108.62904Q388.5594 109.20717 387.7625 109.20717Q386.9969 109.20717 386.46564 108.62904Q385.95 108.05092 385.95 106.87904ZM387.79376 105.39467Q387.3875 105.39467 387.1219 105.73842Q386.8719 106.08217 386.8719 106.98842Q386.8719 107.80092 387.1375 108.14467Q387.40314 108.48842 387.79376 108.48842Q388.1844 108.48842 388.45 108.14467Q388.71564 107.80092 388.71564 106.89467Q388.71564 106.06654 388.45 105.73842Q388.1844 105.39467 387.79376 105.39467Z" fill-rule="nonzero"/><path stroke="#757575" stroke-width="1.0" stroke-linecap="butt" d="M390.7 96.39467L311.26666 96.39467L284.5298 96.39467" fill-rule="nonzero"/><path fill="#9e9e9e" d="M286.5298 96.39467C286.5298 95.2901 285.63434 94.39467 284.5298 94.39467C283.4252 94.39467 282.5298 95.2901 282.5298 96.39467C282.5298 97.49924 283.4252 98.39467 284.5298 98.39467C285.63434 98.39467 286.5298 97.49924 286.5298 96.39467" fill-rule="nonzero"/><path fill="#1a1a1a" d="M388.7625 229.68437L389.8875 229.98125Q389.52814 231.37187 388.60626 232.10625Q387.6844 232.84062 386.34064 232.84062Q384.95 232.84062 384.075 232.27812Q383.2 231.71562 382.7469 230.65312Q382.29376 229.575 382.29376 228.34062Q382.29376 226.99687 382.8094 225.99687Q383.325 224.99687 384.2625 224.48125Q385.21564 223.96562 386.35626 223.96562Q387.6375 223.96562 388.5125 224.62187Q389.40314 225.27812 389.7469 226.46562L388.6219 226.73125Q388.325 225.79375 387.7469 225.37187Q387.1844 224.93437 386.325 224.93437Q385.34064 224.93437 384.66876 225.41875Q384.0125 225.8875 383.73126 226.68437Q383.46564 227.48125 383.46564 228.34062Q383.46564 229.43437 383.77814 230.24687Q384.10626 231.05937 384.77814 231.46562Q385.45 231.87187 386.2469 231.87187Q387.2 231.87187 387.85626 231.325Q388.52814 230.77812 388.7625 229.68437Z" fill-rule="nonzero"/><path fill="#9e9e9e" d="M361.7469 248.68437L361.7469 249.7L356.0594 249.7Q356.0594 249.325 356.1844 248.96562Q356.40314 248.3875 356.8719 247.825Q357.35626 247.2625 358.2625 246.52812Q359.66876 245.37187 360.15314 244.7Q360.65314 244.02812 360.65314 243.43437Q360.65314 242.80937 360.2 242.3875Q359.7469 241.95 359.02814 241.95Q358.2625 241.95 357.8094 242.40312Q357.35626 242.85625 357.34064 243.66875L356.2625 243.55937Q356.3719 242.34062 357.09064 241.71562Q357.825 241.075 359.0594 241.075Q360.29376 241.075 361.0125 241.7625Q361.73126 242.45 361.73126 243.46562Q361.73126 243.98125 361.5125 244.48125Q361.3094 244.96562 360.8094 245.52812Q360.325 246.075 359.2 247.02812Q358.2469 247.825 357.96564 248.12187Q357.7 248.40312 357.52814 248.68437L361.7469 248.68437ZM368.7469 248.68437L368.7469 249.7L363.0594 249.7Q363.0594 249.325 363.1844 248.96562Q363.40314 248.3875 363.8719 247.825Q364.35626 247.2625 365.2625 246.52812Q366.66876 245.37187 367.15314 244.7Q367.65314 244.02812 367.65314 243.43437Q367.65314 242.80937 367.2 242.3875Q366.7469 241.95 366.02814 241.95Q365.2625 241.95 364.8094 242.40312Q364.35626 242.85625 364.34064 243.66875L363.2625 243.55937Q363.3719 242.34062 364.09064 241.71562Q364.825 241.075 366.0594 241.075Q367.29376 241.075 368.0125 241.7625Q368.73126 242.45 368.73126 243.46562Q368.73126 243.98125 368.5125 244.48125Q368.3094 244.96562 367.8094 245.52812Q367.325 246.075 366.2 247.02812Q365.2469 247.825 364.96564 248.12187Q364.7 248.40312 364.52814 248.68437L368.7469 248.68437ZM370.79376 249.7L370.79376 248.49687L371.9969 248.49687L371.9969 249.7L370.79376 249.7ZM373.2625 242.23125L373.2625 241.21562L378.825 241.21562L378.825 242.04375Q378.0125 242.91875 377.2 244.37187Q376.40314 245.80937 375.96564 247.34062Q375.6375 248.41875 375.5594 249.7L374.46564 249.7Q374.48126 248.68437 374.85626 247.24687Q375.2469 245.80937 375.95 244.48125Q376.66876 243.15312 377.48126 242.23125L373.2625 242.23125ZM380.40314 243.16875Q380.40314 242.24687 380.85626 241.60625Q381.325 240.96562 382.2 240.96562Q383.0125 240.96562 383.54376 241.54375Q384.075 242.12187 384.075 243.23125Q384.075 244.325 383.52814 244.91875Q382.9969 245.49687 382.21564 245.49687Q381.4344 245.49687 380.91876 244.91875Q380.40314 244.34062 380.40314 243.16875ZM382.23126 241.68437Q381.84064 241.68437 381.575 242.02812Q381.325 242.37187 381.325 243.27812Q381.325 244.10625 381.575 244.45Q381.84064 244.77812 382.23126 244.77812Q382.6375 244.77812 382.8875 244.43437Q383.15314 244.09062 383.15314 243.2Q383.15314 242.35625 382.8875 242.02812Q382.6219 241.68437 382.23126 241.68437ZM382.23126 250.0125L386.9344 240.96562L387.79376 240.96562L383.10626 250.0125L382.23126 250.0125ZM385.95 247.68437Q385.95 246.7625 386.40314 246.12187Q386.8719 245.48125 387.7625 245.48125Q388.575 245.48125 389.10626 246.05937Q389.6375 246.62187 389.6375 247.74687Q389.6375 248.84062 389.09064 249.43437Q388.5594 250.0125 387.7625 250.0125Q386.9969 250.0125 386.46564 249.43437Q385.95 248.85625 385.95 247.68437ZM387.79376 246.2Q387.3875 246.2 387.1219 246.54375Q386.8719 246.8875 386.8719 247.79375Q386.8719 248.60625 387.1375 248.95Q387.40314 249.29375 387.79376 249.29375Q388.1844 249.29375 388.45 248.95Q388.71564 248.60625 388.71564 247.7Q388.71564 246.87187 388.45 246.54375Q388.1844 246.2 387.79376 246.2Z" fill-rule="nonzero"/><path stroke="#757575" stroke-width="1.0" stroke-linecap="butt" d="M390.7 237.2L311.26666 237.2L242.7536 238.67126" fill-rule="nonzero"/><path fill="#9e9e9e" d="M244.7536 238.67126C244.7536 237.5667 243.85817 236.67126 242.7536 236.67126C241.64903 236.67126 240.7536 237.5667 240.7536 238.67126C240.7536 239.77583 241.64903 240.67126 242.7536 240.67126C243.85817 240.67126 244.7536 239.77583 244.7536 238.67126" fill-rule="nonzero"/><path fill="#757575" d="M20.753124 32.3L18.9875 32.3L18.9875 21.096874Q18.3625 21.70625 17.33125 22.315624Q16.3 22.909374 15.471875 23.221874L15.471875 21.51875Q16.95625 20.83125 18.05 19.846874Q19.159374 18.846874 19.6125 17.925L20.753124 17.925L20.753124 32.3ZM26.1125 32.3L26.1125 30.3L28.1125 30.3L28.1125 32.3L26.1125 32.3ZM37.76875 32.3L37.76875 17.9875L43.14375 17.9875Q44.784374 17.9875 45.76875 18.425Q46.753124 18.846874 47.315624 19.753124Q47.878124 20.659374 47.878124 21.64375Q47.878124 22.565624 47.378124 23.378124Q46.89375 24.190624 45.878124 24.675Q47.175 25.065624 47.878124 25.9875Q48.58125 26.89375 48.58125 28.14375Q48.58125 29.159374 48.14375 30.01875Q47.721874 30.878124 47.096874 31.346874Q46.471874 31.815624 45.534374 32.065624Q44.596874 32.3 43.221874 32.3L37.76875 32.3ZM39.659374 24.003124L42.753124 24.003124Q44.01875 24.003124 44.565624 23.83125Q45.284374 23.6125 45.64375 23.128124Q46.01875 22.628124 46.01875 21.8625Q46.01875 21.159374 45.675 20.6125Q45.33125 20.065624 44.690624 19.878124Q44.065624 19.675 42.51875 19.675L39.659374 19.675L39.659374 24.003124ZM39.659374 30.6125L43.221874 30.6125Q44.14375 30.6125 44.51875 30.534374Q45.175 30.425 45.6125 30.159374Q46.05 29.878124 46.33125 29.3625Q46.6125 28.83125 46.6125 28.14375Q46.6125 27.346874 46.20625 26.753124Q45.8 26.159374 45.065624 25.925Q44.33125 25.690624 42.971874 25.690624L39.659374 25.690624L39.659374 30.6125ZM57.39375 31.01875Q56.409374 31.846874 55.503124 32.190624Q54.596874 32.534374 53.565624 32.534374Q51.8625 32.534374 50.940624 31.70625Q50.01875 30.8625 50.01875 29.565624Q50.01875 28.8 50.3625 28.175Q50.721874 27.55 51.284374 27.175Q51.846874 26.784374 52.55 26.58125Q53.065624 26.45625 54.1125 26.315624Q56.2375 26.065624 57.2375 25.721874Q57.253124 25.3625 57.253124 25.253124Q57.253124 24.190624 56.753124 23.7375Q56.08125 23.14375 54.753124 23.14375Q53.503124 23.14375 52.909374 23.58125Q52.33125 24.01875 52.05 25.128124L50.33125 24.89375Q50.565624 23.784374 51.096874 23.1125Q51.628124 22.425 52.64375 22.065624Q53.659374 21.690624 55.003124 21.690624Q56.33125 21.690624 57.159374 22.003124Q57.9875 22.315624 58.378124 22.8Q58.76875 23.26875 58.925 23.9875Q59.01875 24.440624 59.01875 25.6125L59.01875 27.95625Q59.01875 30.409374 59.128124 31.065624Q59.2375 31.70625 59.58125 32.3L57.7375 32.3Q57.471874 31.753124 57.39375 31.01875ZM57.2375 27.096874Q56.284374 27.4875 54.3625 27.753124Q53.284374 27.909374 52.83125 28.1125Q52.39375 28.3 52.14375 28.675Q51.89375 29.05 51.89375 29.51875Q51.89375 30.221874 52.425 30.690624Q52.95625 31.159374 53.9875 31.159374Q55.003124 31.159374 55.784374 30.721874Q56.58125 30.26875 56.95625 29.503124Q57.2375 28.89375 57.2375 27.7375L57.2375 27.096874ZM53.76875 35.471874L53.76875 33.471874L55.76875 33.471874L55.76875 35.471874L53.76875 35.471874ZM61.6125 32.3L61.6125 21.925L63.20625 21.925L63.20625 23.409374Q64.34688 21.690624 66.50313 21.690624Q67.44063 21.690624 68.22188 22.034374Q69.01875 22.3625 69.40938 22.909374Q69.8 23.45625 69.95625 24.20625Q70.05 24.70625 70.05 25.925L70.05 32.3L68.28438 32.3L68.28438 25.9875Q68.28438 24.909374 68.08125 24.378124Q67.87813 23.846874 67.34688 23.534374Q66.83125 23.221874 66.12813 23.221874Q65.00313 23.221874 64.19063 23.940624Q63.378124 24.64375 63.378124 26.628124L63.378124 32.3L61.6125 32.3ZM77.6125 32.3L77.6125 17.9875L79.37813 17.9875L79.37813 23.1125Q80.6125 21.690624 82.4875 21.690624Q83.62813 21.690624 84.47188 22.14375Q85.33125 22.596874 85.69063 23.409374Q86.06563 24.20625 86.06563 25.721874L86.06563 32.3L84.31563 32.3L84.31563 25.721874Q84.31563 24.409374 83.7375 23.815624Q83.15938 23.20625 82.12813 23.20625Q81.34688 23.20625 80.64375 23.6125Q79.95625 24.01875 79.65938 24.721874Q79.37813 25.409374 79.37813 26.628124L79.37813 32.3L77.6125 32.3ZM97.20625 23.971874L97.20625 21.925L99.08125 21.925L99.08125 23.534374Q99.08125 25.065624 98.7375 25.675Q97.83125 27.2375 95.9875 27.440624L95.9875 32.3L94.40938 32.3L94.40938 30.76875Q93.20625 32.534374 91.12813 32.534374Q90.22188 32.534374 89.425 32.190624Q88.62813 31.846874 88.2375 31.315624Q87.84688 30.76875 87.69063 29.9875Q87.58125 29.471874 87.58125 28.346874L87.58125 21.925L89.33125 21.925L89.33125 27.675Q89.33125 29.08125 89.44063 29.534374Q89.78438 31.01875 91.47188 31.01875Q92.28438 31.01875 92.97188 30.6125Q93.65938 30.20625 93.94063 29.51875Q94.2375 28.815624 94.2375 27.4875L94.2375 21.925L95.9875 21.925L95.9875 26.690624Q97.22188 26.471874 97.84688 25.534374Q98.1125 25.128124 98.1125 23.971874L97.20625 23.971874ZM90.72188 20.64375L92.01875 17.909374L94.31563 17.909374L92.175 20.64375L90.72188 20.64375ZM100.6125 32.3L100.6125 21.925L102.20625 21.925L102.20625 23.409374Q103.34688 21.690624 105.50313 21.690624Q106.44063 21.690624 107.22188 22.034374Q108.01875 22.3625 108.40938 22.909374Q108.8 23.45625 108.95625 24.20625Q109.05 24.70625 109.05 25.925L109.05 32.3L107.28438 32.3L107.28438 25.9875Q107.28438 24.909374 107.08125 24.378124Q106.87813 23.846874 106.34688 23.534374Q105.83125 23.221874 105.12813 23.221874Q104.00313 23.221874 103.19063 23.940624Q102.37813 24.64375 102.37813 26.628124L102.37813 32.3L100.6125 32.3ZM110.3 33.159374L112.00313 33.409374Q112.1125 34.20625 112.59688 34.565624Q113.25313 35.05 114.39375 35.05Q115.6125 35.05 116.26875 34.565624Q116.94063 34.08125 117.175 33.20625Q117.31563 32.659374 117.3 30.940624Q116.14375 32.3 114.425 32.3Q112.28438 32.3 111.1125 30.753124Q109.94063 29.20625 109.94063 27.05Q109.94063 25.565624 110.47188 24.315624Q111.01875 23.065624 112.03438 22.378124Q113.06563 21.690624 114.44063 21.690624Q116.26875 21.690624 117.47188 23.175L117.47188 21.925L119.08125 21.925L119.08125 30.89375Q119.08125 33.315624 118.58125 34.315624Q118.09688 35.33125 117.01875 35.909374Q115.95625 36.503124 114.39375 36.503124Q112.55 36.503124 111.39375 35.675Q110.25313 34.846874 110.3 33.159374ZM111.75313 26.925Q111.75313 28.971874 112.56563 29.909374Q113.37813 30.846874 114.59688 30.846874Q115.8 30.846874 116.6125 29.909374Q117.44063 28.971874 117.44063 26.9875Q117.44063 25.08125 116.59688 24.1125Q115.75313 23.14375 114.56563 23.14375Q113.39375 23.14375 112.56563 24.096874Q111.75313 25.05 111.75313 26.925ZM131.45625 30.721874L131.70625 32.284374Q130.97188 32.440624 130.37813 32.440624Q129.425 32.440624 128.89375 32.14375Q128.37813 31.83125 128.15938 31.346874Q127.94063 30.846874 127.94063 29.26875L127.94063 23.3L126.65938 23.3L126.65938 21.925L127.94063 21.925L127.94063 19.3625L129.69063 18.3L129.69063 21.925L131.45625 21.925L131.45625 23.3L129.69063 23.3L129.69063 29.3625Q129.69063 30.1125 129.78438 30.33125Q129.87813 30.534374 130.08125 30.675Q130.3 30.8 130.69063 30.8Q130.97188 30.8 131.45625 30.721874ZM133.6125 32.3L133.6125 17.9875L135.37813 17.9875L135.37813 23.1125Q136.6125 21.690624 138.4875 21.690624Q139.62813 21.690624 140.47188 22.14375Q141.33125 22.596874 141.69063 23.409374Q142.06563 24.20625 142.06563 25.721874L142.06563 32.3L140.31563 32.3L140.31563 25.721874Q140.31563 24.409374 139.7375 23.815624Q139.15938 23.20625 138.12813 23.20625Q137.34688 23.20625 136.64375 23.6125Q135.95625 24.01875 135.65938 24.721874Q135.37813 25.409374 135.37813 26.628124L135.37813 32.3L133.6125 32.3ZM150.40938 32.3L150.40938 30.76875Q149.20625 32.534374 147.12813 32.534374Q146.20625 32.534374 145.40938 32.190624Q144.6125 31.83125 144.22188 31.3Q143.84688 30.76875 143.69063 29.9875Q143.58125 29.471874 143.58125 28.346874L143.58125 21.925L145.33125 21.925L145.33125 27.675Q145.33125 29.05 145.44063 29.534374Q145.6125 30.221874 146.14375 30.628124Q146.69063 31.01875 147.47188 31.01875Q148.26875 31.01875 148.95625 30.6125Q149.65938 30.20625 149.94063 29.51875Q150.2375 28.815624 150.2375 27.4875L150.2375 21.925L151.9875 21.925L151.9875 32.3L150.40938 32.3ZM146.72188 20.64375L148.01875 17.909374L150.31563 17.909374L148.175 20.64375L146.72188 20.64375ZM162.50313 32.3L158.55 21.925L160.40938 21.925L162.64375 28.14375Q163.00313 29.14375 163.3 30.221874Q163.53438 29.409374 163.95625 28.253124L166.25313 21.925L168.06563 21.925L164.14375 32.3L162.50313 32.3ZM169.76875 27.1125Q169.76875 29.034374 170.64375 30.096874Q171.45625 31.08125 172.83125 31.08125Q174.19063 31.08125 175.00313 30.096874Q175.87813 29.034374 175.87813 27.05Q175.87813 25.190624 175.00313 24.14375Q174.175 23.14375 172.83125 23.14375Q171.45625 23.14375 170.64375 24.128124Q169.76875 25.190624 169.76875 27.1125ZM177.90938 23.721874L177.90938 21.675L179.8 21.675L179.8 23.284374Q179.8 24.503124 179.425 25.14375Q178.95625 25.9875 177.675 26.690624Q177.675 26.815624 177.675 26.971874Q177.675 30.596874 175.33125 31.89375Q174.19063 32.534374 172.83125 32.534374Q170.59688 32.534374 169.3 31.14375Q167.97188 29.690624 167.97188 27.1125Q167.97188 24.2375 169.56563 22.846874Q170.90938 21.690624 172.83125 21.690624Q174.97188 21.690624 176.33125 23.096874Q177.34688 24.159374 177.59688 25.83125Q178.26875 25.425 178.55 24.9875Q178.84688 24.55 178.83125 23.721874L177.90938 23.721874ZM171.8625 20.64375L173.15938 17.909374L175.45625 17.909374L173.31563 20.64375L171.8625 20.64375ZM181.62813 20.003124L181.62813 17.9875L183.39375 17.9875L183.39375 20.003124L181.62813 20.003124ZM181.62813 32.3L181.62813 21.925L183.39375 21.925L183.39375 32.3L181.62813 32.3ZM195.45625 30.721874L195.70625 32.284374Q194.97188 32.440624 194.37813 32.440624Q193.425 32.440624 192.89375 32.14375Q192.37813 31.83125 192.15938 31.346874Q191.94063 30.846874 191.94063 29.26875L191.94063 23.3L190.65938 23.3L190.65938 21.925L191.94063 21.925L191.94063 19.3625L193.69063 18.3L193.69063 21.925L195.45625 21.925L195.45625 23.3L193.69063 23.3L193.69063 29.3625Q193.69063 30.1125 193.78438 30.33125Q193.87813 30.534374 194.08125 30.675Q194.3 30.8 194.69063 30.8Q194.97188 30.8 195.45625 30.721874ZM197.6125 32.3L197.6125 17.9875L199.37813 17.9875L199.37813 23.1125Q200.6125 21.690624 202.4875 21.690624Q203.62813 21.690624 204.47188 22.14375Q205.33125 22.596874 205.69063 23.409374Q206.06563 24.20625 206.06563 25.721874L206.06563 32.3L204.31563 32.3L204.31563 25.721874Q204.31563 24.409374 203.7375 23.815624Q203.15938 23.20625 202.12813 23.20625Q201.34688 23.20625 200.64375 23.6125Q199.95625 24.01875 199.65938 24.721874Q199.37813 25.409374 199.37813 26.628124L199.37813 32.3L197.6125 32.3ZM214.72188 28.95625L216.53438 29.190624Q216.1125 30.76875 214.94063 31.659374Q213.78438 32.534374 211.97188 32.534374Q209.70625 32.534374 208.3625 31.14375Q207.03438 29.7375 207.03438 27.20625Q207.03438 24.58125 208.37813 23.14375Q209.72188 21.690624 211.87813 21.690624Q213.95625 21.690624 215.26875 23.1125Q216.59688 24.51875 216.59688 27.096874Q216.59688 27.253124 216.58125 27.565624L208.84688 27.565624Q208.94063 29.26875 209.81563 30.175Q210.69063 31.08125 211.9875 31.08125Q212.95625 31.08125 213.62813 30.58125Q214.31563 30.065624 214.72188 28.95625ZM208.94063 26.1125L214.7375 26.1125Q214.62813 24.815624 214.08125 24.159374Q213.2375 23.14375 211.89375 23.14375Q210.69063 23.14375 209.8625 23.95625Q209.03438 24.753124 208.94063 26.1125ZM211.83125 18.971874L210.72188 20.64375L208.72188 20.64375L210.83125 17.909374L212.70625 17.909374L214.89375 20.64375L212.90938 20.64375L211.83125 18.971874ZM211.25313 16.440624Q211.81563 16.378124 211.97188 16.33125Q212.4875 16.20625 212.50313 15.924999Q212.50313 15.706249 212.22188 15.549999Q211.81563 15.331249 210.925 15.331249Q210.62813 15.331249 210.00313 15.362499L209.90938 14.440624Q210.28438 14.362499 211.31563 14.378124Q212.50313 14.393749 213.26875 14.768749Q214.1125 15.174999 214.12813 15.831249Q214.175 16.815624 212.34688 17.05L212.34688 17.534374L211.25313 17.534374L211.25313 16.440624ZM224.58125 32.3L224.58125 17.9875L226.33125 17.9875L226.33125 32.3L224.58125 32.3ZM227.97188 27.1125Q227.97188 24.2375 229.56563 22.846874Q230.90938 21.690624 232.83125 21.690624Q234.97188 21.690624 236.31563 23.096874Q237.675 24.503124 237.675 26.971874Q237.675 28.971874 237.08125 30.128124Q236.4875 31.26875 235.33125 31.909374Q234.19063 32.534374 232.83125 32.534374Q230.64375 32.534374 229.3 31.14375Q227.97188 29.7375 227.97188 27.1125ZM229.76875 27.1125Q229.76875 29.1125 230.62813 30.096874Q231.50313 31.08125 232.83125 31.08125Q234.14375 31.08125 235.00313 30.096874Q235.87813 29.096874 235.87813 27.05Q235.87813 25.128124 235.00313 24.14375Q234.12813 23.14375 232.83125 23.14375Q231.50313 23.14375 230.62813 24.14375Q229.76875 25.128124 229.76875 27.1125ZM246.39375 31.01875Q245.40938 31.846874 244.50313 32.190624Q243.59688 32.534374 242.56563 32.534374Q240.8625 32.534374 239.94063 31.70625Q239.01875 30.8625 239.01875 29.565624Q239.01875 28.8 239.3625 28.175Q239.72188 27.55 240.28438 27.175Q240.84688 26.784374 241.55 26.58125Q242.06563 26.45625 243.1125 26.315624Q245.2375 26.065624 246.2375 25.721874Q246.25313 25.3625 246.25313 25.253124Q246.25313 24.190624 245.75313 23.7375Q245.08125 23.14375 243.75313 23.14375Q242.50313 23.14375 241.90938 23.58125Q241.33125 24.01875 241.05 25.128124L239.33125 24.89375Q239.56563 23.784374 240.09688 23.1125Q240.62813 22.425 241.64375 22.065624Q242.65938 21.690624 244.00313 21.690624Q245.33125 21.690624 246.15938 22.003124Q246.9875 22.315624 247.37813 22.8Q247.76875 23.26875 247.925 23.9875Q248.01875 24.440624 248.01875 25.6125L248.01875 27.95625Q248.01875 30.409374 248.12813 31.065624Q248.2375 31.70625 248.58125 32.3L246.7375 32.3Q246.47188 31.753124 246.39375 31.01875ZM246.2375 27.096874Q245.28438 27.4875 243.3625 27.753124Q242.28438 27.909374 241.83125 28.1125Q241.39375 28.3 241.14375 28.675Q240.89375 29.05 240.89375 29.51875Q240.89375 30.221874 241.425 30.690624Q241.95625 31.159374 242.9875 31.159374Q244.00313 31.159374 244.78438 30.721874Q245.58125 30.26875 245.95625 29.503124Q246.2375 28.89375 246.2375 27.7375L246.2375 27.096874ZM242.76875 35.471874L242.76875 33.471874L244.76875 33.471874L244.76875 35.471874L242.76875 35.471874ZM250.62813 20.003124L250.62813 17.9875L252.39375 17.9875L252.39375 20.003124L250.62813 20.003124ZM250.62813 32.3L250.62813 21.925L252.39375 21.925L252.39375 32.3L250.62813 32.3ZM260.6125 32.3L260.6125 21.925L262.20624 21.925L262.20624 23.409374Q263.34686 21.690624 265.5031 21.690624Q266.4406 21.690624 267.22186 22.034374Q268.01874 22.3625 268.40936 22.909374Q268.8 23.45625 268.95624 24.20625Q269.05 24.70625 269.05 25.925L269.05 32.3L267.28436 32.3L267.28436 25.9875Q267.28436 24.909374 267.08124 24.378124Q266.8781 23.846874 266.34686 23.534374Q265.83124 23.221874 265.1281 23.221874Q264.0031 23.221874 263.1906 23.940624Q262.3781 24.64375 262.3781 26.628124L262.3781 32.3L260.6125 32.3ZM269.97186 27.1125Q269.97186 24.2375 271.5656 22.846874Q272.90936 21.690624 274.83124 21.690624Q276.97186 21.690624 278.3156 23.096874Q279.675 24.503124 279.675 26.971874Q279.675 28.971874 279.08124 30.128124Q278.4875 31.26875 277.33124 31.909374Q276.1906 32.534374 274.83124 32.534374Q272.64374 32.534374 271.3 31.14375Q269.97186 29.7375 269.97186 27.1125ZM271.76874 27.1125Q271.76874 29.1125 272.6281 30.096874Q273.5031 31.08125 274.83124 31.08125Q276.14374 31.08125 277.0031 30.096874Q277.8781 29.096874 277.8781 27.05Q277.8781 25.128124 277.0031 24.14375Q276.1281 23.14375 274.83124 23.14375Q273.5031 23.14375 272.6281 24.14375Q271.76874 25.128124 271.76874 27.1125ZM274.84686 18.971874L273.7375 20.64375L271.7375 20.64375L273.84686 17.909374L275.72186 17.909374L277.90936 20.64375L275.925 20.64375L274.84686 18.971874ZM273.7531 35.471874L273.7531 33.471874L275.7531 33.471874L275.7531 35.471874L273.7531 35.471874ZM281.6281 20.003124L281.6281 17.9875L283.39374 17.9875L283.39374 20.003124L281.6281 20.003124ZM281.6281 32.3L281.6281 21.925L283.39374 21.925L283.39374 32.3L281.6281 32.3ZM298.34686 32.3L298.34686 30.9875Q297.3625 32.534374 295.4406 32.534374Q294.20624 32.534374 293.15936 31.846874Q292.1281 31.159374 291.55 29.940624Q290.9875 28.721874 290.9875 27.128124Q290.9875 25.565624 291.5031 24.3Q292.01874 23.034374 293.05 22.3625Q294.09686 21.690624 295.3625 21.690624Q296.3 21.690624 297.03436 22.096874Q297.76874 22.4875 298.2375 23.1125L298.2375 17.9875L299.97186 17.9875L299.97186 32.3L298.34686 32.3ZM292.78436 27.128124Q292.78436 29.1125 293.6281 30.096874Q294.47186 31.08125 295.6125 31.08125Q296.76874 31.08125 297.5656 30.14375Q298.3781 29.20625 298.3781 27.26875Q298.3781 25.14375 297.55 24.14375Q296.7375 23.14375 295.53436 23.14375Q294.3625 23.14375 293.5656 24.1125Q292.78436 25.065624 292.78436 27.128124ZM309.40936 32.3L309.40936 30.76875Q308.20624 32.534374 306.1281 32.534374Q305.20624 32.534374 304.40936 32.190624Q303.6125 31.83125 303.22186 31.3Q302.84686 30.76875 302.6906 29.9875Q302.58124 29.471874 302.58124 28.346874L302.58124 21.925L304.33124 21.925L304.33124 27.675Q304.33124 29.05 304.4406 29.534374Q304.6125 30.221874 305.14374 30.628124Q305.6906 31.01875 306.47186 31.01875Q307.26874 31.01875 307.95624 30.6125Q308.65936 30.20625 308.9406 29.51875Q309.2375 28.815624 309.2375 27.4875L309.2375 21.925L310.9875 21.925L310.9875 32.3L309.40936 32.3ZM312.6125 32.3L312.6125 21.925L314.20624 21.925L314.20624 23.409374Q315.34686 21.690624 317.5031 21.690624Q318.4406 21.690624 319.22186 22.034374Q320.01874 22.3625 320.40936 22.909374Q320.8 23.45625 320.95624 24.20625Q321.05 24.70625 321.05 25.925L321.05 32.3L319.28436 32.3L319.28436 25.9875Q319.28436 24.909374 319.08124 24.378124Q318.8781 23.846874 318.34686 23.534374Q317.83124 23.221874 317.1281 23.221874Q316.0031 23.221874 315.1906 23.940624Q314.3781 24.64375 314.3781 26.628124L314.3781 32.3L312.6125 32.3ZM322.3 33.159374L324.0031 33.409374Q324.1125 34.20625 324.59686 34.565624Q325.2531 35.05 326.39374 35.05Q327.6125 35.05 328.26874 34.565624Q328.9406 34.08125 329.175 33.20625Q329.3156 32.659374 329.3 30.940624Q328.14374 32.3 326.425 32.3Q324.28436 32.3 323.1125 30.753124Q321.9406 29.20625 321.9406 27.05Q321.9406 25.565624 322.47186 24.315624Q323.01874 23.065624 324.03436 22.378124Q325.0656 21.690624 326.4406 21.690624Q328.26874 21.690624 329.47186 23.175L329.47186 21.925L331.08124 21.925L331.08124 30.89375Q331.08124 33.315624 330.58124 34.315624Q330.09686 35.33125 329.01874 35.909374Q327.95624 36.503124 326.39374 36.503124Q324.55 36.503124 323.39374 35.675Q322.2531 34.846874 322.3 33.159374ZM323.7531 26.925Q323.7531 28.971874 324.5656 29.909374Q325.3781 30.846874 326.59686 30.846874Q327.8 30.846874 328.6125 29.909374Q329.4406 28.971874 329.4406 26.9875Q329.4406 25.08125 328.59686 24.1125Q327.7531 23.14375 326.5656 23.14375Q325.39374 23.14375 324.5656 24.096874Q323.7531 25.05 323.7531 26.925ZM339.6125 32.3L339.6125 21.925L341.20624 21.925L341.20624 23.409374Q342.34686 21.690624 344.5031 21.690624Q345.4406 21.690624 346.22186 22.034374Q347.01874 22.3625 347.40936 22.909374Q347.8 23.45625 347.95624 24.20625Q348.05 24.70625 348.05 25.925L348.05 32.3L346.28436 32.3L346.28436 25.9875Q346.28436 24.909374 346.08124 24.378124Q345.8781 23.846874 345.34686 23.534374Q344.83124 23.221874 344.1281 23.221874Q343.0031 23.221874 342.1906 23.940624Q341.3781 24.64375 341.3781 26.628124L341.3781 32.3L339.6125 32.3ZM356.39374 31.01875Q355.40936 31.846874 354.5031 32.190624Q353.59686 32.534374 352.5656 32.534374Q350.8625 32.534374 349.9406 31.70625Q349.01874 30.8625 349.01874 29.565624Q349.01874 28.8 349.3625 28.175Q349.72186 27.55 350.28436 27.175Q350.84686 26.784374 351.55 26.58125Q352.0656 26.45625 353.1125 26.315624Q355.2375 26.065624 356.2375 25.721874Q356.2531 25.3625 356.2531 25.253124Q356.2531 24.190624 355.7531 23.7375Q355.08124 23.14375 353.7531 23.14375Q352.5031 23.14375 351.90936 23.58125Q351.33124 24.01875 351.05 25.128124L349.33124 24.89375Q349.5656 23.784374 350.09686 23.1125Q350.6281 22.425 351.64374 22.065624Q352.65936 21.690624 354.0031 21.690624Q355.33124 21.690624 356.15936 22.003124Q356.9875 22.315624 357.3781 22.8Q357.76874 23.26875 357.925 23.9875Q358.01874 24.440624 358.01874 25.6125L358.01874 27.95625Q358.01874 30.409374 358.1281 31.065624Q358.2375 31.70625 358.58124 32.3L356.7375 32.3Q356.47186 31.753124 356.39374 31.01875ZM356.2375 27.096874Q355.28436 27.4875 353.3625 27.753124Q352.28436 27.909374 351.83124 28.1125Q351.39374 28.3 351.14374 28.675Q350.89374 29.05 350.89374 29.51875Q350.89374 30.221874 351.425 30.690624Q351.95624 31.159374 352.9875 31.159374Q354.0031 31.159374 354.78436 30.721874Q355.58124 30.26875 355.95624 29.503124Q356.2375 28.89375 356.2375 27.7375L356.2375 27.096874ZM355.28436 20.64375L353.8625 20.64375L351.6125 17.909374L353.95624 17.909374L355.28436 20.64375ZM359.97186 27.1125Q359.97186 24.2375 361.5656 22.846874Q362.90936 21.690624 364.83124 21.690624Q366.97186 21.690624 368.3156 23.096874Q369.675 24.503124 369.675 26.971874Q369.675 28.971874 369.08124 30.128124Q368.4875 31.26875 367.33124 31.909374Q366.1906 32.534374 364.83124 32.534374Q362.64374 32.534374 361.3 31.14375Q359.97186 29.7375 359.97186 27.1125ZM361.76874 27.1125Q361.76874 29.1125 362.6281 30.096874Q363.5031 31.08125 364.83124 31.08125Q366.14374 31.08125 367.0031 30.096874Q367.8781 29.096874 367.8781 27.05Q367.8781 25.128124 367.0031 24.14375Q366.1281 23.14375 364.83124 23.14375Q363.5031 23.14375 362.6281 24.14375Q361.76874 25.128124 361.76874 27.1125ZM374.90936 28.76875Q374.89374 28.425 374.89374 28.253124Q374.89374 27.20625 375.1906 26.45625Q375.40936 25.89375 375.89374 25.315624Q376.2375 24.89375 377.14374 24.096874Q378.0656 23.284374 378.33124 22.815624Q378.6125 22.33125 378.6125 21.76875Q378.6125 20.7375 377.8 19.971874Q377.0031 19.190624 375.84686 19.190624Q374.72186 19.190624 373.97186 19.89375Q373.22186 20.596874 372.9875 22.08125L371.175 21.8625Q371.425 19.8625 372.6281 18.8Q373.83124 17.7375 375.8156 17.7375Q377.925 17.7375 379.175 18.878124Q380.425 20.01875 380.425 21.64375Q380.425 22.58125 379.97186 23.378124Q379.53436 24.159374 378.2531 25.3Q377.39374 26.065624 377.1281 26.425Q376.8781 26.784374 376.7375 27.253124Q376.6125 27.721874 376.59686 28.76875L374.90936 28.76875ZM374.8 32.3L374.8 30.3L376.8 30.3L376.8 32.3L374.8 32.3Z" fill-rule="nonzero"/></svg>